  0
SECTION
  2
BLOCKS
  0
ENDSEC
  0
SECTION
  2
ENTITIES
  0
LINE
  8
0
 10
-95
 11
-95
 20
-75
 21
-29.567
  0
LINE
  8
0
 10
-95
 11
-94.379
 20
-29.567
 21
-29.469
  0
LINE
  8
0
 10
-94.379
 11
-92.539
 20
-29.469
 21
-29.057
  0
LINE
  8
0
 10
-92.539
 11
-90.729
 20
-29.057
 21
-28.532
  0
LINE
  8
0
 10
-90.729
 11
-88.956
 20
-28.532
 21
-27.893
  0
LINE
  8
0
 10
-88.956
 11
-87.227
 20
-27.893
 21
-27.145
  0
LINE
  8
0
 10
-87.227
 11
-85.547
 20
-27.145
 21
-26.289
  0
LINE
  8
0
 10
-85.547
 11
-83.925
 20
-26.289
 21
-25.33
  0
LINE
  8
0
 10
-83.925
 11
-82.366
 20
-25.33
 21
-24.271
  0
LINE
  8
0
 10
-82.366
 11
-80.877
 20
-24.271
 21
-23.115
  0
LINE
  8
0
 10
-80.877
 11
-79.464
 20
-23.115
 21
-21.869
  0
LINE
  8
0
 10
-79.464
 11
-78.131
 20
-21.869
 21
-20.536
  0
LINE
  8
0
 10
-78.131
 11
-76.885
 20
-20.536
 21
-19.123
  0
LINE
  8
0
 10
-76.885
 11
-75.729
 20
-19.123
 21
-17.634
  0
LINE
  8
0
 10
-75.729
 11
-74.67
 20
-17.634
 21
-16.075
  0
LINE
  8
0
 10
-74.67
 11
-73.711
 20
-16.075
 21
-14.453
  0
LINE
  8
0
 10
-73.711
 11
-72.855
 20
-14.453
 21
-12.773
  0
LINE
  8
0
 10
-72.855
 11
-72.107
 20
-12.773
 21
-11.044
  0
LINE
  8
0
 10
-72.107
 11
-71.468
 20
-11.044
 21
-9.271
  0
LINE
  8
0
 10
-71.468
 11
-70.943
 20
-9.271
 21
-7.461
  0
LINE
  8
0
 10
-70.943
 11
-70.531
 20
-7.461
 21
-5.621
  0
LINE
  8
0
 10
-70.531
 11
-70.237
 20
-5.621
 21
-3.76
  0
LINE
  8
0
 10
-70.237
 11
-70.059
 20
-3.76
 21
-1.884
  0
LINE
  8
0
 10
-70.059
 11
-70
 20
-1.884
 21
0
  0
LINE
  8
0
 10
-70
 11
-70.059
 20
0
 21
1.884
  0
LINE
  8
0
 10
-70.059
 11
-70.237
 20
1.884
 21
3.76
  0
LINE
  8
0
 10
-70.237
 11
-70.531
 20
3.76
 21
5.621
  0
LINE
  8
0
 10
-70.531
 11
-70.943
 20
5.621
 21
7.461
  0
LINE
  8
0
 10
-70.943
 11
-71.468
 20
7.461
 21
9.271
  0
LINE
  8
0
 10
-71.468
 11
-72.107
 20
9.271
 21
11.044
  0
LINE
  8
0
 10
-72.107
 11
-72.855
 20
11.044
 21
12.773
  0
LINE
  8
0
 10
-72.855
 11
-73.711
 20
12.773
 21
14.453
  0
LINE
  8
0
 10
-73.711
 11
-74.67
 20
14.453
 21
16.075
  0
LINE
  8
0
 10
-74.67
 11
-75.729
 20
16.075
 21
17.634
  0
LINE
  8
0
 10
-75.729
 11
-76.885
 20
17.634
 21
19.123
  0
LINE
  8
0
 10
-76.885
 11
-78.131
 20
19.123
 21
20.536
  0
LINE
  8
0
 10
-78.131
 11
-79.464
 20
20.536
 21
21.869
  0
LINE
  8
0
 10
-79.464
 11
-80.877
 20
21.869
 21
23.115
  0
LINE
  8
0
 10
-80.877
 11
-82.366
 20
23.115
 21
24.271
  0
LINE
  8
0
 10
-82.366
 11
-83.925
 20
24.271
 21
25.33
  0
LINE
  8
0
 10
-83.925
 11
-85.547
 20
25.33
 21
26.289
  0
LINE
  8
0
 10
-85.547
 11
-87.227
 20
26.289
 21
27.145
  0
LINE
  8
0
 10
-87.227
 11
-88.956
 20
27.145
 21
27.893
  0
LINE
  8
0
 10
-88.956
 11
-90.729
 20
27.893
 21
28.532
  0
LINE
  8
0
 10
-90.729
 11
-92.539
 20
28.532
 21
29.057
  0
LINE
  8
0
 10
-92.539
 11
-94.379
 20
29.057
 21
29.469
  0
LINE
  8
0
 10
-94.379
 11
-95
 20
29.469
 21
29.567
  0
LINE
  8
0
 10
-95
 11
-95
 20
29.567
 21
75
  0
LINE
  8
0
 10
-95
 11
-94.961
 20
75
 21
76.256
  0
LINE
  8
0
 10
-94.961
 11
-94.842
 20
76.256
 21
77.507
  0
LINE
  8
0
 10
-94.842
 11
-94.646
 20
77.507
 21
78.748
  0
LINE
  8
0
 10
-94.646
 11
-94.372
 20
78.748
 21
79.974
  0
LINE
  8
0
 10
-94.372
 11
-94.021
 20
79.974
 21
81.18
  0
LINE
  8
0
 10
-94.021
 11
-93.596
 20
81.18
 21
82.362
  0
LINE
  8
0
 10
-93.596
 11
-93.097
 20
82.362
 21
83.516
  0
LINE
  8
0
 10
-93.097
 11
-92.526
 20
83.516
 21
84.635
  0
LINE
  8
0
 10
-92.526
 11
-91.887
 20
84.635
 21
85.717
  0
LINE
  8
0
 10
-91.887
 11
-91.18
 20
85.717
 21
86.756
  0
LINE
  8
0
 10
-91.18
 11
-90.41
 20
86.756
 21
87.748
  0
LINE
  8
0
 10
-90.41
 11
-89.579
 20
87.748
 21
88.691
  0
LINE
  8
0
 10
-89.579
 11
-88.691
 20
88.691
 21
89.579
  0
LINE
  8
0
 10
-88.691
 11
-87.748
 20
89.579
 21
90.41
  0
LINE
  8
0
 10
-87.748
 11
-86.756
 20
90.41
 21
91.18
  0
LINE
  8
0
 10
-86.756
 11
-85.717
 20
91.18
 21
91.887
  0
LINE
  8
0
 10
-85.717
 11
-84.635
 20
91.887
 21
92.526
  0
LINE
  8
0
 10
-84.635
 11
-83.516
 20
92.526
 21
93.097
  0
LINE
  8
0
 10
-83.516
 11
-82.362
 20
93.097
 21
93.596
  0
LINE
  8
0
 10
-82.362
 11
-81.18
 20
93.596
 21
94.021
  0
LINE
  8
0
 10
-81.18
 11
-79.974
 20
94.021
 21
94.372
  0
LINE
  8
0
 10
-79.974
 11
-78.748
 20
94.372
 21
94.646
  0
LINE
  8
0
 10
-78.748
 11
-77.507
 20
94.646
 21
94.842
  0
LINE
  8
0
 10
-77.507
 11
-76.256
 20
94.842
 21
94.961
  0
LINE
  8
0
 10
-76.256
 11
-75
 20
94.961
 21
95
  0
LINE
  8
0
 10
-75
 11
75
 20
95
 21
95
  0
LINE
  8
0
 10
75
 11
76.256
 20
95
 21
94.961
  0
LINE
  8
0
 10
76.256
 11
77.507
 20
94.961
 21
94.842
  0
LINE
  8
0
 10
77.507
 11
78.748
 20
94.842
 21
94.646
  0
LINE
  8
0
 10
78.748
 11
79.974
 20
94.646
 21
94.372
  0
LINE
  8
0
 10
79.974
 11
81.18
 20
94.372
 21
94.021
  0
LINE
  8
0
 10
81.18
 11
82.362
 20
94.021
 21
93.596
  0
LINE
  8
0
 10
82.362
 11
83.516
 20
93.596
 21
93.097
  0
LINE
  8
0
 10
83.516
 11
84.635
 20
93.097
 21
92.526
  0
LINE
  8
0
 10
84.635
 11
85.717
 20
92.526
 21
91.887
  0
LINE
  8
0
 10
85.717
 11
86.756
 20
91.887
 21
91.18
  0
LINE
  8
0
 10
86.756
 11
87.748
 20
91.18
 21
90.41
  0
LINE
  8
0
 10
87.748
 11
88.691
 20
90.41
 21
89.579
  0
LINE
  8
0
 10
88.691
 11
89.579
 20
89.579
 21
88.691
  0
LINE
  8
0
 10
89.579
 11
90.41
 20
88.691
 21
87.748
  0
LINE
  8
0
 10
90.41
 11
91.18
 20
87.748
 21
86.756
  0
LINE
  8
0
 10
91.18
 11
91.887
 20
86.756
 21
85.717
  0
LINE
  8
0
 10
91.887
 11
92.526
 20
85.717
 21
84.635
  0
LINE
  8
0
 10
92.526
 11
93.097
 20
84.635
 21
83.516
  0
LINE
  8
0
 10
93.097
 11
93.596
 20
83.516
 21
82.362
  0
LINE
  8
0
 10
93.596
 11
94.021
 20
82.362
 21
81.18
  0
LINE
  8
0
 10
94.021
 11
94.372
 20
81.18
 21
79.974
  0
LINE
  8
0
 10
94.372
 11
94.646
 20
79.974
 21
78.748
  0
LINE
  8
0
 10
94.646
 11
94.842
 20
78.748
 21
77.507
  0
LINE
  8
0
 10
94.842
 11
94.961
 20
77.507
 21
76.256
  0
LINE
  8
0
 10
94.961
 11
95
 20
76.256
 21
75
  0
LINE
  8
0
 10
95
 11
95
 20
75
 21
16.5
  0
LINE
  8
0
 10
95
 11
45
 20
16.5
 21
16.5
  0
LINE
  8
0
 10
45
 11
44.686
 20
16.5
 21
16.49
  0
LINE
  8
0
 10
44.686
 11
44.373
 20
16.49
 21
16.461
  0
LINE
  8
0
 10
44.373
 11
44.063
 20
16.461
 21
16.411
  0
LINE
  8
0
 10
44.063
 11
43.757
 20
16.411
 21
16.343
  0
LINE
  8
0
 10
43.757
 11
43.455
 20
16.343
 21
16.255
  0
LINE
  8
0
 10
43.455
 11
43.159
 20
16.255
 21
16.149
  0
LINE
  8
0
 10
43.159
 11
42.871
 20
16.149
 21
16.024
  0
LINE
  8
0
 10
42.871
 11
42.591
 20
16.024
 21
15.882
  0
LINE
  8
0
 10
42.591
 11
42.321
 20
15.882
 21
15.722
  0
LINE
  8
0
 10
42.321
 11
42.061
 20
15.722
 21
15.545
  0
LINE
  8
0
 10
42.061
 11
41.813
 20
15.545
 21
15.353
  0
LINE
  8
0
 10
41.813
 11
41.577
 20
15.353
 21
15.145
  0
LINE
  8
0
 10
41.577
 11
41.355
 20
15.145
 21
14.923
  0
LINE
  8
0
 10
41.355
 11
41.147
 20
14.923
 21
14.687
  0
LINE
  8
0
 10
41.147
 11
40.955
 20
14.687
 21
14.439
  0
LINE
  8
0
 10
40.955
 11
40.778
 20
14.439
 21
14.179
  0
LINE
  8
0
 10
40.778
 11
40.618
 20
14.179
 21
13.909
  0
LINE
  8
0
 10
40.618
 11
40.476
 20
13.909
 21
13.629
  0
LINE
  8
0
 10
40.476
 11
40.351
 20
13.629
 21
13.341
  0
LINE
  8
0
 10
40.351
 11
40.245
 20
13.341
 21
13.045
  0
LINE
  8
0
 10
40.245
 11
40.157
 20
13.045
 21
12.743
  0
LINE
  8
0
 10
40.157
 11
40.089
 20
12.743
 21
12.437
  0
LINE
  8
0
 10
40.089
 11
40.039
 20
12.437
 21
12.127
  0
LINE
  8
0
 10
40.039
 11
40.01
 20
12.127
 21
11.814
  0
LINE
  8
0
 10
40.01
 11
40
 20
11.814
 21
11.5
  0
LINE
  8
0
 10
40
 11
40
 20
11.5
 21
-11.5
  0
LINE
  8
0
 10
40
 11
40.01
 20
-11.5
 21
-11.814
  0
LINE
  8
0
 10
40.01
 11
40.039
 20
-11.814
 21
-12.127
  0
LINE
  8
0
 10
40.039
 11
40.089
 20
-12.127
 21
-12.437
  0
LINE
  8
0
 10
40.089
 11
40.157
 20
-12.437
 21
-12.743
  0
LINE
  8
0
 10
40.157
 11
40.245
 20
-12.743
 21
-13.045
  0
LINE
  8
0
 10
40.245
 11
40.351
 20
-13.045
 21
-13.341
  0
LINE
  8
0
 10
40.351
 11
40.476
 20
-13.341
 21
-13.629
  0
LINE
  8
0
 10
40.476
 11
40.618
 20
-13.629
 21
-13.909
  0
LINE
  8
0
 10
40.618
 11
40.778
 20
-13.909
 21
-14.179
  0
LINE
  8
0
 10
40.778
 11
40.955
 20
-14.179
 21
-14.439
  0
LINE
  8
0
 10
40.955
 11
41.147
 20
-14.439
 21
-14.687
  0
LINE
  8
0
 10
41.147
 11
41.355
 20
-14.687
 21
-14.923
  0
LINE
  8
0
 10
41.355
 11
41.577
 20
-14.923
 21
-15.145
  0
LINE
  8
0
 10
41.577
 11
41.813
 20
-15.145
 21
-15.353
  0
LINE
  8
0
 10
41.813
 11
42.061
 20
-15.353
 21
-15.545
  0
LINE
  8
0
 10
42.061
 11
42.321
 20
-15.545
 21
-15.722
  0
LINE
  8
0
 10
42.321
 11
42.591
 20
-15.722
 21
-15.882
  0
LINE
  8
0
 10
42.591
 11
42.871
 20
-15.882
 21
-16.024
  0
LINE
  8
0
 10
42.871
 11
43.159
 20
-16.024
 21
-16.149
  0
LINE
  8
0
 10
43.159
 11
43.455
 20
-16.149
 21
-16.255
  0
LINE
  8
0
 10
43.455
 11
43.757
 20
-16.255
 21
-16.343
  0
LINE
  8
0
 10
43.757
 11
44.063
 20
-16.343
 21
-16.411
  0
LINE
  8
0
 10
44.063
 11
44.373
 20
-16.411
 21
-16.461
  0
LINE
  8
0
 10
44.373
 11
44.686
 20
-16.461
 21
-16.49
  0
LINE
  8
0
 10
44.686
 11
45
 20
-16.49
 21
-16.5
  0
LINE
  8
0
 10
45
 11
95
 20
-16.5
 21
-16.5
  0
LINE
  8
0
 10
95
 11
95
 20
-16.5
 21
-75
  0
LINE
  8
0
 10
95
 11
94.961
 20
-75
 21
-76.256
  0
LINE
  8
0
 10
94.961
 11
94.842
 20
-76.256
 21
-77.507
  0
LINE
  8
0
 10
94.842
 11
94.646
 20
-77.507
 21
-78.748
  0
LINE
  8
0
 10
94.646
 11
94.372
 20
-78.748
 21
-79.974
  0
LINE
  8
0
 10
94.372
 11
94.021
 20
-79.974
 21
-81.18
  0
LINE
  8
0
 10
94.021
 11
93.596
 20
-81.18
 21
-82.362
  0
LINE
  8
0
 10
93.596
 11
93.097
 20
-82.362
 21
-83.516
  0
LINE
  8
0
 10
93.097
 11
92.526
 20
-83.516
 21
-84.635
  0
LINE
  8
0
 10
92.526
 11
91.887
 20
-84.635
 21
-85.717
  0
LINE
  8
0
 10
91.887
 11
91.18
 20
-85.717
 21
-86.756
  0
LINE
  8
0
 10
91.18
 11
90.41
 20
-86.756
 21
-87.748
  0
LINE
  8
0
 10
90.41
 11
89.579
 20
-87.748
 21
-88.691
  0
LINE
  8
0
 10
89.579
 11
88.691
 20
-88.691
 21
-89.579
  0
LINE
  8
0
 10
88.691
 11
87.748
 20
-89.579
 21
-90.41
  0
LINE
  8
0
 10
87.748
 11
86.756
 20
-90.41
 21
-91.18
  0
LINE
  8
0
 10
86.756
 11
85.717
 20
-91.18
 21
-91.887
  0
LINE
  8
0
 10
85.717
 11
84.635
 20
-91.887
 21
-92.526
  0
LINE
  8
0
 10
84.635
 11
83.516
 20
-92.526
 21
-93.097
  0
LINE
  8
0
 10
83.516
 11
82.362
 20
-93.097
 21
-93.596
  0
LINE
  8
0
 10
82.362
 11
81.18
 20
-93.596
 21
-94.021
  0
LINE
  8
0
 10
81.18
 11
79.974
 20
-94.021
 21
-94.372
  0
LINE
  8
0
 10
79.974
 11
78.748
 20
-94.372
 21
-94.646
  0
LINE
  8
0
 10
78.748
 11
77.507
 20
-94.646
 21
-94.842
  0
LINE
  8
0
 10
77.507
 11
76.256
 20
-94.842
 21
-94.961
  0
LINE
  8
0
 10
76.256
 11
75
 20
-94.961
 21
-95
  0
LINE
  8
0
 10
75
 11
-75
 20
-95
 21
-95
  0
LINE
  8
0
 10
-75
 11
-76.256
 20
-95
 21
-94.961
  0
LINE
  8
0
 10
-76.256
 11
-77.507
 20
-94.961
 21
-94.842
  0
LINE
  8
0
 10
-77.507
 11
-78.748
 20
-94.842
 21
-94.646
  0
LINE
  8
0
 10
-78.748
 11
-79.974
 20
-94.646
 21
-94.372
  0
LINE
  8
0
 10
-79.974
 11
-81.18
 20
-94.372
 21
-94.021
  0
LINE
  8
0
 10
-81.18
 11
-82.362
 20
-94.021
 21
-93.596
  0
LINE
  8
0
 10
-82.362
 11
-83.516
 20
-93.596
 21
-93.097
  0
LINE
  8
0
 10
-83.516
 11
-84.635
 20
-93.097
 21
-92.526
  0
LINE
  8
0
 10
-84.635
 11
-85.717
 20
-92.526
 21
-91.887
  0
LINE
  8
0
 10
-85.717
 11
-86.756
 20
-91.887
 21
-91.18
  0
LINE
  8
0
 10
-86.756
 11
-87.748
 20
-91.18
 21
-90.41
  0
LINE
  8
0
 10
-87.748
 11
-88.691
 20
-90.41
 21
-89.579
  0
LINE
  8
0
 10
-88.691
 11
-89.579
 20
-89.579
 21
-88.691
  0
LINE
  8
0
 10
-89.579
 11
-90.41
 20
-88.691
 21
-87.748
  0
LINE
  8
0
 10
-90.41
 11
-91.18
 20
-87.748
 21
-86.756
  0
LINE
  8
0
 10
-91.18
 11
-91.887
 20
-86.756
 21
-85.717
  0
LINE
  8
0
 10
-91.887
 11
-92.526
 20
-85.717
 21
-84.635
  0
LINE
  8
0
 10
-92.526
 11
-93.097
 20
-84.635
 21
-83.516
  0
LINE
  8
0
 10
-93.097
 11
-93.596
 20
-83.516
 21
-82.362
  0
LINE
  8
0
 10
-93.596
 11
-94.021
 20
-82.362
 21
-81.18
  0
LINE
  8
0
 10
-94.021
 11
-94.372
 20
-81.18
 21
-79.974
  0
LINE
  8
0
 10
-94.372
 11
-94.646
 20
-79.974
 21
-78.748
  0
LINE
  8
0
 10
-94.646
 11
-94.842
 20
-78.748
 21
-77.507
  0
LINE
  8
0
 10
-94.842
 11
-94.961
 20
-77.507
 21
-76.256
  0
LINE
  8
0
 10
-94.961
 11
-95
 20
-76.256
 21
-75
  0
LINE
  8
0
 10
-91.5
 11
-91.497
 20
-45
 21
-44.906
  0
LINE
  8
0
 10
-91.497
 11
-91.488
 20
-44.906
 21
-44.812
  0
LINE
  8
0
 10
-91.488
 11
-91.473
 20
-44.812
 21
-44.719
  0
LINE
  8
0
 10
-91.473
 11
-91.453
 20
-44.719
 21
-44.627
  0
LINE
  8
0
 10
-91.453
 11
-91.427
 20
-44.627
 21
-44.536
  0
LINE
  8
0
 10
-91.427
 11
-91.395
 20
-44.536
 21
-44.448
  0
LINE
  8
0
 10
-91.395
 11
-91.357
 20
-44.448
 21
-44.361
  0
LINE
  8
0
 10
-91.357
 11
-91.314
 20
-44.361
 21
-44.277
  0
LINE
  8
0
 10
-91.314
 11
-91.266
 20
-44.277
 21
-44.196
  0
LINE
  8
0
 10
-91.266
 11
-91.214
 20
-44.196
 21
-44.118
  0
LINE
  8
0
 10
-91.214
 11
-91.156
 20
-44.118
 21
-44.044
  0
LINE
  8
0
 10
-91.156
 11
-91.093
 20
-44.044
 21
-43.973
  0
LINE
  8
0
 10
-91.093
 11
-91.027
 20
-43.973
 21
-43.907
  0
LINE
  8
0
 10
-91.027
 11
-90.956
 20
-43.907
 21
-43.844
  0
LINE
  8
0
 10
-90.956
 11
-90.882
 20
-43.844
 21
-43.786
  0
LINE
  8
0
 10
-90.882
 11
-90.804
 20
-43.786
 21
-43.734
  0
LINE
  8
0
 10
-90.804
 11
-90.723
 20
-43.734
 21
-43.686
  0
LINE
  8
0
 10
-90.723
 11
-90.639
 20
-43.686
 21
-43.643
  0
LINE
  8
0
 10
-90.639
 11
-90.552
 20
-43.643
 21
-43.605
  0
LINE
  8
0
 10
-90.552
 11
-90.464
 20
-43.605
 21
-43.573
  0
LINE
  8
0
 10
-90.464
 11
-90.373
 20
-43.573
 21
-43.547
  0
LINE
  8
0
 10
-90.373
 11
-90.281
 20
-43.547
 21
-43.527
  0
LINE
  8
0
 10
-90.281
 11
-90.188
 20
-43.527
 21
-43.512
  0
LINE
  8
0
 10
-90.188
 11
-90.094
 20
-43.512
 21
-43.503
  0
LINE
  8
0
 10
-90.094
 11
-90
 20
-43.503
 21
-43.5
  0
LINE
  8
0
 10
-90
 11
-89.906
 20
-43.5
 21
-43.503
  0
LINE
  8
0
 10
-89.906
 11
-89.812
 20
-43.503
 21
-43.512
  0
LINE
  8
0
 10
-89.812
 11
-89.719
 20
-43.512
 21
-43.527
  0
LINE
  8
0
 10
-89.719
 11
-89.627
 20
-43.527
 21
-43.547
  0
LINE
  8
0
 10
-89.627
 11
-89.536
 20
-43.547
 21
-43.573
  0
LINE
  8
0
 10
-89.536
 11
-89.448
 20
-43.573
 21
-43.605
  0
LINE
  8
0
 10
-89.448
 11
-89.361
 20
-43.605
 21
-43.643
  0
LINE
  8
0
 10
-89.361
 11
-89.277
 20
-43.643
 21
-43.686
  0
LINE
  8
0
 10
-89.277
 11
-89.196
 20
-43.686
 21
-43.734
  0
LINE
  8
0
 10
-89.196
 11
-89.118
 20
-43.734
 21
-43.786
  0
LINE
  8
0
 10
-89.118
 11
-89.044
 20
-43.786
 21
-43.844
  0
LINE
  8
0
 10
-89.044
 11
-88.973
 20
-43.844
 21
-43.907
  0
LINE
  8
0
 10
-88.973
 11
-88.907
 20
-43.907
 21
-43.973
  0
LINE
  8
0
 10
-88.907
 11
-88.844
 20
-43.973
 21
-44.044
  0
LINE
  8
0
 10
-88.844
 11
-88.786
 20
-44.044
 21
-44.118
  0
LINE
  8
0
 10
-88.786
 11
-88.734
 20
-44.118
 21
-44.196
  0
LINE
  8
0
 10
-88.734
 11
-88.686
 20
-44.196
 21
-44.277
  0
LINE
  8
0
 10
-88.686
 11
-88.643
 20
-44.277
 21
-44.361
  0
LINE
  8
0
 10
-88.643
 11
-88.605
 20
-44.361
 21
-44.448
  0
LINE
  8
0
 10
-88.605
 11
-88.573
 20
-44.448
 21
-44.536
  0
LINE
  8
0
 10
-88.573
 11
-88.547
 20
-44.536
 21
-44.627
  0
LINE
  8
0
 10
-88.547
 11
-88.527
 20
-44.627
 21
-44.719
  0
LINE
  8
0
 10
-88.527
 11
-88.512
 20
-44.719
 21
-44.812
  0
LINE
  8
0
 10
-88.512
 11
-88.503
 20
-44.812
 21
-44.906
  0
LINE
  8
0
 10
-88.503
 11
-88.5
 20
-44.906
 21
-45
  0
LINE
  8
0
 10
-88.5
 11
-88.503
 20
-45
 21
-45.094
  0
LINE
  8
0
 10
-88.503
 11
-88.512
 20
-45.094
 21
-45.188
  0
LINE
  8
0
 10
-88.512
 11
-88.527
 20
-45.188
 21
-45.281
  0
LINE
  8
0
 10
-88.527
 11
-88.547
 20
-45.281
 21
-45.373
  0
LINE
  8
0
 10
-88.547
 11
-88.573
 20
-45.373
 21
-45.464
  0
LINE
  8
0
 10
-88.573
 11
-88.605
 20
-45.464
 21
-45.552
  0
LINE
  8
0
 10
-88.605
 11
-88.643
 20
-45.552
 21
-45.639
  0
LINE
  8
0
 10
-88.643
 11
-88.686
 20
-45.639
 21
-45.723
  0
LINE
  8
0
 10
-88.686
 11
-88.734
 20
-45.723
 21
-45.804
  0
LINE
  8
0
 10
-88.734
 11
-88.786
 20
-45.804
 21
-45.882
  0
LINE
  8
0
 10
-88.786
 11
-88.844
 20
-45.882
 21
-45.956
  0
LINE
  8
0
 10
-88.844
 11
-88.907
 20
-45.956
 21
-46.027
  0
LINE
  8
0
 10
-88.907
 11
-88.973
 20
-46.027
 21
-46.093
  0
LINE
  8
0
 10
-88.973
 11
-89.044
 20
-46.093
 21
-46.156
  0
LINE
  8
0
 10
-89.044
 11
-89.118
 20
-46.156
 21
-46.214
  0
LINE
  8
0
 10
-89.118
 11
-89.196
 20
-46.214
 21
-46.266
  0
LINE
  8
0
 10
-89.196
 11
-89.277
 20
-46.266
 21
-46.314
  0
LINE
  8
0
 10
-89.277
 11
-89.361
 20
-46.314
 21
-46.357
  0
LINE
  8
0
 10
-89.361
 11
-89.448
 20
-46.357
 21
-46.395
  0
LINE
  8
0
 10
-89.448
 11
-89.536
 20
-46.395
 21
-46.427
  0
LINE
  8
0
 10
-89.536
 11
-89.627
 20
-46.427
 21
-46.453
  0
LINE
  8
0
 10
-89.627
 11
-89.719
 20
-46.453
 21
-46.473
  0
LINE
  8
0
 10
-89.719
 11
-89.812
 20
-46.473
 21
-46.488
  0
LINE
  8
0
 10
-89.812
 11
-89.906
 20
-46.488
 21
-46.497
  0
LINE
  8
0
 10
-89.906
 11
-90
 20
-46.497
 21
-46.5
  0
LINE
  8
0
 10
-90
 11
-90.094
 20
-46.5
 21
-46.497
  0
LINE
  8
0
 10
-90.094
 11
-90.188
 20
-46.497
 21
-46.488
  0
LINE
  8
0
 10
-90.188
 11
-90.281
 20
-46.488
 21
-46.473
  0
LINE
  8
0
 10
-90.281
 11
-90.373
 20
-46.473
 21
-46.453
  0
LINE
  8
0
 10
-90.373
 11
-90.464
 20
-46.453
 21
-46.427
  0
LINE
  8
0
 10
-90.464
 11
-90.552
 20
-46.427
 21
-46.395
  0
LINE
  8
0
 10
-90.552
 11
-90.639
 20
-46.395
 21
-46.357
  0
LINE
  8
0
 10
-90.639
 11
-90.723
 20
-46.357
 21
-46.314
  0
LINE
  8
0
 10
-90.723
 11
-90.804
 20
-46.314
 21
-46.266
  0
LINE
  8
0
 10
-90.804
 11
-90.882
 20
-46.266
 21
-46.214
  0
LINE
  8
0
 10
-90.882
 11
-90.956
 20
-46.214
 21
-46.156
  0
LINE
  8
0
 10
-90.956
 11
-91.027
 20
-46.156
 21
-46.093
  0
LINE
  8
0
 10
-91.027
 11
-91.093
 20
-46.093
 21
-46.027
  0
LINE
  8
0
 10
-91.093
 11
-91.156
 20
-46.027
 21
-45.956
  0
LINE
  8
0
 10
-91.156
 11
-91.214
 20
-45.956
 21
-45.882
  0
LINE
  8
0
 10
-91.214
 11
-91.266
 20
-45.882
 21
-45.804
  0
LINE
  8
0
 10
-91.266
 11
-91.314
 20
-45.804
 21
-45.723
  0
LINE
  8
0
 10
-91.314
 11
-91.357
 20
-45.723
 21
-45.639
  0
LINE
  8
0
 10
-91.357
 11
-91.395
 20
-45.639
 21
-45.552
  0
LINE
  8
0
 10
-91.395
 11
-91.427
 20
-45.552
 21
-45.464
  0
LINE
  8
0
 10
-91.427
 11
-91.453
 20
-45.464
 21
-45.373
  0
LINE
  8
0
 10
-91.453
 11
-91.473
 20
-45.373
 21
-45.281
  0
LINE
  8
0
 10
-91.473
 11
-91.488
 20
-45.281
 21
-45.188
  0
LINE
  8
0
 10
-91.488
 11
-91.497
 20
-45.188
 21
-45.094
  0
LINE
  8
0
 10
-91.497
 11
-91.5
 20
-45.094
 21
-45
  0
LINE
  8
0
 10
-91.5
 11
-91.497
 20
45
 21
45.094
  0
LINE
  8
0
 10
-91.497
 11
-91.488
 20
45.094
 21
45.188
  0
LINE
  8
0
 10
-91.488
 11
-91.473
 20
45.188
 21
45.281
  0
LINE
  8
0
 10
-91.473
 11
-91.453
 20
45.281
 21
45.373
  0
LINE
  8
0
 10
-91.453
 11
-91.427
 20
45.373
 21
45.464
  0
LINE
  8
0
 10
-91.427
 11
-91.395
 20
45.464
 21
45.552
  0
LINE
  8
0
 10
-91.395
 11
-91.357
 20
45.552
 21
45.639
  0
LINE
  8
0
 10
-91.357
 11
-91.314
 20
45.639
 21
45.723
  0
LINE
  8
0
 10
-91.314
 11
-91.266
 20
45.723
 21
45.804
  0
LINE
  8
0
 10
-91.266
 11
-91.214
 20
45.804
 21
45.882
  0
LINE
  8
0
 10
-91.214
 11
-91.156
 20
45.882
 21
45.956
  0
LINE
  8
0
 10
-91.156
 11
-91.093
 20
45.956
 21
46.027
  0
LINE
  8
0
 10
-91.093
 11
-91.027
 20
46.027
 21
46.093
  0
LINE
  8
0
 10
-91.027
 11
-90.956
 20
46.093
 21
46.156
  0
LINE
  8
0
 10
-90.956
 11
-90.882
 20
46.156
 21
46.214
  0
LINE
  8
0
 10
-90.882
 11
-90.804
 20
46.214
 21
46.266
  0
LINE
  8
0
 10
-90.804
 11
-90.723
 20
46.266
 21
46.314
  0
LINE
  8
0
 10
-90.723
 11
-90.639
 20
46.314
 21
46.357
  0
LINE
  8
0
 10
-90.639
 11
-90.552
 20
46.357
 21
46.395
  0
LINE
  8
0
 10
-90.552
 11
-90.464
 20
46.395
 21
46.427
  0
LINE
  8
0
 10
-90.464
 11
-90.373
 20
46.427
 21
46.453
  0
LINE
  8
0
 10
-90.373
 11
-90.281
 20
46.453
 21
46.473
  0
LINE
  8
0
 10
-90.281
 11
-90.188
 20
46.473
 21
46.488
  0
LINE
  8
0
 10
-90.188
 11
-90.094
 20
46.488
 21
46.497
  0
LINE
  8
0
 10
-90.094
 11
-90
 20
46.497
 21
46.5
  0
LINE
  8
0
 10
-90
 11
-89.906
 20
46.5
 21
46.497
  0
LINE
  8
0
 10
-89.906
 11
-89.812
 20
46.497
 21
46.488
  0
LINE
  8
0
 10
-89.812
 11
-89.719
 20
46.488
 21
46.473
  0
LINE
  8
0
 10
-89.719
 11
-89.627
 20
46.473
 21
46.453
  0
LINE
  8
0
 10
-89.627
 11
-89.536
 20
46.453
 21
46.427
  0
LINE
  8
0
 10
-89.536
 11
-89.448
 20
46.427
 21
46.395
  0
LINE
  8
0
 10
-89.448
 11
-89.361
 20
46.395
 21
46.357
  0
LINE
  8
0
 10
-89.361
 11
-89.277
 20
46.357
 21
46.314
  0
LINE
  8
0
 10
-89.277
 11
-89.196
 20
46.314
 21
46.266
  0
LINE
  8
0
 10
-89.196
 11
-89.118
 20
46.266
 21
46.214
  0
LINE
  8
0
 10
-89.118
 11
-89.044
 20
46.214
 21
46.156
  0
LINE
  8
0
 10
-89.044
 11
-88.973
 20
46.156
 21
46.093
  0
LINE
  8
0
 10
-88.973
 11
-88.907
 20
46.093
 21
46.027
  0
LINE
  8
0
 10
-88.907
 11
-88.844
 20
46.027
 21
45.956
  0
LINE
  8
0
 10
-88.844
 11
-88.786
 20
45.956
 21
45.882
  0
LINE
  8
0
 10
-88.786
 11
-88.734
 20
45.882
 21
45.804
  0
LINE
  8
0
 10
-88.734
 11
-88.686
 20
45.804
 21
45.723
  0
LINE
  8
0
 10
-88.686
 11
-88.643
 20
45.723
 21
45.639
  0
LINE
  8
0
 10
-88.643
 11
-88.605
 20
45.639
 21
45.552
  0
LINE
  8
0
 10
-88.605
 11
-88.573
 20
45.552
 21
45.464
  0
LINE
  8
0
 10
-88.573
 11
-88.547
 20
45.464
 21
45.373
  0
LINE
  8
0
 10
-88.547
 11
-88.527
 20
45.373
 21
45.281
  0
LINE
  8
0
 10
-88.527
 11
-88.512
 20
45.281
 21
45.188
  0
LINE
  8
0
 10
-88.512
 11
-88.503
 20
45.188
 21
45.094
  0
LINE
  8
0
 10
-88.503
 11
-88.5
 20
45.094
 21
45
  0
LINE
  8
0
 10
-88.5
 11
-88.503
 20
45
 21
44.906
  0
LINE
  8
0
 10
-88.503
 11
-88.512
 20
44.906
 21
44.812
  0
LINE
  8
0
 10
-88.512
 11
-88.527
 20
44.812
 21
44.719
  0
LINE
  8
0
 10
-88.527
 11
-88.547
 20
44.719
 21
44.627
  0
LINE
  8
0
 10
-88.547
 11
-88.573
 20
44.627
 21
44.536
  0
LINE
  8
0
 10
-88.573
 11
-88.605
 20
44.536
 21
44.448
  0
LINE
  8
0
 10
-88.605
 11
-88.643
 20
44.448
 21
44.361
  0
LINE
  8
0
 10
-88.643
 11
-88.686
 20
44.361
 21
44.277
  0
LINE
  8
0
 10
-88.686
 11
-88.734
 20
44.277
 21
44.196
  0
LINE
  8
0
 10
-88.734
 11
-88.786
 20
44.196
 21
44.118
  0
LINE
  8
0
 10
-88.786
 11
-88.844
 20
44.118
 21
44.044
  0
LINE
  8
0
 10
-88.844
 11
-88.907
 20
44.044
 21
43.973
  0
LINE
  8
0
 10
-88.907
 11
-88.973
 20
43.973
 21
43.907
  0
LINE
  8
0
 10
-88.973
 11
-89.044
 20
43.907
 21
43.844
  0
LINE
  8
0
 10
-89.044
 11
-89.118
 20
43.844
 21
43.786
  0
LINE
  8
0
 10
-89.118
 11
-89.196
 20
43.786
 21
43.734
  0
LINE
  8
0
 10
-89.196
 11
-89.277
 20
43.734
 21
43.686
  0
LINE
  8
0
 10
-89.277
 11
-89.361
 20
43.686
 21
43.643
  0
LINE
  8
0
 10
-89.361
 11
-89.448
 20
43.643
 21
43.605
  0
LINE
  8
0
 10
-89.448
 11
-89.536
 20
43.605
 21
43.573
  0
LINE
  8
0
 10
-89.536
 11
-89.627
 20
43.573
 21
43.547
  0
LINE
  8
0
 10
-89.627
 11
-89.719
 20
43.547
 21
43.527
  0
LINE
  8
0
 10
-89.719
 11
-89.812
 20
43.527
 21
43.512
  0
LINE
  8
0
 10
-89.812
 11
-89.906
 20
43.512
 21
43.503
  0
LINE
  8
0
 10
-89.906
 11
-90
 20
43.503
 21
43.5
  0
LINE
  8
0
 10
-90
 11
-90.094
 20
43.5
 21
43.503
  0
LINE
  8
0
 10
-90.094
 11
-90.188
 20
43.503
 21
43.512
  0
LINE
  8
0
 10
-90.188
 11
-90.281
 20
43.512
 21
43.527
  0
LINE
  8
0
 10
-90.281
 11
-90.373
 20
43.527
 21
43.547
  0
LINE
  8
0
 10
-90.373
 11
-90.464
 20
43.547
 21
43.573
  0
LINE
  8
0
 10
-90.464
 11
-90.552
 20
43.573
 21
43.605
  0
LINE
  8
0
 10
-90.552
 11
-90.639
 20
43.605
 21
43.643
  0
LINE
  8
0
 10
-90.639
 11
-90.723
 20
43.643
 21
43.686
  0
LINE
  8
0
 10
-90.723
 11
-90.804
 20
43.686
 21
43.734
  0
LINE
  8
0
 10
-90.804
 11
-90.882
 20
43.734
 21
43.786
  0
LINE
  8
0
 10
-90.882
 11
-90.956
 20
43.786
 21
43.844
  0
LINE
  8
0
 10
-90.956
 11
-91.027
 20
43.844
 21
43.907
  0
LINE
  8
0
 10
-91.027
 11
-91.093
 20
43.907
 21
43.973
  0
LINE
  8
0
 10
-91.093
 11
-91.156
 20
43.973
 21
44.044
  0
LINE
  8
0
 10
-91.156
 11
-91.214
 20
44.044
 21
44.118
  0
LINE
  8
0
 10
-91.214
 11
-91.266
 20
44.118
 21
44.196
  0
LINE
  8
0
 10
-91.266
 11
-91.314
 20
44.196
 21
44.277
  0
LINE
  8
0
 10
-91.314
 11
-91.357
 20
44.277
 21
44.361
  0
LINE
  8
0
 10
-91.357
 11
-91.395
 20
44.361
 21
44.448
  0
LINE
  8
0
 10
-91.395
 11
-91.427
 20
44.448
 21
44.536
  0
LINE
  8
0
 10
-91.427
 11
-91.453
 20
44.536
 21
44.627
  0
LINE
  8
0
 10
-91.453
 11
-91.473
 20
44.627
 21
44.719
  0
LINE
  8
0
 10
-91.473
 11
-91.488
 20
44.719
 21
44.812
  0
LINE
  8
0
 10
-91.488
 11
-91.497
 20
44.812
 21
44.906
  0
LINE
  8
0
 10
-91.497
 11
-91.5
 20
44.906
 21
45
  0
LINE
  8
0
 10
-88.075
 11
-88.075
 20
-36.575
 21
-33.425
  0
LINE
  8
0
 10
-88.075
 11
-41.925
 20
-33.425
 21
-33.425
  0
LINE
  8
0
 10
-41.925
 11
-41.925
 20
-33.425
 21
-36.575
  0
LINE
  8
0
 10
-41.925
 11
-88.075
 20
-36.575
 21
-36.575
  0
LINE
  8
0
 10
-88.075
 11
-88.075
 20
33.425
 21
36.575
  0
LINE
  8
0
 10
-88.075
 11
-41.925
 20
36.575
 21
36.575
  0
LINE
  8
0
 10
-41.925
 11
-41.925
 20
36.575
 21
33.425
  0
LINE
  8
0
 10
-41.925
 11
-88.075
 20
33.425
 21
33.425
  0
LINE
  8
0
 10
-74.224
 11
-71.078
 20
-46.874
 21
-46.709
  0
LINE
  8
0
 10
-71.078
 11
-69.291
 20
-46.709
 21
-80.812
  0
LINE
  8
0
 10
-69.291
 11
-72.436
 20
-80.812
 21
-80.977
  0
LINE
  8
0
 10
-72.436
 11
-74.224
 20
-80.977
 21
-46.874
  0
LINE
  8
0
 10
-74.224
 11
-72.436
 20
46.874
 21
80.977
  0
LINE
  8
0
 10
-72.436
 11
-69.291
 20
80.977
 21
80.812
  0
LINE
  8
0
 10
-69.291
 11
-71.078
 20
80.812
 21
46.709
  0
LINE
  8
0
 10
-71.078
 11
-74.224
 20
46.709
 21
46.874
  0
LINE
  8
0
 10
-46.25
 11
-46.248
 20
-23.749
 21
-23.671
  0
LINE
  8
0
 10
-46.248
 11
-46.24
 20
-23.671
 21
-23.592
  0
LINE
  8
0
 10
-46.24
 11
-46.228
 20
-23.592
 21
-23.515
  0
LINE
  8
0
 10
-46.228
 11
-46.211
 20
-23.515
 21
-23.438
  0
LINE
  8
0
 10
-46.211
 11
-46.189
 20
-23.438
 21
-23.363
  0
LINE
  8
0
 10
-46.189
 11
-46.162
 20
-23.363
 21
-23.289
  0
LINE
  8
0
 10
-46.162
 11
-46.131
 20
-23.289
 21
-23.217
  0
LINE
  8
0
 10
-46.131
 11
-46.095
 20
-23.217
 21
-23.147
  0
LINE
  8
0
 10
-46.095
 11
-46.055
 20
-23.147
 21
-23.079
  0
LINE
  8
0
 10
-46.055
 11
-46.011
 20
-23.079
 21
-23.014
  0
LINE
  8
0
 10
-46.011
 11
-45.963
 20
-23.014
 21
-22.952
  0
LINE
  8
0
 10
-45.963
 11
-45.911
 20
-22.952
 21
-22.893
  0
LINE
  8
0
 10
-45.911
 11
-45.856
 20
-22.893
 21
-22.838
  0
LINE
  8
0
 10
-45.856
 11
-45.797
 20
-22.838
 21
-22.786
  0
LINE
  8
0
 10
-45.797
 11
-45.735
 20
-22.786
 21
-22.738
  0
LINE
  8
0
 10
-45.735
 11
-45.67
 20
-22.738
 21
-22.694
  0
LINE
  8
0
 10
-45.67
 11
-45.602
 20
-22.694
 21
-22.654
  0
LINE
  8
0
 10
-45.602
 11
-45.532
 20
-22.654
 21
-22.618
  0
LINE
  8
0
 10
-45.532
 11
-45.46
 20
-22.618
 21
-22.587
  0
LINE
  8
0
 10
-45.46
 11
-45.386
 20
-22.587
 21
-22.56
  0
LINE
  8
0
 10
-45.386
 11
-45.311
 20
-22.56
 21
-22.538
  0
LINE
  8
0
 10
-45.311
 11
-45.234
 20
-22.538
 21
-22.521
  0
LINE
  8
0
 10
-45.234
 11
-45.157
 20
-22.521
 21
-22.509
  0
LINE
  8
0
 10
-45.157
 11
-45.078
 20
-22.509
 21
-22.501
  0
LINE
  8
0
 10
-45.078
 11
-45
 20
-22.501
 21
-22.499
  0
LINE
  8
0
 10
-45
 11
-44.922
 20
-22.499
 21
-22.501
  0
LINE
  8
0
 10
-44.922
 11
-44.843
 20
-22.501
 21
-22.509
  0
LINE
  8
0
 10
-44.843
 11
-44.766
 20
-22.509
 21
-22.521
  0
LINE
  8
0
 10
-44.766
 11
-44.689
 20
-22.521
 21
-22.538
  0
LINE
  8
0
 10
-44.689
 11
-44.614
 20
-22.538
 21
-22.56
  0
LINE
  8
0
 10
-44.614
 11
-44.54
 20
-22.56
 21
-22.587
  0
LINE
  8
0
 10
-44.54
 11
-44.468
 20
-22.587
 21
-22.618
  0
LINE
  8
0
 10
-44.468
 11
-44.398
 20
-22.618
 21
-22.654
  0
LINE
  8
0
 10
-44.398
 11
-44.33
 20
-22.654
 21
-22.694
  0
LINE
  8
0
 10
-44.33
 11
-44.265
 20
-22.694
 21
-22.738
  0
LINE
  8
0
 10
-44.265
 11
-44.203
 20
-22.738
 21
-22.786
  0
LINE
  8
0
 10
-44.203
 11
-44.144
 20
-22.786
 21
-22.838
  0
LINE
  8
0
 10
-44.144
 11
-44.089
 20
-22.838
 21
-22.893
  0
LINE
  8
0
 10
-44.089
 11
-44.037
 20
-22.893
 21
-22.952
  0
LINE
  8
0
 10
-44.037
 11
-43.989
 20
-22.952
 21
-23.014
  0
LINE
  8
0
 10
-43.989
 11
-43.945
 20
-23.014
 21
-23.079
  0
LINE
  8
0
 10
-43.945
 11
-43.905
 20
-23.079
 21
-23.147
  0
LINE
  8
0
 10
-43.905
 11
-43.869
 20
-23.147
 21
-23.217
  0
LINE
  8
0
 10
-43.869
 11
-43.838
 20
-23.217
 21
-23.289
  0
LINE
  8
0
 10
-43.838
 11
-43.811
 20
-23.289
 21
-23.363
  0
LINE
  8
0
 10
-43.811
 11
-43.789
 20
-23.363
 21
-23.438
  0
LINE
  8
0
 10
-43.789
 11
-43.772
 20
-23.438
 21
-23.515
  0
LINE
  8
0
 10
-43.772
 11
-43.76
 20
-23.515
 21
-23.592
  0
LINE
  8
0
 10
-43.76
 11
-43.752
 20
-23.592
 21
-23.671
  0
LINE
  8
0
 10
-43.752
 11
-43.75
 20
-23.671
 21
-23.749
  0
LINE
  8
0
 10
-43.75
 11
-43.752
 20
-23.749
 21
-23.827
  0
LINE
  8
0
 10
-43.752
 11
-43.76
 20
-23.827
 21
-23.906
  0
LINE
  8
0
 10
-43.76
 11
-43.772
 20
-23.906
 21
-23.983
  0
LINE
  8
0
 10
-43.772
 11
-43.789
 20
-23.983
 21
-24.06
  0
LINE
  8
0
 10
-43.789
 11
-43.811
 20
-24.06
 21
-24.135
  0
LINE
  8
0
 10
-43.811
 11
-43.838
 20
-24.135
 21
-24.209
  0
LINE
  8
0
 10
-43.838
 11
-43.869
 20
-24.209
 21
-24.281
  0
LINE
  8
0
 10
-43.869
 11
-43.905
 20
-24.281
 21
-24.351
  0
LINE
  8
0
 10
-43.905
 11
-43.945
 20
-24.351
 21
-24.419
  0
LINE
  8
0
 10
-43.945
 11
-43.989
 20
-24.419
 21
-24.484
  0
LINE
  8
0
 10
-43.989
 11
-44.037
 20
-24.484
 21
-24.546
  0
LINE
  8
0
 10
-44.037
 11
-44.089
 20
-24.546
 21
-24.605
  0
LINE
  8
0
 10
-44.089
 11
-44.144
 20
-24.605
 21
-24.66
  0
LINE
  8
0
 10
-44.144
 11
-44.203
 20
-24.66
 21
-24.712
  0
LINE
  8
0
 10
-44.203
 11
-44.265
 20
-24.712
 21
-24.76
  0
LINE
  8
0
 10
-44.265
 11
-44.33
 20
-24.76
 21
-24.804
  0
LINE
  8
0
 10
-44.33
 11
-44.398
 20
-24.804
 21
-24.844
  0
LINE
  8
0
 10
-44.398
 11
-44.468
 20
-24.844
 21
-24.88
  0
LINE
  8
0
 10
-44.468
 11
-44.54
 20
-24.88
 21
-24.911
  0
LINE
  8
0
 10
-44.54
 11
-44.614
 20
-24.911
 21
-24.938
  0
LINE
  8
0
 10
-44.614
 11
-44.689
 20
-24.938
 21
-24.96
  0
LINE
  8
0
 10
-44.689
 11
-44.766
 20
-24.96
 21
-24.977
  0
LINE
  8
0
 10
-44.766
 11
-44.843
 20
-24.977
 21
-24.989
  0
LINE
  8
0
 10
-44.843
 11
-44.922
 20
-24.989
 21
-24.997
  0
LINE
  8
0
 10
-44.922
 11
-45
 20
-24.997
 21
-24.999
  0
LINE
  8
0
 10
-45
 11
-45.078
 20
-24.999
 21
-24.997
  0
LINE
  8
0
 10
-45.078
 11
-45.157
 20
-24.997
 21
-24.989
  0
LINE
  8
0
 10
-45.157
 11
-45.234
 20
-24.989
 21
-24.977
  0
LINE
  8
0
 10
-45.234
 11
-45.311
 20
-24.977
 21
-24.96
  0
LINE
  8
0
 10
-45.311
 11
-45.386
 20
-24.96
 21
-24.938
  0
LINE
  8
0
 10
-45.386
 11
-45.46
 20
-24.938
 21
-24.911
  0
LINE
  8
0
 10
-45.46
 11
-45.532
 20
-24.911
 21
-24.88
  0
LINE
  8
0
 10
-45.532
 11
-45.602
 20
-24.88
 21
-24.844
  0
LINE
  8
0
 10
-45.602
 11
-45.67
 20
-24.844
 21
-24.804
  0
LINE
  8
0
 10
-45.67
 11
-45.735
 20
-24.804
 21
-24.76
  0
LINE
  8
0
 10
-45.735
 11
-45.797
 20
-24.76
 21
-24.712
  0
LINE
  8
0
 10
-45.797
 11
-45.856
 20
-24.712
 21
-24.66
  0
LINE
  8
0
 10
-45.856
 11
-45.911
 20
-24.66
 21
-24.605
  0
LINE
  8
0
 10
-45.911
 11
-45.963
 20
-24.605
 21
-24.546
  0
LINE
  8
0
 10
-45.963
 11
-46.011
 20
-24.546
 21
-24.484
  0
LINE
  8
0
 10
-46.011
 11
-46.055
 20
-24.484
 21
-24.419
  0
LINE
  8
0
 10
-46.055
 11
-46.095
 20
-24.419
 21
-24.351
  0
LINE
  8
0
 10
-46.095
 11
-46.131
 20
-24.351
 21
-24.281
  0
LINE
  8
0
 10
-46.131
 11
-46.162
 20
-24.281
 21
-24.209
  0
LINE
  8
0
 10
-46.162
 11
-46.189
 20
-24.209
 21
-24.135
  0
LINE
  8
0
 10
-46.189
 11
-46.211
 20
-24.135
 21
-24.06
  0
LINE
  8
0
 10
-46.211
 11
-46.228
 20
-24.06
 21
-23.983
  0
LINE
  8
0
 10
-46.228
 11
-46.24
 20
-23.983
 21
-23.906
  0
LINE
  8
0
 10
-46.24
 11
-46.248
 20
-23.906
 21
-23.827
  0
LINE
  8
0
 10
-46.248
 11
-46.25
 20
-23.827
 21
-23.749
  0
LINE
  8
0
 10
-46.25
 11
-46.248
 20
23.749
 21
23.827
  0
LINE
  8
0
 10
-46.248
 11
-46.24
 20
23.827
 21
23.906
  0
LINE
  8
0
 10
-46.24
 11
-46.228
 20
23.906
 21
23.983
  0
LINE
  8
0
 10
-46.228
 11
-46.211
 20
23.983
 21
24.06
  0
LINE
  8
0
 10
-46.211
 11
-46.189
 20
24.06
 21
24.135
  0
LINE
  8
0
 10
-46.189
 11
-46.162
 20
24.135
 21
24.209
  0
LINE
  8
0
 10
-46.162
 11
-46.131
 20
24.209
 21
24.281
  0
LINE
  8
0
 10
-46.131
 11
-46.095
 20
24.281
 21
24.351
  0
LINE
  8
0
 10
-46.095
 11
-46.055
 20
24.351
 21
24.419
  0
LINE
  8
0
 10
-46.055
 11
-46.011
 20
24.419
 21
24.484
  0
LINE
  8
0
 10
-46.011
 11
-45.963
 20
24.484
 21
24.546
  0
LINE
  8
0
 10
-45.963
 11
-45.911
 20
24.546
 21
24.605
  0
LINE
  8
0
 10
-45.911
 11
-45.856
 20
24.605
 21
24.66
  0
LINE
  8
0
 10
-45.856
 11
-45.797
 20
24.66
 21
24.712
  0
LINE
  8
0
 10
-45.797
 11
-45.735
 20
24.712
 21
24.76
  0
LINE
  8
0
 10
-45.735
 11
-45.67
 20
24.76
 21
24.804
  0
LINE
  8
0
 10
-45.67
 11
-45.602
 20
24.804
 21
24.844
  0
LINE
  8
0
 10
-45.602
 11
-45.532
 20
24.844
 21
24.88
  0
LINE
  8
0
 10
-45.532
 11
-45.46
 20
24.88
 21
24.911
  0
LINE
  8
0
 10
-45.46
 11
-45.386
 20
24.911
 21
24.938
  0
LINE
  8
0
 10
-45.386
 11
-45.311
 20
24.938
 21
24.96
  0
LINE
  8
0
 10
-45.311
 11
-45.234
 20
24.96
 21
24.977
  0
LINE
  8
0
 10
-45.234
 11
-45.157
 20
24.977
 21
24.989
  0
LINE
  8
0
 10
-45.157
 11
-45.078
 20
24.989
 21
24.997
  0
LINE
  8
0
 10
-45.078
 11
-45
 20
24.997
 21
24.999
  0
LINE
  8
0
 10
-45
 11
-44.922
 20
24.999
 21
24.997
  0
LINE
  8
0
 10
-44.922
 11
-44.843
 20
24.997
 21
24.989
  0
LINE
  8
0
 10
-44.843
 11
-44.766
 20
24.989
 21
24.977
  0
LINE
  8
0
 10
-44.766
 11
-44.689
 20
24.977
 21
24.96
  0
LINE
  8
0
 10
-44.689
 11
-44.614
 20
24.96
 21
24.938
  0
LINE
  8
0
 10
-44.614
 11
-44.54
 20
24.938
 21
24.911
  0
LINE
  8
0
 10
-44.54
 11
-44.468
 20
24.911
 21
24.88
  0
LINE
  8
0
 10
-44.468
 11
-44.398
 20
24.88
 21
24.844
  0
LINE
  8
0
 10
-44.398
 11
-44.33
 20
24.844
 21
24.804
  0
LINE
  8
0
 10
-44.33
 11
-44.265
 20
24.804
 21
24.76
  0
LINE
  8
0
 10
-44.265
 11
-44.203
 20
24.76
 21
24.712
  0
LINE
  8
0
 10
-44.203
 11
-44.144
 20
24.712
 21
24.66
  0
LINE
  8
0
 10
-44.144
 11
-44.089
 20
24.66
 21
24.605
  0
LINE
  8
0
 10
-44.089
 11
-44.037
 20
24.605
 21
24.546
  0
LINE
  8
0
 10
-44.037
 11
-43.989
 20
24.546
 21
24.484
  0
LINE
  8
0
 10
-43.989
 11
-43.945
 20
24.484
 21
24.419
  0
LINE
  8
0
 10
-43.945
 11
-43.905
 20
24.419
 21
24.351
  0
LINE
  8
0
 10
-43.905
 11
-43.869
 20
24.351
 21
24.281
  0
LINE
  8
0
 10
-43.869
 11
-43.838
 20
24.281
 21
24.209
  0
LINE
  8
0
 10
-43.838
 11
-43.811
 20
24.209
 21
24.135
  0
LINE
  8
0
 10
-43.811
 11
-43.789
 20
24.135
 21
24.06
  0
LINE
  8
0
 10
-43.789
 11
-43.772
 20
24.06
 21
23.983
  0
LINE
  8
0
 10
-43.772
 11
-43.76
 20
23.983
 21
23.906
  0
LINE
  8
0
 10
-43.76
 11
-43.752
 20
23.906
 21
23.827
  0
LINE
  8
0
 10
-43.752
 11
-43.75
 20
23.827
 21
23.749
  0
LINE
  8
0
 10
-43.75
 11
-43.752
 20
23.749
 21
23.671
  0
LINE
  8
0
 10
-43.752
 11
-43.76
 20
23.671
 21
23.592
  0
LINE
  8
0
 10
-43.76
 11
-43.772
 20
23.592
 21
23.515
  0
LINE
  8
0
 10
-43.772
 11
-43.789
 20
23.515
 21
23.438
  0
LINE
  8
0
 10
-43.789
 11
-43.811
 20
23.438
 21
23.363
  0
LINE
  8
0
 10
-43.811
 11
-43.838
 20
23.363
 21
23.289
  0
LINE
  8
0
 10
-43.838
 11
-43.869
 20
23.289
 21
23.217
  0
LINE
  8
0
 10
-43.869
 11
-43.905
 20
23.217
 21
23.147
  0
LINE
  8
0
 10
-43.905
 11
-43.945
 20
23.147
 21
23.079
  0
LINE
  8
0
 10
-43.945
 11
-43.989
 20
23.079
 21
23.014
  0
LINE
  8
0
 10
-43.989
 11
-44.037
 20
23.014
 21
22.952
  0
LINE
  8
0
 10
-44.037
 11
-44.089
 20
22.952
 21
22.893
  0
LINE
  8
0
 10
-44.089
 11
-44.144
 20
22.893
 21
22.838
  0
LINE
  8
0
 10
-44.144
 11
-44.203
 20
22.838
 21
22.786
  0
LINE
  8
0
 10
-44.203
 11
-44.265
 20
22.786
 21
22.738
  0
LINE
  8
0
 10
-44.265
 11
-44.33
 20
22.738
 21
22.694
  0
LINE
  8
0
 10
-44.33
 11
-44.398
 20
22.694
 21
22.654
  0
LINE
  8
0
 10
-44.398
 11
-44.468
 20
22.654
 21
22.618
  0
LINE
  8
0
 10
-44.468
 11
-44.54
 20
22.618
 21
22.587
  0
LINE
  8
0
 10
-44.54
 11
-44.614
 20
22.587
 21
22.56
  0
LINE
  8
0
 10
-44.614
 11
-44.689
 20
22.56
 21
22.538
  0
LINE
  8
0
 10
-44.689
 11
-44.766
 20
22.538
 21
22.521
  0
LINE
  8
0
 10
-44.766
 11
-44.843
 20
22.521
 21
22.509
  0
LINE
  8
0
 10
-44.843
 11
-44.922
 20
22.509
 21
22.501
  0
LINE
  8
0
 10
-44.922
 11
-45
 20
22.501
 21
22.499
  0
LINE
  8
0
 10
-45
 11
-45.078
 20
22.499
 21
22.501
  0
LINE
  8
0
 10
-45.078
 11
-45.157
 20
22.501
 21
22.509
  0
LINE
  8
0
 10
-45.157
 11
-45.234
 20
22.509
 21
22.521
  0
LINE
  8
0
 10
-45.234
 11
-45.311
 20
22.521
 21
22.538
  0
LINE
  8
0
 10
-45.311
 11
-45.386
 20
22.538
 21
22.56
  0
LINE
  8
0
 10
-45.386
 11
-45.46
 20
22.56
 21
22.587
  0
LINE
  8
0
 10
-45.46
 11
-45.532
 20
22.587
 21
22.618
  0
LINE
  8
0
 10
-45.532
 11
-45.602
 20
22.618
 21
22.654
  0
LINE
  8
0
 10
-45.602
 11
-45.67
 20
22.654
 21
22.694
  0
LINE
  8
0
 10
-45.67
 11
-45.735
 20
22.694
 21
22.738
  0
LINE
  8
0
 10
-45.735
 11
-45.797
 20
22.738
 21
22.786
  0
LINE
  8
0
 10
-45.797
 11
-45.856
 20
22.786
 21
22.838
  0
LINE
  8
0
 10
-45.856
 11
-45.911
 20
22.838
 21
22.893
  0
LINE
  8
0
 10
-45.911
 11
-45.963
 20
22.893
 21
22.952
  0
LINE
  8
0
 10
-45.963
 11
-46.011
 20
22.952
 21
23.014
  0
LINE
  8
0
 10
-46.011
 11
-46.055
 20
23.014
 21
23.079
  0
LINE
  8
0
 10
-46.055
 11
-46.095
 20
23.079
 21
23.147
  0
LINE
  8
0
 10
-46.095
 11
-46.131
 20
23.147
 21
23.217
  0
LINE
  8
0
 10
-46.131
 11
-46.162
 20
23.217
 21
23.289
  0
LINE
  8
0
 10
-46.162
 11
-46.189
 20
23.289
 21
23.363
  0
LINE
  8
0
 10
-46.189
 11
-46.211
 20
23.363
 21
23.438
  0
LINE
  8
0
 10
-46.211
 11
-46.228
 20
23.438
 21
23.515
  0
LINE
  8
0
 10
-46.228
 11
-46.24
 20
23.515
 21
23.592
  0
LINE
  8
0
 10
-46.24
 11
-46.248
 20
23.592
 21
23.671
  0
LINE
  8
0
 10
-46.248
 11
-46.25
 20
23.671
 21
23.749
  0
LINE
  8
0
 10
-36.575
 11
-36.575
 20
-88.075
 21
-41.925
  0
LINE
  8
0
 10
-36.575
 11
-33.425
 20
-41.925
 21
-41.925
  0
LINE
  8
0
 10
-33.425
 11
-33.425
 20
-41.925
 21
-88.075
  0
LINE
  8
0
 10
-33.425
 11
-36.575
 20
-88.075
 21
-88.075
  0
LINE
  8
0
 10
-36.575
 11
-36.575
 20
-23.075
 21
23.075
  0
LINE
  8
0
 10
-36.575
 11
-33.425
 20
23.075
 21
23.075
  0
LINE
  8
0
 10
-33.425
 11
-33.425
 20
23.075
 21
-23.075
  0
LINE
  8
0
 10
-33.425
 11
-36.575
 20
-23.075
 21
-23.075
  0
LINE
  8
0
 10
-36.575
 11
-36.575
 20
41.925
 21
88.075
  0
LINE
  8
0
 10
-36.575
 11
-33.425
 20
88.075
 21
88.075
  0
LINE
  8
0
 10
-33.425
 11
-33.425
 20
88.075
 21
41.925
  0
LINE
  8
0
 10
-33.425
 11
-36.575
 20
41.925
 21
41.925
  0
LINE
  8
0
 10
-31
 11
-31
 20
-16
 21
56
  0
LINE
  8
0
 10
-31
 11
-30.968
 20
56
 21
57.005
  0
LINE
  8
0
 10
-30.968
 11
-30.874
 20
57.005
 21
58.005
  0
LINE
  8
0
 10
-30.874
 11
-30.717
 20
58.005
 21
58.998
  0
LINE
  8
0
 10
-30.717
 11
-30.497
 20
58.998
 21
59.979
  0
LINE
  8
0
 10
-30.497
 11
-30.217
 20
59.979
 21
60.944
  0
LINE
  8
0
 10
-30.217
 11
-29.876
 20
60.944
 21
61.89
  0
LINE
  8
0
 10
-29.876
 11
-29.477
 20
61.89
 21
62.812
  0
LINE
  8
0
 10
-29.477
 11
-29.021
 20
62.812
 21
63.708
  0
LINE
  8
0
 10
-29.021
 11
-28.509
 20
63.708
 21
64.573
  0
LINE
  8
0
 10
-28.509
 11
-27.944
 20
64.573
 21
65.405
  0
LINE
  8
0
 10
-27.944
 11
-27.328
 20
65.405
 21
66.199
  0
LINE
  8
0
 10
-27.328
 11
-26.663
 20
66.199
 21
66.953
  0
LINE
  8
0
 10
-26.663
 11
-25.953
 20
66.953
 21
67.663
  0
LINE
  8
0
 10
-25.953
 11
-25.199
 20
67.663
 21
68.328
  0
LINE
  8
0
 10
-25.199
 11
-24.405
 20
68.328
 21
68.944
  0
LINE
  8
0
 10
-24.405
 11
-23.573
 20
68.944
 21
69.509
  0
LINE
  8
0
 10
-23.573
 11
-22.708
 20
69.509
 21
70.021
  0
LINE
  8
0
 10
-22.708
 11
-21.812
 20
70.021
 21
70.477
  0
LINE
  8
0
 10
-21.812
 11
-20.89
 20
70.477
 21
70.876
  0
LINE
  8
0
 10
-20.89
 11
-19.944
 20
70.876
 21
71.217
  0
LINE
  8
0
 10
-19.944
 11
-18.979
 20
71.217
 21
71.497
  0
LINE
  8
0
 10
-18.979
 11
-17.998
 20
71.497
 21
71.717
  0
LINE
  8
0
 10
-17.998
 11
-17.005
 20
71.717
 21
71.874
  0
LINE
  8
0
 10
-17.005
 11
-16.005
 20
71.874
 21
71.968
  0
LINE
  8
0
 10
-16.005
 11
-15
 20
71.968
 21
72
  0
LINE
  8
0
 10
-15
 11
15
 20
72
 21
72
  0
LINE
  8
0
 10
15
 11
16.005
 20
72
 21
71.968
  0
LINE
  8
0
 10
16.005
 11
17.005
 20
71.968
 21
71.874
  0
LINE
  8
0
 10
17.005
 11
17.998
 20
71.874
 21
71.717
  0
LINE
  8
0
 10
17.998
 11
18.979
 20
71.717
 21
71.497
  0
LINE
  8
0
 10
18.979
 11
19.944
 20
71.497
 21
71.217
  0
LINE
  8
0
 10
19.944
 11
20.89
 20
71.217
 21
70.876
  0
LINE
  8
0
 10
20.89
 11
21.812
 20
70.876
 21
70.477
  0
LINE
  8
0
 10
21.812
 11
22.708
 20
70.477
 21
70.021
  0
LINE
  8
0
 10
22.708
 11
23.573
 20
70.021
 21
69.509
  0
LINE
  8
0
 10
23.573
 11
24.405
 20
69.509
 21
68.944
  0
LINE
  8
0
 10
24.405
 11
25.199
 20
68.944
 21
68.328
  0
LINE
  8
0
 10
25.199
 11
25.953
 20
68.328
 21
67.663
  0
LINE
  8
0
 10
25.953
 11
26.663
 20
67.663
 21
66.953
  0
LINE
  8
0
 10
26.663
 11
27.328
 20
66.953
 21
66.199
  0
LINE
  8
0
 10
27.328
 11
27.944
 20
66.199
 21
65.405
  0
LINE
  8
0
 10
27.944
 11
28.509
 20
65.405
 21
64.573
  0
LINE
  8
0
 10
28.509
 11
29.021
 20
64.573
 21
63.708
  0
LINE
  8
0
 10
29.021
 11
29.477
 20
63.708
 21
62.812
  0
LINE
  8
0
 10
29.477
 11
29.876
 20
62.812
 21
61.89
  0
LINE
  8
0
 10
29.876
 11
30.217
 20
61.89
 21
60.944
  0
LINE
  8
0
 10
30.217
 11
30.497
 20
60.944
 21
59.979
  0
LINE
  8
0
 10
30.497
 11
30.717
 20
59.979
 21
58.998
  0
LINE
  8
0
 10
30.717
 11
30.874
 20
58.998
 21
58.005
  0
LINE
  8
0
 10
30.874
 11
30.968
 20
58.005
 21
57.005
  0
LINE
  8
0
 10
30.968
 11
31
 20
57.005
 21
56
  0
LINE
  8
0
 10
31
 11
31
 20
56
 21
-16
  0
LINE
  8
0
 10
31
 11
30.968
 20
-16
 21
-17.005
  0
LINE
  8
0
 10
30.968
 11
30.874
 20
-17.005
 21
-18.005
  0
LINE
  8
0
 10
30.874
 11
30.717
 20
-18.005
 21
-18.998
  0
LINE
  8
0
 10
30.717
 11
30.497
 20
-18.998
 21
-19.979
  0
LINE
  8
0
 10
30.497
 11
30.217
 20
-19.979
 21
-20.944
  0
LINE
  8
0
 10
30.217
 11
29.876
 20
-20.944
 21
-21.89
  0
LINE
  8
0
 10
29.876
 11
29.477
 20
-21.89
 21
-22.812
  0
LINE
  8
0
 10
29.477
 11
29.021
 20
-22.812
 21
-23.708
  0
LINE
  8
0
 10
29.021
 11
28.509
 20
-23.708
 21
-24.573
  0
LINE
  8
0
 10
28.509
 11
27.944
 20
-24.573
 21
-25.405
  0
LINE
  8
0
 10
27.944
 11
27.328
 20
-25.405
 21
-26.199
  0
LINE
  8
0
 10
27.328
 11
26.663
 20
-26.199
 21
-26.953
  0
LINE
  8
0
 10
26.663
 11
25.953
 20
-26.953
 21
-27.663
  0
LINE
  8
0
 10
25.953
 11
25.199
 20
-27.663
 21
-28.328
  0
LINE
  8
0
 10
25.199
 11
24.405
 20
-28.328
 21
-28.944
  0
LINE
  8
0
 10
24.405
 11
23.573
 20
-28.944
 21
-29.509
  0
LINE
  8
0
 10
23.573
 11
22.708
 20
-29.509
 21
-30.021
  0
LINE
  8
0
 10
22.708
 11
21.812
 20
-30.021
 21
-30.477
  0
LINE
  8
0
 10
21.812
 11
20.89
 20
-30.477
 21
-30.876
  0
LINE
  8
0
 10
20.89
 11
19.944
 20
-30.876
 21
-31.217
  0
LINE
  8
0
 10
19.944
 11
18.979
 20
-31.217
 21
-31.497
  0
LINE
  8
0
 10
18.979
 11
17.998
 20
-31.497
 21
-31.717
  0
LINE
  8
0
 10
17.998
 11
17.005
 20
-31.717
 21
-31.874
  0
LINE
  8
0
 10
17.005
 11
16.005
 20
-31.874
 21
-31.968
  0
LINE
  8
0
 10
16.005
 11
15
 20
-31.968
 21
-32
  0
LINE
  8
0
 10
15
 11
-15
 20
-32
 21
-32
  0
LINE
  8
0
 10
-15
 11
-16.005
 20
-32
 21
-31.968
  0
LINE
  8
0
 10
-16.005
 11
-17.005
 20
-31.968
 21
-31.874
  0
LINE
  8
0
 10
-17.005
 11
-17.998
 20
-31.874
 21
-31.717
  0
LINE
  8
0
 10
-17.998
 11
-18.979
 20
-31.717
 21
-31.497
  0
LINE
  8
0
 10
-18.979
 11
-19.944
 20
-31.497
 21
-31.217
  0
LINE
  8
0
 10
-19.944
 11
-20.89
 20
-31.217
 21
-30.876
  0
LINE
  8
0
 10
-20.89
 11
-21.812
 20
-30.876
 21
-30.477
  0
LINE
  8
0
 10
-21.812
 11
-22.708
 20
-30.477
 21
-30.021
  0
LINE
  8
0
 10
-22.708
 11
-23.573
 20
-30.021
 21
-29.509
  0
LINE
  8
0
 10
-23.573
 11
-24.405
 20
-29.509
 21
-28.944
  0
LINE
  8
0
 10
-24.405
 11
-25.199
 20
-28.944
 21
-28.328
  0
LINE
  8
0
 10
-25.199
 11
-25.953
 20
-28.328
 21
-27.663
  0
LINE
  8
0
 10
-25.953
 11
-26.663
 20
-27.663
 21
-26.953
  0
LINE
  8
0
 10
-26.663
 11
-27.328
 20
-26.953
 21
-26.199
  0
LINE
  8
0
 10
-27.328
 11
-27.944
 20
-26.199
 21
-25.405
  0
LINE
  8
0
 10
-27.944
 11
-28.509
 20
-25.405
 21
-24.573
  0
LINE
  8
0
 10
-28.509
 11
-29.021
 20
-24.573
 21
-23.708
  0
LINE
  8
0
 10
-29.021
 11
-29.477
 20
-23.708
 21
-22.812
  0
LINE
  8
0
 10
-29.477
 11
-29.876
 20
-22.812
 21
-21.89
  0
LINE
  8
0
 10
-29.876
 11
-30.217
 20
-21.89
 21
-20.944
  0
LINE
  8
0
 10
-30.217
 11
-30.497
 20
-20.944
 21
-19.979
  0
LINE
  8
0
 10
-30.497
 11
-30.717
 20
-19.979
 21
-18.998
  0
LINE
  8
0
 10
-30.717
 11
-30.874
 20
-18.998
 21
-18.005
  0
LINE
  8
0
 10
-30.874
 11
-30.968
 20
-18.005
 21
-17.005
  0
LINE
  8
0
 10
-30.968
 11
-31
 20
-17.005
 21
-16
  0
LINE
  8
0
 10
-17.25
 11
-17.248
 20
-46
 21
-45.922
  0
LINE
  8
0
 10
-17.248
 11
-17.24
 20
-45.922
 21
-45.843
  0
LINE
  8
0
 10
-17.24
 11
-17.228
 20
-45.843
 21
-45.766
  0
LINE
  8
0
 10
-17.228
 11
-17.211
 20
-45.766
 21
-45.689
  0
LINE
  8
0
 10
-17.211
 11
-17.189
 20
-45.689
 21
-45.614
  0
LINE
  8
0
 10
-17.189
 11
-17.162
 20
-45.614
 21
-45.54
  0
LINE
  8
0
 10
-17.162
 11
-17.131
 20
-45.54
 21
-45.468
  0
LINE
  8
0
 10
-17.131
 11
-17.095
 20
-45.468
 21
-45.398
  0
LINE
  8
0
 10
-17.095
 11
-17.055
 20
-45.398
 21
-45.33
  0
LINE
  8
0
 10
-17.055
 11
-17.011
 20
-45.33
 21
-45.265
  0
LINE
  8
0
 10
-17.011
 11
-16.963
 20
-45.265
 21
-45.203
  0
LINE
  8
0
 10
-16.963
 11
-16.911
 20
-45.203
 21
-45.144
  0
LINE
  8
0
 10
-16.911
 11
-16.856
 20
-45.144
 21
-45.089
  0
LINE
  8
0
 10
-16.856
 11
-16.797
 20
-45.089
 21
-45.037
  0
LINE
  8
0
 10
-16.797
 11
-16.735
 20
-45.037
 21
-44.989
  0
LINE
  8
0
 10
-16.735
 11
-16.67
 20
-44.989
 21
-44.945
  0
LINE
  8
0
 10
-16.67
 11
-16.602
 20
-44.945
 21
-44.905
  0
LINE
  8
0
 10
-16.602
 11
-16.532
 20
-44.905
 21
-44.869
  0
LINE
  8
0
 10
-16.532
 11
-16.46
 20
-44.869
 21
-44.838
  0
LINE
  8
0
 10
-16.46
 11
-16.386
 20
-44.838
 21
-44.811
  0
LINE
  8
0
 10
-16.386
 11
-16.311
 20
-44.811
 21
-44.789
  0
LINE
  8
0
 10
-16.311
 11
-16.234
 20
-44.789
 21
-44.772
  0
LINE
  8
0
 10
-16.234
 11
-16.157
 20
-44.772
 21
-44.76
  0
LINE
  8
0
 10
-16.157
 11
-16.078
 20
-44.76
 21
-44.752
  0
LINE
  8
0
 10
-16.078
 11
-16
 20
-44.752
 21
-44.75
  0
LINE
  8
0
 10
-16
 11
-15.922
 20
-44.75
 21
-44.752
  0
LINE
  8
0
 10
-15.922
 11
-15.843
 20
-44.752
 21
-44.76
  0
LINE
  8
0
 10
-15.843
 11
-15.766
 20
-44.76
 21
-44.772
  0
LINE
  8
0
 10
-15.766
 11
-15.689
 20
-44.772
 21
-44.789
  0
LINE
  8
0
 10
-15.689
 11
-15.614
 20
-44.789
 21
-44.811
  0
LINE
  8
0
 10
-15.614
 11
-15.54
 20
-44.811
 21
-44.838
  0
LINE
  8
0
 10
-15.54
 11
-15.468
 20
-44.838
 21
-44.869
  0
LINE
  8
0
 10
-15.468
 11
-15.398
 20
-44.869
 21
-44.905
  0
LINE
  8
0
 10
-15.398
 11
-15.33
 20
-44.905
 21
-44.945
  0
LINE
  8
0
 10
-15.33
 11
-15.265
 20
-44.945
 21
-44.989
  0
LINE
  8
0
 10
-15.265
 11
-15.203
 20
-44.989
 21
-45.037
  0
LINE
  8
0
 10
-15.203
 11
-15.144
 20
-45.037
 21
-45.089
  0
LINE
  8
0
 10
-15.144
 11
-15.089
 20
-45.089
 21
-45.144
  0
LINE
  8
0
 10
-15.089
 11
-15.037
 20
-45.144
 21
-45.203
  0
LINE
  8
0
 10
-15.037
 11
-14.989
 20
-45.203
 21
-45.265
  0
LINE
  8
0
 10
-14.989
 11
-14.945
 20
-45.265
 21
-45.33
  0
LINE
  8
0
 10
-14.945
 11
-14.905
 20
-45.33
 21
-45.398
  0
LINE
  8
0
 10
-14.905
 11
-14.869
 20
-45.398
 21
-45.468
  0
LINE
  8
0
 10
-14.869
 11
-14.838
 20
-45.468
 21
-45.54
  0
LINE
  8
0
 10
-14.838
 11
-14.811
 20
-45.54
 21
-45.614
  0
LINE
  8
0
 10
-14.811
 11
-14.789
 20
-45.614
 21
-45.689
  0
LINE
  8
0
 10
-14.789
 11
-14.772
 20
-45.689
 21
-45.766
  0
LINE
  8
0
 10
-14.772
 11
-14.76
 20
-45.766
 21
-45.843
  0
LINE
  8
0
 10
-14.76
 11
-14.752
 20
-45.843
 21
-45.922
  0
LINE
  8
0
 10
-14.752
 11
-14.75
 20
-45.922
 21
-46
  0
LINE
  8
0
 10
-14.75
 11
-14.752
 20
-46
 21
-46.078
  0
LINE
  8
0
 10
-14.752
 11
-14.76
 20
-46.078
 21
-46.157
  0
LINE
  8
0
 10
-14.76
 11
-14.772
 20
-46.157
 21
-46.234
  0
LINE
  8
0
 10
-14.772
 11
-14.789
 20
-46.234
 21
-46.311
  0
LINE
  8
0
 10
-14.789
 11
-14.811
 20
-46.311
 21
-46.386
  0
LINE
  8
0
 10
-14.811
 11
-14.838
 20
-46.386
 21
-46.46
  0
LINE
  8
0
 10
-14.838
 11
-14.869
 20
-46.46
 21
-46.532
  0
LINE
  8
0
 10
-14.869
 11
-14.905
 20
-46.532
 21
-46.602
  0
LINE
  8
0
 10
-14.905
 11
-14.945
 20
-46.602
 21
-46.67
  0
LINE
  8
0
 10
-14.945
 11
-14.989
 20
-46.67
 21
-46.735
  0
LINE
  8
0
 10
-14.989
 11
-15.037
 20
-46.735
 21
-46.797
  0
LINE
  8
0
 10
-15.037
 11
-15.089
 20
-46.797
 21
-46.856
  0
LINE
  8
0
 10
-15.089
 11
-15.144
 20
-46.856
 21
-46.911
  0
LINE
  8
0
 10
-15.144
 11
-15.203
 20
-46.911
 21
-46.963
  0
LINE
  8
0
 10
-15.203
 11
-15.265
 20
-46.963
 21
-47.011
  0
LINE
  8
0
 10
-15.265
 11
-15.33
 20
-47.011
 21
-47.055
  0
LINE
  8
0
 10
-15.33
 11
-15.398
 20
-47.055
 21
-47.095
  0
LINE
  8
0
 10
-15.398
 11
-15.468
 20
-47.095
 21
-47.131
  0
LINE
  8
0
 10
-15.468
 11
-15.54
 20
-47.131
 21
-47.162
  0
LINE
  8
0
 10
-15.54
 11
-15.614
 20
-47.162
 21
-47.189
  0
LINE
  8
0
 10
-15.614
 11
-15.689
 20
-47.189
 21
-47.211
  0
LINE
  8
0
 10
-15.689
 11
-15.766
 20
-47.211
 21
-47.228
  0
LINE
  8
0
 10
-15.766
 11
-15.843
 20
-47.228
 21
-47.24
  0
LINE
  8
0
 10
-15.843
 11
-15.922
 20
-47.24
 21
-47.248
  0
LINE
  8
0
 10
-15.922
 11
-16
 20
-47.248
 21
-47.25
  0
LINE
  8
0
 10
-16
 11
-16.078
 20
-47.25
 21
-47.248
  0
LINE
  8
0
 10
-16.078
 11
-16.157
 20
-47.248
 21
-47.24
  0
LINE
  8
0
 10
-16.157
 11
-16.234
 20
-47.24
 21
-47.228
  0
LINE
  8
0
 10
-16.234
 11
-16.311
 20
-47.228
 21
-47.211
  0
LINE
  8
0
 10
-16.311
 11
-16.386
 20
-47.211
 21
-47.189
  0
LINE
  8
0
 10
-16.386
 11
-16.46
 20
-47.189
 21
-47.162
  0
LINE
  8
0
 10
-16.46
 11
-16.532
 20
-47.162
 21
-47.131
  0
LINE
  8
0
 10
-16.532
 11
-16.602
 20
-47.131
 21
-47.095
  0
LINE
  8
0
 10
-16.602
 11
-16.67
 20
-47.095
 21
-47.055
  0
LINE
  8
0
 10
-16.67
 11
-16.735
 20
-47.055
 21
-47.011
  0
LINE
  8
0
 10
-16.735
 11
-16.797
 20
-47.011
 21
-46.963
  0
LINE
  8
0
 10
-16.797
 11
-16.856
 20
-46.963
 21
-46.911
  0
LINE
  8
0
 10
-16.856
 11
-16.911
 20
-46.911
 21
-46.856
  0
LINE
  8
0
 10
-16.911
 11
-16.963
 20
-46.856
 21
-46.797
  0
LINE
  8
0
 10
-16.963
 11
-17.011
 20
-46.797
 21
-46.735
  0
LINE
  8
0
 10
-17.011
 11
-17.055
 20
-46.735
 21
-46.67
  0
LINE
  8
0
 10
-17.055
 11
-17.095
 20
-46.67
 21
-46.602
  0
LINE
  8
0
 10
-17.095
 11
-17.131
 20
-46.602
 21
-46.532
  0
LINE
  8
0
 10
-17.131
 11
-17.162
 20
-46.532
 21
-46.46
  0
LINE
  8
0
 10
-17.162
 11
-17.189
 20
-46.46
 21
-46.386
  0
LINE
  8
0
 10
-17.189
 11
-17.211
 20
-46.386
 21
-46.311
  0
LINE
  8
0
 10
-17.211
 11
-17.228
 20
-46.311
 21
-46.234
  0
LINE
  8
0
 10
-17.228
 11
-17.24
 20
-46.234
 21
-46.157
  0
LINE
  8
0
 10
-17.24
 11
-17.248
 20
-46.157
 21
-46.078
  0
LINE
  8
0
 10
-17.248
 11
-17.25
 20
-46.078
 21
-46
  0
LINE
  8
0
 10
18.75
 11
18.752
 20
-46
 21
-45.922
  0
LINE
  8
0
 10
18.752
 11
18.76
 20
-45.922
 21
-45.843
  0
LINE
  8
0
 10
18.76
 11
18.772
 20
-45.843
 21
-45.766
  0
LINE
  8
0
 10
18.772
 11
18.789
 20
-45.766
 21
-45.689
  0
LINE
  8
0
 10
18.789
 11
18.811
 20
-45.689
 21
-45.614
  0
LINE
  8
0
 10
18.811
 11
18.838
 20
-45.614
 21
-45.54
  0
LINE
  8
0
 10
18.838
 11
18.869
 20
-45.54
 21
-45.468
  0
LINE
  8
0
 10
18.869
 11
18.905
 20
-45.468
 21
-45.398
  0
LINE
  8
0
 10
18.905
 11
18.945
 20
-45.398
 21
-45.33
  0
LINE
  8
0
 10
18.945
 11
18.989
 20
-45.33
 21
-45.265
  0
LINE
  8
0
 10
18.989
 11
19.037
 20
-45.265
 21
-45.203
  0
LINE
  8
0
 10
19.037
 11
19.089
 20
-45.203
 21
-45.144
  0
LINE
  8
0
 10
19.089
 11
19.144
 20
-45.144
 21
-45.089
  0
LINE
  8
0
 10
19.144
 11
19.203
 20
-45.089
 21
-45.037
  0
LINE
  8
0
 10
19.203
 11
19.265
 20
-45.037
 21
-44.989
  0
LINE
  8
0
 10
19.265
 11
19.33
 20
-44.989
 21
-44.945
  0
LINE
  8
0
 10
19.33
 11
19.398
 20
-44.945
 21
-44.905
  0
LINE
  8
0
 10
19.398
 11
19.468
 20
-44.905
 21
-44.869
  0
LINE
  8
0
 10
19.468
 11
19.54
 20
-44.869
 21
-44.838
  0
LINE
  8
0
 10
19.54
 11
19.614
 20
-44.838
 21
-44.811
  0
LINE
  8
0
 10
19.614
 11
19.689
 20
-44.811
 21
-44.789
  0
LINE
  8
0
 10
19.689
 11
19.766
 20
-44.789
 21
-44.772
  0
LINE
  8
0
 10
19.766
 11
19.843
 20
-44.772
 21
-44.76
  0
LINE
  8
0
 10
19.843
 11
19.922
 20
-44.76
 21
-44.752
  0
LINE
  8
0
 10
19.922
 11
20
 20
-44.752
 21
-44.75
  0
LINE
  8
0
 10
20
 11
20.078
 20
-44.75
 21
-44.752
  0
LINE
  8
0
 10
20.078
 11
20.157
 20
-44.752
 21
-44.76
  0
LINE
  8
0
 10
20.157
 11
20.234
 20
-44.76
 21
-44.772
  0
LINE
  8
0
 10
20.234
 11
20.311
 20
-44.772
 21
-44.789
  0
LINE
  8
0
 10
20.311
 11
20.386
 20
-44.789
 21
-44.811
  0
LINE
  8
0
 10
20.386
 11
20.46
 20
-44.811
 21
-44.838
  0
LINE
  8
0
 10
20.46
 11
20.532
 20
-44.838
 21
-44.869
  0
LINE
  8
0
 10
20.532
 11
20.602
 20
-44.869
 21
-44.905
  0
LINE
  8
0
 10
20.602
 11
20.67
 20
-44.905
 21
-44.945
  0
LINE
  8
0
 10
20.67
 11
20.735
 20
-44.945
 21
-44.989
  0
LINE
  8
0
 10
20.735
 11
20.797
 20
-44.989
 21
-45.037
  0
LINE
  8
0
 10
20.797
 11
20.856
 20
-45.037
 21
-45.089
  0
LINE
  8
0
 10
20.856
 11
20.911
 20
-45.089
 21
-45.144
  0
LINE
  8
0
 10
20.911
 11
20.963
 20
-45.144
 21
-45.203
  0
LINE
  8
0
 10
20.963
 11
21.011
 20
-45.203
 21
-45.265
  0
LINE
  8
0
 10
21.011
 11
21.055
 20
-45.265
 21
-45.33
  0
LINE
  8
0
 10
21.055
 11
21.095
 20
-45.33
 21
-45.398
  0
LINE
  8
0
 10
21.095
 11
21.131
 20
-45.398
 21
-45.468
  0
LINE
  8
0
 10
21.131
 11
21.162
 20
-45.468
 21
-45.54
  0
LINE
  8
0
 10
21.162
 11
21.189
 20
-45.54
 21
-45.614
  0
LINE
  8
0
 10
21.189
 11
21.211
 20
-45.614
 21
-45.689
  0
LINE
  8
0
 10
21.211
 11
21.228
 20
-45.689
 21
-45.766
  0
LINE
  8
0
 10
21.228
 11
21.24
 20
-45.766
 21
-45.843
  0
LINE
  8
0
 10
21.24
 11
21.248
 20
-45.843
 21
-45.922
  0
LINE
  8
0
 10
21.248
 11
21.25
 20
-45.922
 21
-46
  0
LINE
  8
0
 10
21.25
 11
21.248
 20
-46
 21
-46.078
  0
LINE
  8
0
 10
21.248
 11
21.24
 20
-46.078
 21
-46.157
  0
LINE
  8
0
 10
21.24
 11
21.228
 20
-46.157
 21
-46.234
  0
LINE
  8
0
 10
21.228
 11
21.211
 20
-46.234
 21
-46.311
  0
LINE
  8
0
 10
21.211
 11
21.189
 20
-46.311
 21
-46.386
  0
LINE
  8
0
 10
21.189
 11
21.162
 20
-46.386
 21
-46.46
  0
LINE
  8
0
 10
21.162
 11
21.131
 20
-46.46
 21
-46.532
  0
LINE
  8
0
 10
21.131
 11
21.095
 20
-46.532
 21
-46.602
  0
LINE
  8
0
 10
21.095
 11
21.055
 20
-46.602
 21
-46.67
  0
LINE
  8
0
 10
21.055
 11
21.011
 20
-46.67
 21
-46.735
  0
LINE
  8
0
 10
21.011
 11
20.963
 20
-46.735
 21
-46.797
  0
LINE
  8
0
 10
20.963
 11
20.911
 20
-46.797
 21
-46.856
  0
LINE
  8
0
 10
20.911
 11
20.856
 20
-46.856
 21
-46.911
  0
LINE
  8
0
 10
20.856
 11
20.797
 20
-46.911
 21
-46.963
  0
LINE
  8
0
 10
20.797
 11
20.735
 20
-46.963
 21
-47.011
  0
LINE
  8
0
 10
20.735
 11
20.67
 20
-47.011
 21
-47.055
  0
LINE
  8
0
 10
20.67
 11
20.602
 20
-47.055
 21
-47.095
  0
LINE
  8
0
 10
20.602
 11
20.532
 20
-47.095
 21
-47.131
  0
LINE
  8
0
 10
20.532
 11
20.46
 20
-47.131
 21
-47.162
  0
LINE
  8
0
 10
20.46
 11
20.386
 20
-47.162
 21
-47.189
  0
LINE
  8
0
 10
20.386
 11
20.311
 20
-47.189
 21
-47.211
  0
LINE
  8
0
 10
20.311
 11
20.234
 20
-47.211
 21
-47.228
  0
LINE
  8
0
 10
20.234
 11
20.157
 20
-47.228
 21
-47.24
  0
LINE
  8
0
 10
20.157
 11
20.078
 20
-47.24
 21
-47.248
  0
LINE
  8
0
 10
20.078
 11
20
 20
-47.248
 21
-47.25
  0
LINE
  8
0
 10
20
 11
19.922
 20
-47.25
 21
-47.248
  0
LINE
  8
0
 10
19.922
 11
19.843
 20
-47.248
 21
-47.24
  0
LINE
  8
0
 10
19.843
 11
19.766
 20
-47.24
 21
-47.228
  0
LINE
  8
0
 10
19.766
 11
19.689
 20
-47.228
 21
-47.211
  0
LINE
  8
0
 10
19.689
 11
19.614
 20
-47.211
 21
-47.189
  0
LINE
  8
0
 10
19.614
 11
19.54
 20
-47.189
 21
-47.162
  0
LINE
  8
0
 10
19.54
 11
19.468
 20
-47.162
 21
-47.131
  0
LINE
  8
0
 10
19.468
 11
19.398
 20
-47.131
 21
-47.095
  0
LINE
  8
0
 10
19.398
 11
19.33
 20
-47.095
 21
-47.055
  0
LINE
  8
0
 10
19.33
 11
19.265
 20
-47.055
 21
-47.011
  0
LINE
  8
0
 10
19.265
 11
19.203
 20
-47.011
 21
-46.963
  0
LINE
  8
0
 10
19.203
 11
19.144
 20
-46.963
 21
-46.911
  0
LINE
  8
0
 10
19.144
 11
19.089
 20
-46.911
 21
-46.856
  0
LINE
  8
0
 10
19.089
 11
19.037
 20
-46.856
 21
-46.797
  0
LINE
  8
0
 10
19.037
 11
18.989
 20
-46.797
 21
-46.735
  0
LINE
  8
0
 10
18.989
 11
18.945
 20
-46.735
 21
-46.67
  0
LINE
  8
0
 10
18.945
 11
18.905
 20
-46.67
 21
-46.602
  0
LINE
  8
0
 10
18.905
 11
18.869
 20
-46.602
 21
-46.532
  0
LINE
  8
0
 10
18.869
 11
18.838
 20
-46.532
 21
-46.46
  0
LINE
  8
0
 10
18.838
 11
18.811
 20
-46.46
 21
-46.386
  0
LINE
  8
0
 10
18.811
 11
18.789
 20
-46.386
 21
-46.311
  0
LINE
  8
0
 10
18.789
 11
18.772
 20
-46.311
 21
-46.234
  0
LINE
  8
0
 10
18.772
 11
18.76
 20
-46.234
 21
-46.157
  0
LINE
  8
0
 10
18.76
 11
18.752
 20
-46.157
 21
-46.078
  0
LINE
  8
0
 10
18.752
 11
18.75
 20
-46.078
 21
-46
  0
LINE
  8
0
 10
33.425
 11
33.425
 20
-88.075
 21
-41.925
  0
LINE
  8
0
 10
33.425
 11
36.575
 20
-41.925
 21
-41.925
  0
LINE
  8
0
 10
36.575
 11
36.575
 20
-41.925
 21
-88.075
  0
LINE
  8
0
 10
36.575
 11
33.425
 20
-88.075
 21
-88.075
  0
LINE
  8
0
 10
33.425
 11
33.425
 20
41.925
 21
88.075
  0
LINE
  8
0
 10
33.425
 11
36.575
 20
88.075
 21
88.075
  0
LINE
  8
0
 10
36.575
 11
36.575
 20
88.075
 21
41.925
  0
LINE
  8
0
 10
36.575
 11
33.425
 20
41.925
 21
41.925
  0
LINE
  8
0
 10
41.925
 11
41.925
 20
-36.575
 21
-33.425
  0
LINE
  8
0
 10
41.925
 11
88.075
 20
-33.425
 21
-33.425
  0
LINE
  8
0
 10
88.075
 11
88.075
 20
-33.425
 21
-36.575
  0
LINE
  8
0
 10
88.075
 11
41.925
 20
-36.575
 21
-36.575
  0
LINE
  8
0
 10
41.925
 11
41.925
 20
33.425
 21
36.575
  0
LINE
  8
0
 10
41.925
 11
88.075
 20
36.575
 21
36.575
  0
LINE
  8
0
 10
88.075
 11
88.075
 20
36.575
 21
33.425
  0
LINE
  8
0
 10
88.075
 11
41.925
 20
33.425
 21
33.425
  0
LINE
  8
0
 10
54.75
 11
54.752
 20
42
 21
42.078
  0
LINE
  8
0
 10
54.752
 11
54.76
 20
42.078
 21
42.157
  0
LINE
  8
0
 10
54.76
 11
54.772
 20
42.157
 21
42.234
  0
LINE
  8
0
 10
54.772
 11
54.789
 20
42.234
 21
42.311
  0
LINE
  8
0
 10
54.789
 11
54.811
 20
42.311
 21
42.386
  0
LINE
  8
0
 10
54.811
 11
54.838
 20
42.386
 21
42.46
  0
LINE
  8
0
 10
54.838
 11
54.869
 20
42.46
 21
42.532
  0
LINE
  8
0
 10
54.869
 11
54.905
 20
42.532
 21
42.602
  0
LINE
  8
0
 10
54.905
 11
54.945
 20
42.602
 21
42.67
  0
LINE
  8
0
 10
54.945
 11
54.989
 20
42.67
 21
42.735
  0
LINE
  8
0
 10
54.989
 11
55.037
 20
42.735
 21
42.797
  0
LINE
  8
0
 10
55.037
 11
55.089
 20
42.797
 21
42.856
  0
LINE
  8
0
 10
55.089
 11
55.144
 20
42.856
 21
42.911
  0
LINE
  8
0
 10
55.144
 11
55.203
 20
42.911
 21
42.963
  0
LINE
  8
0
 10
55.203
 11
55.265
 20
42.963
 21
43.011
  0
LINE
  8
0
 10
55.265
 11
55.33
 20
43.011
 21
43.055
  0
LINE
  8
0
 10
55.33
 11
55.398
 20
43.055
 21
43.095
  0
LINE
  8
0
 10
55.398
 11
55.468
 20
43.095
 21
43.131
  0
LINE
  8
0
 10
55.468
 11
55.54
 20
43.131
 21
43.162
  0
LINE
  8
0
 10
55.54
 11
55.614
 20
43.162
 21
43.189
  0
LINE
  8
0
 10
55.614
 11
55.689
 20
43.189
 21
43.211
  0
LINE
  8
0
 10
55.689
 11
55.766
 20
43.211
 21
43.228
  0
LINE
  8
0
 10
55.766
 11
55.843
 20
43.228
 21
43.24
  0
LINE
  8
0
 10
55.843
 11
55.922
 20
43.24
 21
43.248
  0
LINE
  8
0
 10
55.922
 11
56
 20
43.248
 21
43.25
  0
LINE
  8
0
 10
56
 11
56.078
 20
43.25
 21
43.248
  0
LINE
  8
0
 10
56.078
 11
56.157
 20
43.248
 21
43.24
  0
LINE
  8
0
 10
56.157
 11
56.234
 20
43.24
 21
43.228
  0
LINE
  8
0
 10
56.234
 11
56.311
 20
43.228
 21
43.211
  0
LINE
  8
0
 10
56.311
 11
56.386
 20
43.211
 21
43.189
  0
LINE
  8
0
 10
56.386
 11
56.46
 20
43.189
 21
43.162
  0
LINE
  8
0
 10
56.46
 11
56.532
 20
43.162
 21
43.131
  0
LINE
  8
0
 10
56.532
 11
56.602
 20
43.131
 21
43.095
  0
LINE
  8
0
 10
56.602
 11
56.67
 20
43.095
 21
43.055
  0
LINE
  8
0
 10
56.67
 11
56.735
 20
43.055
 21
43.011
  0
LINE
  8
0
 10
56.735
 11
56.797
 20
43.011
 21
42.963
  0
LINE
  8
0
 10
56.797
 11
56.856
 20
42.963
 21
42.911
  0
LINE
  8
0
 10
56.856
 11
56.911
 20
42.911
 21
42.856
  0
LINE
  8
0
 10
56.911
 11
56.963
 20
42.856
 21
42.797
  0
LINE
  8
0
 10
56.963
 11
57.011
 20
42.797
 21
42.735
  0
LINE
  8
0
 10
57.011
 11
57.055
 20
42.735
 21
42.67
  0
LINE
  8
0
 10
57.055
 11
57.095
 20
42.67
 21
42.602
  0
LINE
  8
0
 10
57.095
 11
57.131
 20
42.602
 21
42.532
  0
LINE
  8
0
 10
57.131
 11
57.162
 20
42.532
 21
42.46
  0
LINE
  8
0
 10
57.162
 11
57.189
 20
42.46
 21
42.386
  0
LINE
  8
0
 10
57.189
 11
57.211
 20
42.386
 21
42.311
  0
LINE
  8
0
 10
57.211
 11
57.228
 20
42.311
 21
42.234
  0
LINE
  8
0
 10
57.228
 11
57.24
 20
42.234
 21
42.157
  0
LINE
  8
0
 10
57.24
 11
57.248
 20
42.157
 21
42.078
  0
LINE
  8
0
 10
57.248
 11
57.25
 20
42.078
 21
42
  0
LINE
  8
0
 10
57.25
 11
57.248
 20
42
 21
41.922
  0
LINE
  8
0
 10
57.248
 11
57.24
 20
41.922
 21
41.843
  0
LINE
  8
0
 10
57.24
 11
57.228
 20
41.843
 21
41.766
  0
LINE
  8
0
 10
57.228
 11
57.211
 20
41.766
 21
41.689
  0
LINE
  8
0
 10
57.211
 11
57.189
 20
41.689
 21
41.614
  0
LINE
  8
0
 10
57.189
 11
57.162
 20
41.614
 21
41.54
  0
LINE
  8
0
 10
57.162
 11
57.131
 20
41.54
 21
41.468
  0
LINE
  8
0
 10
57.131
 11
57.095
 20
41.468
 21
41.398
  0
LINE
  8
0
 10
57.095
 11
57.055
 20
41.398
 21
41.33
  0
LINE
  8
0
 10
57.055
 11
57.011
 20
41.33
 21
41.265
  0
LINE
  8
0
 10
57.011
 11
56.963
 20
41.265
 21
41.203
  0
LINE
  8
0
 10
56.963
 11
56.911
 20
41.203
 21
41.144
  0
LINE
  8
0
 10
56.911
 11
56.856
 20
41.144
 21
41.089
  0
LINE
  8
0
 10
56.856
 11
56.797
 20
41.089
 21
41.037
  0
LINE
  8
0
 10
56.797
 11
56.735
 20
41.037
 21
40.989
  0
LINE
  8
0
 10
56.735
 11
56.67
 20
40.989
 21
40.945
  0
LINE
  8
0
 10
56.67
 11
56.602
 20
40.945
 21
40.905
  0
LINE
  8
0
 10
56.602
 11
56.532
 20
40.905
 21
40.869
  0
LINE
  8
0
 10
56.532
 11
56.46
 20
40.869
 21
40.838
  0
LINE
  8
0
 10
56.46
 11
56.386
 20
40.838
 21
40.811
  0
LINE
  8
0
 10
56.386
 11
56.311
 20
40.811
 21
40.789
  0
LINE
  8
0
 10
56.311
 11
56.234
 20
40.789
 21
40.772
  0
LINE
  8
0
 10
56.234
 11
56.157
 20
40.772
 21
40.76
  0
LINE
  8
0
 10
56.157
 11
56.078
 20
40.76
 21
40.752
  0
LINE
  8
0
 10
56.078
 11
56
 20
40.752
 21
40.75
  0
LINE
  8
0
 10
56
 11
55.922
 20
40.75
 21
40.752
  0
LINE
  8
0
 10
55.922
 11
55.843
 20
40.752
 21
40.76
  0
LINE
  8
0
 10
55.843
 11
55.766
 20
40.76
 21
40.772
  0
LINE
  8
0
 10
55.766
 11
55.689
 20
40.772
 21
40.789
  0
LINE
  8
0
 10
55.689
 11
55.614
 20
40.789
 21
40.811
  0
LINE
  8
0
 10
55.614
 11
55.54
 20
40.811
 21
40.838
  0
LINE
  8
0
 10
55.54
 11
55.468
 20
40.838
 21
40.869
  0
LINE
  8
0
 10
55.468
 11
55.398
 20
40.869
 21
40.905
  0
LINE
  8
0
 10
55.398
 11
55.33
 20
40.905
 21
40.945
  0
LINE
  8
0
 10
55.33
 11
55.265
 20
40.945
 21
40.989
  0
LINE
  8
0
 10
55.265
 11
55.203
 20
40.989
 21
41.037
  0
LINE
  8
0
 10
55.203
 11
55.144
 20
41.037
 21
41.089
  0
LINE
  8
0
 10
55.144
 11
55.089
 20
41.089
 21
41.144
  0
LINE
  8
0
 10
55.089
 11
55.037
 20
41.144
 21
41.203
  0
LINE
  8
0
 10
55.037
 11
54.989
 20
41.203
 21
41.265
  0
LINE
  8
0
 10
54.989
 11
54.945
 20
41.265
 21
41.33
  0
LINE
  8
0
 10
54.945
 11
54.905
 20
41.33
 21
41.398
  0
LINE
  8
0
 10
54.905
 11
54.869
 20
41.398
 21
41.468
  0
LINE
  8
0
 10
54.869
 11
54.838
 20
41.468
 21
41.54
  0
LINE
  8
0
 10
54.838
 11
54.811
 20
41.54
 21
41.614
  0
LINE
  8
0
 10
54.811
 11
54.789
 20
41.614
 21
41.689
  0
LINE
  8
0
 10
54.789
 11
54.772
 20
41.689
 21
41.766
  0
LINE
  8
0
 10
54.772
 11
54.76
 20
41.766
 21
41.843
  0
LINE
  8
0
 10
54.76
 11
54.752
 20
41.843
 21
41.922
  0
LINE
  8
0
 10
54.752
 11
54.75
 20
41.922
 21
42
  0
LINE
  8
0
 10
88.5
 11
88.503
 20
-45
 21
-44.906
  0
LINE
  8
0
 10
88.503
 11
88.512
 20
-44.906
 21
-44.812
  0
LINE
  8
0
 10
88.512
 11
88.527
 20
-44.812
 21
-44.719
  0
LINE
  8
0
 10
88.527
 11
88.547
 20
-44.719
 21
-44.627
  0
LINE
  8
0
 10
88.547
 11
88.573
 20
-44.627
 21
-44.536
  0
LINE
  8
0
 10
88.573
 11
88.605
 20
-44.536
 21
-44.448
  0
LINE
  8
0
 10
88.605
 11
88.643
 20
-44.448
 21
-44.361
  0
LINE
  8
0
 10
88.643
 11
88.686
 20
-44.361
 21
-44.277
  0
LINE
  8
0
 10
88.686
 11
88.734
 20
-44.277
 21
-44.196
  0
LINE
  8
0
 10
88.734
 11
88.786
 20
-44.196
 21
-44.118
  0
LINE
  8
0
 10
88.786
 11
88.844
 20
-44.118
 21
-44.044
  0
LINE
  8
0
 10
88.844
 11
88.907
 20
-44.044
 21
-43.973
  0
LINE
  8
0
 10
88.907
 11
88.973
 20
-43.973
 21
-43.907
  0
LINE
  8
0
 10
88.973
 11
89.044
 20
-43.907
 21
-43.844
  0
LINE
  8
0
 10
89.044
 11
89.118
 20
-43.844
 21
-43.786
  0
LINE
  8
0
 10
89.118
 11
89.196
 20
-43.786
 21
-43.734
  0
LINE
  8
0
 10
89.196
 11
89.277
 20
-43.734
 21
-43.686
  0
LINE
  8
0
 10
89.277
 11
89.361
 20
-43.686
 21
-43.643
  0
LINE
  8
0
 10
89.361
 11
89.448
 20
-43.643
 21
-43.605
  0
LINE
  8
0
 10
89.448
 11
89.536
 20
-43.605
 21
-43.573
  0
LINE
  8
0
 10
89.536
 11
89.627
 20
-43.573
 21
-43.547
  0
LINE
  8
0
 10
89.627
 11
89.719
 20
-43.547
 21
-43.527
  0
LINE
  8
0
 10
89.719
 11
89.812
 20
-43.527
 21
-43.512
  0
LINE
  8
0
 10
89.812
 11
89.906
 20
-43.512
 21
-43.503
  0
LINE
  8
0
 10
89.906
 11
90
 20
-43.503
 21
-43.5
  0
LINE
  8
0
 10
90
 11
90.094
 20
-43.5
 21
-43.503
  0
LINE
  8
0
 10
90.094
 11
90.188
 20
-43.503
 21
-43.512
  0
LINE
  8
0
 10
90.188
 11
90.281
 20
-43.512
 21
-43.527
  0
LINE
  8
0
 10
90.281
 11
90.373
 20
-43.527
 21
-43.547
  0
LINE
  8
0
 10
90.373
 11
90.464
 20
-43.547
 21
-43.573
  0
LINE
  8
0
 10
90.464
 11
90.552
 20
-43.573
 21
-43.605
  0
LINE
  8
0
 10
90.552
 11
90.639
 20
-43.605
 21
-43.643
  0
LINE
  8
0
 10
90.639
 11
90.723
 20
-43.643
 21
-43.686
  0
LINE
  8
0
 10
90.723
 11
90.804
 20
-43.686
 21
-43.734
  0
LINE
  8
0
 10
90.804
 11
90.882
 20
-43.734
 21
-43.786
  0
LINE
  8
0
 10
90.882
 11
90.956
 20
-43.786
 21
-43.844
  0
LINE
  8
0
 10
90.956
 11
91.027
 20
-43.844
 21
-43.907
  0
LINE
  8
0
 10
91.027
 11
91.093
 20
-43.907
 21
-43.973
  0
LINE
  8
0
 10
91.093
 11
91.156
 20
-43.973
 21
-44.044
  0
LINE
  8
0
 10
91.156
 11
91.214
 20
-44.044
 21
-44.118
  0
LINE
  8
0
 10
91.214
 11
91.266
 20
-44.118
 21
-44.196
  0
LINE
  8
0
 10
91.266
 11
91.314
 20
-44.196
 21
-44.277
  0
LINE
  8
0
 10
91.314
 11
91.357
 20
-44.277
 21
-44.361
  0
LINE
  8
0
 10
91.357
 11
91.395
 20
-44.361
 21
-44.448
  0
LINE
  8
0
 10
91.395
 11
91.427
 20
-44.448
 21
-44.536
  0
LINE
  8
0
 10
91.427
 11
91.453
 20
-44.536
 21
-44.627
  0
LINE
  8
0
 10
91.453
 11
91.473
 20
-44.627
 21
-44.719
  0
LINE
  8
0
 10
91.473
 11
91.488
 20
-44.719
 21
-44.812
  0
LINE
  8
0
 10
91.488
 11
91.497
 20
-44.812
 21
-44.906
  0
LINE
  8
0
 10
91.497
 11
91.5
 20
-44.906
 21
-45
  0
LINE
  8
0
 10
91.5
 11
91.497
 20
-45
 21
-45.094
  0
LINE
  8
0
 10
91.497
 11
91.488
 20
-45.094
 21
-45.188
  0
LINE
  8
0
 10
91.488
 11
91.473
 20
-45.188
 21
-45.281
  0
LINE
  8
0
 10
91.473
 11
91.453
 20
-45.281
 21
-45.373
  0
LINE
  8
0
 10
91.453
 11
91.427
 20
-45.373
 21
-45.464
  0
LINE
  8
0
 10
91.427
 11
91.395
 20
-45.464
 21
-45.552
  0
LINE
  8
0
 10
91.395
 11
91.357
 20
-45.552
 21
-45.639
  0
LINE
  8
0
 10
91.357
 11
91.314
 20
-45.639
 21
-45.723
  0
LINE
  8
0
 10
91.314
 11
91.266
 20
-45.723
 21
-45.804
  0
LINE
  8
0
 10
91.266
 11
91.214
 20
-45.804
 21
-45.882
  0
LINE
  8
0
 10
91.214
 11
91.156
 20
-45.882
 21
-45.956
  0
LINE
  8
0
 10
91.156
 11
91.093
 20
-45.956
 21
-46.027
  0
LINE
  8
0
 10
91.093
 11
91.027
 20
-46.027
 21
-46.093
  0
LINE
  8
0
 10
91.027
 11
90.956
 20
-46.093
 21
-46.156
  0
LINE
  8
0
 10
90.956
 11
90.882
 20
-46.156
 21
-46.214
  0
LINE
  8
0
 10
90.882
 11
90.804
 20
-46.214
 21
-46.266
  0
LINE
  8
0
 10
90.804
 11
90.723
 20
-46.266
 21
-46.314
  0
LINE
  8
0
 10
90.723
 11
90.639
 20
-46.314
 21
-46.357
  0
LINE
  8
0
 10
90.639
 11
90.552
 20
-46.357
 21
-46.395
  0
LINE
  8
0
 10
90.552
 11
90.464
 20
-46.395
 21
-46.427
  0
LINE
  8
0
 10
90.464
 11
90.373
 20
-46.427
 21
-46.453
  0
LINE
  8
0
 10
90.373
 11
90.281
 20
-46.453
 21
-46.473
  0
LINE
  8
0
 10
90.281
 11
90.188
 20
-46.473
 21
-46.488
  0
LINE
  8
0
 10
90.188
 11
90.094
 20
-46.488
 21
-46.497
  0
LINE
  8
0
 10
90.094
 11
90
 20
-46.497
 21
-46.5
  0
LINE
  8
0
 10
90
 11
89.906
 20
-46.5
 21
-46.497
  0
LINE
  8
0
 10
89.906
 11
89.812
 20
-46.497
 21
-46.488
  0
LINE
  8
0
 10
89.812
 11
89.719
 20
-46.488
 21
-46.473
  0
LINE
  8
0
 10
89.719
 11
89.627
 20
-46.473
 21
-46.453
  0
LINE
  8
0
 10
89.627
 11
89.536
 20
-46.453
 21
-46.427
  0
LINE
  8
0
 10
89.536
 11
89.448
 20
-46.427
 21
-46.395
  0
LINE
  8
0
 10
89.448
 11
89.361
 20
-46.395
 21
-46.357
  0
LINE
  8
0
 10
89.361
 11
89.277
 20
-46.357
 21
-46.314
  0
LINE
  8
0
 10
89.277
 11
89.196
 20
-46.314
 21
-46.266
  0
LINE
  8
0
 10
89.196
 11
89.118
 20
-46.266
 21
-46.214
  0
LINE
  8
0
 10
89.118
 11
89.044
 20
-46.214
 21
-46.156
  0
LINE
  8
0
 10
89.044
 11
88.973
 20
-46.156
 21
-46.093
  0
LINE
  8
0
 10
88.973
 11
88.907
 20
-46.093
 21
-46.027
  0
LINE
  8
0
 10
88.907
 11
88.844
 20
-46.027
 21
-45.956
  0
LINE
  8
0
 10
88.844
 11
88.786
 20
-45.956
 21
-45.882
  0
LINE
  8
0
 10
88.786
 11
88.734
 20
-45.882
 21
-45.804
  0
LINE
  8
0
 10
88.734
 11
88.686
 20
-45.804
 21
-45.723
  0
LINE
  8
0
 10
88.686
 11
88.643
 20
-45.723
 21
-45.639
  0
LINE
  8
0
 10
88.643
 11
88.605
 20
-45.639
 21
-45.552
  0
LINE
  8
0
 10
88.605
 11
88.573
 20
-45.552
 21
-45.464
  0
LINE
  8
0
 10
88.573
 11
88.547
 20
-45.464
 21
-45.373
  0
LINE
  8
0
 10
88.547
 11
88.527
 20
-45.373
 21
-45.281
  0
LINE
  8
0
 10
88.527
 11
88.512
 20
-45.281
 21
-45.188
  0
LINE
  8
0
 10
88.512
 11
88.503
 20
-45.188
 21
-45.094
  0
LINE
  8
0
 10
88.503
 11
88.5
 20
-45.094
 21
-45
  0
LINE
  8
0
 10
88.5
 11
88.503
 20
45
 21
45.094
  0
LINE
  8
0
 10
88.503
 11
88.512
 20
45.094
 21
45.188
  0
LINE
  8
0
 10
88.512
 11
88.527
 20
45.188
 21
45.281
  0
LINE
  8
0
 10
88.527
 11
88.547
 20
45.281
 21
45.373
  0
LINE
  8
0
 10
88.547
 11
88.573
 20
45.373
 21
45.464
  0
LINE
  8
0
 10
88.573
 11
88.605
 20
45.464
 21
45.552
  0
LINE
  8
0
 10
88.605
 11
88.643
 20
45.552
 21
45.639
  0
LINE
  8
0
 10
88.643
 11
88.686
 20
45.639
 21
45.723
  0
LINE
  8
0
 10
88.686
 11
88.734
 20
45.723
 21
45.804
  0
LINE
  8
0
 10
88.734
 11
88.786
 20
45.804
 21
45.882
  0
LINE
  8
0
 10
88.786
 11
88.844
 20
45.882
 21
45.956
  0
LINE
  8
0
 10
88.844
 11
88.907
 20
45.956
 21
46.027
  0
LINE
  8
0
 10
88.907
 11
88.973
 20
46.027
 21
46.093
  0
LINE
  8
0
 10
88.973
 11
89.044
 20
46.093
 21
46.156
  0
LINE
  8
0
 10
89.044
 11
89.118
 20
46.156
 21
46.214
  0
LINE
  8
0
 10
89.118
 11
89.196
 20
46.214
 21
46.266
  0
LINE
  8
0
 10
89.196
 11
89.277
 20
46.266
 21
46.314
  0
LINE
  8
0
 10
89.277
 11
89.361
 20
46.314
 21
46.357
  0
LINE
  8
0
 10
89.361
 11
89.448
 20
46.357
 21
46.395
  0
LINE
  8
0
 10
89.448
 11
89.536
 20
46.395
 21
46.427
  0
LINE
  8
0
 10
89.536
 11
89.627
 20
46.427
 21
46.453
  0
LINE
  8
0
 10
89.627
 11
89.719
 20
46.453
 21
46.473
  0
LINE
  8
0
 10
89.719
 11
89.812
 20
46.473
 21
46.488
  0
LINE
  8
0
 10
89.812
 11
89.906
 20
46.488
 21
46.497
  0
LINE
  8
0
 10
89.906
 11
90
 20
46.497
 21
46.5
  0
LINE
  8
0
 10
90
 11
90.094
 20
46.5
 21
46.497
  0
LINE
  8
0
 10
90.094
 11
90.188
 20
46.497
 21
46.488
  0
LINE
  8
0
 10
90.188
 11
90.281
 20
46.488
 21
46.473
  0
LINE
  8
0
 10
90.281
 11
90.373
 20
46.473
 21
46.453
  0
LINE
  8
0
 10
90.373
 11
90.464
 20
46.453
 21
46.427
  0
LINE
  8
0
 10
90.464
 11
90.552
 20
46.427
 21
46.395
  0
LINE
  8
0
 10
90.552
 11
90.639
 20
46.395
 21
46.357
  0
LINE
  8
0
 10
90.639
 11
90.723
 20
46.357
 21
46.314
  0
LINE
  8
0
 10
90.723
 11
90.804
 20
46.314
 21
46.266
  0
LINE
  8
0
 10
90.804
 11
90.882
 20
46.266
 21
46.214
  0
LINE
  8
0
 10
90.882
 11
90.956
 20
46.214
 21
46.156
  0
LINE
  8
0
 10
90.956
 11
91.027
 20
46.156
 21
46.093
  0
LINE
  8
0
 10
91.027
 11
91.093
 20
46.093
 21
46.027
  0
LINE
  8
0
 10
91.093
 11
91.156
 20
46.027
 21
45.956
  0
LINE
  8
0
 10
91.156
 11
91.214
 20
45.956
 21
45.882
  0
LINE
  8
0
 10
91.214
 11
91.266
 20
45.882
 21
45.804
  0
LINE
  8
0
 10
91.266
 11
91.314
 20
45.804
 21
45.723
  0
LINE
  8
0
 10
91.314
 11
91.357
 20
45.723
 21
45.639
  0
LINE
  8
0
 10
91.357
 11
91.395
 20
45.639
 21
45.552
  0
LINE
  8
0
 10
91.395
 11
91.427
 20
45.552
 21
45.464
  0
LINE
  8
0
 10
91.427
 11
91.453
 20
45.464
 21
45.373
  0
LINE
  8
0
 10
91.453
 11
91.473
 20
45.373
 21
45.281
  0
LINE
  8
0
 10
91.473
 11
91.488
 20
45.281
 21
45.188
  0
LINE
  8
0
 10
91.488
 11
91.497
 20
45.188
 21
45.094
  0
LINE
  8
0
 10
91.497
 11
91.5
 20
45.094
 21
45
  0
LINE
  8
0
 10
91.5
 11
91.497
 20
45
 21
44.906
  0
LINE
  8
0
 10
91.497
 11
91.488
 20
44.906
 21
44.812
  0
LINE
  8
0
 10
91.488
 11
91.473
 20
44.812
 21
44.719
  0
LINE
  8
0
 10
91.473
 11
91.453
 20
44.719
 21
44.627
  0
LINE
  8
0
 10
91.453
 11
91.427
 20
44.627
 21
44.536
  0
LINE
  8
0
 10
91.427
 11
91.395
 20
44.536
 21
44.448
  0
LINE
  8
0
 10
91.395
 11
91.357
 20
44.448
 21
44.361
  0
LINE
  8
0
 10
91.357
 11
91.314
 20
44.361
 21
44.277
  0
LINE
  8
0
 10
91.314
 11
91.266
 20
44.277
 21
44.196
  0
LINE
  8
0
 10
91.266
 11
91.214
 20
44.196
 21
44.118
  0
LINE
  8
0
 10
91.214
 11
91.156
 20
44.118
 21
44.044
  0
LINE
  8
0
 10
91.156
 11
91.093
 20
44.044
 21
43.973
  0
LINE
  8
0
 10
91.093
 11
91.027
 20
43.973
 21
43.907
  0
LINE
  8
0
 10
91.027
 11
90.956
 20
43.907
 21
43.844
  0
LINE
  8
0
 10
90.956
 11
90.882
 20
43.844
 21
43.786
  0
LINE
  8
0
 10
90.882
 11
90.804
 20
43.786
 21
43.734
  0
LINE
  8
0
 10
90.804
 11
90.723
 20
43.734
 21
43.686
  0
LINE
  8
0
 10
90.723
 11
90.639
 20
43.686
 21
43.643
  0
LINE
  8
0
 10
90.639
 11
90.552
 20
43.643
 21
43.605
  0
LINE
  8
0
 10
90.552
 11
90.464
 20
43.605
 21
43.573
  0
LINE
  8
0
 10
90.464
 11
90.373
 20
43.573
 21
43.547
  0
LINE
  8
0
 10
90.373
 11
90.281
 20
43.547
 21
43.527
  0
LINE
  8
0
 10
90.281
 11
90.188
 20
43.527
 21
43.512
  0
LINE
  8
0
 10
90.188
 11
90.094
 20
43.512
 21
43.503
  0
LINE
  8
0
 10
90.094
 11
90
 20
43.503
 21
43.5
  0
LINE
  8
0
 10
90
 11
89.906
 20
43.5
 21
43.503
  0
LINE
  8
0
 10
89.906
 11
89.812
 20
43.503
 21
43.512
  0
LINE
  8
0
 10
89.812
 11
89.719
 20
43.512
 21
43.527
  0
LINE
  8
0
 10
89.719
 11
89.627
 20
43.527
 21
43.547
  0
LINE
  8
0
 10
89.627
 11
89.536
 20
43.547
 21
43.573
  0
LINE
  8
0
 10
89.536
 11
89.448
 20
43.573
 21
43.605
  0
LINE
  8
0
 10
89.448
 11
89.361
 20
43.605
 21
43.643
  0
LINE
  8
0
 10
89.361
 11
89.277
 20
43.643
 21
43.686
  0
LINE
  8
0
 10
89.277
 11
89.196
 20
43.686
 21
43.734
  0
LINE
  8
0
 10
89.196
 11
89.118
 20
43.734
 21
43.786
  0
LINE
  8
0
 10
89.118
 11
89.044
 20
43.786
 21
43.844
  0
LINE
  8
0
 10
89.044
 11
88.973
 20
43.844
 21
43.907
  0
LINE
  8
0
 10
88.973
 11
88.907
 20
43.907
 21
43.973
  0
LINE
  8
0
 10
88.907
 11
88.844
 20
43.973
 21
44.044
  0
LINE
  8
0
 10
88.844
 11
88.786
 20
44.044
 21
44.118
  0
LINE
  8
0
 10
88.786
 11
88.734
 20
44.118
 21
44.196
  0
LINE
  8
0
 10
88.734
 11
88.686
 20
44.196
 21
44.277
  0
LINE
  8
0
 10
88.686
 11
88.643
 20
44.277
 21
44.361
  0
LINE
  8
0
 10
88.643
 11
88.605
 20
44.361
 21
44.448
  0
LINE
  8
0
 10
88.605
 11
88.573
 20
44.448
 21
44.536
  0
LINE
  8
0
 10
88.573
 11
88.547
 20
44.536
 21
44.627
  0
LINE
  8
0
 10
88.547
 11
88.527
 20
44.627
 21
44.719
  0
LINE
  8
0
 10
88.527
 11
88.512
 20
44.719
 21
44.812
  0
LINE
  8
0
 10
88.512
 11
88.503
 20
44.812
 21
44.906
  0
LINE
  8
0
 10
88.503
 11
88.5
 20
44.906
 21
45
  0
ENDSEC
  0
SECTION
  2
OBJECTS
  0
DICTIONARY
  0
ENDSEC
  0
EOF
