  0
SECTION
  2
BLOCKS
  0
ENDSEC
  0
SECTION
  2
ENTITIES
  0
LINE
  8
0
 10
-9
 11
-9
 20
-3.5
 21
4.5
  0
LINE
  8
0
 10
-9
 11
45
 20
4.5
 21
4.5
  0
LINE
  8
0
 10
45
 11
45
 20
4.5
 21
-3.5
  0
LINE
  8
0
 10
45
 11
-9
 20
-3.5
 21
-3.5
  0
LINE
  8
0
 10
-1.5
 11
-1.497
 20
1.5
 21
1.594
  0
LINE
  8
0
 10
-1.497
 11
-1.488
 20
1.594
 21
1.688
  0
LINE
  8
0
 10
-1.488
 11
-1.473
 20
1.688
 21
1.781
  0
LINE
  8
0
 10
-1.473
 11
-1.453
 20
1.781
 21
1.873
  0
LINE
  8
0
 10
-1.453
 11
-1.427
 20
1.873
 21
1.964
  0
LINE
  8
0
 10
-1.427
 11
-1.395
 20
1.964
 21
2.052
  0
LINE
  8
0
 10
-1.395
 11
-1.357
 20
2.052
 21
2.139
  0
LINE
  8
0
 10
-1.357
 11
-1.314
 20
2.139
 21
2.223
  0
LINE
  8
0
 10
-1.314
 11
-1.266
 20
2.223
 21
2.304
  0
LINE
  8
0
 10
-1.266
 11
-1.214
 20
2.304
 21
2.382
  0
LINE
  8
0
 10
-1.214
 11
-1.156
 20
2.382
 21
2.456
  0
LINE
  8
0
 10
-1.156
 11
-1.093
 20
2.456
 21
2.527
  0
LINE
  8
0
 10
-1.093
 11
-1.027
 20
2.527
 21
2.593
  0
LINE
  8
0
 10
-1.027
 11
-0.956
 20
2.593
 21
2.656
  0
LINE
  8
0
 10
-0.956
 11
-0.882
 20
2.656
 21
2.714
  0
LINE
  8
0
 10
-0.882
 11
-0.804
 20
2.714
 21
2.766
  0
LINE
  8
0
 10
-0.804
 11
-0.723
 20
2.766
 21
2.814
  0
LINE
  8
0
 10
-0.723
 11
-0.639
 20
2.814
 21
2.857
  0
LINE
  8
0
 10
-0.639
 11
-0.552
 20
2.857
 21
2.895
  0
LINE
  8
0
 10
-0.552
 11
-0.464
 20
2.895
 21
2.927
  0
LINE
  8
0
 10
-0.464
 11
-0.373
 20
2.927
 21
2.953
  0
LINE
  8
0
 10
-0.373
 11
-0.281
 20
2.953
 21
2.973
  0
LINE
  8
0
 10
-0.281
 11
-0.188
 20
2.973
 21
2.988
  0
LINE
  8
0
 10
-0.188
 11
-0.094
 20
2.988
 21
2.997
  0
LINE
  8
0
 10
-0.094
 11
0
 20
2.997
 21
3
  0
LINE
  8
0
 10
0
 11
0.094
 20
3
 21
2.997
  0
LINE
  8
0
 10
0.094
 11
0.188
 20
2.997
 21
2.988
  0
LINE
  8
0
 10
0.188
 11
0.281
 20
2.988
 21
2.973
  0
LINE
  8
0
 10
0.281
 11
0.373
 20
2.973
 21
2.953
  0
LINE
  8
0
 10
0.373
 11
0.464
 20
2.953
 21
2.927
  0
LINE
  8
0
 10
0.464
 11
0.552
 20
2.927
 21
2.895
  0
LINE
  8
0
 10
0.552
 11
0.639
 20
2.895
 21
2.857
  0
LINE
  8
0
 10
0.639
 11
0.723
 20
2.857
 21
2.814
  0
LINE
  8
0
 10
0.723
 11
0.804
 20
2.814
 21
2.766
  0
LINE
  8
0
 10
0.804
 11
0.882
 20
2.766
 21
2.714
  0
LINE
  8
0
 10
0.882
 11
0.956
 20
2.714
 21
2.656
  0
LINE
  8
0
 10
0.956
 11
1.027
 20
2.656
 21
2.593
  0
LINE
  8
0
 10
1.027
 11
1.093
 20
2.593
 21
2.527
  0
LINE
  8
0
 10
1.093
 11
1.156
 20
2.527
 21
2.456
  0
LINE
  8
0
 10
1.156
 11
1.214
 20
2.456
 21
2.382
  0
LINE
  8
0
 10
1.214
 11
1.266
 20
2.382
 21
2.304
  0
LINE
  8
0
 10
1.266
 11
1.314
 20
2.304
 21
2.223
  0
LINE
  8
0
 10
1.314
 11
1.357
 20
2.223
 21
2.139
  0
LINE
  8
0
 10
1.357
 11
1.395
 20
2.139
 21
2.052
  0
LINE
  8
0
 10
1.395
 11
1.427
 20
2.052
 21
1.964
  0
LINE
  8
0
 10
1.427
 11
1.453
 20
1.964
 21
1.873
  0
LINE
  8
0
 10
1.453
 11
1.473
 20
1.873
 21
1.781
  0
LINE
  8
0
 10
1.473
 11
1.488
 20
1.781
 21
1.688
  0
LINE
  8
0
 10
1.488
 11
1.497
 20
1.688
 21
1.594
  0
LINE
  8
0
 10
1.497
 11
1.5
 20
1.594
 21
1.5
  0
LINE
  8
0
 10
1.5
 11
1.497
 20
1.5
 21
1.406
  0
LINE
  8
0
 10
1.497
 11
1.488
 20
1.406
 21
1.312
  0
LINE
  8
0
 10
1.488
 11
1.473
 20
1.312
 21
1.219
  0
LINE
  8
0
 10
1.473
 11
1.453
 20
1.219
 21
1.127
  0
LINE
  8
0
 10
1.453
 11
1.427
 20
1.127
 21
1.036
  0
LINE
  8
0
 10
1.427
 11
1.395
 20
1.036
 21
0.948
  0
LINE
  8
0
 10
1.395
 11
1.357
 20
0.948
 21
0.861
  0
LINE
  8
0
 10
1.357
 11
1.314
 20
0.861
 21
0.777
  0
LINE
  8
0
 10
1.314
 11
1.266
 20
0.777
 21
0.696
  0
LINE
  8
0
 10
1.266
 11
1.214
 20
0.696
 21
0.618
  0
LINE
  8
0
 10
1.214
 11
1.156
 20
0.618
 21
0.544
  0
LINE
  8
0
 10
1.156
 11
1.093
 20
0.544
 21
0.473
  0
LINE
  8
0
 10
1.093
 11
1.027
 20
0.473
 21
0.407
  0
LINE
  8
0
 10
1.027
 11
0.956
 20
0.407
 21
0.344
  0
LINE
  8
0
 10
0.956
 11
0.882
 20
0.344
 21
0.286
  0
LINE
  8
0
 10
0.882
 11
0.804
 20
0.286
 21
0.234
  0
LINE
  8
0
 10
0.804
 11
0.723
 20
0.234
 21
0.186
  0
LINE
  8
0
 10
0.723
 11
0.639
 20
0.186
 21
0.143
  0
LINE
  8
0
 10
0.639
 11
0.552
 20
0.143
 21
0.105
  0
LINE
  8
0
 10
0.552
 11
0.464
 20
0.105
 21
0.073
  0
LINE
  8
0
 10
0.464
 11
0.373
 20
0.073
 21
0.047
  0
LINE
  8
0
 10
0.373
 11
0.281
 20
0.047
 21
0.027
  0
LINE
  8
0
 10
0.281
 11
0.188
 20
0.027
 21
0.012
  0
LINE
  8
0
 10
0.188
 11
0.094
 20
0.012
 21
0.003
  0
LINE
  8
0
 10
0.094
 11
0
 20
0.003
 21
0
  0
LINE
  8
0
 10
0
 11
-0.094
 20
0
 21
0.003
  0
LINE
  8
0
 10
-0.094
 11
-0.188
 20
0.003
 21
0.012
  0
LINE
  8
0
 10
-0.188
 11
-0.281
 20
0.012
 21
0.027
  0
LINE
  8
0
 10
-0.281
 11
-0.373
 20
0.027
 21
0.047
  0
LINE
  8
0
 10
-0.373
 11
-0.464
 20
0.047
 21
0.073
  0
LINE
  8
0
 10
-0.464
 11
-0.552
 20
0.073
 21
0.105
  0
LINE
  8
0
 10
-0.552
 11
-0.639
 20
0.105
 21
0.143
  0
LINE
  8
0
 10
-0.639
 11
-0.723
 20
0.143
 21
0.186
  0
LINE
  8
0
 10
-0.723
 11
-0.804
 20
0.186
 21
0.234
  0
LINE
  8
0
 10
-0.804
 11
-0.882
 20
0.234
 21
0.286
  0
LINE
  8
0
 10
-0.882
 11
-0.956
 20
0.286
 21
0.344
  0
LINE
  8
0
 10
-0.956
 11
-1.027
 20
0.344
 21
0.407
  0
LINE
  8
0
 10
-1.027
 11
-1.093
 20
0.407
 21
0.473
  0
LINE
  8
0
 10
-1.093
 11
-1.156
 20
0.473
 21
0.544
  0
LINE
  8
0
 10
-1.156
 11
-1.214
 20
0.544
 21
0.618
  0
LINE
  8
0
 10
-1.214
 11
-1.266
 20
0.618
 21
0.696
  0
LINE
  8
0
 10
-1.266
 11
-1.314
 20
0.696
 21
0.777
  0
LINE
  8
0
 10
-1.314
 11
-1.357
 20
0.777
 21
0.861
  0
LINE
  8
0
 10
-1.357
 11
-1.395
 20
0.861
 21
0.948
  0
LINE
  8
0
 10
-1.395
 11
-1.427
 20
0.948
 21
1.036
  0
LINE
  8
0
 10
-1.427
 11
-1.453
 20
1.036
 21
1.127
  0
LINE
  8
0
 10
-1.453
 11
-1.473
 20
1.127
 21
1.219
  0
LINE
  8
0
 10
-1.473
 11
-1.488
 20
1.219
 21
1.312
  0
LINE
  8
0
 10
-1.488
 11
-1.497
 20
1.312
 21
1.406
  0
LINE
  8
0
 10
-1.497
 11
-1.5
 20
1.406
 21
1.5
  0
LINE
  8
0
 10
34.5
 11
34.503
 20
1.5
 21
1.594
  0
LINE
  8
0
 10
34.503
 11
34.512
 20
1.594
 21
1.688
  0
LINE
  8
0
 10
34.512
 11
34.527
 20
1.688
 21
1.781
  0
LINE
  8
0
 10
34.527
 11
34.547
 20
1.781
 21
1.873
  0
LINE
  8
0
 10
34.547
 11
34.573
 20
1.873
 21
1.964
  0
LINE
  8
0
 10
34.573
 11
34.605
 20
1.964
 21
2.052
  0
LINE
  8
0
 10
34.605
 11
34.643
 20
2.052
 21
2.139
  0
LINE
  8
0
 10
34.643
 11
34.686
 20
2.139
 21
2.223
  0
LINE
  8
0
 10
34.686
 11
34.734
 20
2.223
 21
2.304
  0
LINE
  8
0
 10
34.734
 11
34.786
 20
2.304
 21
2.382
  0
LINE
  8
0
 10
34.786
 11
34.844
 20
2.382
 21
2.456
  0
LINE
  8
0
 10
34.844
 11
34.907
 20
2.456
 21
2.527
  0
LINE
  8
0
 10
34.907
 11
34.973
 20
2.527
 21
2.593
  0
LINE
  8
0
 10
34.973
 11
35.044
 20
2.593
 21
2.656
  0
LINE
  8
0
 10
35.044
 11
35.118
 20
2.656
 21
2.714
  0
LINE
  8
0
 10
35.118
 11
35.196
 20
2.714
 21
2.766
  0
LINE
  8
0
 10
35.196
 11
35.277
 20
2.766
 21
2.814
  0
LINE
  8
0
 10
35.277
 11
35.361
 20
2.814
 21
2.857
  0
LINE
  8
0
 10
35.361
 11
35.448
 20
2.857
 21
2.895
  0
LINE
  8
0
 10
35.448
 11
35.536
 20
2.895
 21
2.927
  0
LINE
  8
0
 10
35.536
 11
35.627
 20
2.927
 21
2.953
  0
LINE
  8
0
 10
35.627
 11
35.719
 20
2.953
 21
2.973
  0
LINE
  8
0
 10
35.719
 11
35.812
 20
2.973
 21
2.988
  0
LINE
  8
0
 10
35.812
 11
35.906
 20
2.988
 21
2.997
  0
LINE
  8
0
 10
35.906
 11
36
 20
2.997
 21
3
  0
LINE
  8
0
 10
36
 11
36.094
 20
3
 21
2.997
  0
LINE
  8
0
 10
36.094
 11
36.188
 20
2.997
 21
2.988
  0
LINE
  8
0
 10
36.188
 11
36.281
 20
2.988
 21
2.973
  0
LINE
  8
0
 10
36.281
 11
36.373
 20
2.973
 21
2.953
  0
LINE
  8
0
 10
36.373
 11
36.464
 20
2.953
 21
2.927
  0
LINE
  8
0
 10
36.464
 11
36.552
 20
2.927
 21
2.895
  0
LINE
  8
0
 10
36.552
 11
36.639
 20
2.895
 21
2.857
  0
LINE
  8
0
 10
36.639
 11
36.723
 20
2.857
 21
2.814
  0
LINE
  8
0
 10
36.723
 11
36.804
 20
2.814
 21
2.766
  0
LINE
  8
0
 10
36.804
 11
36.882
 20
2.766
 21
2.714
  0
LINE
  8
0
 10
36.882
 11
36.956
 20
2.714
 21
2.656
  0
LINE
  8
0
 10
36.956
 11
37.027
 20
2.656
 21
2.593
  0
LINE
  8
0
 10
37.027
 11
37.093
 20
2.593
 21
2.527
  0
LINE
  8
0
 10
37.093
 11
37.156
 20
2.527
 21
2.456
  0
LINE
  8
0
 10
37.156
 11
37.214
 20
2.456
 21
2.382
  0
LINE
  8
0
 10
37.214
 11
37.266
 20
2.382
 21
2.304
  0
LINE
  8
0
 10
37.266
 11
37.314
 20
2.304
 21
2.223
  0
LINE
  8
0
 10
37.314
 11
37.357
 20
2.223
 21
2.139
  0
LINE
  8
0
 10
37.357
 11
37.395
 20
2.139
 21
2.052
  0
LINE
  8
0
 10
37.395
 11
37.427
 20
2.052
 21
1.964
  0
LINE
  8
0
 10
37.427
 11
37.453
 20
1.964
 21
1.873
  0
LINE
  8
0
 10
37.453
 11
37.473
 20
1.873
 21
1.781
  0
LINE
  8
0
 10
37.473
 11
37.488
 20
1.781
 21
1.688
  0
LINE
  8
0
 10
37.488
 11
37.497
 20
1.688
 21
1.594
  0
LINE
  8
0
 10
37.497
 11
37.5
 20
1.594
 21
1.5
  0
LINE
  8
0
 10
37.5
 11
37.497
 20
1.5
 21
1.406
  0
LINE
  8
0
 10
37.497
 11
37.488
 20
1.406
 21
1.312
  0
LINE
  8
0
 10
37.488
 11
37.473
 20
1.312
 21
1.219
  0
LINE
  8
0
 10
37.473
 11
37.453
 20
1.219
 21
1.127
  0
LINE
  8
0
 10
37.453
 11
37.427
 20
1.127
 21
1.036
  0
LINE
  8
0
 10
37.427
 11
37.395
 20
1.036
 21
0.948
  0
LINE
  8
0
 10
37.395
 11
37.357
 20
0.948
 21
0.861
  0
LINE
  8
0
 10
37.357
 11
37.314
 20
0.861
 21
0.777
  0
LINE
  8
0
 10
37.314
 11
37.266
 20
0.777
 21
0.696
  0
LINE
  8
0
 10
37.266
 11
37.214
 20
0.696
 21
0.618
  0
LINE
  8
0
 10
37.214
 11
37.156
 20
0.618
 21
0.544
  0
LINE
  8
0
 10
37.156
 11
37.093
 20
0.544
 21
0.473
  0
LINE
  8
0
 10
37.093
 11
37.027
 20
0.473
 21
0.407
  0
LINE
  8
0
 10
37.027
 11
36.956
 20
0.407
 21
0.344
  0
LINE
  8
0
 10
36.956
 11
36.882
 20
0.344
 21
0.286
  0
LINE
  8
0
 10
36.882
 11
36.804
 20
0.286
 21
0.234
  0
LINE
  8
0
 10
36.804
 11
36.723
 20
0.234
 21
0.186
  0
LINE
  8
0
 10
36.723
 11
36.639
 20
0.186
 21
0.143
  0
LINE
  8
0
 10
36.639
 11
36.552
 20
0.143
 21
0.105
  0
LINE
  8
0
 10
36.552
 11
36.464
 20
0.105
 21
0.073
  0
LINE
  8
0
 10
36.464
 11
36.373
 20
0.073
 21
0.047
  0
LINE
  8
0
 10
36.373
 11
36.281
 20
0.047
 21
0.027
  0
LINE
  8
0
 10
36.281
 11
36.188
 20
0.027
 21
0.012
  0
LINE
  8
0
 10
36.188
 11
36.094
 20
0.012
 21
0.003
  0
LINE
  8
0
 10
36.094
 11
36
 20
0.003
 21
0
  0
LINE
  8
0
 10
36
 11
35.906
 20
0
 21
0.003
  0
LINE
  8
0
 10
35.906
 11
35.812
 20
0.003
 21
0.012
  0
LINE
  8
0
 10
35.812
 11
35.719
 20
0.012
 21
0.027
  0
LINE
  8
0
 10
35.719
 11
35.627
 20
0.027
 21
0.047
  0
LINE
  8
0
 10
35.627
 11
35.536
 20
0.047
 21
0.073
  0
LINE
  8
0
 10
35.536
 11
35.448
 20
0.073
 21
0.105
  0
LINE
  8
0
 10
35.448
 11
35.361
 20
0.105
 21
0.143
  0
LINE
  8
0
 10
35.361
 11
35.277
 20
0.143
 21
0.186
  0
LINE
  8
0
 10
35.277
 11
35.196
 20
0.186
 21
0.234
  0
LINE
  8
0
 10
35.196
 11
35.118
 20
0.234
 21
0.286
  0
LINE
  8
0
 10
35.118
 11
35.044
 20
0.286
 21
0.344
  0
LINE
  8
0
 10
35.044
 11
34.973
 20
0.344
 21
0.407
  0
LINE
  8
0
 10
34.973
 11
34.907
 20
0.407
 21
0.473
  0
LINE
  8
0
 10
34.907
 11
34.844
 20
0.473
 21
0.544
  0
LINE
  8
0
 10
34.844
 11
34.786
 20
0.544
 21
0.618
  0
LINE
  8
0
 10
34.786
 11
34.734
 20
0.618
 21
0.696
  0
LINE
  8
0
 10
34.734
 11
34.686
 20
0.696
 21
0.777
  0
LINE
  8
0
 10
34.686
 11
34.643
 20
0.777
 21
0.861
  0
LINE
  8
0
 10
34.643
 11
34.605
 20
0.861
 21
0.948
  0
LINE
  8
0
 10
34.605
 11
34.573
 20
0.948
 21
1.036
  0
LINE
  8
0
 10
34.573
 11
34.547
 20
1.036
 21
1.127
  0
LINE
  8
0
 10
34.547
 11
34.527
 20
1.127
 21
1.219
  0
LINE
  8
0
 10
34.527
 11
34.512
 20
1.219
 21
1.312
  0
LINE
  8
0
 10
34.512
 11
34.503
 20
1.312
 21
1.406
  0
LINE
  8
0
 10
34.503
 11
34.5
 20
1.406
 21
1.5
  0
ENDSEC
  0
SECTION
  2
OBJECTS
  0
DICTIONARY
  0
ENDSEC
  0
EOF
