  0
SECTION
  2
BLOCKS
  0
ENDSEC
  0
SECTION
  2
ENTITIES
  0
LINE
  8
0
 10
-95
 11
-95
 20
-75
 21
75
  0
LINE
  8
0
 10
-95
 11
-94.961
 20
75
 21
76.256
  0
LINE
  8
0
 10
-94.961
 11
-94.842
 20
76.256
 21
77.507
  0
LINE
  8
0
 10
-94.842
 11
-94.646
 20
77.507
 21
78.748
  0
LINE
  8
0
 10
-94.646
 11
-94.372
 20
78.748
 21
79.974
  0
LINE
  8
0
 10
-94.372
 11
-94.021
 20
79.974
 21
81.18
  0
LINE
  8
0
 10
-94.021
 11
-93.596
 20
81.18
 21
82.362
  0
LINE
  8
0
 10
-93.596
 11
-93.097
 20
82.362
 21
83.516
  0
LINE
  8
0
 10
-93.097
 11
-92.526
 20
83.516
 21
84.635
  0
LINE
  8
0
 10
-92.526
 11
-91.887
 20
84.635
 21
85.717
  0
LINE
  8
0
 10
-91.887
 11
-91.18
 20
85.717
 21
86.756
  0
LINE
  8
0
 10
-91.18
 11
-90.41
 20
86.756
 21
87.748
  0
LINE
  8
0
 10
-90.41
 11
-89.579
 20
87.748
 21
88.691
  0
LINE
  8
0
 10
-89.579
 11
-88.691
 20
88.691
 21
89.579
  0
LINE
  8
0
 10
-88.691
 11
-87.748
 20
89.579
 21
90.41
  0
LINE
  8
0
 10
-87.748
 11
-86.756
 20
90.41
 21
91.18
  0
LINE
  8
0
 10
-86.756
 11
-85.717
 20
91.18
 21
91.887
  0
LINE
  8
0
 10
-85.717
 11
-84.635
 20
91.887
 21
92.526
  0
LINE
  8
0
 10
-84.635
 11
-83.516
 20
92.526
 21
93.097
  0
LINE
  8
0
 10
-83.516
 11
-82.362
 20
93.097
 21
93.596
  0
LINE
  8
0
 10
-82.362
 11
-81.18
 20
93.596
 21
94.021
  0
LINE
  8
0
 10
-81.18
 11
-79.974
 20
94.021
 21
94.372
  0
LINE
  8
0
 10
-79.974
 11
-78.748
 20
94.372
 21
94.646
  0
LINE
  8
0
 10
-78.748
 11
-77.507
 20
94.646
 21
94.842
  0
LINE
  8
0
 10
-77.507
 11
-76.256
 20
94.842
 21
94.961
  0
LINE
  8
0
 10
-76.256
 11
-75
 20
94.961
 21
95
  0
LINE
  8
0
 10
-75
 11
75
 20
95
 21
95
  0
LINE
  8
0
 10
75
 11
76.256
 20
95
 21
94.961
  0
LINE
  8
0
 10
76.256
 11
77.507
 20
94.961
 21
94.842
  0
LINE
  8
0
 10
77.507
 11
78.748
 20
94.842
 21
94.646
  0
LINE
  8
0
 10
78.748
 11
79.974
 20
94.646
 21
94.372
  0
LINE
  8
0
 10
79.974
 11
81.18
 20
94.372
 21
94.021
  0
LINE
  8
0
 10
81.18
 11
82.362
 20
94.021
 21
93.596
  0
LINE
  8
0
 10
82.362
 11
83.516
 20
93.596
 21
93.097
  0
LINE
  8
0
 10
83.516
 11
84.635
 20
93.097
 21
92.526
  0
LINE
  8
0
 10
84.635
 11
85.717
 20
92.526
 21
91.887
  0
LINE
  8
0
 10
85.717
 11
86.756
 20
91.887
 21
91.18
  0
LINE
  8
0
 10
86.756
 11
87.748
 20
91.18
 21
90.41
  0
LINE
  8
0
 10
87.748
 11
88.691
 20
90.41
 21
89.579
  0
LINE
  8
0
 10
88.691
 11
89.579
 20
89.579
 21
88.691
  0
LINE
  8
0
 10
89.579
 11
90.41
 20
88.691
 21
87.748
  0
LINE
  8
0
 10
90.41
 11
91.18
 20
87.748
 21
86.756
  0
LINE
  8
0
 10
91.18
 11
91.887
 20
86.756
 21
85.717
  0
LINE
  8
0
 10
91.887
 11
92.526
 20
85.717
 21
84.635
  0
LINE
  8
0
 10
92.526
 11
93.097
 20
84.635
 21
83.516
  0
LINE
  8
0
 10
93.097
 11
93.596
 20
83.516
 21
82.362
  0
LINE
  8
0
 10
93.596
 11
94.021
 20
82.362
 21
81.18
  0
LINE
  8
0
 10
94.021
 11
94.372
 20
81.18
 21
79.974
  0
LINE
  8
0
 10
94.372
 11
94.646
 20
79.974
 21
78.748
  0
LINE
  8
0
 10
94.646
 11
94.842
 20
78.748
 21
77.507
  0
LINE
  8
0
 10
94.842
 11
94.961
 20
77.507
 21
76.256
  0
LINE
  8
0
 10
94.961
 11
95
 20
76.256
 21
75
  0
LINE
  8
0
 10
95
 11
95
 20
75
 21
16.55
  0
LINE
  8
0
 10
95
 11
76.95
 20
16.55
 21
16.55
  0
LINE
  8
0
 10
76.95
 11
76.95
 20
16.55
 21
-16.55
  0
LINE
  8
0
 10
76.95
 11
95
 20
-16.55
 21
-16.55
  0
LINE
  8
0
 10
95
 11
95
 20
-16.55
 21
-75
  0
LINE
  8
0
 10
95
 11
94.961
 20
-75
 21
-76.256
  0
LINE
  8
0
 10
94.961
 11
94.842
 20
-76.256
 21
-77.507
  0
LINE
  8
0
 10
94.842
 11
94.646
 20
-77.507
 21
-78.748
  0
LINE
  8
0
 10
94.646
 11
94.372
 20
-78.748
 21
-79.974
  0
LINE
  8
0
 10
94.372
 11
94.021
 20
-79.974
 21
-81.18
  0
LINE
  8
0
 10
94.021
 11
93.596
 20
-81.18
 21
-82.362
  0
LINE
  8
0
 10
93.596
 11
93.097
 20
-82.362
 21
-83.516
  0
LINE
  8
0
 10
93.097
 11
92.526
 20
-83.516
 21
-84.635
  0
LINE
  8
0
 10
92.526
 11
91.887
 20
-84.635
 21
-85.717
  0
LINE
  8
0
 10
91.887
 11
91.18
 20
-85.717
 21
-86.756
  0
LINE
  8
0
 10
91.18
 11
90.41
 20
-86.756
 21
-87.748
  0
LINE
  8
0
 10
90.41
 11
89.579
 20
-87.748
 21
-88.691
  0
LINE
  8
0
 10
89.579
 11
88.691
 20
-88.691
 21
-89.579
  0
LINE
  8
0
 10
88.691
 11
87.748
 20
-89.579
 21
-90.41
  0
LINE
  8
0
 10
87.748
 11
86.756
 20
-90.41
 21
-91.18
  0
LINE
  8
0
 10
86.756
 11
85.717
 20
-91.18
 21
-91.887
  0
LINE
  8
0
 10
85.717
 11
84.635
 20
-91.887
 21
-92.526
  0
LINE
  8
0
 10
84.635
 11
83.516
 20
-92.526
 21
-93.097
  0
LINE
  8
0
 10
83.516
 11
82.362
 20
-93.097
 21
-93.596
  0
LINE
  8
0
 10
82.362
 11
81.18
 20
-93.596
 21
-94.021
  0
LINE
  8
0
 10
81.18
 11
79.974
 20
-94.021
 21
-94.372
  0
LINE
  8
0
 10
79.974
 11
78.748
 20
-94.372
 21
-94.646
  0
LINE
  8
0
 10
78.748
 11
77.507
 20
-94.646
 21
-94.842
  0
LINE
  8
0
 10
77.507
 11
76.256
 20
-94.842
 21
-94.961
  0
LINE
  8
0
 10
76.256
 11
75
 20
-94.961
 21
-95
  0
LINE
  8
0
 10
75
 11
-75
 20
-95
 21
-95
  0
LINE
  8
0
 10
-75
 11
-76.256
 20
-95
 21
-94.961
  0
LINE
  8
0
 10
-76.256
 11
-77.507
 20
-94.961
 21
-94.842
  0
LINE
  8
0
 10
-77.507
 11
-78.748
 20
-94.842
 21
-94.646
  0
LINE
  8
0
 10
-78.748
 11
-79.974
 20
-94.646
 21
-94.372
  0
LINE
  8
0
 10
-79.974
 11
-81.18
 20
-94.372
 21
-94.021
  0
LINE
  8
0
 10
-81.18
 11
-82.362
 20
-94.021
 21
-93.596
  0
LINE
  8
0
 10
-82.362
 11
-83.516
 20
-93.596
 21
-93.097
  0
LINE
  8
0
 10
-83.516
 11
-84.635
 20
-93.097
 21
-92.526
  0
LINE
  8
0
 10
-84.635
 11
-85.717
 20
-92.526
 21
-91.887
  0
LINE
  8
0
 10
-85.717
 11
-86.756
 20
-91.887
 21
-91.18
  0
LINE
  8
0
 10
-86.756
 11
-87.748
 20
-91.18
 21
-90.41
  0
LINE
  8
0
 10
-87.748
 11
-88.691
 20
-90.41
 21
-89.579
  0
LINE
  8
0
 10
-88.691
 11
-89.579
 20
-89.579
 21
-88.691
  0
LINE
  8
0
 10
-89.579
 11
-90.41
 20
-88.691
 21
-87.748
  0
LINE
  8
0
 10
-90.41
 11
-91.18
 20
-87.748
 21
-86.756
  0
LINE
  8
0
 10
-91.18
 11
-91.887
 20
-86.756
 21
-85.717
  0
LINE
  8
0
 10
-91.887
 11
-92.526
 20
-85.717
 21
-84.635
  0
LINE
  8
0
 10
-92.526
 11
-93.097
 20
-84.635
 21
-83.516
  0
LINE
  8
0
 10
-93.097
 11
-93.596
 20
-83.516
 21
-82.362
  0
LINE
  8
0
 10
-93.596
 11
-94.021
 20
-82.362
 21
-81.18
  0
LINE
  8
0
 10
-94.021
 11
-94.372
 20
-81.18
 21
-79.974
  0
LINE
  8
0
 10
-94.372
 11
-94.646
 20
-79.974
 21
-78.748
  0
LINE
  8
0
 10
-94.646
 11
-94.842
 20
-78.748
 21
-77.507
  0
LINE
  8
0
 10
-94.842
 11
-94.961
 20
-77.507
 21
-76.256
  0
LINE
  8
0
 10
-94.961
 11
-95
 20
-76.256
 21
-75
  0
LINE
  8
0
 10
-91.5
 11
-91.497
 20
-45
 21
-44.906
  0
LINE
  8
0
 10
-91.497
 11
-91.488
 20
-44.906
 21
-44.812
  0
LINE
  8
0
 10
-91.488
 11
-91.473
 20
-44.812
 21
-44.719
  0
LINE
  8
0
 10
-91.473
 11
-91.453
 20
-44.719
 21
-44.627
  0
LINE
  8
0
 10
-91.453
 11
-91.427
 20
-44.627
 21
-44.536
  0
LINE
  8
0
 10
-91.427
 11
-91.395
 20
-44.536
 21
-44.448
  0
LINE
  8
0
 10
-91.395
 11
-91.357
 20
-44.448
 21
-44.361
  0
LINE
  8
0
 10
-91.357
 11
-91.314
 20
-44.361
 21
-44.277
  0
LINE
  8
0
 10
-91.314
 11
-91.266
 20
-44.277
 21
-44.196
  0
LINE
  8
0
 10
-91.266
 11
-91.214
 20
-44.196
 21
-44.118
  0
LINE
  8
0
 10
-91.214
 11
-91.156
 20
-44.118
 21
-44.044
  0
LINE
  8
0
 10
-91.156
 11
-91.093
 20
-44.044
 21
-43.973
  0
LINE
  8
0
 10
-91.093
 11
-91.027
 20
-43.973
 21
-43.907
  0
LINE
  8
0
 10
-91.027
 11
-90.956
 20
-43.907
 21
-43.844
  0
LINE
  8
0
 10
-90.956
 11
-90.882
 20
-43.844
 21
-43.786
  0
LINE
  8
0
 10
-90.882
 11
-90.804
 20
-43.786
 21
-43.734
  0
LINE
  8
0
 10
-90.804
 11
-90.723
 20
-43.734
 21
-43.686
  0
LINE
  8
0
 10
-90.723
 11
-90.639
 20
-43.686
 21
-43.643
  0
LINE
  8
0
 10
-90.639
 11
-90.552
 20
-43.643
 21
-43.605
  0
LINE
  8
0
 10
-90.552
 11
-90.464
 20
-43.605
 21
-43.573
  0
LINE
  8
0
 10
-90.464
 11
-90.373
 20
-43.573
 21
-43.547
  0
LINE
  8
0
 10
-90.373
 11
-90.281
 20
-43.547
 21
-43.527
  0
LINE
  8
0
 10
-90.281
 11
-90.188
 20
-43.527
 21
-43.512
  0
LINE
  8
0
 10
-90.188
 11
-90.094
 20
-43.512
 21
-43.503
  0
LINE
  8
0
 10
-90.094
 11
-90
 20
-43.503
 21
-43.5
  0
LINE
  8
0
 10
-90
 11
-89.906
 20
-43.5
 21
-43.503
  0
LINE
  8
0
 10
-89.906
 11
-89.812
 20
-43.503
 21
-43.512
  0
LINE
  8
0
 10
-89.812
 11
-89.719
 20
-43.512
 21
-43.527
  0
LINE
  8
0
 10
-89.719
 11
-89.627
 20
-43.527
 21
-43.547
  0
LINE
  8
0
 10
-89.627
 11
-89.536
 20
-43.547
 21
-43.573
  0
LINE
  8
0
 10
-89.536
 11
-89.448
 20
-43.573
 21
-43.605
  0
LINE
  8
0
 10
-89.448
 11
-89.361
 20
-43.605
 21
-43.643
  0
LINE
  8
0
 10
-89.361
 11
-89.277
 20
-43.643
 21
-43.686
  0
LINE
  8
0
 10
-89.277
 11
-89.196
 20
-43.686
 21
-43.734
  0
LINE
  8
0
 10
-89.196
 11
-89.118
 20
-43.734
 21
-43.786
  0
LINE
  8
0
 10
-89.118
 11
-89.044
 20
-43.786
 21
-43.844
  0
LINE
  8
0
 10
-89.044
 11
-88.973
 20
-43.844
 21
-43.907
  0
LINE
  8
0
 10
-88.973
 11
-88.907
 20
-43.907
 21
-43.973
  0
LINE
  8
0
 10
-88.907
 11
-88.844
 20
-43.973
 21
-44.044
  0
LINE
  8
0
 10
-88.844
 11
-88.786
 20
-44.044
 21
-44.118
  0
LINE
  8
0
 10
-88.786
 11
-88.734
 20
-44.118
 21
-44.196
  0
LINE
  8
0
 10
-88.734
 11
-88.686
 20
-44.196
 21
-44.277
  0
LINE
  8
0
 10
-88.686
 11
-88.643
 20
-44.277
 21
-44.361
  0
LINE
  8
0
 10
-88.643
 11
-88.605
 20
-44.361
 21
-44.448
  0
LINE
  8
0
 10
-88.605
 11
-88.573
 20
-44.448
 21
-44.536
  0
LINE
  8
0
 10
-88.573
 11
-88.547
 20
-44.536
 21
-44.627
  0
LINE
  8
0
 10
-88.547
 11
-88.527
 20
-44.627
 21
-44.719
  0
LINE
  8
0
 10
-88.527
 11
-88.512
 20
-44.719
 21
-44.812
  0
LINE
  8
0
 10
-88.512
 11
-88.503
 20
-44.812
 21
-44.906
  0
LINE
  8
0
 10
-88.503
 11
-88.5
 20
-44.906
 21
-45
  0
LINE
  8
0
 10
-88.5
 11
-88.503
 20
-45
 21
-45.094
  0
LINE
  8
0
 10
-88.503
 11
-88.512
 20
-45.094
 21
-45.188
  0
LINE
  8
0
 10
-88.512
 11
-88.527
 20
-45.188
 21
-45.281
  0
LINE
  8
0
 10
-88.527
 11
-88.547
 20
-45.281
 21
-45.373
  0
LINE
  8
0
 10
-88.547
 11
-88.573
 20
-45.373
 21
-45.464
  0
LINE
  8
0
 10
-88.573
 11
-88.605
 20
-45.464
 21
-45.552
  0
LINE
  8
0
 10
-88.605
 11
-88.643
 20
-45.552
 21
-45.639
  0
LINE
  8
0
 10
-88.643
 11
-88.686
 20
-45.639
 21
-45.723
  0
LINE
  8
0
 10
-88.686
 11
-88.734
 20
-45.723
 21
-45.804
  0
LINE
  8
0
 10
-88.734
 11
-88.786
 20
-45.804
 21
-45.882
  0
LINE
  8
0
 10
-88.786
 11
-88.844
 20
-45.882
 21
-45.956
  0
LINE
  8
0
 10
-88.844
 11
-88.907
 20
-45.956
 21
-46.027
  0
LINE
  8
0
 10
-88.907
 11
-88.973
 20
-46.027
 21
-46.093
  0
LINE
  8
0
 10
-88.973
 11
-89.044
 20
-46.093
 21
-46.156
  0
LINE
  8
0
 10
-89.044
 11
-89.118
 20
-46.156
 21
-46.214
  0
LINE
  8
0
 10
-89.118
 11
-89.196
 20
-46.214
 21
-46.266
  0
LINE
  8
0
 10
-89.196
 11
-89.277
 20
-46.266
 21
-46.314
  0
LINE
  8
0
 10
-89.277
 11
-89.361
 20
-46.314
 21
-46.357
  0
LINE
  8
0
 10
-89.361
 11
-89.448
 20
-46.357
 21
-46.395
  0
LINE
  8
0
 10
-89.448
 11
-89.536
 20
-46.395
 21
-46.427
  0
LINE
  8
0
 10
-89.536
 11
-89.627
 20
-46.427
 21
-46.453
  0
LINE
  8
0
 10
-89.627
 11
-89.719
 20
-46.453
 21
-46.473
  0
LINE
  8
0
 10
-89.719
 11
-89.812
 20
-46.473
 21
-46.488
  0
LINE
  8
0
 10
-89.812
 11
-89.906
 20
-46.488
 21
-46.497
  0
LINE
  8
0
 10
-89.906
 11
-90
 20
-46.497
 21
-46.5
  0
LINE
  8
0
 10
-90
 11
-90.094
 20
-46.5
 21
-46.497
  0
LINE
  8
0
 10
-90.094
 11
-90.188
 20
-46.497
 21
-46.488
  0
LINE
  8
0
 10
-90.188
 11
-90.281
 20
-46.488
 21
-46.473
  0
LINE
  8
0
 10
-90.281
 11
-90.373
 20
-46.473
 21
-46.453
  0
LINE
  8
0
 10
-90.373
 11
-90.464
 20
-46.453
 21
-46.427
  0
LINE
  8
0
 10
-90.464
 11
-90.552
 20
-46.427
 21
-46.395
  0
LINE
  8
0
 10
-90.552
 11
-90.639
 20
-46.395
 21
-46.357
  0
LINE
  8
0
 10
-90.639
 11
-90.723
 20
-46.357
 21
-46.314
  0
LINE
  8
0
 10
-90.723
 11
-90.804
 20
-46.314
 21
-46.266
  0
LINE
  8
0
 10
-90.804
 11
-90.882
 20
-46.266
 21
-46.214
  0
LINE
  8
0
 10
-90.882
 11
-90.956
 20
-46.214
 21
-46.156
  0
LINE
  8
0
 10
-90.956
 11
-91.027
 20
-46.156
 21
-46.093
  0
LINE
  8
0
 10
-91.027
 11
-91.093
 20
-46.093
 21
-46.027
  0
LINE
  8
0
 10
-91.093
 11
-91.156
 20
-46.027
 21
-45.956
  0
LINE
  8
0
 10
-91.156
 11
-91.214
 20
-45.956
 21
-45.882
  0
LINE
  8
0
 10
-91.214
 11
-91.266
 20
-45.882
 21
-45.804
  0
LINE
  8
0
 10
-91.266
 11
-91.314
 20
-45.804
 21
-45.723
  0
LINE
  8
0
 10
-91.314
 11
-91.357
 20
-45.723
 21
-45.639
  0
LINE
  8
0
 10
-91.357
 11
-91.395
 20
-45.639
 21
-45.552
  0
LINE
  8
0
 10
-91.395
 11
-91.427
 20
-45.552
 21
-45.464
  0
LINE
  8
0
 10
-91.427
 11
-91.453
 20
-45.464
 21
-45.373
  0
LINE
  8
0
 10
-91.453
 11
-91.473
 20
-45.373
 21
-45.281
  0
LINE
  8
0
 10
-91.473
 11
-91.488
 20
-45.281
 21
-45.188
  0
LINE
  8
0
 10
-91.488
 11
-91.497
 20
-45.188
 21
-45.094
  0
LINE
  8
0
 10
-91.497
 11
-91.5
 20
-45.094
 21
-45
  0
LINE
  8
0
 10
-91.5
 11
-91.497
 20
45
 21
45.094
  0
LINE
  8
0
 10
-91.497
 11
-91.488
 20
45.094
 21
45.188
  0
LINE
  8
0
 10
-91.488
 11
-91.473
 20
45.188
 21
45.281
  0
LINE
  8
0
 10
-91.473
 11
-91.453
 20
45.281
 21
45.373
  0
LINE
  8
0
 10
-91.453
 11
-91.427
 20
45.373
 21
45.464
  0
LINE
  8
0
 10
-91.427
 11
-91.395
 20
45.464
 21
45.552
  0
LINE
  8
0
 10
-91.395
 11
-91.357
 20
45.552
 21
45.639
  0
LINE
  8
0
 10
-91.357
 11
-91.314
 20
45.639
 21
45.723
  0
LINE
  8
0
 10
-91.314
 11
-91.266
 20
45.723
 21
45.804
  0
LINE
  8
0
 10
-91.266
 11
-91.214
 20
45.804
 21
45.882
  0
LINE
  8
0
 10
-91.214
 11
-91.156
 20
45.882
 21
45.956
  0
LINE
  8
0
 10
-91.156
 11
-91.093
 20
45.956
 21
46.027
  0
LINE
  8
0
 10
-91.093
 11
-91.027
 20
46.027
 21
46.093
  0
LINE
  8
0
 10
-91.027
 11
-90.956
 20
46.093
 21
46.156
  0
LINE
  8
0
 10
-90.956
 11
-90.882
 20
46.156
 21
46.214
  0
LINE
  8
0
 10
-90.882
 11
-90.804
 20
46.214
 21
46.266
  0
LINE
  8
0
 10
-90.804
 11
-90.723
 20
46.266
 21
46.314
  0
LINE
  8
0
 10
-90.723
 11
-90.639
 20
46.314
 21
46.357
  0
LINE
  8
0
 10
-90.639
 11
-90.552
 20
46.357
 21
46.395
  0
LINE
  8
0
 10
-90.552
 11
-90.464
 20
46.395
 21
46.427
  0
LINE
  8
0
 10
-90.464
 11
-90.373
 20
46.427
 21
46.453
  0
LINE
  8
0
 10
-90.373
 11
-90.281
 20
46.453
 21
46.473
  0
LINE
  8
0
 10
-90.281
 11
-90.188
 20
46.473
 21
46.488
  0
LINE
  8
0
 10
-90.188
 11
-90.094
 20
46.488
 21
46.497
  0
LINE
  8
0
 10
-90.094
 11
-90
 20
46.497
 21
46.5
  0
LINE
  8
0
 10
-90
 11
-89.906
 20
46.5
 21
46.497
  0
LINE
  8
0
 10
-89.906
 11
-89.812
 20
46.497
 21
46.488
  0
LINE
  8
0
 10
-89.812
 11
-89.719
 20
46.488
 21
46.473
  0
LINE
  8
0
 10
-89.719
 11
-89.627
 20
46.473
 21
46.453
  0
LINE
  8
0
 10
-89.627
 11
-89.536
 20
46.453
 21
46.427
  0
LINE
  8
0
 10
-89.536
 11
-89.448
 20
46.427
 21
46.395
  0
LINE
  8
0
 10
-89.448
 11
-89.361
 20
46.395
 21
46.357
  0
LINE
  8
0
 10
-89.361
 11
-89.277
 20
46.357
 21
46.314
  0
LINE
  8
0
 10
-89.277
 11
-89.196
 20
46.314
 21
46.266
  0
LINE
  8
0
 10
-89.196
 11
-89.118
 20
46.266
 21
46.214
  0
LINE
  8
0
 10
-89.118
 11
-89.044
 20
46.214
 21
46.156
  0
LINE
  8
0
 10
-89.044
 11
-88.973
 20
46.156
 21
46.093
  0
LINE
  8
0
 10
-88.973
 11
-88.907
 20
46.093
 21
46.027
  0
LINE
  8
0
 10
-88.907
 11
-88.844
 20
46.027
 21
45.956
  0
LINE
  8
0
 10
-88.844
 11
-88.786
 20
45.956
 21
45.882
  0
LINE
  8
0
 10
-88.786
 11
-88.734
 20
45.882
 21
45.804
  0
LINE
  8
0
 10
-88.734
 11
-88.686
 20
45.804
 21
45.723
  0
LINE
  8
0
 10
-88.686
 11
-88.643
 20
45.723
 21
45.639
  0
LINE
  8
0
 10
-88.643
 11
-88.605
 20
45.639
 21
45.552
  0
LINE
  8
0
 10
-88.605
 11
-88.573
 20
45.552
 21
45.464
  0
LINE
  8
0
 10
-88.573
 11
-88.547
 20
45.464
 21
45.373
  0
LINE
  8
0
 10
-88.547
 11
-88.527
 20
45.373
 21
45.281
  0
LINE
  8
0
 10
-88.527
 11
-88.512
 20
45.281
 21
45.188
  0
LINE
  8
0
 10
-88.512
 11
-88.503
 20
45.188
 21
45.094
  0
LINE
  8
0
 10
-88.503
 11
-88.5
 20
45.094
 21
45
  0
LINE
  8
0
 10
-88.5
 11
-88.503
 20
45
 21
44.906
  0
LINE
  8
0
 10
-88.503
 11
-88.512
 20
44.906
 21
44.812
  0
LINE
  8
0
 10
-88.512
 11
-88.527
 20
44.812
 21
44.719
  0
LINE
  8
0
 10
-88.527
 11
-88.547
 20
44.719
 21
44.627
  0
LINE
  8
0
 10
-88.547
 11
-88.573
 20
44.627
 21
44.536
  0
LINE
  8
0
 10
-88.573
 11
-88.605
 20
44.536
 21
44.448
  0
LINE
  8
0
 10
-88.605
 11
-88.643
 20
44.448
 21
44.361
  0
LINE
  8
0
 10
-88.643
 11
-88.686
 20
44.361
 21
44.277
  0
LINE
  8
0
 10
-88.686
 11
-88.734
 20
44.277
 21
44.196
  0
LINE
  8
0
 10
-88.734
 11
-88.786
 20
44.196
 21
44.118
  0
LINE
  8
0
 10
-88.786
 11
-88.844
 20
44.118
 21
44.044
  0
LINE
  8
0
 10
-88.844
 11
-88.907
 20
44.044
 21
43.973
  0
LINE
  8
0
 10
-88.907
 11
-88.973
 20
43.973
 21
43.907
  0
LINE
  8
0
 10
-88.973
 11
-89.044
 20
43.907
 21
43.844
  0
LINE
  8
0
 10
-89.044
 11
-89.118
 20
43.844
 21
43.786
  0
LINE
  8
0
 10
-89.118
 11
-89.196
 20
43.786
 21
43.734
  0
LINE
  8
0
 10
-89.196
 11
-89.277
 20
43.734
 21
43.686
  0
LINE
  8
0
 10
-89.277
 11
-89.361
 20
43.686
 21
43.643
  0
LINE
  8
0
 10
-89.361
 11
-89.448
 20
43.643
 21
43.605
  0
LINE
  8
0
 10
-89.448
 11
-89.536
 20
43.605
 21
43.573
  0
LINE
  8
0
 10
-89.536
 11
-89.627
 20
43.573
 21
43.547
  0
LINE
  8
0
 10
-89.627
 11
-89.719
 20
43.547
 21
43.527
  0
LINE
  8
0
 10
-89.719
 11
-89.812
 20
43.527
 21
43.512
  0
LINE
  8
0
 10
-89.812
 11
-89.906
 20
43.512
 21
43.503
  0
LINE
  8
0
 10
-89.906
 11
-90
 20
43.503
 21
43.5
  0
LINE
  8
0
 10
-90
 11
-90.094
 20
43.5
 21
43.503
  0
LINE
  8
0
 10
-90.094
 11
-90.188
 20
43.503
 21
43.512
  0
LINE
  8
0
 10
-90.188
 11
-90.281
 20
43.512
 21
43.527
  0
LINE
  8
0
 10
-90.281
 11
-90.373
 20
43.527
 21
43.547
  0
LINE
  8
0
 10
-90.373
 11
-90.464
 20
43.547
 21
43.573
  0
LINE
  8
0
 10
-90.464
 11
-90.552
 20
43.573
 21
43.605
  0
LINE
  8
0
 10
-90.552
 11
-90.639
 20
43.605
 21
43.643
  0
LINE
  8
0
 10
-90.639
 11
-90.723
 20
43.643
 21
43.686
  0
LINE
  8
0
 10
-90.723
 11
-90.804
 20
43.686
 21
43.734
  0
LINE
  8
0
 10
-90.804
 11
-90.882
 20
43.734
 21
43.786
  0
LINE
  8
0
 10
-90.882
 11
-90.956
 20
43.786
 21
43.844
  0
LINE
  8
0
 10
-90.956
 11
-91.027
 20
43.844
 21
43.907
  0
LINE
  8
0
 10
-91.027
 11
-91.093
 20
43.907
 21
43.973
  0
LINE
  8
0
 10
-91.093
 11
-91.156
 20
43.973
 21
44.044
  0
LINE
  8
0
 10
-91.156
 11
-91.214
 20
44.044
 21
44.118
  0
LINE
  8
0
 10
-91.214
 11
-91.266
 20
44.118
 21
44.196
  0
LINE
  8
0
 10
-91.266
 11
-91.314
 20
44.196
 21
44.277
  0
LINE
  8
0
 10
-91.314
 11
-91.357
 20
44.277
 21
44.361
  0
LINE
  8
0
 10
-91.357
 11
-91.395
 20
44.361
 21
44.448
  0
LINE
  8
0
 10
-91.395
 11
-91.427
 20
44.448
 21
44.536
  0
LINE
  8
0
 10
-91.427
 11
-91.453
 20
44.536
 21
44.627
  0
LINE
  8
0
 10
-91.453
 11
-91.473
 20
44.627
 21
44.719
  0
LINE
  8
0
 10
-91.473
 11
-91.488
 20
44.719
 21
44.812
  0
LINE
  8
0
 10
-91.488
 11
-91.497
 20
44.812
 21
44.906
  0
LINE
  8
0
 10
-91.497
 11
-91.5
 20
44.906
 21
45
  0
LINE
  8
0
 10
-71.25
 11
-71.248
 20
-62
 21
-61.922
  0
LINE
  8
0
 10
-71.248
 11
-71.24
 20
-61.922
 21
-61.843
  0
LINE
  8
0
 10
-71.24
 11
-71.228
 20
-61.843
 21
-61.766
  0
LINE
  8
0
 10
-71.228
 11
-71.211
 20
-61.766
 21
-61.689
  0
LINE
  8
0
 10
-71.211
 11
-71.189
 20
-61.689
 21
-61.614
  0
LINE
  8
0
 10
-71.189
 11
-71.162
 20
-61.614
 21
-61.54
  0
LINE
  8
0
 10
-71.162
 11
-71.131
 20
-61.54
 21
-61.468
  0
LINE
  8
0
 10
-71.131
 11
-71.095
 20
-61.468
 21
-61.398
  0
LINE
  8
0
 10
-71.095
 11
-71.055
 20
-61.398
 21
-61.33
  0
LINE
  8
0
 10
-71.055
 11
-71.011
 20
-61.33
 21
-61.265
  0
LINE
  8
0
 10
-71.011
 11
-70.963
 20
-61.265
 21
-61.203
  0
LINE
  8
0
 10
-70.963
 11
-70.911
 20
-61.203
 21
-61.144
  0
LINE
  8
0
 10
-70.911
 11
-70.856
 20
-61.144
 21
-61.089
  0
LINE
  8
0
 10
-70.856
 11
-70.797
 20
-61.089
 21
-61.037
  0
LINE
  8
0
 10
-70.797
 11
-70.735
 20
-61.037
 21
-60.989
  0
LINE
  8
0
 10
-70.735
 11
-70.67
 20
-60.989
 21
-60.945
  0
LINE
  8
0
 10
-70.67
 11
-70.602
 20
-60.945
 21
-60.905
  0
LINE
  8
0
 10
-70.602
 11
-70.532
 20
-60.905
 21
-60.869
  0
LINE
  8
0
 10
-70.532
 11
-70.46
 20
-60.869
 21
-60.838
  0
LINE
  8
0
 10
-70.46
 11
-70.386
 20
-60.838
 21
-60.811
  0
LINE
  8
0
 10
-70.386
 11
-70.311
 20
-60.811
 21
-60.789
  0
LINE
  8
0
 10
-70.311
 11
-70.234
 20
-60.789
 21
-60.772
  0
LINE
  8
0
 10
-70.234
 11
-70.157
 20
-60.772
 21
-60.76
  0
LINE
  8
0
 10
-70.157
 11
-70.078
 20
-60.76
 21
-60.752
  0
LINE
  8
0
 10
-70.078
 11
-70
 20
-60.752
 21
-60.75
  0
LINE
  8
0
 10
-70
 11
-69.922
 20
-60.75
 21
-60.752
  0
LINE
  8
0
 10
-69.922
 11
-69.843
 20
-60.752
 21
-60.76
  0
LINE
  8
0
 10
-69.843
 11
-69.766
 20
-60.76
 21
-60.772
  0
LINE
  8
0
 10
-69.766
 11
-69.689
 20
-60.772
 21
-60.789
  0
LINE
  8
0
 10
-69.689
 11
-69.614
 20
-60.789
 21
-60.811
  0
LINE
  8
0
 10
-69.614
 11
-69.54
 20
-60.811
 21
-60.838
  0
LINE
  8
0
 10
-69.54
 11
-69.468
 20
-60.838
 21
-60.869
  0
LINE
  8
0
 10
-69.468
 11
-69.398
 20
-60.869
 21
-60.905
  0
LINE
  8
0
 10
-69.398
 11
-69.33
 20
-60.905
 21
-60.945
  0
LINE
  8
0
 10
-69.33
 11
-69.265
 20
-60.945
 21
-60.989
  0
LINE
  8
0
 10
-69.265
 11
-69.203
 20
-60.989
 21
-61.037
  0
LINE
  8
0
 10
-69.203
 11
-69.144
 20
-61.037
 21
-61.089
  0
LINE
  8
0
 10
-69.144
 11
-69.089
 20
-61.089
 21
-61.144
  0
LINE
  8
0
 10
-69.089
 11
-69.037
 20
-61.144
 21
-61.203
  0
LINE
  8
0
 10
-69.037
 11
-68.989
 20
-61.203
 21
-61.265
  0
LINE
  8
0
 10
-68.989
 11
-68.945
 20
-61.265
 21
-61.33
  0
LINE
  8
0
 10
-68.945
 11
-68.905
 20
-61.33
 21
-61.398
  0
LINE
  8
0
 10
-68.905
 11
-68.869
 20
-61.398
 21
-61.468
  0
LINE
  8
0
 10
-68.869
 11
-68.838
 20
-61.468
 21
-61.54
  0
LINE
  8
0
 10
-68.838
 11
-68.811
 20
-61.54
 21
-61.614
  0
LINE
  8
0
 10
-68.811
 11
-68.789
 20
-61.614
 21
-61.689
  0
LINE
  8
0
 10
-68.789
 11
-68.772
 20
-61.689
 21
-61.766
  0
LINE
  8
0
 10
-68.772
 11
-68.76
 20
-61.766
 21
-61.843
  0
LINE
  8
0
 10
-68.76
 11
-68.752
 20
-61.843
 21
-61.922
  0
LINE
  8
0
 10
-68.752
 11
-68.75
 20
-61.922
 21
-62
  0
LINE
  8
0
 10
-68.75
 11
-68.752
 20
-62
 21
-62.078
  0
LINE
  8
0
 10
-68.752
 11
-68.76
 20
-62.078
 21
-62.157
  0
LINE
  8
0
 10
-68.76
 11
-68.772
 20
-62.157
 21
-62.234
  0
LINE
  8
0
 10
-68.772
 11
-68.789
 20
-62.234
 21
-62.311
  0
LINE
  8
0
 10
-68.789
 11
-68.811
 20
-62.311
 21
-62.386
  0
LINE
  8
0
 10
-68.811
 11
-68.838
 20
-62.386
 21
-62.46
  0
LINE
  8
0
 10
-68.838
 11
-68.869
 20
-62.46
 21
-62.532
  0
LINE
  8
0
 10
-68.869
 11
-68.905
 20
-62.532
 21
-62.602
  0
LINE
  8
0
 10
-68.905
 11
-68.945
 20
-62.602
 21
-62.67
  0
LINE
  8
0
 10
-68.945
 11
-68.989
 20
-62.67
 21
-62.735
  0
LINE
  8
0
 10
-68.989
 11
-69.037
 20
-62.735
 21
-62.797
  0
LINE
  8
0
 10
-69.037
 11
-69.089
 20
-62.797
 21
-62.856
  0
LINE
  8
0
 10
-69.089
 11
-69.144
 20
-62.856
 21
-62.911
  0
LINE
  8
0
 10
-69.144
 11
-69.203
 20
-62.911
 21
-62.963
  0
LINE
  8
0
 10
-69.203
 11
-69.265
 20
-62.963
 21
-63.011
  0
LINE
  8
0
 10
-69.265
 11
-69.33
 20
-63.011
 21
-63.055
  0
LINE
  8
0
 10
-69.33
 11
-69.398
 20
-63.055
 21
-63.095
  0
LINE
  8
0
 10
-69.398
 11
-69.468
 20
-63.095
 21
-63.131
  0
LINE
  8
0
 10
-69.468
 11
-69.54
 20
-63.131
 21
-63.162
  0
LINE
  8
0
 10
-69.54
 11
-69.614
 20
-63.162
 21
-63.189
  0
LINE
  8
0
 10
-69.614
 11
-69.689
 20
-63.189
 21
-63.211
  0
LINE
  8
0
 10
-69.689
 11
-69.766
 20
-63.211
 21
-63.228
  0
LINE
  8
0
 10
-69.766
 11
-69.843
 20
-63.228
 21
-63.24
  0
LINE
  8
0
 10
-69.843
 11
-69.922
 20
-63.24
 21
-63.248
  0
LINE
  8
0
 10
-69.922
 11
-70
 20
-63.248
 21
-63.25
  0
LINE
  8
0
 10
-70
 11
-70.078
 20
-63.25
 21
-63.248
  0
LINE
  8
0
 10
-70.078
 11
-70.157
 20
-63.248
 21
-63.24
  0
LINE
  8
0
 10
-70.157
 11
-70.234
 20
-63.24
 21
-63.228
  0
LINE
  8
0
 10
-70.234
 11
-70.311
 20
-63.228
 21
-63.211
  0
LINE
  8
0
 10
-70.311
 11
-70.386
 20
-63.211
 21
-63.189
  0
LINE
  8
0
 10
-70.386
 11
-70.46
 20
-63.189
 21
-63.162
  0
LINE
  8
0
 10
-70.46
 11
-70.532
 20
-63.162
 21
-63.131
  0
LINE
  8
0
 10
-70.532
 11
-70.602
 20
-63.131
 21
-63.095
  0
LINE
  8
0
 10
-70.602
 11
-70.67
 20
-63.095
 21
-63.055
  0
LINE
  8
0
 10
-70.67
 11
-70.735
 20
-63.055
 21
-63.011
  0
LINE
  8
0
 10
-70.735
 11
-70.797
 20
-63.011
 21
-62.963
  0
LINE
  8
0
 10
-70.797
 11
-70.856
 20
-62.963
 21
-62.911
  0
LINE
  8
0
 10
-70.856
 11
-70.911
 20
-62.911
 21
-62.856
  0
LINE
  8
0
 10
-70.911
 11
-70.963
 20
-62.856
 21
-62.797
  0
LINE
  8
0
 10
-70.963
 11
-71.011
 20
-62.797
 21
-62.735
  0
LINE
  8
0
 10
-71.011
 11
-71.055
 20
-62.735
 21
-62.67
  0
LINE
  8
0
 10
-71.055
 11
-71.095
 20
-62.67
 21
-62.602
  0
LINE
  8
0
 10
-71.095
 11
-71.131
 20
-62.602
 21
-62.532
  0
LINE
  8
0
 10
-71.131
 11
-71.162
 20
-62.532
 21
-62.46
  0
LINE
  8
0
 10
-71.162
 11
-71.189
 20
-62.46
 21
-62.386
  0
LINE
  8
0
 10
-71.189
 11
-71.211
 20
-62.386
 21
-62.311
  0
LINE
  8
0
 10
-71.211
 11
-71.228
 20
-62.311
 21
-62.234
  0
LINE
  8
0
 10
-71.228
 11
-71.24
 20
-62.234
 21
-62.157
  0
LINE
  8
0
 10
-71.24
 11
-71.248
 20
-62.157
 21
-62.078
  0
LINE
  8
0
 10
-71.248
 11
-71.25
 20
-62.078
 21
-62
  0
LINE
  8
0
 10
-71.25
 11
-71.248
 20
62
 21
62.078
  0
LINE
  8
0
 10
-71.248
 11
-71.24
 20
62.078
 21
62.157
  0
LINE
  8
0
 10
-71.24
 11
-71.228
 20
62.157
 21
62.234
  0
LINE
  8
0
 10
-71.228
 11
-71.211
 20
62.234
 21
62.311
  0
LINE
  8
0
 10
-71.211
 11
-71.189
 20
62.311
 21
62.386
  0
LINE
  8
0
 10
-71.189
 11
-71.162
 20
62.386
 21
62.46
  0
LINE
  8
0
 10
-71.162
 11
-71.131
 20
62.46
 21
62.532
  0
LINE
  8
0
 10
-71.131
 11
-71.095
 20
62.532
 21
62.602
  0
LINE
  8
0
 10
-71.095
 11
-71.055
 20
62.602
 21
62.67
  0
LINE
  8
0
 10
-71.055
 11
-71.011
 20
62.67
 21
62.735
  0
LINE
  8
0
 10
-71.011
 11
-70.963
 20
62.735
 21
62.797
  0
LINE
  8
0
 10
-70.963
 11
-70.911
 20
62.797
 21
62.856
  0
LINE
  8
0
 10
-70.911
 11
-70.856
 20
62.856
 21
62.911
  0
LINE
  8
0
 10
-70.856
 11
-70.797
 20
62.911
 21
62.963
  0
LINE
  8
0
 10
-70.797
 11
-70.735
 20
62.963
 21
63.011
  0
LINE
  8
0
 10
-70.735
 11
-70.67
 20
63.011
 21
63.055
  0
LINE
  8
0
 10
-70.67
 11
-70.602
 20
63.055
 21
63.095
  0
LINE
  8
0
 10
-70.602
 11
-70.532
 20
63.095
 21
63.131
  0
LINE
  8
0
 10
-70.532
 11
-70.46
 20
63.131
 21
63.162
  0
LINE
  8
0
 10
-70.46
 11
-70.386
 20
63.162
 21
63.189
  0
LINE
  8
0
 10
-70.386
 11
-70.311
 20
63.189
 21
63.211
  0
LINE
  8
0
 10
-70.311
 11
-70.234
 20
63.211
 21
63.228
  0
LINE
  8
0
 10
-70.234
 11
-70.157
 20
63.228
 21
63.24
  0
LINE
  8
0
 10
-70.157
 11
-70.078
 20
63.24
 21
63.248
  0
LINE
  8
0
 10
-70.078
 11
-70
 20
63.248
 21
63.25
  0
LINE
  8
0
 10
-70
 11
-69.922
 20
63.25
 21
63.248
  0
LINE
  8
0
 10
-69.922
 11
-69.843
 20
63.248
 21
63.24
  0
LINE
  8
0
 10
-69.843
 11
-69.766
 20
63.24
 21
63.228
  0
LINE
  8
0
 10
-69.766
 11
-69.689
 20
63.228
 21
63.211
  0
LINE
  8
0
 10
-69.689
 11
-69.614
 20
63.211
 21
63.189
  0
LINE
  8
0
 10
-69.614
 11
-69.54
 20
63.189
 21
63.162
  0
LINE
  8
0
 10
-69.54
 11
-69.468
 20
63.162
 21
63.131
  0
LINE
  8
0
 10
-69.468
 11
-69.398
 20
63.131
 21
63.095
  0
LINE
  8
0
 10
-69.398
 11
-69.33
 20
63.095
 21
63.055
  0
LINE
  8
0
 10
-69.33
 11
-69.265
 20
63.055
 21
63.011
  0
LINE
  8
0
 10
-69.265
 11
-69.203
 20
63.011
 21
62.963
  0
LINE
  8
0
 10
-69.203
 11
-69.144
 20
62.963
 21
62.911
  0
LINE
  8
0
 10
-69.144
 11
-69.089
 20
62.911
 21
62.856
  0
LINE
  8
0
 10
-69.089
 11
-69.037
 20
62.856
 21
62.797
  0
LINE
  8
0
 10
-69.037
 11
-68.989
 20
62.797
 21
62.735
  0
LINE
  8
0
 10
-68.989
 11
-68.945
 20
62.735
 21
62.67
  0
LINE
  8
0
 10
-68.945
 11
-68.905
 20
62.67
 21
62.602
  0
LINE
  8
0
 10
-68.905
 11
-68.869
 20
62.602
 21
62.532
  0
LINE
  8
0
 10
-68.869
 11
-68.838
 20
62.532
 21
62.46
  0
LINE
  8
0
 10
-68.838
 11
-68.811
 20
62.46
 21
62.386
  0
LINE
  8
0
 10
-68.811
 11
-68.789
 20
62.386
 21
62.311
  0
LINE
  8
0
 10
-68.789
 11
-68.772
 20
62.311
 21
62.234
  0
LINE
  8
0
 10
-68.772
 11
-68.76
 20
62.234
 21
62.157
  0
LINE
  8
0
 10
-68.76
 11
-68.752
 20
62.157
 21
62.078
  0
LINE
  8
0
 10
-68.752
 11
-68.75
 20
62.078
 21
62
  0
LINE
  8
0
 10
-68.75
 11
-68.752
 20
62
 21
61.922
  0
LINE
  8
0
 10
-68.752
 11
-68.76
 20
61.922
 21
61.843
  0
LINE
  8
0
 10
-68.76
 11
-68.772
 20
61.843
 21
61.766
  0
LINE
  8
0
 10
-68.772
 11
-68.789
 20
61.766
 21
61.689
  0
LINE
  8
0
 10
-68.789
 11
-68.811
 20
61.689
 21
61.614
  0
LINE
  8
0
 10
-68.811
 11
-68.838
 20
61.614
 21
61.54
  0
LINE
  8
0
 10
-68.838
 11
-68.869
 20
61.54
 21
61.468
  0
LINE
  8
0
 10
-68.869
 11
-68.905
 20
61.468
 21
61.398
  0
LINE
  8
0
 10
-68.905
 11
-68.945
 20
61.398
 21
61.33
  0
LINE
  8
0
 10
-68.945
 11
-68.989
 20
61.33
 21
61.265
  0
LINE
  8
0
 10
-68.989
 11
-69.037
 20
61.265
 21
61.203
  0
LINE
  8
0
 10
-69.037
 11
-69.089
 20
61.203
 21
61.144
  0
LINE
  8
0
 10
-69.089
 11
-69.144
 20
61.144
 21
61.089
  0
LINE
  8
0
 10
-69.144
 11
-69.203
 20
61.089
 21
61.037
  0
LINE
  8
0
 10
-69.203
 11
-69.265
 20
61.037
 21
60.989
  0
LINE
  8
0
 10
-69.265
 11
-69.33
 20
60.989
 21
60.945
  0
LINE
  8
0
 10
-69.33
 11
-69.398
 20
60.945
 21
60.905
  0
LINE
  8
0
 10
-69.398
 11
-69.468
 20
60.905
 21
60.869
  0
LINE
  8
0
 10
-69.468
 11
-69.54
 20
60.869
 21
60.838
  0
LINE
  8
0
 10
-69.54
 11
-69.614
 20
60.838
 21
60.811
  0
LINE
  8
0
 10
-69.614
 11
-69.689
 20
60.811
 21
60.789
  0
LINE
  8
0
 10
-69.689
 11
-69.766
 20
60.789
 21
60.772
  0
LINE
  8
0
 10
-69.766
 11
-69.843
 20
60.772
 21
60.76
  0
LINE
  8
0
 10
-69.843
 11
-69.922
 20
60.76
 21
60.752
  0
LINE
  8
0
 10
-69.922
 11
-70
 20
60.752
 21
60.75
  0
LINE
  8
0
 10
-70
 11
-70.078
 20
60.75
 21
60.752
  0
LINE
  8
0
 10
-70.078
 11
-70.157
 20
60.752
 21
60.76
  0
LINE
  8
0
 10
-70.157
 11
-70.234
 20
60.76
 21
60.772
  0
LINE
  8
0
 10
-70.234
 11
-70.311
 20
60.772
 21
60.789
  0
LINE
  8
0
 10
-70.311
 11
-70.386
 20
60.789
 21
60.811
  0
LINE
  8
0
 10
-70.386
 11
-70.46
 20
60.811
 21
60.838
  0
LINE
  8
0
 10
-70.46
 11
-70.532
 20
60.838
 21
60.869
  0
LINE
  8
0
 10
-70.532
 11
-70.602
 20
60.869
 21
60.905
  0
LINE
  8
0
 10
-70.602
 11
-70.67
 20
60.905
 21
60.945
  0
LINE
  8
0
 10
-70.67
 11
-70.735
 20
60.945
 21
60.989
  0
LINE
  8
0
 10
-70.735
 11
-70.797
 20
60.989
 21
61.037
  0
LINE
  8
0
 10
-70.797
 11
-70.856
 20
61.037
 21
61.089
  0
LINE
  8
0
 10
-70.856
 11
-70.911
 20
61.089
 21
61.144
  0
LINE
  8
0
 10
-70.911
 11
-70.963
 20
61.144
 21
61.203
  0
LINE
  8
0
 10
-70.963
 11
-71.011
 20
61.203
 21
61.265
  0
LINE
  8
0
 10
-71.011
 11
-71.055
 20
61.265
 21
61.33
  0
LINE
  8
0
 10
-71.055
 11
-71.095
 20
61.33
 21
61.398
  0
LINE
  8
0
 10
-71.095
 11
-71.131
 20
61.398
 21
61.468
  0
LINE
  8
0
 10
-71.131
 11
-71.162
 20
61.468
 21
61.54
  0
LINE
  8
0
 10
-71.162
 11
-71.189
 20
61.54
 21
61.614
  0
LINE
  8
0
 10
-71.189
 11
-71.211
 20
61.614
 21
61.689
  0
LINE
  8
0
 10
-71.211
 11
-71.228
 20
61.689
 21
61.766
  0
LINE
  8
0
 10
-71.228
 11
-71.24
 20
61.766
 21
61.843
  0
LINE
  8
0
 10
-71.24
 11
-71.248
 20
61.843
 21
61.922
  0
LINE
  8
0
 10
-71.248
 11
-71.25
 20
61.922
 21
62
  0
LINE
  8
0
 10
-54
 11
-53.997
 20
-44
 21
-43.906
  0
LINE
  8
0
 10
-53.997
 11
-53.988
 20
-43.906
 21
-43.812
  0
LINE
  8
0
 10
-53.988
 11
-53.973
 20
-43.812
 21
-43.719
  0
LINE
  8
0
 10
-53.973
 11
-53.953
 20
-43.719
 21
-43.627
  0
LINE
  8
0
 10
-53.953
 11
-53.927
 20
-43.627
 21
-43.536
  0
LINE
  8
0
 10
-53.927
 11
-53.895
 20
-43.536
 21
-43.448
  0
LINE
  8
0
 10
-53.895
 11
-53.857
 20
-43.448
 21
-43.361
  0
LINE
  8
0
 10
-53.857
 11
-53.814
 20
-43.361
 21
-43.277
  0
LINE
  8
0
 10
-53.814
 11
-53.766
 20
-43.277
 21
-43.196
  0
LINE
  8
0
 10
-53.766
 11
-53.714
 20
-43.196
 21
-43.118
  0
LINE
  8
0
 10
-53.714
 11
-53.656
 20
-43.118
 21
-43.044
  0
LINE
  8
0
 10
-53.656
 11
-53.593
 20
-43.044
 21
-42.973
  0
LINE
  8
0
 10
-53.593
 11
-53.527
 20
-42.973
 21
-42.907
  0
LINE
  8
0
 10
-53.527
 11
-53.456
 20
-42.907
 21
-42.844
  0
LINE
  8
0
 10
-53.456
 11
-53.382
 20
-42.844
 21
-42.786
  0
LINE
  8
0
 10
-53.382
 11
-53.304
 20
-42.786
 21
-42.734
  0
LINE
  8
0
 10
-53.304
 11
-53.223
 20
-42.734
 21
-42.686
  0
LINE
  8
0
 10
-53.223
 11
-53.139
 20
-42.686
 21
-42.643
  0
LINE
  8
0
 10
-53.139
 11
-53.052
 20
-42.643
 21
-42.605
  0
LINE
  8
0
 10
-53.052
 11
-52.964
 20
-42.605
 21
-42.573
  0
LINE
  8
0
 10
-52.964
 11
-52.873
 20
-42.573
 21
-42.547
  0
LINE
  8
0
 10
-52.873
 11
-52.781
 20
-42.547
 21
-42.527
  0
LINE
  8
0
 10
-52.781
 11
-52.688
 20
-42.527
 21
-42.512
  0
LINE
  8
0
 10
-52.688
 11
-52.594
 20
-42.512
 21
-42.503
  0
LINE
  8
0
 10
-52.594
 11
-52.5
 20
-42.503
 21
-42.5
  0
LINE
  8
0
 10
-52.5
 11
-52.406
 20
-42.5
 21
-42.503
  0
LINE
  8
0
 10
-52.406
 11
-52.312
 20
-42.503
 21
-42.512
  0
LINE
  8
0
 10
-52.312
 11
-52.219
 20
-42.512
 21
-42.527
  0
LINE
  8
0
 10
-52.219
 11
-52.127
 20
-42.527
 21
-42.547
  0
LINE
  8
0
 10
-52.127
 11
-52.036
 20
-42.547
 21
-42.573
  0
LINE
  8
0
 10
-52.036
 11
-51.948
 20
-42.573
 21
-42.605
  0
LINE
  8
0
 10
-51.948
 11
-51.861
 20
-42.605
 21
-42.643
  0
LINE
  8
0
 10
-51.861
 11
-51.777
 20
-42.643
 21
-42.686
  0
LINE
  8
0
 10
-51.777
 11
-51.696
 20
-42.686
 21
-42.734
  0
LINE
  8
0
 10
-51.696
 11
-51.618
 20
-42.734
 21
-42.786
  0
LINE
  8
0
 10
-51.618
 11
-51.544
 20
-42.786
 21
-42.844
  0
LINE
  8
0
 10
-51.544
 11
-51.473
 20
-42.844
 21
-42.907
  0
LINE
  8
0
 10
-51.473
 11
-51.407
 20
-42.907
 21
-42.973
  0
LINE
  8
0
 10
-51.407
 11
-51.344
 20
-42.973
 21
-43.044
  0
LINE
  8
0
 10
-51.344
 11
-51.286
 20
-43.044
 21
-43.118
  0
LINE
  8
0
 10
-51.286
 11
-51.234
 20
-43.118
 21
-43.196
  0
LINE
  8
0
 10
-51.234
 11
-51.186
 20
-43.196
 21
-43.277
  0
LINE
  8
0
 10
-51.186
 11
-51.143
 20
-43.277
 21
-43.361
  0
LINE
  8
0
 10
-51.143
 11
-51.105
 20
-43.361
 21
-43.448
  0
LINE
  8
0
 10
-51.105
 11
-51.073
 20
-43.448
 21
-43.536
  0
LINE
  8
0
 10
-51.073
 11
-51.047
 20
-43.536
 21
-43.627
  0
LINE
  8
0
 10
-51.047
 11
-51.027
 20
-43.627
 21
-43.719
  0
LINE
  8
0
 10
-51.027
 11
-51.012
 20
-43.719
 21
-43.812
  0
LINE
  8
0
 10
-51.012
 11
-51.003
 20
-43.812
 21
-43.906
  0
LINE
  8
0
 10
-51.003
 11
-51
 20
-43.906
 21
-44
  0
LINE
  8
0
 10
-51
 11
-51.003
 20
-44
 21
-44.094
  0
LINE
  8
0
 10
-51.003
 11
-51.012
 20
-44.094
 21
-44.188
  0
LINE
  8
0
 10
-51.012
 11
-51.027
 20
-44.188
 21
-44.281
  0
LINE
  8
0
 10
-51.027
 11
-51.047
 20
-44.281
 21
-44.373
  0
LINE
  8
0
 10
-51.047
 11
-51.073
 20
-44.373
 21
-44.464
  0
LINE
  8
0
 10
-51.073
 11
-51.105
 20
-44.464
 21
-44.552
  0
LINE
  8
0
 10
-51.105
 11
-51.143
 20
-44.552
 21
-44.639
  0
LINE
  8
0
 10
-51.143
 11
-51.186
 20
-44.639
 21
-44.723
  0
LINE
  8
0
 10
-51.186
 11
-51.234
 20
-44.723
 21
-44.804
  0
LINE
  8
0
 10
-51.234
 11
-51.286
 20
-44.804
 21
-44.882
  0
LINE
  8
0
 10
-51.286
 11
-51.344
 20
-44.882
 21
-44.956
  0
LINE
  8
0
 10
-51.344
 11
-51.407
 20
-44.956
 21
-45.027
  0
LINE
  8
0
 10
-51.407
 11
-51.473
 20
-45.027
 21
-45.093
  0
LINE
  8
0
 10
-51.473
 11
-51.544
 20
-45.093
 21
-45.156
  0
LINE
  8
0
 10
-51.544
 11
-51.618
 20
-45.156
 21
-45.214
  0
LINE
  8
0
 10
-51.618
 11
-51.696
 20
-45.214
 21
-45.266
  0
LINE
  8
0
 10
-51.696
 11
-51.777
 20
-45.266
 21
-45.314
  0
LINE
  8
0
 10
-51.777
 11
-51.861
 20
-45.314
 21
-45.357
  0
LINE
  8
0
 10
-51.861
 11
-51.948
 20
-45.357
 21
-45.395
  0
LINE
  8
0
 10
-51.948
 11
-52.036
 20
-45.395
 21
-45.427
  0
LINE
  8
0
 10
-52.036
 11
-52.127
 20
-45.427
 21
-45.453
  0
LINE
  8
0
 10
-52.127
 11
-52.219
 20
-45.453
 21
-45.473
  0
LINE
  8
0
 10
-52.219
 11
-52.312
 20
-45.473
 21
-45.488
  0
LINE
  8
0
 10
-52.312
 11
-52.406
 20
-45.488
 21
-45.497
  0
LINE
  8
0
 10
-52.406
 11
-52.5
 20
-45.497
 21
-45.5
  0
LINE
  8
0
 10
-52.5
 11
-52.594
 20
-45.5
 21
-45.497
  0
LINE
  8
0
 10
-52.594
 11
-52.688
 20
-45.497
 21
-45.488
  0
LINE
  8
0
 10
-52.688
 11
-52.781
 20
-45.488
 21
-45.473
  0
LINE
  8
0
 10
-52.781
 11
-52.873
 20
-45.473
 21
-45.453
  0
LINE
  8
0
 10
-52.873
 11
-52.964
 20
-45.453
 21
-45.427
  0
LINE
  8
0
 10
-52.964
 11
-53.052
 20
-45.427
 21
-45.395
  0
LINE
  8
0
 10
-53.052
 11
-53.139
 20
-45.395
 21
-45.357
  0
LINE
  8
0
 10
-53.139
 11
-53.223
 20
-45.357
 21
-45.314
  0
LINE
  8
0
 10
-53.223
 11
-53.304
 20
-45.314
 21
-45.266
  0
LINE
  8
0
 10
-53.304
 11
-53.382
 20
-45.266
 21
-45.214
  0
LINE
  8
0
 10
-53.382
 11
-53.456
 20
-45.214
 21
-45.156
  0
LINE
  8
0
 10
-53.456
 11
-53.527
 20
-45.156
 21
-45.093
  0
LINE
  8
0
 10
-53.527
 11
-53.593
 20
-45.093
 21
-45.027
  0
LINE
  8
0
 10
-53.593
 11
-53.656
 20
-45.027
 21
-44.956
  0
LINE
  8
0
 10
-53.656
 11
-53.714
 20
-44.956
 21
-44.882
  0
LINE
  8
0
 10
-53.714
 11
-53.766
 20
-44.882
 21
-44.804
  0
LINE
  8
0
 10
-53.766
 11
-53.814
 20
-44.804
 21
-44.723
  0
LINE
  8
0
 10
-53.814
 11
-53.857
 20
-44.723
 21
-44.639
  0
LINE
  8
0
 10
-53.857
 11
-53.895
 20
-44.639
 21
-44.552
  0
LINE
  8
0
 10
-53.895
 11
-53.927
 20
-44.552
 21
-44.464
  0
LINE
  8
0
 10
-53.927
 11
-53.953
 20
-44.464
 21
-44.373
  0
LINE
  8
0
 10
-53.953
 11
-53.973
 20
-44.373
 21
-44.281
  0
LINE
  8
0
 10
-53.973
 11
-53.988
 20
-44.281
 21
-44.188
  0
LINE
  8
0
 10
-53.988
 11
-53.997
 20
-44.188
 21
-44.094
  0
LINE
  8
0
 10
-53.997
 11
-54
 20
-44.094
 21
-44
  0
LINE
  8
0
 10
-54
 11
-53.997
 20
44
 21
44.094
  0
LINE
  8
0
 10
-53.997
 11
-53.988
 20
44.094
 21
44.188
  0
LINE
  8
0
 10
-53.988
 11
-53.973
 20
44.188
 21
44.281
  0
LINE
  8
0
 10
-53.973
 11
-53.953
 20
44.281
 21
44.373
  0
LINE
  8
0
 10
-53.953
 11
-53.927
 20
44.373
 21
44.464
  0
LINE
  8
0
 10
-53.927
 11
-53.895
 20
44.464
 21
44.552
  0
LINE
  8
0
 10
-53.895
 11
-53.857
 20
44.552
 21
44.639
  0
LINE
  8
0
 10
-53.857
 11
-53.814
 20
44.639
 21
44.723
  0
LINE
  8
0
 10
-53.814
 11
-53.766
 20
44.723
 21
44.804
  0
LINE
  8
0
 10
-53.766
 11
-53.714
 20
44.804
 21
44.882
  0
LINE
  8
0
 10
-53.714
 11
-53.656
 20
44.882
 21
44.956
  0
LINE
  8
0
 10
-53.656
 11
-53.593
 20
44.956
 21
45.027
  0
LINE
  8
0
 10
-53.593
 11
-53.527
 20
45.027
 21
45.093
  0
LINE
  8
0
 10
-53.527
 11
-53.456
 20
45.093
 21
45.156
  0
LINE
  8
0
 10
-53.456
 11
-53.382
 20
45.156
 21
45.214
  0
LINE
  8
0
 10
-53.382
 11
-53.304
 20
45.214
 21
45.266
  0
LINE
  8
0
 10
-53.304
 11
-53.223
 20
45.266
 21
45.314
  0
LINE
  8
0
 10
-53.223
 11
-53.139
 20
45.314
 21
45.357
  0
LINE
  8
0
 10
-53.139
 11
-53.052
 20
45.357
 21
45.395
  0
LINE
  8
0
 10
-53.052
 11
-52.964
 20
45.395
 21
45.427
  0
LINE
  8
0
 10
-52.964
 11
-52.873
 20
45.427
 21
45.453
  0
LINE
  8
0
 10
-52.873
 11
-52.781
 20
45.453
 21
45.473
  0
LINE
  8
0
 10
-52.781
 11
-52.688
 20
45.473
 21
45.488
  0
LINE
  8
0
 10
-52.688
 11
-52.594
 20
45.488
 21
45.497
  0
LINE
  8
0
 10
-52.594
 11
-52.5
 20
45.497
 21
45.5
  0
LINE
  8
0
 10
-52.5
 11
-52.406
 20
45.5
 21
45.497
  0
LINE
  8
0
 10
-52.406
 11
-52.312
 20
45.497
 21
45.488
  0
LINE
  8
0
 10
-52.312
 11
-52.219
 20
45.488
 21
45.473
  0
LINE
  8
0
 10
-52.219
 11
-52.127
 20
45.473
 21
45.453
  0
LINE
  8
0
 10
-52.127
 11
-52.036
 20
45.453
 21
45.427
  0
LINE
  8
0
 10
-52.036
 11
-51.948
 20
45.427
 21
45.395
  0
LINE
  8
0
 10
-51.948
 11
-51.861
 20
45.395
 21
45.357
  0
LINE
  8
0
 10
-51.861
 11
-51.777
 20
45.357
 21
45.314
  0
LINE
  8
0
 10
-51.777
 11
-51.696
 20
45.314
 21
45.266
  0
LINE
  8
0
 10
-51.696
 11
-51.618
 20
45.266
 21
45.214
  0
LINE
  8
0
 10
-51.618
 11
-51.544
 20
45.214
 21
45.156
  0
LINE
  8
0
 10
-51.544
 11
-51.473
 20
45.156
 21
45.093
  0
LINE
  8
0
 10
-51.473
 11
-51.407
 20
45.093
 21
45.027
  0
LINE
  8
0
 10
-51.407
 11
-51.344
 20
45.027
 21
44.956
  0
LINE
  8
0
 10
-51.344
 11
-51.286
 20
44.956
 21
44.882
  0
LINE
  8
0
 10
-51.286
 11
-51.234
 20
44.882
 21
44.804
  0
LINE
  8
0
 10
-51.234
 11
-51.186
 20
44.804
 21
44.723
  0
LINE
  8
0
 10
-51.186
 11
-51.143
 20
44.723
 21
44.639
  0
LINE
  8
0
 10
-51.143
 11
-51.105
 20
44.639
 21
44.552
  0
LINE
  8
0
 10
-51.105
 11
-51.073
 20
44.552
 21
44.464
  0
LINE
  8
0
 10
-51.073
 11
-51.047
 20
44.464
 21
44.373
  0
LINE
  8
0
 10
-51.047
 11
-51.027
 20
44.373
 21
44.281
  0
LINE
  8
0
 10
-51.027
 11
-51.012
 20
44.281
 21
44.188
  0
LINE
  8
0
 10
-51.012
 11
-51.003
 20
44.188
 21
44.094
  0
LINE
  8
0
 10
-51.003
 11
-51
 20
44.094
 21
44
  0
LINE
  8
0
 10
-51
 11
-51.003
 20
44
 21
43.906
  0
LINE
  8
0
 10
-51.003
 11
-51.012
 20
43.906
 21
43.812
  0
LINE
  8
0
 10
-51.012
 11
-51.027
 20
43.812
 21
43.719
  0
LINE
  8
0
 10
-51.027
 11
-51.047
 20
43.719
 21
43.627
  0
LINE
  8
0
 10
-51.047
 11
-51.073
 20
43.627
 21
43.536
  0
LINE
  8
0
 10
-51.073
 11
-51.105
 20
43.536
 21
43.448
  0
LINE
  8
0
 10
-51.105
 11
-51.143
 20
43.448
 21
43.361
  0
LINE
  8
0
 10
-51.143
 11
-51.186
 20
43.361
 21
43.277
  0
LINE
  8
0
 10
-51.186
 11
-51.234
 20
43.277
 21
43.196
  0
LINE
  8
0
 10
-51.234
 11
-51.286
 20
43.196
 21
43.118
  0
LINE
  8
0
 10
-51.286
 11
-51.344
 20
43.118
 21
43.044
  0
LINE
  8
0
 10
-51.344
 11
-51.407
 20
43.044
 21
42.973
  0
LINE
  8
0
 10
-51.407
 11
-51.473
 20
42.973
 21
42.907
  0
LINE
  8
0
 10
-51.473
 11
-51.544
 20
42.907
 21
42.844
  0
LINE
  8
0
 10
-51.544
 11
-51.618
 20
42.844
 21
42.786
  0
LINE
  8
0
 10
-51.618
 11
-51.696
 20
42.786
 21
42.734
  0
LINE
  8
0
 10
-51.696
 11
-51.777
 20
42.734
 21
42.686
  0
LINE
  8
0
 10
-51.777
 11
-51.861
 20
42.686
 21
42.643
  0
LINE
  8
0
 10
-51.861
 11
-51.948
 20
42.643
 21
42.605
  0
LINE
  8
0
 10
-51.948
 11
-52.036
 20
42.605
 21
42.573
  0
LINE
  8
0
 10
-52.036
 11
-52.127
 20
42.573
 21
42.547
  0
LINE
  8
0
 10
-52.127
 11
-52.219
 20
42.547
 21
42.527
  0
LINE
  8
0
 10
-52.219
 11
-52.312
 20
42.527
 21
42.512
  0
LINE
  8
0
 10
-52.312
 11
-52.406
 20
42.512
 21
42.503
  0
LINE
  8
0
 10
-52.406
 11
-52.5
 20
42.503
 21
42.5
  0
LINE
  8
0
 10
-52.5
 11
-52.594
 20
42.5
 21
42.503
  0
LINE
  8
0
 10
-52.594
 11
-52.688
 20
42.503
 21
42.512
  0
LINE
  8
0
 10
-52.688
 11
-52.781
 20
42.512
 21
42.527
  0
LINE
  8
0
 10
-52.781
 11
-52.873
 20
42.527
 21
42.547
  0
LINE
  8
0
 10
-52.873
 11
-52.964
 20
42.547
 21
42.573
  0
LINE
  8
0
 10
-52.964
 11
-53.052
 20
42.573
 21
42.605
  0
LINE
  8
0
 10
-53.052
 11
-53.139
 20
42.605
 21
42.643
  0
LINE
  8
0
 10
-53.139
 11
-53.223
 20
42.643
 21
42.686
  0
LINE
  8
0
 10
-53.223
 11
-53.304
 20
42.686
 21
42.734
  0
LINE
  8
0
 10
-53.304
 11
-53.382
 20
42.734
 21
42.786
  0
LINE
  8
0
 10
-53.382
 11
-53.456
 20
42.786
 21
42.844
  0
LINE
  8
0
 10
-53.456
 11
-53.527
 20
42.844
 21
42.907
  0
LINE
  8
0
 10
-53.527
 11
-53.593
 20
42.907
 21
42.973
  0
LINE
  8
0
 10
-53.593
 11
-53.656
 20
42.973
 21
43.044
  0
LINE
  8
0
 10
-53.656
 11
-53.714
 20
43.044
 21
43.118
  0
LINE
  8
0
 10
-53.714
 11
-53.766
 20
43.118
 21
43.196
  0
LINE
  8
0
 10
-53.766
 11
-53.814
 20
43.196
 21
43.277
  0
LINE
  8
0
 10
-53.814
 11
-53.857
 20
43.277
 21
43.361
  0
LINE
  8
0
 10
-53.857
 11
-53.895
 20
43.361
 21
43.448
  0
LINE
  8
0
 10
-53.895
 11
-53.927
 20
43.448
 21
43.536
  0
LINE
  8
0
 10
-53.927
 11
-53.953
 20
43.536
 21
43.627
  0
LINE
  8
0
 10
-53.953
 11
-53.973
 20
43.627
 21
43.719
  0
LINE
  8
0
 10
-53.973
 11
-53.988
 20
43.719
 21
43.812
  0
LINE
  8
0
 10
-53.988
 11
-53.997
 20
43.812
 21
43.906
  0
LINE
  8
0
 10
-53.997
 11
-54
 20
43.906
 21
44
  0
LINE
  8
0
 10
-46.5
 11
-46.497
 20
85
 21
85.094
  0
LINE
  8
0
 10
-46.497
 11
-46.488
 20
85.094
 21
85.188
  0
LINE
  8
0
 10
-46.488
 11
-46.473
 20
85.188
 21
85.281
  0
LINE
  8
0
 10
-46.473
 11
-46.453
 20
85.281
 21
85.373
  0
LINE
  8
0
 10
-46.453
 11
-46.427
 20
85.373
 21
85.464
  0
LINE
  8
0
 10
-46.427
 11
-46.395
 20
85.464
 21
85.552
  0
LINE
  8
0
 10
-46.395
 11
-46.357
 20
85.552
 21
85.639
  0
LINE
  8
0
 10
-46.357
 11
-46.314
 20
85.639
 21
85.723
  0
LINE
  8
0
 10
-46.314
 11
-46.266
 20
85.723
 21
85.804
  0
LINE
  8
0
 10
-46.266
 11
-46.214
 20
85.804
 21
85.882
  0
LINE
  8
0
 10
-46.214
 11
-46.156
 20
85.882
 21
85.956
  0
LINE
  8
0
 10
-46.156
 11
-46.093
 20
85.956
 21
86.027
  0
LINE
  8
0
 10
-46.093
 11
-46.027
 20
86.027
 21
86.093
  0
LINE
  8
0
 10
-46.027
 11
-45.956
 20
86.093
 21
86.156
  0
LINE
  8
0
 10
-45.956
 11
-45.882
 20
86.156
 21
86.214
  0
LINE
  8
0
 10
-45.882
 11
-45.804
 20
86.214
 21
86.266
  0
LINE
  8
0
 10
-45.804
 11
-45.723
 20
86.266
 21
86.314
  0
LINE
  8
0
 10
-45.723
 11
-45.639
 20
86.314
 21
86.357
  0
LINE
  8
0
 10
-45.639
 11
-45.552
 20
86.357
 21
86.395
  0
LINE
  8
0
 10
-45.552
 11
-45.464
 20
86.395
 21
86.427
  0
LINE
  8
0
 10
-45.464
 11
-45.373
 20
86.427
 21
86.453
  0
LINE
  8
0
 10
-45.373
 11
-45.281
 20
86.453
 21
86.473
  0
LINE
  8
0
 10
-45.281
 11
-45.188
 20
86.473
 21
86.488
  0
LINE
  8
0
 10
-45.188
 11
-45.094
 20
86.488
 21
86.497
  0
LINE
  8
0
 10
-45.094
 11
-45
 20
86.497
 21
86.5
  0
LINE
  8
0
 10
-45
 11
-44.906
 20
86.5
 21
86.497
  0
LINE
  8
0
 10
-44.906
 11
-44.812
 20
86.497
 21
86.488
  0
LINE
  8
0
 10
-44.812
 11
-44.719
 20
86.488
 21
86.473
  0
LINE
  8
0
 10
-44.719
 11
-44.627
 20
86.473
 21
86.453
  0
LINE
  8
0
 10
-44.627
 11
-44.536
 20
86.453
 21
86.427
  0
LINE
  8
0
 10
-44.536
 11
-44.448
 20
86.427
 21
86.395
  0
LINE
  8
0
 10
-44.448
 11
-44.361
 20
86.395
 21
86.357
  0
LINE
  8
0
 10
-44.361
 11
-44.277
 20
86.357
 21
86.314
  0
LINE
  8
0
 10
-44.277
 11
-44.196
 20
86.314
 21
86.266
  0
LINE
  8
0
 10
-44.196
 11
-44.118
 20
86.266
 21
86.214
  0
LINE
  8
0
 10
-44.118
 11
-44.044
 20
86.214
 21
86.156
  0
LINE
  8
0
 10
-44.044
 11
-43.973
 20
86.156
 21
86.093
  0
LINE
  8
0
 10
-43.973
 11
-43.907
 20
86.093
 21
86.027
  0
LINE
  8
0
 10
-43.907
 11
-43.844
 20
86.027
 21
85.956
  0
LINE
  8
0
 10
-43.844
 11
-43.786
 20
85.956
 21
85.882
  0
LINE
  8
0
 10
-43.786
 11
-43.734
 20
85.882
 21
85.804
  0
LINE
  8
0
 10
-43.734
 11
-43.686
 20
85.804
 21
85.723
  0
LINE
  8
0
 10
-43.686
 11
-43.643
 20
85.723
 21
85.639
  0
LINE
  8
0
 10
-43.643
 11
-43.605
 20
85.639
 21
85.552
  0
LINE
  8
0
 10
-43.605
 11
-43.573
 20
85.552
 21
85.464
  0
LINE
  8
0
 10
-43.573
 11
-43.547
 20
85.464
 21
85.373
  0
LINE
  8
0
 10
-43.547
 11
-43.527
 20
85.373
 21
85.281
  0
LINE
  8
0
 10
-43.527
 11
-43.512
 20
85.281
 21
85.188
  0
LINE
  8
0
 10
-43.512
 11
-43.503
 20
85.188
 21
85.094
  0
LINE
  8
0
 10
-43.503
 11
-43.5
 20
85.094
 21
85
  0
LINE
  8
0
 10
-43.5
 11
-43.503
 20
85
 21
84.906
  0
LINE
  8
0
 10
-43.503
 11
-43.512
 20
84.906
 21
84.812
  0
LINE
  8
0
 10
-43.512
 11
-43.527
 20
84.812
 21
84.719
  0
LINE
  8
0
 10
-43.527
 11
-43.547
 20
84.719
 21
84.627
  0
LINE
  8
0
 10
-43.547
 11
-43.573
 20
84.627
 21
84.536
  0
LINE
  8
0
 10
-43.573
 11
-43.605
 20
84.536
 21
84.448
  0
LINE
  8
0
 10
-43.605
 11
-43.643
 20
84.448
 21
84.361
  0
LINE
  8
0
 10
-43.643
 11
-43.686
 20
84.361
 21
84.277
  0
LINE
  8
0
 10
-43.686
 11
-43.734
 20
84.277
 21
84.196
  0
LINE
  8
0
 10
-43.734
 11
-43.786
 20
84.196
 21
84.118
  0
LINE
  8
0
 10
-43.786
 11
-43.844
 20
84.118
 21
84.044
  0
LINE
  8
0
 10
-43.844
 11
-43.907
 20
84.044
 21
83.973
  0
LINE
  8
0
 10
-43.907
 11
-43.973
 20
83.973
 21
83.907
  0
LINE
  8
0
 10
-43.973
 11
-44.044
 20
83.907
 21
83.844
  0
LINE
  8
0
 10
-44.044
 11
-44.118
 20
83.844
 21
83.786
  0
LINE
  8
0
 10
-44.118
 11
-44.196
 20
83.786
 21
83.734
  0
LINE
  8
0
 10
-44.196
 11
-44.277
 20
83.734
 21
83.686
  0
LINE
  8
0
 10
-44.277
 11
-44.361
 20
83.686
 21
83.643
  0
LINE
  8
0
 10
-44.361
 11
-44.448
 20
83.643
 21
83.605
  0
LINE
  8
0
 10
-44.448
 11
-44.536
 20
83.605
 21
83.573
  0
LINE
  8
0
 10
-44.536
 11
-44.627
 20
83.573
 21
83.547
  0
LINE
  8
0
 10
-44.627
 11
-44.719
 20
83.547
 21
83.527
  0
LINE
  8
0
 10
-44.719
 11
-44.812
 20
83.527
 21
83.512
  0
LINE
  8
0
 10
-44.812
 11
-44.906
 20
83.512
 21
83.503
  0
LINE
  8
0
 10
-44.906
 11
-45
 20
83.503
 21
83.5
  0
LINE
  8
0
 10
-45
 11
-45.094
 20
83.5
 21
83.503
  0
LINE
  8
0
 10
-45.094
 11
-45.188
 20
83.503
 21
83.512
  0
LINE
  8
0
 10
-45.188
 11
-45.281
 20
83.512
 21
83.527
  0
LINE
  8
0
 10
-45.281
 11
-45.373
 20
83.527
 21
83.547
  0
LINE
  8
0
 10
-45.373
 11
-45.464
 20
83.547
 21
83.573
  0
LINE
  8
0
 10
-45.464
 11
-45.552
 20
83.573
 21
83.605
  0
LINE
  8
0
 10
-45.552
 11
-45.639
 20
83.605
 21
83.643
  0
LINE
  8
0
 10
-45.639
 11
-45.723
 20
83.643
 21
83.686
  0
LINE
  8
0
 10
-45.723
 11
-45.804
 20
83.686
 21
83.734
  0
LINE
  8
0
 10
-45.804
 11
-45.882
 20
83.734
 21
83.786
  0
LINE
  8
0
 10
-45.882
 11
-45.956
 20
83.786
 21
83.844
  0
LINE
  8
0
 10
-45.956
 11
-46.027
 20
83.844
 21
83.907
  0
LINE
  8
0
 10
-46.027
 11
-46.093
 20
83.907
 21
83.973
  0
LINE
  8
0
 10
-46.093
 11
-46.156
 20
83.973
 21
84.044
  0
LINE
  8
0
 10
-46.156
 11
-46.214
 20
84.044
 21
84.118
  0
LINE
  8
0
 10
-46.214
 11
-46.266
 20
84.118
 21
84.196
  0
LINE
  8
0
 10
-46.266
 11
-46.314
 20
84.196
 21
84.277
  0
LINE
  8
0
 10
-46.314
 11
-46.357
 20
84.277
 21
84.361
  0
LINE
  8
0
 10
-46.357
 11
-46.395
 20
84.361
 21
84.448
  0
LINE
  8
0
 10
-46.395
 11
-46.427
 20
84.448
 21
84.536
  0
LINE
  8
0
 10
-46.427
 11
-46.453
 20
84.536
 21
84.627
  0
LINE
  8
0
 10
-46.453
 11
-46.473
 20
84.627
 21
84.719
  0
LINE
  8
0
 10
-46.473
 11
-46.488
 20
84.719
 21
84.812
  0
LINE
  8
0
 10
-46.488
 11
-46.497
 20
84.812
 21
84.906
  0
LINE
  8
0
 10
-46.497
 11
-46.5
 20
84.906
 21
85
  0
LINE
  8
0
 10
-40.5
 11
-40.495
 20
85
 21
85.157
  0
LINE
  8
0
 10
-40.495
 11
-40.48
 20
85.157
 21
85.313
  0
LINE
  8
0
 10
-40.48
 11
-40.456
 20
85.313
 21
85.468
  0
LINE
  8
0
 10
-40.456
 11
-40.421
 20
85.468
 21
85.622
  0
LINE
  8
0
 10
-40.421
 11
-40.378
 20
85.622
 21
85.773
  0
LINE
  8
0
 10
-40.378
 11
-40.324
 20
85.773
 21
85.92
  0
LINE
  8
0
 10
-40.324
 11
-40.262
 20
85.92
 21
86.064
  0
LINE
  8
0
 10
-40.262
 11
-40.191
 20
86.064
 21
86.204
  0
LINE
  8
0
 10
-40.191
 11
-40.111
 20
86.204
 21
86.34
  0
LINE
  8
0
 10
-40.111
 11
-40.023
 20
86.34
 21
86.469
  0
LINE
  8
0
 10
-40.023
 11
-39.926
 20
86.469
 21
86.594
  0
LINE
  8
0
 10
-39.926
 11
-39.822
 20
86.594
 21
86.711
  0
LINE
  8
0
 10
-39.822
 11
-39.711
 20
86.711
 21
86.822
  0
LINE
  8
0
 10
-39.711
 11
-39.594
 20
86.822
 21
86.926
  0
LINE
  8
0
 10
-39.594
 11
-39.469
 20
86.926
 21
87.023
  0
LINE
  8
0
 10
-39.469
 11
-39.34
 20
87.023
 21
87.111
  0
LINE
  8
0
 10
-39.34
 11
-39.204
 20
87.111
 21
87.191
  0
LINE
  8
0
 10
-39.204
 11
-39.064
 20
87.191
 21
87.262
  0
LINE
  8
0
 10
-39.064
 11
-38.92
 20
87.262
 21
87.324
  0
LINE
  8
0
 10
-38.92
 11
-38.773
 20
87.324
 21
87.378
  0
LINE
  8
0
 10
-38.773
 11
-38.622
 20
87.378
 21
87.421
  0
LINE
  8
0
 10
-38.622
 11
-38.468
 20
87.421
 21
87.456
  0
LINE
  8
0
 10
-38.468
 11
-38.313
 20
87.456
 21
87.48
  0
LINE
  8
0
 10
-38.313
 11
-38.157
 20
87.48
 21
87.495
  0
LINE
  8
0
 10
-38.157
 11
-38
 20
87.495
 21
87.5
  0
LINE
  8
0
 10
-38
 11
-37.843
 20
87.5
 21
87.495
  0
LINE
  8
0
 10
-37.843
 11
-37.687
 20
87.495
 21
87.48
  0
LINE
  8
0
 10
-37.687
 11
-37.532
 20
87.48
 21
87.456
  0
LINE
  8
0
 10
-37.532
 11
-37.378
 20
87.456
 21
87.421
  0
LINE
  8
0
 10
-37.378
 11
-37.227
 20
87.421
 21
87.378
  0
LINE
  8
0
 10
-37.227
 11
-37.08
 20
87.378
 21
87.324
  0
LINE
  8
0
 10
-37.08
 11
-36.936
 20
87.324
 21
87.262
  0
LINE
  8
0
 10
-36.936
 11
-36.796
 20
87.262
 21
87.191
  0
LINE
  8
0
 10
-36.796
 11
-36.66
 20
87.191
 21
87.111
  0
LINE
  8
0
 10
-36.66
 11
-36.531
 20
87.111
 21
87.023
  0
LINE
  8
0
 10
-36.531
 11
-36.406
 20
87.023
 21
86.926
  0
LINE
  8
0
 10
-36.406
 11
-36.289
 20
86.926
 21
86.822
  0
LINE
  8
0
 10
-36.289
 11
-36.178
 20
86.822
 21
86.711
  0
LINE
  8
0
 10
-36.178
 11
-36.074
 20
86.711
 21
86.594
  0
LINE
  8
0
 10
-36.074
 11
-35.977
 20
86.594
 21
86.469
  0
LINE
  8
0
 10
-35.977
 11
-35.889
 20
86.469
 21
86.34
  0
LINE
  8
0
 10
-35.889
 11
-35.809
 20
86.34
 21
86.204
  0
LINE
  8
0
 10
-35.809
 11
-35.738
 20
86.204
 21
86.064
  0
LINE
  8
0
 10
-35.738
 11
-35.676
 20
86.064
 21
85.92
  0
LINE
  8
0
 10
-35.676
 11
-35.622
 20
85.92
 21
85.773
  0
LINE
  8
0
 10
-35.622
 11
-35.579
 20
85.773
 21
85.622
  0
LINE
  8
0
 10
-35.579
 11
-35.544
 20
85.622
 21
85.468
  0
LINE
  8
0
 10
-35.544
 11
-35.52
 20
85.468
 21
85.313
  0
LINE
  8
0
 10
-35.52
 11
-35.505
 20
85.313
 21
85.157
  0
LINE
  8
0
 10
-35.505
 11
-35.5
 20
85.157
 21
85
  0
LINE
  8
0
 10
-35.5
 11
-35.505
 20
85
 21
84.843
  0
LINE
  8
0
 10
-35.505
 11
-35.52
 20
84.843
 21
84.687
  0
LINE
  8
0
 10
-35.52
 11
-35.544
 20
84.687
 21
84.532
  0
LINE
  8
0
 10
-35.544
 11
-35.579
 20
84.532
 21
84.378
  0
LINE
  8
0
 10
-35.579
 11
-35.622
 20
84.378
 21
84.227
  0
LINE
  8
0
 10
-35.622
 11
-35.676
 20
84.227
 21
84.08
  0
LINE
  8
0
 10
-35.676
 11
-35.738
 20
84.08
 21
83.936
  0
LINE
  8
0
 10
-35.738
 11
-35.809
 20
83.936
 21
83.796
  0
LINE
  8
0
 10
-35.809
 11
-35.889
 20
83.796
 21
83.66
  0
LINE
  8
0
 10
-35.889
 11
-35.977
 20
83.66
 21
83.531
  0
LINE
  8
0
 10
-35.977
 11
-36.074
 20
83.531
 21
83.406
  0
LINE
  8
0
 10
-36.074
 11
-36.178
 20
83.406
 21
83.289
  0
LINE
  8
0
 10
-36.178
 11
-36.289
 20
83.289
 21
83.178
  0
LINE
  8
0
 10
-36.289
 11
-36.406
 20
83.178
 21
83.074
  0
LINE
  8
0
 10
-36.406
 11
-36.531
 20
83.074
 21
82.977
  0
LINE
  8
0
 10
-36.531
 11
-36.66
 20
82.977
 21
82.889
  0
LINE
  8
0
 10
-36.66
 11
-36.796
 20
82.889
 21
82.809
  0
LINE
  8
0
 10
-36.796
 11
-36.936
 20
82.809
 21
82.738
  0
LINE
  8
0
 10
-36.936
 11
-37.08
 20
82.738
 21
82.676
  0
LINE
  8
0
 10
-37.08
 11
-37.227
 20
82.676
 21
82.622
  0
LINE
  8
0
 10
-37.227
 11
-37.378
 20
82.622
 21
82.579
  0
LINE
  8
0
 10
-37.378
 11
-37.532
 20
82.579
 21
82.544
  0
LINE
  8
0
 10
-37.532
 11
-37.687
 20
82.544
 21
82.52
  0
LINE
  8
0
 10
-37.687
 11
-37.843
 20
82.52
 21
82.505
  0
LINE
  8
0
 10
-37.843
 11
-38
 20
82.505
 21
82.5
  0
LINE
  8
0
 10
-38
 11
-38.157
 20
82.5
 21
82.505
  0
LINE
  8
0
 10
-38.157
 11
-38.313
 20
82.505
 21
82.52
  0
LINE
  8
0
 10
-38.313
 11
-38.468
 20
82.52
 21
82.544
  0
LINE
  8
0
 10
-38.468
 11
-38.622
 20
82.544
 21
82.579
  0
LINE
  8
0
 10
-38.622
 11
-38.773
 20
82.579
 21
82.622
  0
LINE
  8
0
 10
-38.773
 11
-38.92
 20
82.622
 21
82.676
  0
LINE
  8
0
 10
-38.92
 11
-39.064
 20
82.676
 21
82.738
  0
LINE
  8
0
 10
-39.064
 11
-39.204
 20
82.738
 21
82.809
  0
LINE
  8
0
 10
-39.204
 11
-39.34
 20
82.809
 21
82.889
  0
LINE
  8
0
 10
-39.34
 11
-39.469
 20
82.889
 21
82.977
  0
LINE
  8
0
 10
-39.469
 11
-39.594
 20
82.977
 21
83.074
  0
LINE
  8
0
 10
-39.594
 11
-39.711
 20
83.074
 21
83.178
  0
LINE
  8
0
 10
-39.711
 11
-39.822
 20
83.178
 21
83.289
  0
LINE
  8
0
 10
-39.822
 11
-39.926
 20
83.289
 21
83.406
  0
LINE
  8
0
 10
-39.926
 11
-40.023
 20
83.406
 21
83.531
  0
LINE
  8
0
 10
-40.023
 11
-40.111
 20
83.531
 21
83.66
  0
LINE
  8
0
 10
-40.111
 11
-40.191
 20
83.66
 21
83.796
  0
LINE
  8
0
 10
-40.191
 11
-40.262
 20
83.796
 21
83.936
  0
LINE
  8
0
 10
-40.262
 11
-40.324
 20
83.936
 21
84.08
  0
LINE
  8
0
 10
-40.324
 11
-40.378
 20
84.08
 21
84.227
  0
LINE
  8
0
 10
-40.378
 11
-40.421
 20
84.227
 21
84.378
  0
LINE
  8
0
 10
-40.421
 11
-40.456
 20
84.378
 21
84.532
  0
LINE
  8
0
 10
-40.456
 11
-40.48
 20
84.532
 21
84.687
  0
LINE
  8
0
 10
-40.48
 11
-40.495
 20
84.687
 21
84.843
  0
LINE
  8
0
 10
-40.495
 11
-40.5
 20
84.843
 21
85
  0
LINE
  8
0
 10
-38
 11
-37.994
 20
63
 21
63.188
  0
LINE
  8
0
 10
-37.994
 11
-37.976
 20
63.188
 21
63.376
  0
LINE
  8
0
 10
-37.976
 11
-37.947
 20
63.376
 21
63.562
  0
LINE
  8
0
 10
-37.947
 11
-37.906
 20
63.562
 21
63.746
  0
LINE
  8
0
 10
-37.906
 11
-37.853
 20
63.746
 21
63.927
  0
LINE
  8
0
 10
-37.853
 11
-37.789
 20
63.927
 21
64.104
  0
LINE
  8
0
 10
-37.789
 11
-37.714
 20
64.104
 21
64.277
  0
LINE
  8
0
 10
-37.714
 11
-37.629
 20
64.277
 21
64.445
  0
LINE
  8
0
 10
-37.629
 11
-37.533
 20
64.445
 21
64.607
  0
LINE
  8
0
 10
-37.533
 11
-37.427
 20
64.607
 21
64.763
  0
LINE
  8
0
 10
-37.427
 11
-37.312
 20
64.763
 21
64.912
  0
LINE
  8
0
 10
-37.312
 11
-37.187
 20
64.912
 21
65.054
  0
LINE
  8
0
 10
-37.187
 11
-37.054
 20
65.054
 21
65.187
  0
LINE
  8
0
 10
-37.054
 11
-36.912
 20
65.187
 21
65.312
  0
LINE
  8
0
 10
-36.912
 11
-36.763
 20
65.312
 21
65.427
  0
LINE
  8
0
 10
-36.763
 11
-36.607
 20
65.427
 21
65.533
  0
LINE
  8
0
 10
-36.607
 11
-36.445
 20
65.533
 21
65.629
  0
LINE
  8
0
 10
-36.445
 11
-36.277
 20
65.629
 21
65.714
  0
LINE
  8
0
 10
-36.277
 11
-36.104
 20
65.714
 21
65.789
  0
LINE
  8
0
 10
-36.104
 11
-35.927
 20
65.789
 21
65.853
  0
LINE
  8
0
 10
-35.927
 11
-35.746
 20
65.853
 21
65.906
  0
LINE
  8
0
 10
-35.746
 11
-35.562
 20
65.906
 21
65.947
  0
LINE
  8
0
 10
-35.562
 11
-35.376
 20
65.947
 21
65.976
  0
LINE
  8
0
 10
-35.376
 11
-35.188
 20
65.976
 21
65.994
  0
LINE
  8
0
 10
-35.188
 11
-35
 20
65.994
 21
66
  0
LINE
  8
0
 10
-35
 11
-34.812
 20
66
 21
65.994
  0
LINE
  8
0
 10
-34.812
 11
-34.624
 20
65.994
 21
65.976
  0
LINE
  8
0
 10
-34.624
 11
-34.438
 20
65.976
 21
65.947
  0
LINE
  8
0
 10
-34.438
 11
-34.254
 20
65.947
 21
65.906
  0
LINE
  8
0
 10
-34.254
 11
-34.073
 20
65.906
 21
65.853
  0
LINE
  8
0
 10
-34.073
 11
-33.896
 20
65.853
 21
65.789
  0
LINE
  8
0
 10
-33.896
 11
-33.723
 20
65.789
 21
65.714
  0
LINE
  8
0
 10
-33.723
 11
-33.555
 20
65.714
 21
65.629
  0
LINE
  8
0
 10
-33.555
 11
-33.393
 20
65.629
 21
65.533
  0
LINE
  8
0
 10
-33.393
 11
-33.237
 20
65.533
 21
65.427
  0
LINE
  8
0
 10
-33.237
 11
-33.088
 20
65.427
 21
65.312
  0
LINE
  8
0
 10
-33.088
 11
-32.946
 20
65.312
 21
65.187
  0
LINE
  8
0
 10
-32.946
 11
-32.813
 20
65.187
 21
65.054
  0
LINE
  8
0
 10
-32.813
 11
-32.688
 20
65.054
 21
64.912
  0
LINE
  8
0
 10
-32.688
 11
-32.573
 20
64.912
 21
64.763
  0
LINE
  8
0
 10
-32.573
 11
-32.467
 20
64.763
 21
64.607
  0
LINE
  8
0
 10
-32.467
 11
-32.371
 20
64.607
 21
64.445
  0
LINE
  8
0
 10
-32.371
 11
-32.286
 20
64.445
 21
64.277
  0
LINE
  8
0
 10
-32.286
 11
-32.211
 20
64.277
 21
64.104
  0
LINE
  8
0
 10
-32.211
 11
-32.147
 20
64.104
 21
63.927
  0
LINE
  8
0
 10
-32.147
 11
-32.094
 20
63.927
 21
63.746
  0
LINE
  8
0
 10
-32.094
 11
-32.053
 20
63.746
 21
63.562
  0
LINE
  8
0
 10
-32.053
 11
-32.024
 20
63.562
 21
63.376
  0
LINE
  8
0
 10
-32.024
 11
-32.006
 20
63.376
 21
63.188
  0
LINE
  8
0
 10
-32.006
 11
-32
 20
63.188
 21
63
  0
LINE
  8
0
 10
-32
 11
-32.006
 20
63
 21
62.812
  0
LINE
  8
0
 10
-32.006
 11
-32.024
 20
62.812
 21
62.624
  0
LINE
  8
0
 10
-32.024
 11
-32.053
 20
62.624
 21
62.438
  0
LINE
  8
0
 10
-32.053
 11
-32.094
 20
62.438
 21
62.254
  0
LINE
  8
0
 10
-32.094
 11
-32.147
 20
62.254
 21
62.073
  0
LINE
  8
0
 10
-32.147
 11
-32.211
 20
62.073
 21
61.896
  0
LINE
  8
0
 10
-32.211
 11
-32.286
 20
61.896
 21
61.723
  0
LINE
  8
0
 10
-32.286
 11
-32.371
 20
61.723
 21
61.555
  0
LINE
  8
0
 10
-32.371
 11
-32.467
 20
61.555
 21
61.393
  0
LINE
  8
0
 10
-32.467
 11
-32.573
 20
61.393
 21
61.237
  0
LINE
  8
0
 10
-32.573
 11
-32.688
 20
61.237
 21
61.088
  0
LINE
  8
0
 10
-32.688
 11
-32.813
 20
61.088
 21
60.946
  0
LINE
  8
0
 10
-32.813
 11
-32.946
 20
60.946
 21
60.813
  0
LINE
  8
0
 10
-32.946
 11
-33.088
 20
60.813
 21
60.688
  0
LINE
  8
0
 10
-33.088
 11
-33.237
 20
60.688
 21
60.573
  0
LINE
  8
0
 10
-33.237
 11
-33.393
 20
60.573
 21
60.467
  0
LINE
  8
0
 10
-33.393
 11
-33.555
 20
60.467
 21
60.371
  0
LINE
  8
0
 10
-33.555
 11
-33.723
 20
60.371
 21
60.286
  0
LINE
  8
0
 10
-33.723
 11
-33.896
 20
60.286
 21
60.211
  0
LINE
  8
0
 10
-33.896
 11
-34.073
 20
60.211
 21
60.147
  0
LINE
  8
0
 10
-34.073
 11
-34.254
 20
60.147
 21
60.094
  0
LINE
  8
0
 10
-34.254
 11
-34.438
 20
60.094
 21
60.053
  0
LINE
  8
0
 10
-34.438
 11
-34.624
 20
60.053
 21
60.024
  0
LINE
  8
0
 10
-34.624
 11
-34.812
 20
60.024
 21
60.006
  0
LINE
  8
0
 10
-34.812
 11
-35
 20
60.006
 21
60
  0
LINE
  8
0
 10
-35
 11
-35.188
 20
60
 21
60.006
  0
LINE
  8
0
 10
-35.188
 11
-35.376
 20
60.006
 21
60.024
  0
LINE
  8
0
 10
-35.376
 11
-35.562
 20
60.024
 21
60.053
  0
LINE
  8
0
 10
-35.562
 11
-35.746
 20
60.053
 21
60.094
  0
LINE
  8
0
 10
-35.746
 11
-35.927
 20
60.094
 21
60.147
  0
LINE
  8
0
 10
-35.927
 11
-36.104
 20
60.147
 21
60.211
  0
LINE
  8
0
 10
-36.104
 11
-36.277
 20
60.211
 21
60.286
  0
LINE
  8
0
 10
-36.277
 11
-36.445
 20
60.286
 21
60.371
  0
LINE
  8
0
 10
-36.445
 11
-36.607
 20
60.371
 21
60.467
  0
LINE
  8
0
 10
-36.607
 11
-36.763
 20
60.467
 21
60.573
  0
LINE
  8
0
 10
-36.763
 11
-36.912
 20
60.573
 21
60.688
  0
LINE
  8
0
 10
-36.912
 11
-37.054
 20
60.688
 21
60.813
  0
LINE
  8
0
 10
-37.054
 11
-37.187
 20
60.813
 21
60.946
  0
LINE
  8
0
 10
-37.187
 11
-37.312
 20
60.946
 21
61.088
  0
LINE
  8
0
 10
-37.312
 11
-37.427
 20
61.088
 21
61.237
  0
LINE
  8
0
 10
-37.427
 11
-37.533
 20
61.237
 21
61.393
  0
LINE
  8
0
 10
-37.533
 11
-37.629
 20
61.393
 21
61.555
  0
LINE
  8
0
 10
-37.629
 11
-37.714
 20
61.555
 21
61.723
  0
LINE
  8
0
 10
-37.714
 11
-37.789
 20
61.723
 21
61.896
  0
LINE
  8
0
 10
-37.789
 11
-37.853
 20
61.896
 21
62.073
  0
LINE
  8
0
 10
-37.853
 11
-37.906
 20
62.073
 21
62.254
  0
LINE
  8
0
 10
-37.906
 11
-37.947
 20
62.254
 21
62.438
  0
LINE
  8
0
 10
-37.947
 11
-37.976
 20
62.438
 21
62.624
  0
LINE
  8
0
 10
-37.976
 11
-37.994
 20
62.624
 21
62.812
  0
LINE
  8
0
 10
-37.994
 11
-38
 20
62.812
 21
63
  0
LINE
  8
0
 10
-29.6
 11
-29.6
 20
-69.25
 21
-56.75
  0
LINE
  8
0
 10
-29.6
 11
-10.4
 20
-56.75
 21
-56.75
  0
LINE
  8
0
 10
-10.4
 11
-10.4
 20
-56.75
 21
-69.25
  0
LINE
  8
0
 10
-10.4
 11
-29.6
 20
-69.25
 21
-69.25
  0
LINE
  8
0
 10
-8
 11
-7.994
 20
63
 21
63.188
  0
LINE
  8
0
 10
-7.994
 11
-7.976
 20
63.188
 21
63.376
  0
LINE
  8
0
 10
-7.976
 11
-7.947
 20
63.376
 21
63.562
  0
LINE
  8
0
 10
-7.947
 11
-7.906
 20
63.562
 21
63.746
  0
LINE
  8
0
 10
-7.906
 11
-7.853
 20
63.746
 21
63.927
  0
LINE
  8
0
 10
-7.853
 11
-7.789
 20
63.927
 21
64.104
  0
LINE
  8
0
 10
-7.789
 11
-7.714
 20
64.104
 21
64.277
  0
LINE
  8
0
 10
-7.714
 11
-7.629
 20
64.277
 21
64.445
  0
LINE
  8
0
 10
-7.629
 11
-7.533
 20
64.445
 21
64.607
  0
LINE
  8
0
 10
-7.533
 11
-7.427
 20
64.607
 21
64.763
  0
LINE
  8
0
 10
-7.427
 11
-7.312
 20
64.763
 21
64.912
  0
LINE
  8
0
 10
-7.312
 11
-7.187
 20
64.912
 21
65.054
  0
LINE
  8
0
 10
-7.187
 11
-7.054
 20
65.054
 21
65.187
  0
LINE
  8
0
 10
-7.054
 11
-6.912
 20
65.187
 21
65.312
  0
LINE
  8
0
 10
-6.912
 11
-6.763
 20
65.312
 21
65.427
  0
LINE
  8
0
 10
-6.763
 11
-6.607
 20
65.427
 21
65.533
  0
LINE
  8
0
 10
-6.607
 11
-6.445
 20
65.533
 21
65.629
  0
LINE
  8
0
 10
-6.445
 11
-6.277
 20
65.629
 21
65.714
  0
LINE
  8
0
 10
-6.277
 11
-6.104
 20
65.714
 21
65.789
  0
LINE
  8
0
 10
-6.104
 11
-5.927
 20
65.789
 21
65.853
  0
LINE
  8
0
 10
-5.927
 11
-5.746
 20
65.853
 21
65.906
  0
LINE
  8
0
 10
-5.746
 11
-5.562
 20
65.906
 21
65.947
  0
LINE
  8
0
 10
-5.562
 11
-5.376
 20
65.947
 21
65.976
  0
LINE
  8
0
 10
-5.376
 11
-5.188
 20
65.976
 21
65.994
  0
LINE
  8
0
 10
-5.188
 11
-5
 20
65.994
 21
66
  0
LINE
  8
0
 10
-5
 11
-4.812
 20
66
 21
65.994
  0
LINE
  8
0
 10
-4.812
 11
-4.624
 20
65.994
 21
65.976
  0
LINE
  8
0
 10
-4.624
 11
-4.438
 20
65.976
 21
65.947
  0
LINE
  8
0
 10
-4.438
 11
-4.254
 20
65.947
 21
65.906
  0
LINE
  8
0
 10
-4.254
 11
-4.073
 20
65.906
 21
65.853
  0
LINE
  8
0
 10
-4.073
 11
-3.896
 20
65.853
 21
65.789
  0
LINE
  8
0
 10
-3.896
 11
-3.723
 20
65.789
 21
65.714
  0
LINE
  8
0
 10
-3.723
 11
-3.555
 20
65.714
 21
65.629
  0
LINE
  8
0
 10
-3.555
 11
-3.393
 20
65.629
 21
65.533
  0
LINE
  8
0
 10
-3.393
 11
-3.237
 20
65.533
 21
65.427
  0
LINE
  8
0
 10
-3.237
 11
-3.088
 20
65.427
 21
65.312
  0
LINE
  8
0
 10
-3.088
 11
-2.946
 20
65.312
 21
65.187
  0
LINE
  8
0
 10
-2.946
 11
-2.813
 20
65.187
 21
65.054
  0
LINE
  8
0
 10
-2.813
 11
-2.688
 20
65.054
 21
64.912
  0
LINE
  8
0
 10
-2.688
 11
-2.573
 20
64.912
 21
64.763
  0
LINE
  8
0
 10
-2.573
 11
-2.467
 20
64.763
 21
64.607
  0
LINE
  8
0
 10
-2.467
 11
-2.371
 20
64.607
 21
64.445
  0
LINE
  8
0
 10
-2.371
 11
-2.286
 20
64.445
 21
64.277
  0
LINE
  8
0
 10
-2.286
 11
-2.211
 20
64.277
 21
64.104
  0
LINE
  8
0
 10
-2.211
 11
-2.147
 20
64.104
 21
63.927
  0
LINE
  8
0
 10
-2.147
 11
-2.094
 20
63.927
 21
63.746
  0
LINE
  8
0
 10
-2.094
 11
-2.053
 20
63.746
 21
63.562
  0
LINE
  8
0
 10
-2.053
 11
-2.024
 20
63.562
 21
63.376
  0
LINE
  8
0
 10
-2.024
 11
-2.006
 20
63.376
 21
63.188
  0
LINE
  8
0
 10
-2.006
 11
-2
 20
63.188
 21
63
  0
LINE
  8
0
 10
-2
 11
-2.006
 20
63
 21
62.812
  0
LINE
  8
0
 10
-2.006
 11
-2.024
 20
62.812
 21
62.624
  0
LINE
  8
0
 10
-2.024
 11
-2.053
 20
62.624
 21
62.438
  0
LINE
  8
0
 10
-2.053
 11
-2.094
 20
62.438
 21
62.254
  0
LINE
  8
0
 10
-2.094
 11
-2.147
 20
62.254
 21
62.073
  0
LINE
  8
0
 10
-2.147
 11
-2.211
 20
62.073
 21
61.896
  0
LINE
  8
0
 10
-2.211
 11
-2.286
 20
61.896
 21
61.723
  0
LINE
  8
0
 10
-2.286
 11
-2.371
 20
61.723
 21
61.555
  0
LINE
  8
0
 10
-2.371
 11
-2.467
 20
61.555
 21
61.393
  0
LINE
  8
0
 10
-2.467
 11
-2.573
 20
61.393
 21
61.237
  0
LINE
  8
0
 10
-2.573
 11
-2.688
 20
61.237
 21
61.088
  0
LINE
  8
0
 10
-2.688
 11
-2.813
 20
61.088
 21
60.946
  0
LINE
  8
0
 10
-2.813
 11
-2.946
 20
60.946
 21
60.813
  0
LINE
  8
0
 10
-2.946
 11
-3.088
 20
60.813
 21
60.688
  0
LINE
  8
0
 10
-3.088
 11
-3.237
 20
60.688
 21
60.573
  0
LINE
  8
0
 10
-3.237
 11
-3.393
 20
60.573
 21
60.467
  0
LINE
  8
0
 10
-3.393
 11
-3.555
 20
60.467
 21
60.371
  0
LINE
  8
0
 10
-3.555
 11
-3.723
 20
60.371
 21
60.286
  0
LINE
  8
0
 10
-3.723
 11
-3.896
 20
60.286
 21
60.211
  0
LINE
  8
0
 10
-3.896
 11
-4.073
 20
60.211
 21
60.147
  0
LINE
  8
0
 10
-4.073
 11
-4.254
 20
60.147
 21
60.094
  0
LINE
  8
0
 10
-4.254
 11
-4.438
 20
60.094
 21
60.053
  0
LINE
  8
0
 10
-4.438
 11
-4.624
 20
60.053
 21
60.024
  0
LINE
  8
0
 10
-4.624
 11
-4.812
 20
60.024
 21
60.006
  0
LINE
  8
0
 10
-4.812
 11
-5
 20
60.006
 21
60
  0
LINE
  8
0
 10
-5
 11
-5.188
 20
60
 21
60.006
  0
LINE
  8
0
 10
-5.188
 11
-5.376
 20
60.006
 21
60.024
  0
LINE
  8
0
 10
-5.376
 11
-5.562
 20
60.024
 21
60.053
  0
LINE
  8
0
 10
-5.562
 11
-5.746
 20
60.053
 21
60.094
  0
LINE
  8
0
 10
-5.746
 11
-5.927
 20
60.094
 21
60.147
  0
LINE
  8
0
 10
-5.927
 11
-6.104
 20
60.147
 21
60.211
  0
LINE
  8
0
 10
-6.104
 11
-6.277
 20
60.211
 21
60.286
  0
LINE
  8
0
 10
-6.277
 11
-6.445
 20
60.286
 21
60.371
  0
LINE
  8
0
 10
-6.445
 11
-6.607
 20
60.371
 21
60.467
  0
LINE
  8
0
 10
-6.607
 11
-6.763
 20
60.467
 21
60.573
  0
LINE
  8
0
 10
-6.763
 11
-6.912
 20
60.573
 21
60.688
  0
LINE
  8
0
 10
-6.912
 11
-7.054
 20
60.688
 21
60.813
  0
LINE
  8
0
 10
-7.054
 11
-7.187
 20
60.813
 21
60.946
  0
LINE
  8
0
 10
-7.187
 11
-7.312
 20
60.946
 21
61.088
  0
LINE
  8
0
 10
-7.312
 11
-7.427
 20
61.088
 21
61.237
  0
LINE
  8
0
 10
-7.427
 11
-7.533
 20
61.237
 21
61.393
  0
LINE
  8
0
 10
-7.533
 11
-7.629
 20
61.393
 21
61.555
  0
LINE
  8
0
 10
-7.629
 11
-7.714
 20
61.555
 21
61.723
  0
LINE
  8
0
 10
-7.714
 11
-7.789
 20
61.723
 21
61.896
  0
LINE
  8
0
 10
-7.789
 11
-7.853
 20
61.896
 21
62.073
  0
LINE
  8
0
 10
-7.853
 11
-7.906
 20
62.073
 21
62.254
  0
LINE
  8
0
 10
-7.906
 11
-7.947
 20
62.254
 21
62.438
  0
LINE
  8
0
 10
-7.947
 11
-7.976
 20
62.438
 21
62.624
  0
LINE
  8
0
 10
-7.976
 11
-7.994
 20
62.624
 21
62.812
  0
LINE
  8
0
 10
-7.994
 11
-8
 20
62.812
 21
63
  0
LINE
  8
0
 10
-4.5
 11
-4.495
 20
85
 21
85.157
  0
LINE
  8
0
 10
-4.495
 11
-4.48
 20
85.157
 21
85.313
  0
LINE
  8
0
 10
-4.48
 11
-4.456
 20
85.313
 21
85.468
  0
LINE
  8
0
 10
-4.456
 11
-4.421
 20
85.468
 21
85.622
  0
LINE
  8
0
 10
-4.421
 11
-4.378
 20
85.622
 21
85.773
  0
LINE
  8
0
 10
-4.378
 11
-4.324
 20
85.773
 21
85.92
  0
LINE
  8
0
 10
-4.324
 11
-4.262
 20
85.92
 21
86.064
  0
LINE
  8
0
 10
-4.262
 11
-4.191
 20
86.064
 21
86.204
  0
LINE
  8
0
 10
-4.191
 11
-4.111
 20
86.204
 21
86.34
  0
LINE
  8
0
 10
-4.111
 11
-4.023
 20
86.34
 21
86.469
  0
LINE
  8
0
 10
-4.023
 11
-3.926
 20
86.469
 21
86.594
  0
LINE
  8
0
 10
-3.926
 11
-3.822
 20
86.594
 21
86.711
  0
LINE
  8
0
 10
-3.822
 11
-3.711
 20
86.711
 21
86.822
  0
LINE
  8
0
 10
-3.711
 11
-3.594
 20
86.822
 21
86.926
  0
LINE
  8
0
 10
-3.594
 11
-3.469
 20
86.926
 21
87.023
  0
LINE
  8
0
 10
-3.469
 11
-3.34
 20
87.023
 21
87.111
  0
LINE
  8
0
 10
-3.34
 11
-3.204
 20
87.111
 21
87.191
  0
LINE
  8
0
 10
-3.204
 11
-3.064
 20
87.191
 21
87.262
  0
LINE
  8
0
 10
-3.064
 11
-2.92
 20
87.262
 21
87.324
  0
LINE
  8
0
 10
-2.92
 11
-2.773
 20
87.324
 21
87.378
  0
LINE
  8
0
 10
-2.773
 11
-2.622
 20
87.378
 21
87.421
  0
LINE
  8
0
 10
-2.622
 11
-2.468
 20
87.421
 21
87.456
  0
LINE
  8
0
 10
-2.468
 11
-2.313
 20
87.456
 21
87.48
  0
LINE
  8
0
 10
-2.313
 11
-2.157
 20
87.48
 21
87.495
  0
LINE
  8
0
 10
-2.157
 11
-2
 20
87.495
 21
87.5
  0
LINE
  8
0
 10
-2
 11
-1.843
 20
87.5
 21
87.495
  0
LINE
  8
0
 10
-1.843
 11
-1.687
 20
87.495
 21
87.48
  0
LINE
  8
0
 10
-1.687
 11
-1.532
 20
87.48
 21
87.456
  0
LINE
  8
0
 10
-1.532
 11
-1.378
 20
87.456
 21
87.421
  0
LINE
  8
0
 10
-1.378
 11
-1.227
 20
87.421
 21
87.378
  0
LINE
  8
0
 10
-1.227
 11
-1.08
 20
87.378
 21
87.324
  0
LINE
  8
0
 10
-1.08
 11
-0.936
 20
87.324
 21
87.262
  0
LINE
  8
0
 10
-0.936
 11
-0.796
 20
87.262
 21
87.191
  0
LINE
  8
0
 10
-0.796
 11
-0.66
 20
87.191
 21
87.111
  0
LINE
  8
0
 10
-0.66
 11
-0.531
 20
87.111
 21
87.023
  0
LINE
  8
0
 10
-0.531
 11
-0.406
 20
87.023
 21
86.926
  0
LINE
  8
0
 10
-0.406
 11
-0.289
 20
86.926
 21
86.822
  0
LINE
  8
0
 10
-0.289
 11
-0.178
 20
86.822
 21
86.711
  0
LINE
  8
0
 10
-0.178
 11
-0.074
 20
86.711
 21
86.594
  0
LINE
  8
0
 10
-0.074
 11
0.023
 20
86.594
 21
86.469
  0
LINE
  8
0
 10
0.023
 11
0.111
 20
86.469
 21
86.34
  0
LINE
  8
0
 10
0.111
 11
0.191
 20
86.34
 21
86.204
  0
LINE
  8
0
 10
0.191
 11
0.262
 20
86.204
 21
86.064
  0
LINE
  8
0
 10
0.262
 11
0.324
 20
86.064
 21
85.92
  0
LINE
  8
0
 10
0.324
 11
0.378
 20
85.92
 21
85.773
  0
LINE
  8
0
 10
0.378
 11
0.421
 20
85.773
 21
85.622
  0
LINE
  8
0
 10
0.421
 11
0.456
 20
85.622
 21
85.468
  0
LINE
  8
0
 10
0.456
 11
0.48
 20
85.468
 21
85.313
  0
LINE
  8
0
 10
0.48
 11
0.495
 20
85.313
 21
85.157
  0
LINE
  8
0
 10
0.495
 11
0.5
 20
85.157
 21
85
  0
LINE
  8
0
 10
0.5
 11
0.495
 20
85
 21
84.843
  0
LINE
  8
0
 10
0.495
 11
0.48
 20
84.843
 21
84.687
  0
LINE
  8
0
 10
0.48
 11
0.456
 20
84.687
 21
84.532
  0
LINE
  8
0
 10
0.456
 11
0.421
 20
84.532
 21
84.378
  0
LINE
  8
0
 10
0.421
 11
0.378
 20
84.378
 21
84.227
  0
LINE
  8
0
 10
0.378
 11
0.324
 20
84.227
 21
84.08
  0
LINE
  8
0
 10
0.324
 11
0.262
 20
84.08
 21
83.936
  0
LINE
  8
0
 10
0.262
 11
0.191
 20
83.936
 21
83.796
  0
LINE
  8
0
 10
0.191
 11
0.111
 20
83.796
 21
83.66
  0
LINE
  8
0
 10
0.111
 11
0.023
 20
83.66
 21
83.531
  0
LINE
  8
0
 10
0.023
 11
-0.074
 20
83.531
 21
83.406
  0
LINE
  8
0
 10
-0.074
 11
-0.178
 20
83.406
 21
83.289
  0
LINE
  8
0
 10
-0.178
 11
-0.289
 20
83.289
 21
83.178
  0
LINE
  8
0
 10
-0.289
 11
-0.406
 20
83.178
 21
83.074
  0
LINE
  8
0
 10
-0.406
 11
-0.531
 20
83.074
 21
82.977
  0
LINE
  8
0
 10
-0.531
 11
-0.66
 20
82.977
 21
82.889
  0
LINE
  8
0
 10
-0.66
 11
-0.796
 20
82.889
 21
82.809
  0
LINE
  8
0
 10
-0.796
 11
-0.936
 20
82.809
 21
82.738
  0
LINE
  8
0
 10
-0.936
 11
-1.08
 20
82.738
 21
82.676
  0
LINE
  8
0
 10
-1.08
 11
-1.227
 20
82.676
 21
82.622
  0
LINE
  8
0
 10
-1.227
 11
-1.378
 20
82.622
 21
82.579
  0
LINE
  8
0
 10
-1.378
 11
-1.532
 20
82.579
 21
82.544
  0
LINE
  8
0
 10
-1.532
 11
-1.687
 20
82.544
 21
82.52
  0
LINE
  8
0
 10
-1.687
 11
-1.843
 20
82.52
 21
82.505
  0
LINE
  8
0
 10
-1.843
 11
-2
 20
82.505
 21
82.5
  0
LINE
  8
0
 10
-2
 11
-2.157
 20
82.5
 21
82.505
  0
LINE
  8
0
 10
-2.157
 11
-2.313
 20
82.505
 21
82.52
  0
LINE
  8
0
 10
-2.313
 11
-2.468
 20
82.52
 21
82.544
  0
LINE
  8
0
 10
-2.468
 11
-2.622
 20
82.544
 21
82.579
  0
LINE
  8
0
 10
-2.622
 11
-2.773
 20
82.579
 21
82.622
  0
LINE
  8
0
 10
-2.773
 11
-2.92
 20
82.622
 21
82.676
  0
LINE
  8
0
 10
-2.92
 11
-3.064
 20
82.676
 21
82.738
  0
LINE
  8
0
 10
-3.064
 11
-3.204
 20
82.738
 21
82.809
  0
LINE
  8
0
 10
-3.204
 11
-3.34
 20
82.809
 21
82.889
  0
LINE
  8
0
 10
-3.34
 11
-3.469
 20
82.889
 21
82.977
  0
LINE
  8
0
 10
-3.469
 11
-3.594
 20
82.977
 21
83.074
  0
LINE
  8
0
 10
-3.594
 11
-3.711
 20
83.074
 21
83.178
  0
LINE
  8
0
 10
-3.711
 11
-3.822
 20
83.178
 21
83.289
  0
LINE
  8
0
 10
-3.822
 11
-3.926
 20
83.289
 21
83.406
  0
LINE
  8
0
 10
-3.926
 11
-4.023
 20
83.406
 21
83.531
  0
LINE
  8
0
 10
-4.023
 11
-4.111
 20
83.531
 21
83.66
  0
LINE
  8
0
 10
-4.111
 11
-4.191
 20
83.66
 21
83.796
  0
LINE
  8
0
 10
-4.191
 11
-4.262
 20
83.796
 21
83.936
  0
LINE
  8
0
 10
-4.262
 11
-4.324
 20
83.936
 21
84.08
  0
LINE
  8
0
 10
-4.324
 11
-4.378
 20
84.08
 21
84.227
  0
LINE
  8
0
 10
-4.378
 11
-4.421
 20
84.227
 21
84.378
  0
LINE
  8
0
 10
-4.421
 11
-4.456
 20
84.378
 21
84.532
  0
LINE
  8
0
 10
-4.456
 11
-4.48
 20
84.532
 21
84.687
  0
LINE
  8
0
 10
-4.48
 11
-4.495
 20
84.687
 21
84.843
  0
LINE
  8
0
 10
-4.495
 11
-4.5
 20
84.843
 21
85
  0
LINE
  8
0
 10
3.5
 11
3.503
 20
85
 21
85.094
  0
LINE
  8
0
 10
3.503
 11
3.512
 20
85.094
 21
85.188
  0
LINE
  8
0
 10
3.512
 11
3.527
 20
85.188
 21
85.281
  0
LINE
  8
0
 10
3.527
 11
3.547
 20
85.281
 21
85.373
  0
LINE
  8
0
 10
3.547
 11
3.573
 20
85.373
 21
85.464
  0
LINE
  8
0
 10
3.573
 11
3.605
 20
85.464
 21
85.552
  0
LINE
  8
0
 10
3.605
 11
3.643
 20
85.552
 21
85.639
  0
LINE
  8
0
 10
3.643
 11
3.686
 20
85.639
 21
85.723
  0
LINE
  8
0
 10
3.686
 11
3.734
 20
85.723
 21
85.804
  0
LINE
  8
0
 10
3.734
 11
3.786
 20
85.804
 21
85.882
  0
LINE
  8
0
 10
3.786
 11
3.844
 20
85.882
 21
85.956
  0
LINE
  8
0
 10
3.844
 11
3.907
 20
85.956
 21
86.027
  0
LINE
  8
0
 10
3.907
 11
3.973
 20
86.027
 21
86.093
  0
LINE
  8
0
 10
3.973
 11
4.044
 20
86.093
 21
86.156
  0
LINE
  8
0
 10
4.044
 11
4.118
 20
86.156
 21
86.214
  0
LINE
  8
0
 10
4.118
 11
4.196
 20
86.214
 21
86.266
  0
LINE
  8
0
 10
4.196
 11
4.277
 20
86.266
 21
86.314
  0
LINE
  8
0
 10
4.277
 11
4.361
 20
86.314
 21
86.357
  0
LINE
  8
0
 10
4.361
 11
4.448
 20
86.357
 21
86.395
  0
LINE
  8
0
 10
4.448
 11
4.536
 20
86.395
 21
86.427
  0
LINE
  8
0
 10
4.536
 11
4.627
 20
86.427
 21
86.453
  0
LINE
  8
0
 10
4.627
 11
4.719
 20
86.453
 21
86.473
  0
LINE
  8
0
 10
4.719
 11
4.812
 20
86.473
 21
86.488
  0
LINE
  8
0
 10
4.812
 11
4.906
 20
86.488
 21
86.497
  0
LINE
  8
0
 10
4.906
 11
5
 20
86.497
 21
86.5
  0
LINE
  8
0
 10
5
 11
5.094
 20
86.5
 21
86.497
  0
LINE
  8
0
 10
5.094
 11
5.188
 20
86.497
 21
86.488
  0
LINE
  8
0
 10
5.188
 11
5.281
 20
86.488
 21
86.473
  0
LINE
  8
0
 10
5.281
 11
5.373
 20
86.473
 21
86.453
  0
LINE
  8
0
 10
5.373
 11
5.464
 20
86.453
 21
86.427
  0
LINE
  8
0
 10
5.464
 11
5.552
 20
86.427
 21
86.395
  0
LINE
  8
0
 10
5.552
 11
5.639
 20
86.395
 21
86.357
  0
LINE
  8
0
 10
5.639
 11
5.723
 20
86.357
 21
86.314
  0
LINE
  8
0
 10
5.723
 11
5.804
 20
86.314
 21
86.266
  0
LINE
  8
0
 10
5.804
 11
5.882
 20
86.266
 21
86.214
  0
LINE
  8
0
 10
5.882
 11
5.956
 20
86.214
 21
86.156
  0
LINE
  8
0
 10
5.956
 11
6.027
 20
86.156
 21
86.093
  0
LINE
  8
0
 10
6.027
 11
6.093
 20
86.093
 21
86.027
  0
LINE
  8
0
 10
6.093
 11
6.156
 20
86.027
 21
85.956
  0
LINE
  8
0
 10
6.156
 11
6.214
 20
85.956
 21
85.882
  0
LINE
  8
0
 10
6.214
 11
6.266
 20
85.882
 21
85.804
  0
LINE
  8
0
 10
6.266
 11
6.314
 20
85.804
 21
85.723
  0
LINE
  8
0
 10
6.314
 11
6.357
 20
85.723
 21
85.639
  0
LINE
  8
0
 10
6.357
 11
6.395
 20
85.639
 21
85.552
  0
LINE
  8
0
 10
6.395
 11
6.427
 20
85.552
 21
85.464
  0
LINE
  8
0
 10
6.427
 11
6.453
 20
85.464
 21
85.373
  0
LINE
  8
0
 10
6.453
 11
6.473
 20
85.373
 21
85.281
  0
LINE
  8
0
 10
6.473
 11
6.488
 20
85.281
 21
85.188
  0
LINE
  8
0
 10
6.488
 11
6.497
 20
85.188
 21
85.094
  0
LINE
  8
0
 10
6.497
 11
6.5
 20
85.094
 21
85
  0
LINE
  8
0
 10
6.5
 11
6.497
 20
85
 21
84.906
  0
LINE
  8
0
 10
6.497
 11
6.488
 20
84.906
 21
84.812
  0
LINE
  8
0
 10
6.488
 11
6.473
 20
84.812
 21
84.719
  0
LINE
  8
0
 10
6.473
 11
6.453
 20
84.719
 21
84.627
  0
LINE
  8
0
 10
6.453
 11
6.427
 20
84.627
 21
84.536
  0
LINE
  8
0
 10
6.427
 11
6.395
 20
84.536
 21
84.448
  0
LINE
  8
0
 10
6.395
 11
6.357
 20
84.448
 21
84.361
  0
LINE
  8
0
 10
6.357
 11
6.314
 20
84.361
 21
84.277
  0
LINE
  8
0
 10
6.314
 11
6.266
 20
84.277
 21
84.196
  0
LINE
  8
0
 10
6.266
 11
6.214
 20
84.196
 21
84.118
  0
LINE
  8
0
 10
6.214
 11
6.156
 20
84.118
 21
84.044
  0
LINE
  8
0
 10
6.156
 11
6.093
 20
84.044
 21
83.973
  0
LINE
  8
0
 10
6.093
 11
6.027
 20
83.973
 21
83.907
  0
LINE
  8
0
 10
6.027
 11
5.956
 20
83.907
 21
83.844
  0
LINE
  8
0
 10
5.956
 11
5.882
 20
83.844
 21
83.786
  0
LINE
  8
0
 10
5.882
 11
5.804
 20
83.786
 21
83.734
  0
LINE
  8
0
 10
5.804
 11
5.723
 20
83.734
 21
83.686
  0
LINE
  8
0
 10
5.723
 11
5.639
 20
83.686
 21
83.643
  0
LINE
  8
0
 10
5.639
 11
5.552
 20
83.643
 21
83.605
  0
LINE
  8
0
 10
5.552
 11
5.464
 20
83.605
 21
83.573
  0
LINE
  8
0
 10
5.464
 11
5.373
 20
83.573
 21
83.547
  0
LINE
  8
0
 10
5.373
 11
5.281
 20
83.547
 21
83.527
  0
LINE
  8
0
 10
5.281
 11
5.188
 20
83.527
 21
83.512
  0
LINE
  8
0
 10
5.188
 11
5.094
 20
83.512
 21
83.503
  0
LINE
  8
0
 10
5.094
 11
5
 20
83.503
 21
83.5
  0
LINE
  8
0
 10
5
 11
4.906
 20
83.5
 21
83.503
  0
LINE
  8
0
 10
4.906
 11
4.812
 20
83.503
 21
83.512
  0
LINE
  8
0
 10
4.812
 11
4.719
 20
83.512
 21
83.527
  0
LINE
  8
0
 10
4.719
 11
4.627
 20
83.527
 21
83.547
  0
LINE
  8
0
 10
4.627
 11
4.536
 20
83.547
 21
83.573
  0
LINE
  8
0
 10
4.536
 11
4.448
 20
83.573
 21
83.605
  0
LINE
  8
0
 10
4.448
 11
4.361
 20
83.605
 21
83.643
  0
LINE
  8
0
 10
4.361
 11
4.277
 20
83.643
 21
83.686
  0
LINE
  8
0
 10
4.277
 11
4.196
 20
83.686
 21
83.734
  0
LINE
  8
0
 10
4.196
 11
4.118
 20
83.734
 21
83.786
  0
LINE
  8
0
 10
4.118
 11
4.044
 20
83.786
 21
83.844
  0
LINE
  8
0
 10
4.044
 11
3.973
 20
83.844
 21
83.907
  0
LINE
  8
0
 10
3.973
 11
3.907
 20
83.907
 21
83.973
  0
LINE
  8
0
 10
3.907
 11
3.844
 20
83.973
 21
84.044
  0
LINE
  8
0
 10
3.844
 11
3.786
 20
84.044
 21
84.118
  0
LINE
  8
0
 10
3.786
 11
3.734
 20
84.118
 21
84.196
  0
LINE
  8
0
 10
3.734
 11
3.686
 20
84.196
 21
84.277
  0
LINE
  8
0
 10
3.686
 11
3.643
 20
84.277
 21
84.361
  0
LINE
  8
0
 10
3.643
 11
3.605
 20
84.361
 21
84.448
  0
LINE
  8
0
 10
3.605
 11
3.573
 20
84.448
 21
84.536
  0
LINE
  8
0
 10
3.573
 11
3.547
 20
84.536
 21
84.627
  0
LINE
  8
0
 10
3.547
 11
3.527
 20
84.627
 21
84.719
  0
LINE
  8
0
 10
3.527
 11
3.512
 20
84.719
 21
84.812
  0
LINE
  8
0
 10
3.512
 11
3.503
 20
84.812
 21
84.906
  0
LINE
  8
0
 10
3.503
 11
3.5
 20
84.906
 21
85
  0
LINE
  8
0
 10
11
 11
11.003
 20
-44
 21
-43.906
  0
LINE
  8
0
 10
11.003
 11
11.012
 20
-43.906
 21
-43.812
  0
LINE
  8
0
 10
11.012
 11
11.027
 20
-43.812
 21
-43.719
  0
LINE
  8
0
 10
11.027
 11
11.047
 20
-43.719
 21
-43.627
  0
LINE
  8
0
 10
11.047
 11
11.073
 20
-43.627
 21
-43.536
  0
LINE
  8
0
 10
11.073
 11
11.105
 20
-43.536
 21
-43.448
  0
LINE
  8
0
 10
11.105
 11
11.143
 20
-43.448
 21
-43.361
  0
LINE
  8
0
 10
11.143
 11
11.186
 20
-43.361
 21
-43.277
  0
LINE
  8
0
 10
11.186
 11
11.234
 20
-43.277
 21
-43.196
  0
LINE
  8
0
 10
11.234
 11
11.286
 20
-43.196
 21
-43.118
  0
LINE
  8
0
 10
11.286
 11
11.344
 20
-43.118
 21
-43.044
  0
LINE
  8
0
 10
11.344
 11
11.407
 20
-43.044
 21
-42.973
  0
LINE
  8
0
 10
11.407
 11
11.473
 20
-42.973
 21
-42.907
  0
LINE
  8
0
 10
11.473
 11
11.544
 20
-42.907
 21
-42.844
  0
LINE
  8
0
 10
11.544
 11
11.618
 20
-42.844
 21
-42.786
  0
LINE
  8
0
 10
11.618
 11
11.696
 20
-42.786
 21
-42.734
  0
LINE
  8
0
 10
11.696
 11
11.777
 20
-42.734
 21
-42.686
  0
LINE
  8
0
 10
11.777
 11
11.861
 20
-42.686
 21
-42.643
  0
LINE
  8
0
 10
11.861
 11
11.948
 20
-42.643
 21
-42.605
  0
LINE
  8
0
 10
11.948
 11
12.036
 20
-42.605
 21
-42.573
  0
LINE
  8
0
 10
12.036
 11
12.127
 20
-42.573
 21
-42.547
  0
LINE
  8
0
 10
12.127
 11
12.219
 20
-42.547
 21
-42.527
  0
LINE
  8
0
 10
12.219
 11
12.312
 20
-42.527
 21
-42.512
  0
LINE
  8
0
 10
12.312
 11
12.406
 20
-42.512
 21
-42.503
  0
LINE
  8
0
 10
12.406
 11
12.5
 20
-42.503
 21
-42.5
  0
LINE
  8
0
 10
12.5
 11
12.594
 20
-42.5
 21
-42.503
  0
LINE
  8
0
 10
12.594
 11
12.688
 20
-42.503
 21
-42.512
  0
LINE
  8
0
 10
12.688
 11
12.781
 20
-42.512
 21
-42.527
  0
LINE
  8
0
 10
12.781
 11
12.873
 20
-42.527
 21
-42.547
  0
LINE
  8
0
 10
12.873
 11
12.964
 20
-42.547
 21
-42.573
  0
LINE
  8
0
 10
12.964
 11
13.052
 20
-42.573
 21
-42.605
  0
LINE
  8
0
 10
13.052
 11
13.139
 20
-42.605
 21
-42.643
  0
LINE
  8
0
 10
13.139
 11
13.223
 20
-42.643
 21
-42.686
  0
LINE
  8
0
 10
13.223
 11
13.304
 20
-42.686
 21
-42.734
  0
LINE
  8
0
 10
13.304
 11
13.382
 20
-42.734
 21
-42.786
  0
LINE
  8
0
 10
13.382
 11
13.456
 20
-42.786
 21
-42.844
  0
LINE
  8
0
 10
13.456
 11
13.527
 20
-42.844
 21
-42.907
  0
LINE
  8
0
 10
13.527
 11
13.593
 20
-42.907
 21
-42.973
  0
LINE
  8
0
 10
13.593
 11
13.656
 20
-42.973
 21
-43.044
  0
LINE
  8
0
 10
13.656
 11
13.714
 20
-43.044
 21
-43.118
  0
LINE
  8
0
 10
13.714
 11
13.766
 20
-43.118
 21
-43.196
  0
LINE
  8
0
 10
13.766
 11
13.814
 20
-43.196
 21
-43.277
  0
LINE
  8
0
 10
13.814
 11
13.857
 20
-43.277
 21
-43.361
  0
LINE
  8
0
 10
13.857
 11
13.895
 20
-43.361
 21
-43.448
  0
LINE
  8
0
 10
13.895
 11
13.927
 20
-43.448
 21
-43.536
  0
LINE
  8
0
 10
13.927
 11
13.953
 20
-43.536
 21
-43.627
  0
LINE
  8
0
 10
13.953
 11
13.973
 20
-43.627
 21
-43.719
  0
LINE
  8
0
 10
13.973
 11
13.988
 20
-43.719
 21
-43.812
  0
LINE
  8
0
 10
13.988
 11
13.997
 20
-43.812
 21
-43.906
  0
LINE
  8
0
 10
13.997
 11
14
 20
-43.906
 21
-44
  0
LINE
  8
0
 10
14
 11
13.997
 20
-44
 21
-44.094
  0
LINE
  8
0
 10
13.997
 11
13.988
 20
-44.094
 21
-44.188
  0
LINE
  8
0
 10
13.988
 11
13.973
 20
-44.188
 21
-44.281
  0
LINE
  8
0
 10
13.973
 11
13.953
 20
-44.281
 21
-44.373
  0
LINE
  8
0
 10
13.953
 11
13.927
 20
-44.373
 21
-44.464
  0
LINE
  8
0
 10
13.927
 11
13.895
 20
-44.464
 21
-44.552
  0
LINE
  8
0
 10
13.895
 11
13.857
 20
-44.552
 21
-44.639
  0
LINE
  8
0
 10
13.857
 11
13.814
 20
-44.639
 21
-44.723
  0
LINE
  8
0
 10
13.814
 11
13.766
 20
-44.723
 21
-44.804
  0
LINE
  8
0
 10
13.766
 11
13.714
 20
-44.804
 21
-44.882
  0
LINE
  8
0
 10
13.714
 11
13.656
 20
-44.882
 21
-44.956
  0
LINE
  8
0
 10
13.656
 11
13.593
 20
-44.956
 21
-45.027
  0
LINE
  8
0
 10
13.593
 11
13.527
 20
-45.027
 21
-45.093
  0
LINE
  8
0
 10
13.527
 11
13.456
 20
-45.093
 21
-45.156
  0
LINE
  8
0
 10
13.456
 11
13.382
 20
-45.156
 21
-45.214
  0
LINE
  8
0
 10
13.382
 11
13.304
 20
-45.214
 21
-45.266
  0
LINE
  8
0
 10
13.304
 11
13.223
 20
-45.266
 21
-45.314
  0
LINE
  8
0
 10
13.223
 11
13.139
 20
-45.314
 21
-45.357
  0
LINE
  8
0
 10
13.139
 11
13.052
 20
-45.357
 21
-45.395
  0
LINE
  8
0
 10
13.052
 11
12.964
 20
-45.395
 21
-45.427
  0
LINE
  8
0
 10
12.964
 11
12.873
 20
-45.427
 21
-45.453
  0
LINE
  8
0
 10
12.873
 11
12.781
 20
-45.453
 21
-45.473
  0
LINE
  8
0
 10
12.781
 11
12.688
 20
-45.473
 21
-45.488
  0
LINE
  8
0
 10
12.688
 11
12.594
 20
-45.488
 21
-45.497
  0
LINE
  8
0
 10
12.594
 11
12.5
 20
-45.497
 21
-45.5
  0
LINE
  8
0
 10
12.5
 11
12.406
 20
-45.5
 21
-45.497
  0
LINE
  8
0
 10
12.406
 11
12.312
 20
-45.497
 21
-45.488
  0
LINE
  8
0
 10
12.312
 11
12.219
 20
-45.488
 21
-45.473
  0
LINE
  8
0
 10
12.219
 11
12.127
 20
-45.473
 21
-45.453
  0
LINE
  8
0
 10
12.127
 11
12.036
 20
-45.453
 21
-45.427
  0
LINE
  8
0
 10
12.036
 11
11.948
 20
-45.427
 21
-45.395
  0
LINE
  8
0
 10
11.948
 11
11.861
 20
-45.395
 21
-45.357
  0
LINE
  8
0
 10
11.861
 11
11.777
 20
-45.357
 21
-45.314
  0
LINE
  8
0
 10
11.777
 11
11.696
 20
-45.314
 21
-45.266
  0
LINE
  8
0
 10
11.696
 11
11.618
 20
-45.266
 21
-45.214
  0
LINE
  8
0
 10
11.618
 11
11.544
 20
-45.214
 21
-45.156
  0
LINE
  8
0
 10
11.544
 11
11.473
 20
-45.156
 21
-45.093
  0
LINE
  8
0
 10
11.473
 11
11.407
 20
-45.093
 21
-45.027
  0
LINE
  8
0
 10
11.407
 11
11.344
 20
-45.027
 21
-44.956
  0
LINE
  8
0
 10
11.344
 11
11.286
 20
-44.956
 21
-44.882
  0
LINE
  8
0
 10
11.286
 11
11.234
 20
-44.882
 21
-44.804
  0
LINE
  8
0
 10
11.234
 11
11.186
 20
-44.804
 21
-44.723
  0
LINE
  8
0
 10
11.186
 11
11.143
 20
-44.723
 21
-44.639
  0
LINE
  8
0
 10
11.143
 11
11.105
 20
-44.639
 21
-44.552
  0
LINE
  8
0
 10
11.105
 11
11.073
 20
-44.552
 21
-44.464
  0
LINE
  8
0
 10
11.073
 11
11.047
 20
-44.464
 21
-44.373
  0
LINE
  8
0
 10
11.047
 11
11.027
 20
-44.373
 21
-44.281
  0
LINE
  8
0
 10
11.027
 11
11.012
 20
-44.281
 21
-44.188
  0
LINE
  8
0
 10
11.012
 11
11.003
 20
-44.188
 21
-44.094
  0
LINE
  8
0
 10
11.003
 11
11
 20
-44.094
 21
-44
  0
LINE
  8
0
 10
11
 11
11.003
 20
44
 21
44.094
  0
LINE
  8
0
 10
11.003
 11
11.012
 20
44.094
 21
44.188
  0
LINE
  8
0
 10
11.012
 11
11.027
 20
44.188
 21
44.281
  0
LINE
  8
0
 10
11.027
 11
11.047
 20
44.281
 21
44.373
  0
LINE
  8
0
 10
11.047
 11
11.073
 20
44.373
 21
44.464
  0
LINE
  8
0
 10
11.073
 11
11.105
 20
44.464
 21
44.552
  0
LINE
  8
0
 10
11.105
 11
11.143
 20
44.552
 21
44.639
  0
LINE
  8
0
 10
11.143
 11
11.186
 20
44.639
 21
44.723
  0
LINE
  8
0
 10
11.186
 11
11.234
 20
44.723
 21
44.804
  0
LINE
  8
0
 10
11.234
 11
11.286
 20
44.804
 21
44.882
  0
LINE
  8
0
 10
11.286
 11
11.344
 20
44.882
 21
44.956
  0
LINE
  8
0
 10
11.344
 11
11.407
 20
44.956
 21
45.027
  0
LINE
  8
0
 10
11.407
 11
11.473
 20
45.027
 21
45.093
  0
LINE
  8
0
 10
11.473
 11
11.544
 20
45.093
 21
45.156
  0
LINE
  8
0
 10
11.544
 11
11.618
 20
45.156
 21
45.214
  0
LINE
  8
0
 10
11.618
 11
11.696
 20
45.214
 21
45.266
  0
LINE
  8
0
 10
11.696
 11
11.777
 20
45.266
 21
45.314
  0
LINE
  8
0
 10
11.777
 11
11.861
 20
45.314
 21
45.357
  0
LINE
  8
0
 10
11.861
 11
11.948
 20
45.357
 21
45.395
  0
LINE
  8
0
 10
11.948
 11
12.036
 20
45.395
 21
45.427
  0
LINE
  8
0
 10
12.036
 11
12.127
 20
45.427
 21
45.453
  0
LINE
  8
0
 10
12.127
 11
12.219
 20
45.453
 21
45.473
  0
LINE
  8
0
 10
12.219
 11
12.312
 20
45.473
 21
45.488
  0
LINE
  8
0
 10
12.312
 11
12.406
 20
45.488
 21
45.497
  0
LINE
  8
0
 10
12.406
 11
12.5
 20
45.497
 21
45.5
  0
LINE
  8
0
 10
12.5
 11
12.594
 20
45.5
 21
45.497
  0
LINE
  8
0
 10
12.594
 11
12.688
 20
45.497
 21
45.488
  0
LINE
  8
0
 10
12.688
 11
12.781
 20
45.488
 21
45.473
  0
LINE
  8
0
 10
12.781
 11
12.873
 20
45.473
 21
45.453
  0
LINE
  8
0
 10
12.873
 11
12.964
 20
45.453
 21
45.427
  0
LINE
  8
0
 10
12.964
 11
13.052
 20
45.427
 21
45.395
  0
LINE
  8
0
 10
13.052
 11
13.139
 20
45.395
 21
45.357
  0
LINE
  8
0
 10
13.139
 11
13.223
 20
45.357
 21
45.314
  0
LINE
  8
0
 10
13.223
 11
13.304
 20
45.314
 21
45.266
  0
LINE
  8
0
 10
13.304
 11
13.382
 20
45.266
 21
45.214
  0
LINE
  8
0
 10
13.382
 11
13.456
 20
45.214
 21
45.156
  0
LINE
  8
0
 10
13.456
 11
13.527
 20
45.156
 21
45.093
  0
LINE
  8
0
 10
13.527
 11
13.593
 20
45.093
 21
45.027
  0
LINE
  8
0
 10
13.593
 11
13.656
 20
45.027
 21
44.956
  0
LINE
  8
0
 10
13.656
 11
13.714
 20
44.956
 21
44.882
  0
LINE
  8
0
 10
13.714
 11
13.766
 20
44.882
 21
44.804
  0
LINE
  8
0
 10
13.766
 11
13.814
 20
44.804
 21
44.723
  0
LINE
  8
0
 10
13.814
 11
13.857
 20
44.723
 21
44.639
  0
LINE
  8
0
 10
13.857
 11
13.895
 20
44.639
 21
44.552
  0
LINE
  8
0
 10
13.895
 11
13.927
 20
44.552
 21
44.464
  0
LINE
  8
0
 10
13.927
 11
13.953
 20
44.464
 21
44.373
  0
LINE
  8
0
 10
13.953
 11
13.973
 20
44.373
 21
44.281
  0
LINE
  8
0
 10
13.973
 11
13.988
 20
44.281
 21
44.188
  0
LINE
  8
0
 10
13.988
 11
13.997
 20
44.188
 21
44.094
  0
LINE
  8
0
 10
13.997
 11
14
 20
44.094
 21
44
  0
LINE
  8
0
 10
14
 11
13.997
 20
44
 21
43.906
  0
LINE
  8
0
 10
13.997
 11
13.988
 20
43.906
 21
43.812
  0
LINE
  8
0
 10
13.988
 11
13.973
 20
43.812
 21
43.719
  0
LINE
  8
0
 10
13.973
 11
13.953
 20
43.719
 21
43.627
  0
LINE
  8
0
 10
13.953
 11
13.927
 20
43.627
 21
43.536
  0
LINE
  8
0
 10
13.927
 11
13.895
 20
43.536
 21
43.448
  0
LINE
  8
0
 10
13.895
 11
13.857
 20
43.448
 21
43.361
  0
LINE
  8
0
 10
13.857
 11
13.814
 20
43.361
 21
43.277
  0
LINE
  8
0
 10
13.814
 11
13.766
 20
43.277
 21
43.196
  0
LINE
  8
0
 10
13.766
 11
13.714
 20
43.196
 21
43.118
  0
LINE
  8
0
 10
13.714
 11
13.656
 20
43.118
 21
43.044
  0
LINE
  8
0
 10
13.656
 11
13.593
 20
43.044
 21
42.973
  0
LINE
  8
0
 10
13.593
 11
13.527
 20
42.973
 21
42.907
  0
LINE
  8
0
 10
13.527
 11
13.456
 20
42.907
 21
42.844
  0
LINE
  8
0
 10
13.456
 11
13.382
 20
42.844
 21
42.786
  0
LINE
  8
0
 10
13.382
 11
13.304
 20
42.786
 21
42.734
  0
LINE
  8
0
 10
13.304
 11
13.223
 20
42.734
 21
42.686
  0
LINE
  8
0
 10
13.223
 11
13.139
 20
42.686
 21
42.643
  0
LINE
  8
0
 10
13.139
 11
13.052
 20
42.643
 21
42.605
  0
LINE
  8
0
 10
13.052
 11
12.964
 20
42.605
 21
42.573
  0
LINE
  8
0
 10
12.964
 11
12.873
 20
42.573
 21
42.547
  0
LINE
  8
0
 10
12.873
 11
12.781
 20
42.547
 21
42.527
  0
LINE
  8
0
 10
12.781
 11
12.688
 20
42.527
 21
42.512
  0
LINE
  8
0
 10
12.688
 11
12.594
 20
42.512
 21
42.503
  0
LINE
  8
0
 10
12.594
 11
12.5
 20
42.503
 21
42.5
  0
LINE
  8
0
 10
12.5
 11
12.406
 20
42.5
 21
42.503
  0
LINE
  8
0
 10
12.406
 11
12.312
 20
42.503
 21
42.512
  0
LINE
  8
0
 10
12.312
 11
12.219
 20
42.512
 21
42.527
  0
LINE
  8
0
 10
12.219
 11
12.127
 20
42.527
 21
42.547
  0
LINE
  8
0
 10
12.127
 11
12.036
 20
42.547
 21
42.573
  0
LINE
  8
0
 10
12.036
 11
11.948
 20
42.573
 21
42.605
  0
LINE
  8
0
 10
11.948
 11
11.861
 20
42.605
 21
42.643
  0
LINE
  8
0
 10
11.861
 11
11.777
 20
42.643
 21
42.686
  0
LINE
  8
0
 10
11.777
 11
11.696
 20
42.686
 21
42.734
  0
LINE
  8
0
 10
11.696
 11
11.618
 20
42.734
 21
42.786
  0
LINE
  8
0
 10
11.618
 11
11.544
 20
42.786
 21
42.844
  0
LINE
  8
0
 10
11.544
 11
11.473
 20
42.844
 21
42.907
  0
LINE
  8
0
 10
11.473
 11
11.407
 20
42.907
 21
42.973
  0
LINE
  8
0
 10
11.407
 11
11.344
 20
42.973
 21
43.044
  0
LINE
  8
0
 10
11.344
 11
11.286
 20
43.044
 21
43.118
  0
LINE
  8
0
 10
11.286
 11
11.234
 20
43.118
 21
43.196
  0
LINE
  8
0
 10
11.234
 11
11.186
 20
43.196
 21
43.277
  0
LINE
  8
0
 10
11.186
 11
11.143
 20
43.277
 21
43.361
  0
LINE
  8
0
 10
11.143
 11
11.105
 20
43.361
 21
43.448
  0
LINE
  8
0
 10
11.105
 11
11.073
 20
43.448
 21
43.536
  0
LINE
  8
0
 10
11.073
 11
11.047
 20
43.536
 21
43.627
  0
LINE
  8
0
 10
11.047
 11
11.027
 20
43.627
 21
43.719
  0
LINE
  8
0
 10
11.027
 11
11.012
 20
43.719
 21
43.812
  0
LINE
  8
0
 10
11.012
 11
11.003
 20
43.812
 21
43.906
  0
LINE
  8
0
 10
11.003
 11
11
 20
43.906
 21
44
  0
LINE
  8
0
 10
68.75
 11
68.752
 20
-62
 21
-61.922
  0
LINE
  8
0
 10
68.752
 11
68.76
 20
-61.922
 21
-61.843
  0
LINE
  8
0
 10
68.76
 11
68.772
 20
-61.843
 21
-61.766
  0
LINE
  8
0
 10
68.772
 11
68.789
 20
-61.766
 21
-61.689
  0
LINE
  8
0
 10
68.789
 11
68.811
 20
-61.689
 21
-61.614
  0
LINE
  8
0
 10
68.811
 11
68.838
 20
-61.614
 21
-61.54
  0
LINE
  8
0
 10
68.838
 11
68.869
 20
-61.54
 21
-61.468
  0
LINE
  8
0
 10
68.869
 11
68.905
 20
-61.468
 21
-61.398
  0
LINE
  8
0
 10
68.905
 11
68.945
 20
-61.398
 21
-61.33
  0
LINE
  8
0
 10
68.945
 11
68.989
 20
-61.33
 21
-61.265
  0
LINE
  8
0
 10
68.989
 11
69.037
 20
-61.265
 21
-61.203
  0
LINE
  8
0
 10
69.037
 11
69.089
 20
-61.203
 21
-61.144
  0
LINE
  8
0
 10
69.089
 11
69.144
 20
-61.144
 21
-61.089
  0
LINE
  8
0
 10
69.144
 11
69.203
 20
-61.089
 21
-61.037
  0
LINE
  8
0
 10
69.203
 11
69.265
 20
-61.037
 21
-60.989
  0
LINE
  8
0
 10
69.265
 11
69.33
 20
-60.989
 21
-60.945
  0
LINE
  8
0
 10
69.33
 11
69.398
 20
-60.945
 21
-60.905
  0
LINE
  8
0
 10
69.398
 11
69.468
 20
-60.905
 21
-60.869
  0
LINE
  8
0
 10
69.468
 11
69.54
 20
-60.869
 21
-60.838
  0
LINE
  8
0
 10
69.54
 11
69.614
 20
-60.838
 21
-60.811
  0
LINE
  8
0
 10
69.614
 11
69.689
 20
-60.811
 21
-60.789
  0
LINE
  8
0
 10
69.689
 11
69.766
 20
-60.789
 21
-60.772
  0
LINE
  8
0
 10
69.766
 11
69.843
 20
-60.772
 21
-60.76
  0
LINE
  8
0
 10
69.843
 11
69.922
 20
-60.76
 21
-60.752
  0
LINE
  8
0
 10
69.922
 11
70
 20
-60.752
 21
-60.75
  0
LINE
  8
0
 10
70
 11
70.078
 20
-60.75
 21
-60.752
  0
LINE
  8
0
 10
70.078
 11
70.157
 20
-60.752
 21
-60.76
  0
LINE
  8
0
 10
70.157
 11
70.234
 20
-60.76
 21
-60.772
  0
LINE
  8
0
 10
70.234
 11
70.311
 20
-60.772
 21
-60.789
  0
LINE
  8
0
 10
70.311
 11
70.386
 20
-60.789
 21
-60.811
  0
LINE
  8
0
 10
70.386
 11
70.46
 20
-60.811
 21
-60.838
  0
LINE
  8
0
 10
70.46
 11
70.532
 20
-60.838
 21
-60.869
  0
LINE
  8
0
 10
70.532
 11
70.602
 20
-60.869
 21
-60.905
  0
LINE
  8
0
 10
70.602
 11
70.67
 20
-60.905
 21
-60.945
  0
LINE
  8
0
 10
70.67
 11
70.735
 20
-60.945
 21
-60.989
  0
LINE
  8
0
 10
70.735
 11
70.797
 20
-60.989
 21
-61.037
  0
LINE
  8
0
 10
70.797
 11
70.856
 20
-61.037
 21
-61.089
  0
LINE
  8
0
 10
70.856
 11
70.911
 20
-61.089
 21
-61.144
  0
LINE
  8
0
 10
70.911
 11
70.963
 20
-61.144
 21
-61.203
  0
LINE
  8
0
 10
70.963
 11
71.011
 20
-61.203
 21
-61.265
  0
LINE
  8
0
 10
71.011
 11
71.055
 20
-61.265
 21
-61.33
  0
LINE
  8
0
 10
71.055
 11
71.095
 20
-61.33
 21
-61.398
  0
LINE
  8
0
 10
71.095
 11
71.131
 20
-61.398
 21
-61.468
  0
LINE
  8
0
 10
71.131
 11
71.162
 20
-61.468
 21
-61.54
  0
LINE
  8
0
 10
71.162
 11
71.189
 20
-61.54
 21
-61.614
  0
LINE
  8
0
 10
71.189
 11
71.211
 20
-61.614
 21
-61.689
  0
LINE
  8
0
 10
71.211
 11
71.228
 20
-61.689
 21
-61.766
  0
LINE
  8
0
 10
71.228
 11
71.24
 20
-61.766
 21
-61.843
  0
LINE
  8
0
 10
71.24
 11
71.248
 20
-61.843
 21
-61.922
  0
LINE
  8
0
 10
71.248
 11
71.25
 20
-61.922
 21
-62
  0
LINE
  8
0
 10
71.25
 11
71.248
 20
-62
 21
-62.078
  0
LINE
  8
0
 10
71.248
 11
71.24
 20
-62.078
 21
-62.157
  0
LINE
  8
0
 10
71.24
 11
71.228
 20
-62.157
 21
-62.234
  0
LINE
  8
0
 10
71.228
 11
71.211
 20
-62.234
 21
-62.311
  0
LINE
  8
0
 10
71.211
 11
71.189
 20
-62.311
 21
-62.386
  0
LINE
  8
0
 10
71.189
 11
71.162
 20
-62.386
 21
-62.46
  0
LINE
  8
0
 10
71.162
 11
71.131
 20
-62.46
 21
-62.532
  0
LINE
  8
0
 10
71.131
 11
71.095
 20
-62.532
 21
-62.602
  0
LINE
  8
0
 10
71.095
 11
71.055
 20
-62.602
 21
-62.67
  0
LINE
  8
0
 10
71.055
 11
71.011
 20
-62.67
 21
-62.735
  0
LINE
  8
0
 10
71.011
 11
70.963
 20
-62.735
 21
-62.797
  0
LINE
  8
0
 10
70.963
 11
70.911
 20
-62.797
 21
-62.856
  0
LINE
  8
0
 10
70.911
 11
70.856
 20
-62.856
 21
-62.911
  0
LINE
  8
0
 10
70.856
 11
70.797
 20
-62.911
 21
-62.963
  0
LINE
  8
0
 10
70.797
 11
70.735
 20
-62.963
 21
-63.011
  0
LINE
  8
0
 10
70.735
 11
70.67
 20
-63.011
 21
-63.055
  0
LINE
  8
0
 10
70.67
 11
70.602
 20
-63.055
 21
-63.095
  0
LINE
  8
0
 10
70.602
 11
70.532
 20
-63.095
 21
-63.131
  0
LINE
  8
0
 10
70.532
 11
70.46
 20
-63.131
 21
-63.162
  0
LINE
  8
0
 10
70.46
 11
70.386
 20
-63.162
 21
-63.189
  0
LINE
  8
0
 10
70.386
 11
70.311
 20
-63.189
 21
-63.211
  0
LINE
  8
0
 10
70.311
 11
70.234
 20
-63.211
 21
-63.228
  0
LINE
  8
0
 10
70.234
 11
70.157
 20
-63.228
 21
-63.24
  0
LINE
  8
0
 10
70.157
 11
70.078
 20
-63.24
 21
-63.248
  0
LINE
  8
0
 10
70.078
 11
70
 20
-63.248
 21
-63.25
  0
LINE
  8
0
 10
70
 11
69.922
 20
-63.25
 21
-63.248
  0
LINE
  8
0
 10
69.922
 11
69.843
 20
-63.248
 21
-63.24
  0
LINE
  8
0
 10
69.843
 11
69.766
 20
-63.24
 21
-63.228
  0
LINE
  8
0
 10
69.766
 11
69.689
 20
-63.228
 21
-63.211
  0
LINE
  8
0
 10
69.689
 11
69.614
 20
-63.211
 21
-63.189
  0
LINE
  8
0
 10
69.614
 11
69.54
 20
-63.189
 21
-63.162
  0
LINE
  8
0
 10
69.54
 11
69.468
 20
-63.162
 21
-63.131
  0
LINE
  8
0
 10
69.468
 11
69.398
 20
-63.131
 21
-63.095
  0
LINE
  8
0
 10
69.398
 11
69.33
 20
-63.095
 21
-63.055
  0
LINE
  8
0
 10
69.33
 11
69.265
 20
-63.055
 21
-63.011
  0
LINE
  8
0
 10
69.265
 11
69.203
 20
-63.011
 21
-62.963
  0
LINE
  8
0
 10
69.203
 11
69.144
 20
-62.963
 21
-62.911
  0
LINE
  8
0
 10
69.144
 11
69.089
 20
-62.911
 21
-62.856
  0
LINE
  8
0
 10
69.089
 11
69.037
 20
-62.856
 21
-62.797
  0
LINE
  8
0
 10
69.037
 11
68.989
 20
-62.797
 21
-62.735
  0
LINE
  8
0
 10
68.989
 11
68.945
 20
-62.735
 21
-62.67
  0
LINE
  8
0
 10
68.945
 11
68.905
 20
-62.67
 21
-62.602
  0
LINE
  8
0
 10
68.905
 11
68.869
 20
-62.602
 21
-62.532
  0
LINE
  8
0
 10
68.869
 11
68.838
 20
-62.532
 21
-62.46
  0
LINE
  8
0
 10
68.838
 11
68.811
 20
-62.46
 21
-62.386
  0
LINE
  8
0
 10
68.811
 11
68.789
 20
-62.386
 21
-62.311
  0
LINE
  8
0
 10
68.789
 11
68.772
 20
-62.311
 21
-62.234
  0
LINE
  8
0
 10
68.772
 11
68.76
 20
-62.234
 21
-62.157
  0
LINE
  8
0
 10
68.76
 11
68.752
 20
-62.157
 21
-62.078
  0
LINE
  8
0
 10
68.752
 11
68.75
 20
-62.078
 21
-62
  0
LINE
  8
0
 10
68.75
 11
68.752
 20
62
 21
62.078
  0
LINE
  8
0
 10
68.752
 11
68.76
 20
62.078
 21
62.157
  0
LINE
  8
0
 10
68.76
 11
68.772
 20
62.157
 21
62.234
  0
LINE
  8
0
 10
68.772
 11
68.789
 20
62.234
 21
62.311
  0
LINE
  8
0
 10
68.789
 11
68.811
 20
62.311
 21
62.386
  0
LINE
  8
0
 10
68.811
 11
68.838
 20
62.386
 21
62.46
  0
LINE
  8
0
 10
68.838
 11
68.869
 20
62.46
 21
62.532
  0
LINE
  8
0
 10
68.869
 11
68.905
 20
62.532
 21
62.602
  0
LINE
  8
0
 10
68.905
 11
68.945
 20
62.602
 21
62.67
  0
LINE
  8
0
 10
68.945
 11
68.989
 20
62.67
 21
62.735
  0
LINE
  8
0
 10
68.989
 11
69.037
 20
62.735
 21
62.797
  0
LINE
  8
0
 10
69.037
 11
69.089
 20
62.797
 21
62.856
  0
LINE
  8
0
 10
69.089
 11
69.144
 20
62.856
 21
62.911
  0
LINE
  8
0
 10
69.144
 11
69.203
 20
62.911
 21
62.963
  0
LINE
  8
0
 10
69.203
 11
69.265
 20
62.963
 21
63.011
  0
LINE
  8
0
 10
69.265
 11
69.33
 20
63.011
 21
63.055
  0
LINE
  8
0
 10
69.33
 11
69.398
 20
63.055
 21
63.095
  0
LINE
  8
0
 10
69.398
 11
69.468
 20
63.095
 21
63.131
  0
LINE
  8
0
 10
69.468
 11
69.54
 20
63.131
 21
63.162
  0
LINE
  8
0
 10
69.54
 11
69.614
 20
63.162
 21
63.189
  0
LINE
  8
0
 10
69.614
 11
69.689
 20
63.189
 21
63.211
  0
LINE
  8
0
 10
69.689
 11
69.766
 20
63.211
 21
63.228
  0
LINE
  8
0
 10
69.766
 11
69.843
 20
63.228
 21
63.24
  0
LINE
  8
0
 10
69.843
 11
69.922
 20
63.24
 21
63.248
  0
LINE
  8
0
 10
69.922
 11
70
 20
63.248
 21
63.25
  0
LINE
  8
0
 10
70
 11
70.078
 20
63.25
 21
63.248
  0
LINE
  8
0
 10
70.078
 11
70.157
 20
63.248
 21
63.24
  0
LINE
  8
0
 10
70.157
 11
70.234
 20
63.24
 21
63.228
  0
LINE
  8
0
 10
70.234
 11
70.311
 20
63.228
 21
63.211
  0
LINE
  8
0
 10
70.311
 11
70.386
 20
63.211
 21
63.189
  0
LINE
  8
0
 10
70.386
 11
70.46
 20
63.189
 21
63.162
  0
LINE
  8
0
 10
70.46
 11
70.532
 20
63.162
 21
63.131
  0
LINE
  8
0
 10
70.532
 11
70.602
 20
63.131
 21
63.095
  0
LINE
  8
0
 10
70.602
 11
70.67
 20
63.095
 21
63.055
  0
LINE
  8
0
 10
70.67
 11
70.735
 20
63.055
 21
63.011
  0
LINE
  8
0
 10
70.735
 11
70.797
 20
63.011
 21
62.963
  0
LINE
  8
0
 10
70.797
 11
70.856
 20
62.963
 21
62.911
  0
LINE
  8
0
 10
70.856
 11
70.911
 20
62.911
 21
62.856
  0
LINE
  8
0
 10
70.911
 11
70.963
 20
62.856
 21
62.797
  0
LINE
  8
0
 10
70.963
 11
71.011
 20
62.797
 21
62.735
  0
LINE
  8
0
 10
71.011
 11
71.055
 20
62.735
 21
62.67
  0
LINE
  8
0
 10
71.055
 11
71.095
 20
62.67
 21
62.602
  0
LINE
  8
0
 10
71.095
 11
71.131
 20
62.602
 21
62.532
  0
LINE
  8
0
 10
71.131
 11
71.162
 20
62.532
 21
62.46
  0
LINE
  8
0
 10
71.162
 11
71.189
 20
62.46
 21
62.386
  0
LINE
  8
0
 10
71.189
 11
71.211
 20
62.386
 21
62.311
  0
LINE
  8
0
 10
71.211
 11
71.228
 20
62.311
 21
62.234
  0
LINE
  8
0
 10
71.228
 11
71.24
 20
62.234
 21
62.157
  0
LINE
  8
0
 10
71.24
 11
71.248
 20
62.157
 21
62.078
  0
LINE
  8
0
 10
71.248
 11
71.25
 20
62.078
 21
62
  0
LINE
  8
0
 10
71.25
 11
71.248
 20
62
 21
61.922
  0
LINE
  8
0
 10
71.248
 11
71.24
 20
61.922
 21
61.843
  0
LINE
  8
0
 10
71.24
 11
71.228
 20
61.843
 21
61.766
  0
LINE
  8
0
 10
71.228
 11
71.211
 20
61.766
 21
61.689
  0
LINE
  8
0
 10
71.211
 11
71.189
 20
61.689
 21
61.614
  0
LINE
  8
0
 10
71.189
 11
71.162
 20
61.614
 21
61.54
  0
LINE
  8
0
 10
71.162
 11
71.131
 20
61.54
 21
61.468
  0
LINE
  8
0
 10
71.131
 11
71.095
 20
61.468
 21
61.398
  0
LINE
  8
0
 10
71.095
 11
71.055
 20
61.398
 21
61.33
  0
LINE
  8
0
 10
71.055
 11
71.011
 20
61.33
 21
61.265
  0
LINE
  8
0
 10
71.011
 11
70.963
 20
61.265
 21
61.203
  0
LINE
  8
0
 10
70.963
 11
70.911
 20
61.203
 21
61.144
  0
LINE
  8
0
 10
70.911
 11
70.856
 20
61.144
 21
61.089
  0
LINE
  8
0
 10
70.856
 11
70.797
 20
61.089
 21
61.037
  0
LINE
  8
0
 10
70.797
 11
70.735
 20
61.037
 21
60.989
  0
LINE
  8
0
 10
70.735
 11
70.67
 20
60.989
 21
60.945
  0
LINE
  8
0
 10
70.67
 11
70.602
 20
60.945
 21
60.905
  0
LINE
  8
0
 10
70.602
 11
70.532
 20
60.905
 21
60.869
  0
LINE
  8
0
 10
70.532
 11
70.46
 20
60.869
 21
60.838
  0
LINE
  8
0
 10
70.46
 11
70.386
 20
60.838
 21
60.811
  0
LINE
  8
0
 10
70.386
 11
70.311
 20
60.811
 21
60.789
  0
LINE
  8
0
 10
70.311
 11
70.234
 20
60.789
 21
60.772
  0
LINE
  8
0
 10
70.234
 11
70.157
 20
60.772
 21
60.76
  0
LINE
  8
0
 10
70.157
 11
70.078
 20
60.76
 21
60.752
  0
LINE
  8
0
 10
70.078
 11
70
 20
60.752
 21
60.75
  0
LINE
  8
0
 10
70
 11
69.922
 20
60.75
 21
60.752
  0
LINE
  8
0
 10
69.922
 11
69.843
 20
60.752
 21
60.76
  0
LINE
  8
0
 10
69.843
 11
69.766
 20
60.76
 21
60.772
  0
LINE
  8
0
 10
69.766
 11
69.689
 20
60.772
 21
60.789
  0
LINE
  8
0
 10
69.689
 11
69.614
 20
60.789
 21
60.811
  0
LINE
  8
0
 10
69.614
 11
69.54
 20
60.811
 21
60.838
  0
LINE
  8
0
 10
69.54
 11
69.468
 20
60.838
 21
60.869
  0
LINE
  8
0
 10
69.468
 11
69.398
 20
60.869
 21
60.905
  0
LINE
  8
0
 10
69.398
 11
69.33
 20
60.905
 21
60.945
  0
LINE
  8
0
 10
69.33
 11
69.265
 20
60.945
 21
60.989
  0
LINE
  8
0
 10
69.265
 11
69.203
 20
60.989
 21
61.037
  0
LINE
  8
0
 10
69.203
 11
69.144
 20
61.037
 21
61.089
  0
LINE
  8
0
 10
69.144
 11
69.089
 20
61.089
 21
61.144
  0
LINE
  8
0
 10
69.089
 11
69.037
 20
61.144
 21
61.203
  0
LINE
  8
0
 10
69.037
 11
68.989
 20
61.203
 21
61.265
  0
LINE
  8
0
 10
68.989
 11
68.945
 20
61.265
 21
61.33
  0
LINE
  8
0
 10
68.945
 11
68.905
 20
61.33
 21
61.398
  0
LINE
  8
0
 10
68.905
 11
68.869
 20
61.398
 21
61.468
  0
LINE
  8
0
 10
68.869
 11
68.838
 20
61.468
 21
61.54
  0
LINE
  8
0
 10
68.838
 11
68.811
 20
61.54
 21
61.614
  0
LINE
  8
0
 10
68.811
 11
68.789
 20
61.614
 21
61.689
  0
LINE
  8
0
 10
68.789
 11
68.772
 20
61.689
 21
61.766
  0
LINE
  8
0
 10
68.772
 11
68.76
 20
61.766
 21
61.843
  0
LINE
  8
0
 10
68.76
 11
68.752
 20
61.843
 21
61.922
  0
LINE
  8
0
 10
68.752
 11
68.75
 20
61.922
 21
62
  0
LINE
  8
0
 10
88.5
 11
88.503
 20
-45
 21
-44.906
  0
LINE
  8
0
 10
88.503
 11
88.512
 20
-44.906
 21
-44.812
  0
LINE
  8
0
 10
88.512
 11
88.527
 20
-44.812
 21
-44.719
  0
LINE
  8
0
 10
88.527
 11
88.547
 20
-44.719
 21
-44.627
  0
LINE
  8
0
 10
88.547
 11
88.573
 20
-44.627
 21
-44.536
  0
LINE
  8
0
 10
88.573
 11
88.605
 20
-44.536
 21
-44.448
  0
LINE
  8
0
 10
88.605
 11
88.643
 20
-44.448
 21
-44.361
  0
LINE
  8
0
 10
88.643
 11
88.686
 20
-44.361
 21
-44.277
  0
LINE
  8
0
 10
88.686
 11
88.734
 20
-44.277
 21
-44.196
  0
LINE
  8
0
 10
88.734
 11
88.786
 20
-44.196
 21
-44.118
  0
LINE
  8
0
 10
88.786
 11
88.844
 20
-44.118
 21
-44.044
  0
LINE
  8
0
 10
88.844
 11
88.907
 20
-44.044
 21
-43.973
  0
LINE
  8
0
 10
88.907
 11
88.973
 20
-43.973
 21
-43.907
  0
LINE
  8
0
 10
88.973
 11
89.044
 20
-43.907
 21
-43.844
  0
LINE
  8
0
 10
89.044
 11
89.118
 20
-43.844
 21
-43.786
  0
LINE
  8
0
 10
89.118
 11
89.196
 20
-43.786
 21
-43.734
  0
LINE
  8
0
 10
89.196
 11
89.277
 20
-43.734
 21
-43.686
  0
LINE
  8
0
 10
89.277
 11
89.361
 20
-43.686
 21
-43.643
  0
LINE
  8
0
 10
89.361
 11
89.448
 20
-43.643
 21
-43.605
  0
LINE
  8
0
 10
89.448
 11
89.536
 20
-43.605
 21
-43.573
  0
LINE
  8
0
 10
89.536
 11
89.627
 20
-43.573
 21
-43.547
  0
LINE
  8
0
 10
89.627
 11
89.719
 20
-43.547
 21
-43.527
  0
LINE
  8
0
 10
89.719
 11
89.812
 20
-43.527
 21
-43.512
  0
LINE
  8
0
 10
89.812
 11
89.906
 20
-43.512
 21
-43.503
  0
LINE
  8
0
 10
89.906
 11
90
 20
-43.503
 21
-43.5
  0
LINE
  8
0
 10
90
 11
90.094
 20
-43.5
 21
-43.503
  0
LINE
  8
0
 10
90.094
 11
90.188
 20
-43.503
 21
-43.512
  0
LINE
  8
0
 10
90.188
 11
90.281
 20
-43.512
 21
-43.527
  0
LINE
  8
0
 10
90.281
 11
90.373
 20
-43.527
 21
-43.547
  0
LINE
  8
0
 10
90.373
 11
90.464
 20
-43.547
 21
-43.573
  0
LINE
  8
0
 10
90.464
 11
90.552
 20
-43.573
 21
-43.605
  0
LINE
  8
0
 10
90.552
 11
90.639
 20
-43.605
 21
-43.643
  0
LINE
  8
0
 10
90.639
 11
90.723
 20
-43.643
 21
-43.686
  0
LINE
  8
0
 10
90.723
 11
90.804
 20
-43.686
 21
-43.734
  0
LINE
  8
0
 10
90.804
 11
90.882
 20
-43.734
 21
-43.786
  0
LINE
  8
0
 10
90.882
 11
90.956
 20
-43.786
 21
-43.844
  0
LINE
  8
0
 10
90.956
 11
91.027
 20
-43.844
 21
-43.907
  0
LINE
  8
0
 10
91.027
 11
91.093
 20
-43.907
 21
-43.973
  0
LINE
  8
0
 10
91.093
 11
91.156
 20
-43.973
 21
-44.044
  0
LINE
  8
0
 10
91.156
 11
91.214
 20
-44.044
 21
-44.118
  0
LINE
  8
0
 10
91.214
 11
91.266
 20
-44.118
 21
-44.196
  0
LINE
  8
0
 10
91.266
 11
91.314
 20
-44.196
 21
-44.277
  0
LINE
  8
0
 10
91.314
 11
91.357
 20
-44.277
 21
-44.361
  0
LINE
  8
0
 10
91.357
 11
91.395
 20
-44.361
 21
-44.448
  0
LINE
  8
0
 10
91.395
 11
91.427
 20
-44.448
 21
-44.536
  0
LINE
  8
0
 10
91.427
 11
91.453
 20
-44.536
 21
-44.627
  0
LINE
  8
0
 10
91.453
 11
91.473
 20
-44.627
 21
-44.719
  0
LINE
  8
0
 10
91.473
 11
91.488
 20
-44.719
 21
-44.812
  0
LINE
  8
0
 10
91.488
 11
91.497
 20
-44.812
 21
-44.906
  0
LINE
  8
0
 10
91.497
 11
91.5
 20
-44.906
 21
-45
  0
LINE
  8
0
 10
91.5
 11
91.497
 20
-45
 21
-45.094
  0
LINE
  8
0
 10
91.497
 11
91.488
 20
-45.094
 21
-45.188
  0
LINE
  8
0
 10
91.488
 11
91.473
 20
-45.188
 21
-45.281
  0
LINE
  8
0
 10
91.473
 11
91.453
 20
-45.281
 21
-45.373
  0
LINE
  8
0
 10
91.453
 11
91.427
 20
-45.373
 21
-45.464
  0
LINE
  8
0
 10
91.427
 11
91.395
 20
-45.464
 21
-45.552
  0
LINE
  8
0
 10
91.395
 11
91.357
 20
-45.552
 21
-45.639
  0
LINE
  8
0
 10
91.357
 11
91.314
 20
-45.639
 21
-45.723
  0
LINE
  8
0
 10
91.314
 11
91.266
 20
-45.723
 21
-45.804
  0
LINE
  8
0
 10
91.266
 11
91.214
 20
-45.804
 21
-45.882
  0
LINE
  8
0
 10
91.214
 11
91.156
 20
-45.882
 21
-45.956
  0
LINE
  8
0
 10
91.156
 11
91.093
 20
-45.956
 21
-46.027
  0
LINE
  8
0
 10
91.093
 11
91.027
 20
-46.027
 21
-46.093
  0
LINE
  8
0
 10
91.027
 11
90.956
 20
-46.093
 21
-46.156
  0
LINE
  8
0
 10
90.956
 11
90.882
 20
-46.156
 21
-46.214
  0
LINE
  8
0
 10
90.882
 11
90.804
 20
-46.214
 21
-46.266
  0
LINE
  8
0
 10
90.804
 11
90.723
 20
-46.266
 21
-46.314
  0
LINE
  8
0
 10
90.723
 11
90.639
 20
-46.314
 21
-46.357
  0
LINE
  8
0
 10
90.639
 11
90.552
 20
-46.357
 21
-46.395
  0
LINE
  8
0
 10
90.552
 11
90.464
 20
-46.395
 21
-46.427
  0
LINE
  8
0
 10
90.464
 11
90.373
 20
-46.427
 21
-46.453
  0
LINE
  8
0
 10
90.373
 11
90.281
 20
-46.453
 21
-46.473
  0
LINE
  8
0
 10
90.281
 11
90.188
 20
-46.473
 21
-46.488
  0
LINE
  8
0
 10
90.188
 11
90.094
 20
-46.488
 21
-46.497
  0
LINE
  8
0
 10
90.094
 11
90
 20
-46.497
 21
-46.5
  0
LINE
  8
0
 10
90
 11
89.906
 20
-46.5
 21
-46.497
  0
LINE
  8
0
 10
89.906
 11
89.812
 20
-46.497
 21
-46.488
  0
LINE
  8
0
 10
89.812
 11
89.719
 20
-46.488
 21
-46.473
  0
LINE
  8
0
 10
89.719
 11
89.627
 20
-46.473
 21
-46.453
  0
LINE
  8
0
 10
89.627
 11
89.536
 20
-46.453
 21
-46.427
  0
LINE
  8
0
 10
89.536
 11
89.448
 20
-46.427
 21
-46.395
  0
LINE
  8
0
 10
89.448
 11
89.361
 20
-46.395
 21
-46.357
  0
LINE
  8
0
 10
89.361
 11
89.277
 20
-46.357
 21
-46.314
  0
LINE
  8
0
 10
89.277
 11
89.196
 20
-46.314
 21
-46.266
  0
LINE
  8
0
 10
89.196
 11
89.118
 20
-46.266
 21
-46.214
  0
LINE
  8
0
 10
89.118
 11
89.044
 20
-46.214
 21
-46.156
  0
LINE
  8
0
 10
89.044
 11
88.973
 20
-46.156
 21
-46.093
  0
LINE
  8
0
 10
88.973
 11
88.907
 20
-46.093
 21
-46.027
  0
LINE
  8
0
 10
88.907
 11
88.844
 20
-46.027
 21
-45.956
  0
LINE
  8
0
 10
88.844
 11
88.786
 20
-45.956
 21
-45.882
  0
LINE
  8
0
 10
88.786
 11
88.734
 20
-45.882
 21
-45.804
  0
LINE
  8
0
 10
88.734
 11
88.686
 20
-45.804
 21
-45.723
  0
LINE
  8
0
 10
88.686
 11
88.643
 20
-45.723
 21
-45.639
  0
LINE
  8
0
 10
88.643
 11
88.605
 20
-45.639
 21
-45.552
  0
LINE
  8
0
 10
88.605
 11
88.573
 20
-45.552
 21
-45.464
  0
LINE
  8
0
 10
88.573
 11
88.547
 20
-45.464
 21
-45.373
  0
LINE
  8
0
 10
88.547
 11
88.527
 20
-45.373
 21
-45.281
  0
LINE
  8
0
 10
88.527
 11
88.512
 20
-45.281
 21
-45.188
  0
LINE
  8
0
 10
88.512
 11
88.503
 20
-45.188
 21
-45.094
  0
LINE
  8
0
 10
88.503
 11
88.5
 20
-45.094
 21
-45
  0
LINE
  8
0
 10
88.5
 11
88.503
 20
45
 21
45.094
  0
LINE
  8
0
 10
88.503
 11
88.512
 20
45.094
 21
45.188
  0
LINE
  8
0
 10
88.512
 11
88.527
 20
45.188
 21
45.281
  0
LINE
  8
0
 10
88.527
 11
88.547
 20
45.281
 21
45.373
  0
LINE
  8
0
 10
88.547
 11
88.573
 20
45.373
 21
45.464
  0
LINE
  8
0
 10
88.573
 11
88.605
 20
45.464
 21
45.552
  0
LINE
  8
0
 10
88.605
 11
88.643
 20
45.552
 21
45.639
  0
LINE
  8
0
 10
88.643
 11
88.686
 20
45.639
 21
45.723
  0
LINE
  8
0
 10
88.686
 11
88.734
 20
45.723
 21
45.804
  0
LINE
  8
0
 10
88.734
 11
88.786
 20
45.804
 21
45.882
  0
LINE
  8
0
 10
88.786
 11
88.844
 20
45.882
 21
45.956
  0
LINE
  8
0
 10
88.844
 11
88.907
 20
45.956
 21
46.027
  0
LINE
  8
0
 10
88.907
 11
88.973
 20
46.027
 21
46.093
  0
LINE
  8
0
 10
88.973
 11
89.044
 20
46.093
 21
46.156
  0
LINE
  8
0
 10
89.044
 11
89.118
 20
46.156
 21
46.214
  0
LINE
  8
0
 10
89.118
 11
89.196
 20
46.214
 21
46.266
  0
LINE
  8
0
 10
89.196
 11
89.277
 20
46.266
 21
46.314
  0
LINE
  8
0
 10
89.277
 11
89.361
 20
46.314
 21
46.357
  0
LINE
  8
0
 10
89.361
 11
89.448
 20
46.357
 21
46.395
  0
LINE
  8
0
 10
89.448
 11
89.536
 20
46.395
 21
46.427
  0
LINE
  8
0
 10
89.536
 11
89.627
 20
46.427
 21
46.453
  0
LINE
  8
0
 10
89.627
 11
89.719
 20
46.453
 21
46.473
  0
LINE
  8
0
 10
89.719
 11
89.812
 20
46.473
 21
46.488
  0
LINE
  8
0
 10
89.812
 11
89.906
 20
46.488
 21
46.497
  0
LINE
  8
0
 10
89.906
 11
90
 20
46.497
 21
46.5
  0
LINE
  8
0
 10
90
 11
90.094
 20
46.5
 21
46.497
  0
LINE
  8
0
 10
90.094
 11
90.188
 20
46.497
 21
46.488
  0
LINE
  8
0
 10
90.188
 11
90.281
 20
46.488
 21
46.473
  0
LINE
  8
0
 10
90.281
 11
90.373
 20
46.473
 21
46.453
  0
LINE
  8
0
 10
90.373
 11
90.464
 20
46.453
 21
46.427
  0
LINE
  8
0
 10
90.464
 11
90.552
 20
46.427
 21
46.395
  0
LINE
  8
0
 10
90.552
 11
90.639
 20
46.395
 21
46.357
  0
LINE
  8
0
 10
90.639
 11
90.723
 20
46.357
 21
46.314
  0
LINE
  8
0
 10
90.723
 11
90.804
 20
46.314
 21
46.266
  0
LINE
  8
0
 10
90.804
 11
90.882
 20
46.266
 21
46.214
  0
LINE
  8
0
 10
90.882
 11
90.956
 20
46.214
 21
46.156
  0
LINE
  8
0
 10
90.956
 11
91.027
 20
46.156
 21
46.093
  0
LINE
  8
0
 10
91.027
 11
91.093
 20
46.093
 21
46.027
  0
LINE
  8
0
 10
91.093
 11
91.156
 20
46.027
 21
45.956
  0
LINE
  8
0
 10
91.156
 11
91.214
 20
45.956
 21
45.882
  0
LINE
  8
0
 10
91.214
 11
91.266
 20
45.882
 21
45.804
  0
LINE
  8
0
 10
91.266
 11
91.314
 20
45.804
 21
45.723
  0
LINE
  8
0
 10
91.314
 11
91.357
 20
45.723
 21
45.639
  0
LINE
  8
0
 10
91.357
 11
91.395
 20
45.639
 21
45.552
  0
LINE
  8
0
 10
91.395
 11
91.427
 20
45.552
 21
45.464
  0
LINE
  8
0
 10
91.427
 11
91.453
 20
45.464
 21
45.373
  0
LINE
  8
0
 10
91.453
 11
91.473
 20
45.373
 21
45.281
  0
LINE
  8
0
 10
91.473
 11
91.488
 20
45.281
 21
45.188
  0
LINE
  8
0
 10
91.488
 11
91.497
 20
45.188
 21
45.094
  0
LINE
  8
0
 10
91.497
 11
91.5
 20
45.094
 21
45
  0
LINE
  8
0
 10
91.5
 11
91.497
 20
45
 21
44.906
  0
LINE
  8
0
 10
91.497
 11
91.488
 20
44.906
 21
44.812
  0
LINE
  8
0
 10
91.488
 11
91.473
 20
44.812
 21
44.719
  0
LINE
  8
0
 10
91.473
 11
91.453
 20
44.719
 21
44.627
  0
LINE
  8
0
 10
91.453
 11
91.427
 20
44.627
 21
44.536
  0
LINE
  8
0
 10
91.427
 11
91.395
 20
44.536
 21
44.448
  0
LINE
  8
0
 10
91.395
 11
91.357
 20
44.448
 21
44.361
  0
LINE
  8
0
 10
91.357
 11
91.314
 20
44.361
 21
44.277
  0
LINE
  8
0
 10
91.314
 11
91.266
 20
44.277
 21
44.196
  0
LINE
  8
0
 10
91.266
 11
91.214
 20
44.196
 21
44.118
  0
LINE
  8
0
 10
91.214
 11
91.156
 20
44.118
 21
44.044
  0
LINE
  8
0
 10
91.156
 11
91.093
 20
44.044
 21
43.973
  0
LINE
  8
0
 10
91.093
 11
91.027
 20
43.973
 21
43.907
  0
LINE
  8
0
 10
91.027
 11
90.956
 20
43.907
 21
43.844
  0
LINE
  8
0
 10
90.956
 11
90.882
 20
43.844
 21
43.786
  0
LINE
  8
0
 10
90.882
 11
90.804
 20
43.786
 21
43.734
  0
LINE
  8
0
 10
90.804
 11
90.723
 20
43.734
 21
43.686
  0
LINE
  8
0
 10
90.723
 11
90.639
 20
43.686
 21
43.643
  0
LINE
  8
0
 10
90.639
 11
90.552
 20
43.643
 21
43.605
  0
LINE
  8
0
 10
90.552
 11
90.464
 20
43.605
 21
43.573
  0
LINE
  8
0
 10
90.464
 11
90.373
 20
43.573
 21
43.547
  0
LINE
  8
0
 10
90.373
 11
90.281
 20
43.547
 21
43.527
  0
LINE
  8
0
 10
90.281
 11
90.188
 20
43.527
 21
43.512
  0
LINE
  8
0
 10
90.188
 11
90.094
 20
43.512
 21
43.503
  0
LINE
  8
0
 10
90.094
 11
90
 20
43.503
 21
43.5
  0
LINE
  8
0
 10
90
 11
89.906
 20
43.5
 21
43.503
  0
LINE
  8
0
 10
89.906
 11
89.812
 20
43.503
 21
43.512
  0
LINE
  8
0
 10
89.812
 11
89.719
 20
43.512
 21
43.527
  0
LINE
  8
0
 10
89.719
 11
89.627
 20
43.527
 21
43.547
  0
LINE
  8
0
 10
89.627
 11
89.536
 20
43.547
 21
43.573
  0
LINE
  8
0
 10
89.536
 11
89.448
 20
43.573
 21
43.605
  0
LINE
  8
0
 10
89.448
 11
89.361
 20
43.605
 21
43.643
  0
LINE
  8
0
 10
89.361
 11
89.277
 20
43.643
 21
43.686
  0
LINE
  8
0
 10
89.277
 11
89.196
 20
43.686
 21
43.734
  0
LINE
  8
0
 10
89.196
 11
89.118
 20
43.734
 21
43.786
  0
LINE
  8
0
 10
89.118
 11
89.044
 20
43.786
 21
43.844
  0
LINE
  8
0
 10
89.044
 11
88.973
 20
43.844
 21
43.907
  0
LINE
  8
0
 10
88.973
 11
88.907
 20
43.907
 21
43.973
  0
LINE
  8
0
 10
88.907
 11
88.844
 20
43.973
 21
44.044
  0
LINE
  8
0
 10
88.844
 11
88.786
 20
44.044
 21
44.118
  0
LINE
  8
0
 10
88.786
 11
88.734
 20
44.118
 21
44.196
  0
LINE
  8
0
 10
88.734
 11
88.686
 20
44.196
 21
44.277
  0
LINE
  8
0
 10
88.686
 11
88.643
 20
44.277
 21
44.361
  0
LINE
  8
0
 10
88.643
 11
88.605
 20
44.361
 21
44.448
  0
LINE
  8
0
 10
88.605
 11
88.573
 20
44.448
 21
44.536
  0
LINE
  8
0
 10
88.573
 11
88.547
 20
44.536
 21
44.627
  0
LINE
  8
0
 10
88.547
 11
88.527
 20
44.627
 21
44.719
  0
LINE
  8
0
 10
88.527
 11
88.512
 20
44.719
 21
44.812
  0
LINE
  8
0
 10
88.512
 11
88.503
 20
44.812
 21
44.906
  0
LINE
  8
0
 10
88.503
 11
88.5
 20
44.906
 21
45
  0
ENDSEC
  0
SECTION
  2
OBJECTS
  0
DICTIONARY
  0
ENDSEC
  0
EOF
