  0
SECTION
  2
BLOCKS
  0
ENDSEC
  0
SECTION
  2
ENTITIES
  0
LINE
  8
0
 10
-25.5
 11
-25.498
 20
-18.5
 21
-18.437
  0
LINE
  8
0
 10
-25.498
 11
-25.492
 20
-18.437
 21
-18.375
  0
LINE
  8
0
 10
-25.492
 11
-25.482
 20
-18.375
 21
-18.313
  0
LINE
  8
0
 10
-25.482
 11
-25.469
 20
-18.313
 21
-18.251
  0
LINE
  8
0
 10
-25.469
 11
-25.451
 20
-18.251
 21
-18.191
  0
LINE
  8
0
 10
-25.451
 11
-25.43
 20
-18.191
 21
-18.132
  0
LINE
  8
0
 10
-25.43
 11
-25.405
 20
-18.132
 21
-18.074
  0
LINE
  8
0
 10
-25.405
 11
-25.376
 20
-18.074
 21
-18.018
  0
LINE
  8
0
 10
-25.376
 11
-25.344
 20
-18.018
 21
-17.964
  0
LINE
  8
0
 10
-25.344
 11
-25.309
 20
-17.964
 21
-17.912
  0
LINE
  8
0
 10
-25.309
 11
-25.271
 20
-17.912
 21
-17.863
  0
LINE
  8
0
 10
-25.271
 11
-25.229
 20
-17.863
 21
-17.815
  0
LINE
  8
0
 10
-25.229
 11
-25.185
 20
-17.815
 21
-17.771
  0
LINE
  8
0
 10
-25.185
 11
-25.137
 20
-17.771
 21
-17.729
  0
LINE
  8
0
 10
-25.137
 11
-25.088
 20
-17.729
 21
-17.691
  0
LINE
  8
0
 10
-25.088
 11
-25.036
 20
-17.691
 21
-17.656
  0
LINE
  8
0
 10
-25.036
 11
-24.982
 20
-17.656
 21
-17.624
  0
LINE
  8
0
 10
-24.982
 11
-24.926
 20
-17.624
 21
-17.595
  0
LINE
  8
0
 10
-24.926
 11
-24.868
 20
-17.595
 21
-17.57
  0
LINE
  8
0
 10
-24.868
 11
-24.809
 20
-17.57
 21
-17.549
  0
LINE
  8
0
 10
-24.809
 11
-24.749
 20
-17.549
 21
-17.531
  0
LINE
  8
0
 10
-24.749
 11
-24.687
 20
-17.531
 21
-17.518
  0
LINE
  8
0
 10
-24.687
 11
-24.625
 20
-17.518
 21
-17.508
  0
LINE
  8
0
 10
-24.625
 11
-24.563
 20
-17.508
 21
-17.502
  0
LINE
  8
0
 10
-24.563
 11
-24.5
 20
-17.502
 21
-17.5
  0
LINE
  8
0
 10
-24.5
 11
-24.437
 20
-17.5
 21
-17.502
  0
LINE
  8
0
 10
-24.437
 11
-24.375
 20
-17.502
 21
-17.508
  0
LINE
  8
0
 10
-24.375
 11
-24.313
 20
-17.508
 21
-17.518
  0
LINE
  8
0
 10
-24.313
 11
-24.251
 20
-17.518
 21
-17.531
  0
LINE
  8
0
 10
-24.251
 11
-24.191
 20
-17.531
 21
-17.549
  0
LINE
  8
0
 10
-24.191
 11
-24.132
 20
-17.549
 21
-17.57
  0
LINE
  8
0
 10
-24.132
 11
-24.074
 20
-17.57
 21
-17.595
  0
LINE
  8
0
 10
-24.074
 11
-24.018
 20
-17.595
 21
-17.624
  0
LINE
  8
0
 10
-24.018
 11
-23.964
 20
-17.624
 21
-17.656
  0
LINE
  8
0
 10
-23.964
 11
-23.912
 20
-17.656
 21
-17.691
  0
LINE
  8
0
 10
-23.912
 11
-23.863
 20
-17.691
 21
-17.729
  0
LINE
  8
0
 10
-23.863
 11
-23.815
 20
-17.729
 21
-17.771
  0
LINE
  8
0
 10
-23.815
 11
-23.771
 20
-17.771
 21
-17.815
  0
LINE
  8
0
 10
-23.771
 11
-23.729
 20
-17.815
 21
-17.863
  0
LINE
  8
0
 10
-23.729
 11
-23.691
 20
-17.863
 21
-17.912
  0
LINE
  8
0
 10
-23.691
 11
-23.656
 20
-17.912
 21
-17.964
  0
LINE
  8
0
 10
-23.656
 11
-23.624
 20
-17.964
 21
-18.018
  0
LINE
  8
0
 10
-23.624
 11
-23.595
 20
-18.018
 21
-18.074
  0
LINE
  8
0
 10
-23.595
 11
-23.57
 20
-18.074
 21
-18.132
  0
LINE
  8
0
 10
-23.57
 11
-23.549
 20
-18.132
 21
-18.191
  0
LINE
  8
0
 10
-23.549
 11
-23.531
 20
-18.191
 21
-18.251
  0
LINE
  8
0
 10
-23.531
 11
-23.518
 20
-18.251
 21
-18.313
  0
LINE
  8
0
 10
-23.518
 11
-23.508
 20
-18.313
 21
-18.375
  0
LINE
  8
0
 10
-23.508
 11
-23.502
 20
-18.375
 21
-18.437
  0
LINE
  8
0
 10
-23.502
 11
-23.5
 20
-18.437
 21
-18.5
  0
LINE
  8
0
 10
-23.5
 11
-23.502
 20
-18.5
 21
-18.563
  0
LINE
  8
0
 10
-23.502
 11
-23.508
 20
-18.563
 21
-18.625
  0
LINE
  8
0
 10
-23.508
 11
-23.518
 20
-18.625
 21
-18.687
  0
LINE
  8
0
 10
-23.518
 11
-23.531
 20
-18.687
 21
-18.749
  0
LINE
  8
0
 10
-23.531
 11
-23.549
 20
-18.749
 21
-18.809
  0
LINE
  8
0
 10
-23.549
 11
-23.57
 20
-18.809
 21
-18.868
  0
LINE
  8
0
 10
-23.57
 11
-23.595
 20
-18.868
 21
-18.926
  0
LINE
  8
0
 10
-23.595
 11
-23.624
 20
-18.926
 21
-18.982
  0
LINE
  8
0
 10
-23.624
 11
-23.656
 20
-18.982
 21
-19.036
  0
LINE
  8
0
 10
-23.656
 11
-23.691
 20
-19.036
 21
-19.088
  0
LINE
  8
0
 10
-23.691
 11
-23.729
 20
-19.088
 21
-19.137
  0
LINE
  8
0
 10
-23.729
 11
-23.771
 20
-19.137
 21
-19.185
  0
LINE
  8
0
 10
-23.771
 11
-23.815
 20
-19.185
 21
-19.229
  0
LINE
  8
0
 10
-23.815
 11
-23.863
 20
-19.229
 21
-19.271
  0
LINE
  8
0
 10
-23.863
 11
-23.912
 20
-19.271
 21
-19.309
  0
LINE
  8
0
 10
-23.912
 11
-23.964
 20
-19.309
 21
-19.344
  0
LINE
  8
0
 10
-23.964
 11
-24.018
 20
-19.344
 21
-19.376
  0
LINE
  8
0
 10
-24.018
 11
-24.074
 20
-19.376
 21
-19.405
  0
LINE
  8
0
 10
-24.074
 11
-24.132
 20
-19.405
 21
-19.43
  0
LINE
  8
0
 10
-24.132
 11
-24.191
 20
-19.43
 21
-19.451
  0
LINE
  8
0
 10
-24.191
 11
-24.251
 20
-19.451
 21
-19.469
  0
LINE
  8
0
 10
-24.251
 11
-24.313
 20
-19.469
 21
-19.482
  0
LINE
  8
0
 10
-24.313
 11
-24.375
 20
-19.482
 21
-19.492
  0
LINE
  8
0
 10
-24.375
 11
-24.437
 20
-19.492
 21
-19.498
  0
LINE
  8
0
 10
-24.437
 11
-24.5
 20
-19.498
 21
-19.5
  0
LINE
  8
0
 10
-24.5
 11
-24.563
 20
-19.5
 21
-19.498
  0
LINE
  8
0
 10
-24.563
 11
-24.625
 20
-19.498
 21
-19.492
  0
LINE
  8
0
 10
-24.625
 11
-24.687
 20
-19.492
 21
-19.482
  0
LINE
  8
0
 10
-24.687
 11
-24.749
 20
-19.482
 21
-19.469
  0
LINE
  8
0
 10
-24.749
 11
-24.809
 20
-19.469
 21
-19.451
  0
LINE
  8
0
 10
-24.809
 11
-24.868
 20
-19.451
 21
-19.43
  0
LINE
  8
0
 10
-24.868
 11
-24.926
 20
-19.43
 21
-19.405
  0
LINE
  8
0
 10
-24.926
 11
-24.982
 20
-19.405
 21
-19.376
  0
LINE
  8
0
 10
-24.982
 11
-25.036
 20
-19.376
 21
-19.344
  0
LINE
  8
0
 10
-25.036
 11
-25.088
 20
-19.344
 21
-19.309
  0
LINE
  8
0
 10
-25.088
 11
-25.137
 20
-19.309
 21
-19.271
  0
LINE
  8
0
 10
-25.137
 11
-25.185
 20
-19.271
 21
-19.229
  0
LINE
  8
0
 10
-25.185
 11
-25.229
 20
-19.229
 21
-19.185
  0
LINE
  8
0
 10
-25.229
 11
-25.271
 20
-19.185
 21
-19.137
  0
LINE
  8
0
 10
-25.271
 11
-25.309
 20
-19.137
 21
-19.088
  0
LINE
  8
0
 10
-25.309
 11
-25.344
 20
-19.088
 21
-19.036
  0
LINE
  8
0
 10
-25.344
 11
-25.376
 20
-19.036
 21
-18.982
  0
LINE
  8
0
 10
-25.376
 11
-25.405
 20
-18.982
 21
-18.926
  0
LINE
  8
0
 10
-25.405
 11
-25.43
 20
-18.926
 21
-18.868
  0
LINE
  8
0
 10
-25.43
 11
-25.451
 20
-18.868
 21
-18.809
  0
LINE
  8
0
 10
-25.451
 11
-25.469
 20
-18.809
 21
-18.749
  0
LINE
  8
0
 10
-25.469
 11
-25.482
 20
-18.749
 21
-18.687
  0
LINE
  8
0
 10
-25.482
 11
-25.492
 20
-18.687
 21
-18.625
  0
LINE
  8
0
 10
-25.492
 11
-25.498
 20
-18.625
 21
-18.563
  0
LINE
  8
0
 10
-25.498
 11
-25.5
 20
-18.563
 21
-18.5
  0
LINE
  8
0
 10
-25.5
 11
-25.498
 20
18.5
 21
18.563
  0
LINE
  8
0
 10
-25.498
 11
-25.492
 20
18.563
 21
18.625
  0
LINE
  8
0
 10
-25.492
 11
-25.482
 20
18.625
 21
18.687
  0
LINE
  8
0
 10
-25.482
 11
-25.469
 20
18.687
 21
18.749
  0
LINE
  8
0
 10
-25.469
 11
-25.451
 20
18.749
 21
18.809
  0
LINE
  8
0
 10
-25.451
 11
-25.43
 20
18.809
 21
18.868
  0
LINE
  8
0
 10
-25.43
 11
-25.405
 20
18.868
 21
18.926
  0
LINE
  8
0
 10
-25.405
 11
-25.376
 20
18.926
 21
18.982
  0
LINE
  8
0
 10
-25.376
 11
-25.344
 20
18.982
 21
19.036
  0
LINE
  8
0
 10
-25.344
 11
-25.309
 20
19.036
 21
19.088
  0
LINE
  8
0
 10
-25.309
 11
-25.271
 20
19.088
 21
19.137
  0
LINE
  8
0
 10
-25.271
 11
-25.229
 20
19.137
 21
19.185
  0
LINE
  8
0
 10
-25.229
 11
-25.185
 20
19.185
 21
19.229
  0
LINE
  8
0
 10
-25.185
 11
-25.137
 20
19.229
 21
19.271
  0
LINE
  8
0
 10
-25.137
 11
-25.088
 20
19.271
 21
19.309
  0
LINE
  8
0
 10
-25.088
 11
-25.036
 20
19.309
 21
19.344
  0
LINE
  8
0
 10
-25.036
 11
-24.982
 20
19.344
 21
19.376
  0
LINE
  8
0
 10
-24.982
 11
-24.926
 20
19.376
 21
19.405
  0
LINE
  8
0
 10
-24.926
 11
-24.868
 20
19.405
 21
19.43
  0
LINE
  8
0
 10
-24.868
 11
-24.809
 20
19.43
 21
19.451
  0
LINE
  8
0
 10
-24.809
 11
-24.749
 20
19.451
 21
19.469
  0
LINE
  8
0
 10
-24.749
 11
-24.687
 20
19.469
 21
19.482
  0
LINE
  8
0
 10
-24.687
 11
-24.625
 20
19.482
 21
19.492
  0
LINE
  8
0
 10
-24.625
 11
-24.563
 20
19.492
 21
19.498
  0
LINE
  8
0
 10
-24.563
 11
-24.5
 20
19.498
 21
19.5
  0
LINE
  8
0
 10
-24.5
 11
-24.437
 20
19.5
 21
19.498
  0
LINE
  8
0
 10
-24.437
 11
-24.375
 20
19.498
 21
19.492
  0
LINE
  8
0
 10
-24.375
 11
-24.313
 20
19.492
 21
19.482
  0
LINE
  8
0
 10
-24.313
 11
-24.251
 20
19.482
 21
19.469
  0
LINE
  8
0
 10
-24.251
 11
-24.191
 20
19.469
 21
19.451
  0
LINE
  8
0
 10
-24.191
 11
-24.132
 20
19.451
 21
19.43
  0
LINE
  8
0
 10
-24.132
 11
-24.074
 20
19.43
 21
19.405
  0
LINE
  8
0
 10
-24.074
 11
-24.018
 20
19.405
 21
19.376
  0
LINE
  8
0
 10
-24.018
 11
-23.964
 20
19.376
 21
19.344
  0
LINE
  8
0
 10
-23.964
 11
-23.912
 20
19.344
 21
19.309
  0
LINE
  8
0
 10
-23.912
 11
-23.863
 20
19.309
 21
19.271
  0
LINE
  8
0
 10
-23.863
 11
-23.815
 20
19.271
 21
19.229
  0
LINE
  8
0
 10
-23.815
 11
-23.771
 20
19.229
 21
19.185
  0
LINE
  8
0
 10
-23.771
 11
-23.729
 20
19.185
 21
19.137
  0
LINE
  8
0
 10
-23.729
 11
-23.691
 20
19.137
 21
19.088
  0
LINE
  8
0
 10
-23.691
 11
-23.656
 20
19.088
 21
19.036
  0
LINE
  8
0
 10
-23.656
 11
-23.624
 20
19.036
 21
18.982
  0
LINE
  8
0
 10
-23.624
 11
-23.595
 20
18.982
 21
18.926
  0
LINE
  8
0
 10
-23.595
 11
-23.57
 20
18.926
 21
18.868
  0
LINE
  8
0
 10
-23.57
 11
-23.549
 20
18.868
 21
18.809
  0
LINE
  8
0
 10
-23.549
 11
-23.531
 20
18.809
 21
18.749
  0
LINE
  8
0
 10
-23.531
 11
-23.518
 20
18.749
 21
18.687
  0
LINE
  8
0
 10
-23.518
 11
-23.508
 20
18.687
 21
18.625
  0
LINE
  8
0
 10
-23.508
 11
-23.502
 20
18.625
 21
18.563
  0
LINE
  8
0
 10
-23.502
 11
-23.5
 20
18.563
 21
18.5
  0
LINE
  8
0
 10
-23.5
 11
-23.502
 20
18.5
 21
18.437
  0
LINE
  8
0
 10
-23.502
 11
-23.508
 20
18.437
 21
18.375
  0
LINE
  8
0
 10
-23.508
 11
-23.518
 20
18.375
 21
18.313
  0
LINE
  8
0
 10
-23.518
 11
-23.531
 20
18.313
 21
18.251
  0
LINE
  8
0
 10
-23.531
 11
-23.549
 20
18.251
 21
18.191
  0
LINE
  8
0
 10
-23.549
 11
-23.57
 20
18.191
 21
18.132
  0
LINE
  8
0
 10
-23.57
 11
-23.595
 20
18.132
 21
18.074
  0
LINE
  8
0
 10
-23.595
 11
-23.624
 20
18.074
 21
18.018
  0
LINE
  8
0
 10
-23.624
 11
-23.656
 20
18.018
 21
17.964
  0
LINE
  8
0
 10
-23.656
 11
-23.691
 20
17.964
 21
17.912
  0
LINE
  8
0
 10
-23.691
 11
-23.729
 20
17.912
 21
17.863
  0
LINE
  8
0
 10
-23.729
 11
-23.771
 20
17.863
 21
17.815
  0
LINE
  8
0
 10
-23.771
 11
-23.815
 20
17.815
 21
17.771
  0
LINE
  8
0
 10
-23.815
 11
-23.863
 20
17.771
 21
17.729
  0
LINE
  8
0
 10
-23.863
 11
-23.912
 20
17.729
 21
17.691
  0
LINE
  8
0
 10
-23.912
 11
-23.964
 20
17.691
 21
17.656
  0
LINE
  8
0
 10
-23.964
 11
-24.018
 20
17.656
 21
17.624
  0
LINE
  8
0
 10
-24.018
 11
-24.074
 20
17.624
 21
17.595
  0
LINE
  8
0
 10
-24.074
 11
-24.132
 20
17.595
 21
17.57
  0
LINE
  8
0
 10
-24.132
 11
-24.191
 20
17.57
 21
17.549
  0
LINE
  8
0
 10
-24.191
 11
-24.251
 20
17.549
 21
17.531
  0
LINE
  8
0
 10
-24.251
 11
-24.313
 20
17.531
 21
17.518
  0
LINE
  8
0
 10
-24.313
 11
-24.375
 20
17.518
 21
17.508
  0
LINE
  8
0
 10
-24.375
 11
-24.437
 20
17.508
 21
17.502
  0
LINE
  8
0
 10
-24.437
 11
-24.5
 20
17.502
 21
17.5
  0
LINE
  8
0
 10
-24.5
 11
-24.563
 20
17.5
 21
17.502
  0
LINE
  8
0
 10
-24.563
 11
-24.625
 20
17.502
 21
17.508
  0
LINE
  8
0
 10
-24.625
 11
-24.687
 20
17.508
 21
17.518
  0
LINE
  8
0
 10
-24.687
 11
-24.749
 20
17.518
 21
17.531
  0
LINE
  8
0
 10
-24.749
 11
-24.809
 20
17.531
 21
17.549
  0
LINE
  8
0
 10
-24.809
 11
-24.868
 20
17.549
 21
17.57
  0
LINE
  8
0
 10
-24.868
 11
-24.926
 20
17.57
 21
17.595
  0
LINE
  8
0
 10
-24.926
 11
-24.982
 20
17.595
 21
17.624
  0
LINE
  8
0
 10
-24.982
 11
-25.036
 20
17.624
 21
17.656
  0
LINE
  8
0
 10
-25.036
 11
-25.088
 20
17.656
 21
17.691
  0
LINE
  8
0
 10
-25.088
 11
-25.137
 20
17.691
 21
17.729
  0
LINE
  8
0
 10
-25.137
 11
-25.185
 20
17.729
 21
17.771
  0
LINE
  8
0
 10
-25.185
 11
-25.229
 20
17.771
 21
17.815
  0
LINE
  8
0
 10
-25.229
 11
-25.271
 20
17.815
 21
17.863
  0
LINE
  8
0
 10
-25.271
 11
-25.309
 20
17.863
 21
17.912
  0
LINE
  8
0
 10
-25.309
 11
-25.344
 20
17.912
 21
17.964
  0
LINE
  8
0
 10
-25.344
 11
-25.376
 20
17.964
 21
18.018
  0
LINE
  8
0
 10
-25.376
 11
-25.405
 20
18.018
 21
18.074
  0
LINE
  8
0
 10
-25.405
 11
-25.43
 20
18.074
 21
18.132
  0
LINE
  8
0
 10
-25.43
 11
-25.451
 20
18.132
 21
18.191
  0
LINE
  8
0
 10
-25.451
 11
-25.469
 20
18.191
 21
18.251
  0
LINE
  8
0
 10
-25.469
 11
-25.482
 20
18.251
 21
18.313
  0
LINE
  8
0
 10
-25.482
 11
-25.492
 20
18.313
 21
18.375
  0
LINE
  8
0
 10
-25.492
 11
-25.498
 20
18.375
 21
18.437
  0
LINE
  8
0
 10
-25.498
 11
-25.5
 20
18.437
 21
18.5
  0
LINE
  8
0
 10
-30
 11
-30
 20
-23
 21
23
  0
LINE
  8
0
 10
-30
 11
0
 20
23
 21
23
  0
LINE
  8
0
 10
0
 11
0
 20
23
 21
-23
  0
LINE
  8
0
 10
0
 11
-30
 20
-23
 21
-23
  0
ENDSEC
  0
SECTION
  2
OBJECTS
  0
DICTIONARY
  0
ENDSEC
  0
EOF
