  0
SECTION
  2
BLOCKS
  0
ENDSEC
  0
SECTION
  2
ENTITIES
  0
LINE
  8
0
 10
-17
 11
-17
 20
-4
 21
19
  0
LINE
  8
0
 10
-17
 11
17
 20
19
 21
19
  0
LINE
  8
0
 10
17
 11
17
 20
19
 21
-4
  0
LINE
  8
0
 10
17
 11
-17
 20
-4
 21
-4
  0
LINE
  8
0
 10
-13.9
 11
-13.89
 20
4
 21
4.308
  0
LINE
  8
0
 10
-13.89
 11
-13.861
 20
4.308
 21
4.614
  0
LINE
  8
0
 10
-13.861
 11
-13.813
 20
4.614
 21
4.918
  0
LINE
  8
0
 10
-13.813
 11
-13.746
 20
4.918
 21
5.219
  0
LINE
  8
0
 10
-13.746
 11
-13.66
 20
5.219
 21
5.514
  0
LINE
  8
0
 10
-13.66
 11
-13.556
 20
5.514
 21
5.804
  0
LINE
  8
0
 10
-13.556
 11
-13.434
 20
5.804
 21
6.086
  0
LINE
  8
0
 10
-13.434
 11
-13.294
 20
6.086
 21
6.361
  0
LINE
  8
0
 10
-13.294
 11
-13.137
 20
6.361
 21
6.626
  0
LINE
  8
0
 10
-13.137
 11
-12.964
 20
6.626
 21
6.88
  0
LINE
  8
0
 10
-12.964
 11
-12.776
 20
6.88
 21
7.123
  0
LINE
  8
0
 10
-12.776
 11
-12.572
 20
7.123
 21
7.354
  0
LINE
  8
0
 10
-12.572
 11
-12.354
 20
7.354
 21
7.572
  0
LINE
  8
0
 10
-12.354
 11
-12.123
 20
7.572
 21
7.776
  0
LINE
  8
0
 10
-12.123
 11
-11.88
 20
7.776
 21
7.964
  0
LINE
  8
0
 10
-11.88
 11
-11.626
 20
7.964
 21
8.137
  0
LINE
  8
0
 10
-11.626
 11
-11.361
 20
8.137
 21
8.294
  0
LINE
  8
0
 10
-11.361
 11
-11.086
 20
8.294
 21
8.434
  0
LINE
  8
0
 10
-11.086
 11
-10.804
 20
8.434
 21
8.556
  0
LINE
  8
0
 10
-10.804
 11
-10.514
 20
8.556
 21
8.66
  0
LINE
  8
0
 10
-10.514
 11
-10.219
 20
8.66
 21
8.746
  0
LINE
  8
0
 10
-10.219
 11
-9.918
 20
8.746
 21
8.813
  0
LINE
  8
0
 10
-9.918
 11
-9.614
 20
8.813
 21
8.861
  0
LINE
  8
0
 10
-9.614
 11
-9.308
 20
8.861
 21
8.89
  0
LINE
  8
0
 10
-9.308
 11
-9
 20
8.89
 21
8.9
  0
LINE
  8
0
 10
-9
 11
-8.692
 20
8.9
 21
8.89
  0
LINE
  8
0
 10
-8.692
 11
-8.386
 20
8.89
 21
8.861
  0
LINE
  8
0
 10
-8.386
 11
-8.082
 20
8.861
 21
8.813
  0
LINE
  8
0
 10
-8.082
 11
-7.781
 20
8.813
 21
8.746
  0
LINE
  8
0
 10
-7.781
 11
-7.486
 20
8.746
 21
8.66
  0
LINE
  8
0
 10
-7.486
 11
-7.196
 20
8.66
 21
8.556
  0
LINE
  8
0
 10
-7.196
 11
-6.914
 20
8.556
 21
8.434
  0
LINE
  8
0
 10
-6.914
 11
-6.639
 20
8.434
 21
8.294
  0
LINE
  8
0
 10
-6.639
 11
-6.374
 20
8.294
 21
8.137
  0
LINE
  8
0
 10
-6.374
 11
-6.12
 20
8.137
 21
7.964
  0
LINE
  8
0
 10
-6.12
 11
-5.877
 20
7.964
 21
7.776
  0
LINE
  8
0
 10
-5.877
 11
-5.646
 20
7.776
 21
7.572
  0
LINE
  8
0
 10
-5.646
 11
-5.428
 20
7.572
 21
7.354
  0
LINE
  8
0
 10
-5.428
 11
-5.224
 20
7.354
 21
7.123
  0
LINE
  8
0
 10
-5.224
 11
-5.036
 20
7.123
 21
6.88
  0
LINE
  8
0
 10
-5.036
 11
-4.863
 20
6.88
 21
6.626
  0
LINE
  8
0
 10
-4.863
 11
-4.706
 20
6.626
 21
6.361
  0
LINE
  8
0
 10
-4.706
 11
-4.566
 20
6.361
 21
6.086
  0
LINE
  8
0
 10
-4.566
 11
-4.444
 20
6.086
 21
5.804
  0
LINE
  8
0
 10
-4.444
 11
-4.34
 20
5.804
 21
5.514
  0
LINE
  8
0
 10
-4.34
 11
-4.254
 20
5.514
 21
5.219
  0
LINE
  8
0
 10
-4.254
 11
-4.187
 20
5.219
 21
4.918
  0
LINE
  8
0
 10
-4.187
 11
-4.139
 20
4.918
 21
4.614
  0
LINE
  8
0
 10
-4.139
 11
-4.11
 20
4.614
 21
4.308
  0
LINE
  8
0
 10
-4.11
 11
-4.1
 20
4.308
 21
4
  0
LINE
  8
0
 10
-4.1
 11
-4.11
 20
4
 21
3.692
  0
LINE
  8
0
 10
-4.11
 11
-4.139
 20
3.692
 21
3.386
  0
LINE
  8
0
 10
-4.139
 11
-4.187
 20
3.386
 21
3.082
  0
LINE
  8
0
 10
-4.187
 11
-4.254
 20
3.082
 21
2.781
  0
LINE
  8
0
 10
-4.254
 11
-4.34
 20
2.781
 21
2.486
  0
LINE
  8
0
 10
-4.34
 11
-4.444
 20
2.486
 21
2.196
  0
LINE
  8
0
 10
-4.444
 11
-4.566
 20
2.196
 21
1.914
  0
LINE
  8
0
 10
-4.566
 11
-4.706
 20
1.914
 21
1.639
  0
LINE
  8
0
 10
-4.706
 11
-4.863
 20
1.639
 21
1.374
  0
LINE
  8
0
 10
-4.863
 11
-5.036
 20
1.374
 21
1.12
  0
LINE
  8
0
 10
-5.036
 11
-5.224
 20
1.12
 21
0.877
  0
LINE
  8
0
 10
-5.224
 11
-5.428
 20
0.877
 21
0.646
  0
LINE
  8
0
 10
-5.428
 11
-5.646
 20
0.646
 21
0.428
  0
LINE
  8
0
 10
-5.646
 11
-5.877
 20
0.428
 21
0.224
  0
LINE
  8
0
 10
-5.877
 11
-6.12
 20
0.224
 21
0.036
  0
LINE
  8
0
 10
-6.12
 11
-6.374
 20
0.036
 21
-0.137
  0
LINE
  8
0
 10
-6.374
 11
-6.639
 20
-0.137
 21
-0.294
  0
LINE
  8
0
 10
-6.639
 11
-6.914
 20
-0.294
 21
-0.434
  0
LINE
  8
0
 10
-6.914
 11
-7.196
 20
-0.434
 21
-0.556
  0
LINE
  8
0
 10
-7.196
 11
-7.486
 20
-0.556
 21
-0.66
  0
LINE
  8
0
 10
-7.486
 11
-7.781
 20
-0.66
 21
-0.746
  0
LINE
  8
0
 10
-7.781
 11
-8.082
 20
-0.746
 21
-0.813
  0
LINE
  8
0
 10
-8.082
 11
-8.386
 20
-0.813
 21
-0.861
  0
LINE
  8
0
 10
-8.386
 11
-8.692
 20
-0.861
 21
-0.89
  0
LINE
  8
0
 10
-8.692
 11
-9
 20
-0.89
 21
-0.9
  0
LINE
  8
0
 10
-9
 11
-9.308
 20
-0.9
 21
-0.89
  0
LINE
  8
0
 10
-9.308
 11
-9.614
 20
-0.89
 21
-0.861
  0
LINE
  8
0
 10
-9.614
 11
-9.918
 20
-0.861
 21
-0.813
  0
LINE
  8
0
 10
-9.918
 11
-10.219
 20
-0.813
 21
-0.746
  0
LINE
  8
0
 10
-10.219
 11
-10.514
 20
-0.746
 21
-0.66
  0
LINE
  8
0
 10
-10.514
 11
-10.804
 20
-0.66
 21
-0.556
  0
LINE
  8
0
 10
-10.804
 11
-11.086
 20
-0.556
 21
-0.434
  0
LINE
  8
0
 10
-11.086
 11
-11.361
 20
-0.434
 21
-0.294
  0
LINE
  8
0
 10
-11.361
 11
-11.626
 20
-0.294
 21
-0.137
  0
LINE
  8
0
 10
-11.626
 11
-11.88
 20
-0.137
 21
0.036
  0
LINE
  8
0
 10
-11.88
 11
-12.123
 20
0.036
 21
0.224
  0
LINE
  8
0
 10
-12.123
 11
-12.354
 20
0.224
 21
0.428
  0
LINE
  8
0
 10
-12.354
 11
-12.572
 20
0.428
 21
0.646
  0
LINE
  8
0
 10
-12.572
 11
-12.776
 20
0.646
 21
0.877
  0
LINE
  8
0
 10
-12.776
 11
-12.964
 20
0.877
 21
1.12
  0
LINE
  8
0
 10
-12.964
 11
-13.137
 20
1.12
 21
1.374
  0
LINE
  8
0
 10
-13.137
 11
-13.294
 20
1.374
 21
1.639
  0
LINE
  8
0
 10
-13.294
 11
-13.434
 20
1.639
 21
1.914
  0
LINE
  8
0
 10
-13.434
 11
-13.556
 20
1.914
 21
2.196
  0
LINE
  8
0
 10
-13.556
 11
-13.66
 20
2.196
 21
2.486
  0
LINE
  8
0
 10
-13.66
 11
-13.746
 20
2.486
 21
2.781
  0
LINE
  8
0
 10
-13.746
 11
-13.813
 20
2.781
 21
3.082
  0
LINE
  8
0
 10
-13.813
 11
-13.861
 20
3.082
 21
3.386
  0
LINE
  8
0
 10
-13.861
 11
-13.89
 20
3.386
 21
3.692
  0
LINE
  8
0
 10
-13.89
 11
-13.9
 20
3.692
 21
4
  0
LINE
  8
0
 10
4.1
 11
4.11
 20
4
 21
4.308
  0
LINE
  8
0
 10
4.11
 11
4.139
 20
4.308
 21
4.614
  0
LINE
  8
0
 10
4.139
 11
4.187
 20
4.614
 21
4.918
  0
LINE
  8
0
 10
4.187
 11
4.254
 20
4.918
 21
5.219
  0
LINE
  8
0
 10
4.254
 11
4.34
 20
5.219
 21
5.514
  0
LINE
  8
0
 10
4.34
 11
4.444
 20
5.514
 21
5.804
  0
LINE
  8
0
 10
4.444
 11
4.566
 20
5.804
 21
6.086
  0
LINE
  8
0
 10
4.566
 11
4.706
 20
6.086
 21
6.361
  0
LINE
  8
0
 10
4.706
 11
4.863
 20
6.361
 21
6.626
  0
LINE
  8
0
 10
4.863
 11
5.036
 20
6.626
 21
6.88
  0
LINE
  8
0
 10
5.036
 11
5.224
 20
6.88
 21
7.123
  0
LINE
  8
0
 10
5.224
 11
5.428
 20
7.123
 21
7.354
  0
LINE
  8
0
 10
5.428
 11
5.646
 20
7.354
 21
7.572
  0
LINE
  8
0
 10
5.646
 11
5.877
 20
7.572
 21
7.776
  0
LINE
  8
0
 10
5.877
 11
6.12
 20
7.776
 21
7.964
  0
LINE
  8
0
 10
6.12
 11
6.374
 20
7.964
 21
8.137
  0
LINE
  8
0
 10
6.374
 11
6.639
 20
8.137
 21
8.294
  0
LINE
  8
0
 10
6.639
 11
6.914
 20
8.294
 21
8.434
  0
LINE
  8
0
 10
6.914
 11
7.196
 20
8.434
 21
8.556
  0
LINE
  8
0
 10
7.196
 11
7.486
 20
8.556
 21
8.66
  0
LINE
  8
0
 10
7.486
 11
7.781
 20
8.66
 21
8.746
  0
LINE
  8
0
 10
7.781
 11
8.082
 20
8.746
 21
8.813
  0
LINE
  8
0
 10
8.082
 11
8.386
 20
8.813
 21
8.861
  0
LINE
  8
0
 10
8.386
 11
8.692
 20
8.861
 21
8.89
  0
LINE
  8
0
 10
8.692
 11
9
 20
8.89
 21
8.9
  0
LINE
  8
0
 10
9
 11
9.308
 20
8.9
 21
8.89
  0
LINE
  8
0
 10
9.308
 11
9.614
 20
8.89
 21
8.861
  0
LINE
  8
0
 10
9.614
 11
9.918
 20
8.861
 21
8.813
  0
LINE
  8
0
 10
9.918
 11
10.219
 20
8.813
 21
8.746
  0
LINE
  8
0
 10
10.219
 11
10.514
 20
8.746
 21
8.66
  0
LINE
  8
0
 10
10.514
 11
10.804
 20
8.66
 21
8.556
  0
LINE
  8
0
 10
10.804
 11
11.086
 20
8.556
 21
8.434
  0
LINE
  8
0
 10
11.086
 11
11.361
 20
8.434
 21
8.294
  0
LINE
  8
0
 10
11.361
 11
11.626
 20
8.294
 21
8.137
  0
LINE
  8
0
 10
11.626
 11
11.88
 20
8.137
 21
7.964
  0
LINE
  8
0
 10
11.88
 11
12.123
 20
7.964
 21
7.776
  0
LINE
  8
0
 10
12.123
 11
12.354
 20
7.776
 21
7.572
  0
LINE
  8
0
 10
12.354
 11
12.572
 20
7.572
 21
7.354
  0
LINE
  8
0
 10
12.572
 11
12.776
 20
7.354
 21
7.123
  0
LINE
  8
0
 10
12.776
 11
12.964
 20
7.123
 21
6.88
  0
LINE
  8
0
 10
12.964
 11
13.137
 20
6.88
 21
6.626
  0
LINE
  8
0
 10
13.137
 11
13.294
 20
6.626
 21
6.361
  0
LINE
  8
0
 10
13.294
 11
13.434
 20
6.361
 21
6.086
  0
LINE
  8
0
 10
13.434
 11
13.556
 20
6.086
 21
5.804
  0
LINE
  8
0
 10
13.556
 11
13.66
 20
5.804
 21
5.514
  0
LINE
  8
0
 10
13.66
 11
13.746
 20
5.514
 21
5.219
  0
LINE
  8
0
 10
13.746
 11
13.813
 20
5.219
 21
4.918
  0
LINE
  8
0
 10
13.813
 11
13.861
 20
4.918
 21
4.614
  0
LINE
  8
0
 10
13.861
 11
13.89
 20
4.614
 21
4.308
  0
LINE
  8
0
 10
13.89
 11
13.9
 20
4.308
 21
4
  0
LINE
  8
0
 10
13.9
 11
13.89
 20
4
 21
3.692
  0
LINE
  8
0
 10
13.89
 11
13.861
 20
3.692
 21
3.386
  0
LINE
  8
0
 10
13.861
 11
13.813
 20
3.386
 21
3.082
  0
LINE
  8
0
 10
13.813
 11
13.746
 20
3.082
 21
2.781
  0
LINE
  8
0
 10
13.746
 11
13.66
 20
2.781
 21
2.486
  0
LINE
  8
0
 10
13.66
 11
13.556
 20
2.486
 21
2.196
  0
LINE
  8
0
 10
13.556
 11
13.434
 20
2.196
 21
1.914
  0
LINE
  8
0
 10
13.434
 11
13.294
 20
1.914
 21
1.639
  0
LINE
  8
0
 10
13.294
 11
13.137
 20
1.639
 21
1.374
  0
LINE
  8
0
 10
13.137
 11
12.964
 20
1.374
 21
1.12
  0
LINE
  8
0
 10
12.964
 11
12.776
 20
1.12
 21
0.877
  0
LINE
  8
0
 10
12.776
 11
12.572
 20
0.877
 21
0.646
  0
LINE
  8
0
 10
12.572
 11
12.354
 20
0.646
 21
0.428
  0
LINE
  8
0
 10
12.354
 11
12.123
 20
0.428
 21
0.224
  0
LINE
  8
0
 10
12.123
 11
11.88
 20
0.224
 21
0.036
  0
LINE
  8
0
 10
11.88
 11
11.626
 20
0.036
 21
-0.137
  0
LINE
  8
0
 10
11.626
 11
11.361
 20
-0.137
 21
-0.294
  0
LINE
  8
0
 10
11.361
 11
11.086
 20
-0.294
 21
-0.434
  0
LINE
  8
0
 10
11.086
 11
10.804
 20
-0.434
 21
-0.556
  0
LINE
  8
0
 10
10.804
 11
10.514
 20
-0.556
 21
-0.66
  0
LINE
  8
0
 10
10.514
 11
10.219
 20
-0.66
 21
-0.746
  0
LINE
  8
0
 10
10.219
 11
9.918
 20
-0.746
 21
-0.813
  0
LINE
  8
0
 10
9.918
 11
9.614
 20
-0.813
 21
-0.861
  0
LINE
  8
0
 10
9.614
 11
9.308
 20
-0.861
 21
-0.89
  0
LINE
  8
0
 10
9.308
 11
9
 20
-0.89
 21
-0.9
  0
LINE
  8
0
 10
9
 11
8.692
 20
-0.9
 21
-0.89
  0
LINE
  8
0
 10
8.692
 11
8.386
 20
-0.89
 21
-0.861
  0
LINE
  8
0
 10
8.386
 11
8.082
 20
-0.861
 21
-0.813
  0
LINE
  8
0
 10
8.082
 11
7.781
 20
-0.813
 21
-0.746
  0
LINE
  8
0
 10
7.781
 11
7.486
 20
-0.746
 21
-0.66
  0
LINE
  8
0
 10
7.486
 11
7.196
 20
-0.66
 21
-0.556
  0
LINE
  8
0
 10
7.196
 11
6.914
 20
-0.556
 21
-0.434
  0
LINE
  8
0
 10
6.914
 11
6.639
 20
-0.434
 21
-0.294
  0
LINE
  8
0
 10
6.639
 11
6.374
 20
-0.294
 21
-0.137
  0
LINE
  8
0
 10
6.374
 11
6.12
 20
-0.137
 21
0.036
  0
LINE
  8
0
 10
6.12
 11
5.877
 20
0.036
 21
0.224
  0
LINE
  8
0
 10
5.877
 11
5.646
 20
0.224
 21
0.428
  0
LINE
  8
0
 10
5.646
 11
5.428
 20
0.428
 21
0.646
  0
LINE
  8
0
 10
5.428
 11
5.224
 20
0.646
 21
0.877
  0
LINE
  8
0
 10
5.224
 11
5.036
 20
0.877
 21
1.12
  0
LINE
  8
0
 10
5.036
 11
4.863
 20
1.12
 21
1.374
  0
LINE
  8
0
 10
4.863
 11
4.706
 20
1.374
 21
1.639
  0
LINE
  8
0
 10
4.706
 11
4.566
 20
1.639
 21
1.914
  0
LINE
  8
0
 10
4.566
 11
4.444
 20
1.914
 21
2.196
  0
LINE
  8
0
 10
4.444
 11
4.34
 20
2.196
 21
2.486
  0
LINE
  8
0
 10
4.34
 11
4.254
 20
2.486
 21
2.781
  0
LINE
  8
0
 10
4.254
 11
4.187
 20
2.781
 21
3.082
  0
LINE
  8
0
 10
4.187
 11
4.139
 20
3.082
 21
3.386
  0
LINE
  8
0
 10
4.139
 11
4.11
 20
3.386
 21
3.692
  0
LINE
  8
0
 10
4.11
 11
4.1
 20
3.692
 21
4
  0
ENDSEC
  0
SECTION
  2
OBJECTS
  0
DICTIONARY
  0
ENDSEC
  0
EOF
