  0
SECTION
  2
BLOCKS
  0
ENDSEC
  0
SECTION
  2
ENTITIES
  0
LINE
  8
0
 10
-25
 11
-25
 20
-13
 21
13
  0
LINE
  8
0
 10
-25
 11
22.5
 20
13
 21
13
  0
LINE
  8
0
 10
22.5
 11
22.5
 20
13
 21
-13
  0
LINE
  8
0
 10
22.5
 11
-25
 20
-13
 21
-13
  0
LINE
  8
0
 10
-22.5
 11
-22.5
 20
-11
 21
11
  0
LINE
  8
0
 10
-22.5
 11
-9.5
 20
11
 21
11
  0
LINE
  8
0
 10
-9.5
 11
-9.5
 20
11
 21
-11
  0
LINE
  8
0
 10
-9.5
 11
-22.5
 20
-11
 21
-11
  0
LINE
  8
0
 10
14
 11
14
 20
-10
 21
10
  0
LINE
  8
0
 10
14
 11
14.004
 20
10
 21
10.126
  0
LINE
  8
0
 10
14.004
 11
14.016
 20
10.126
 21
10.251
  0
LINE
  8
0
 10
14.016
 11
14.035
 20
10.251
 21
10.375
  0
LINE
  8
0
 10
14.035
 11
14.063
 20
10.375
 21
10.497
  0
LINE
  8
0
 10
14.063
 11
14.098
 20
10.497
 21
10.618
  0
LINE
  8
0
 10
14.098
 11
14.14
 20
10.618
 21
10.736
  0
LINE
  8
0
 10
14.14
 11
14.19
 20
10.736
 21
10.852
  0
LINE
  8
0
 10
14.19
 11
14.247
 20
10.852
 21
10.964
  0
LINE
  8
0
 10
14.247
 11
14.311
 20
10.964
 21
11.072
  0
LINE
  8
0
 10
14.311
 11
14.382
 20
11.072
 21
11.176
  0
LINE
  8
0
 10
14.382
 11
14.459
 20
11.176
 21
11.275
  0
LINE
  8
0
 10
14.459
 11
14.542
 20
11.275
 21
11.369
  0
LINE
  8
0
 10
14.542
 11
14.631
 20
11.369
 21
11.458
  0
LINE
  8
0
 10
14.631
 11
14.725
 20
11.458
 21
11.541
  0
LINE
  8
0
 10
14.725
 11
14.824
 20
11.541
 21
11.618
  0
LINE
  8
0
 10
14.824
 11
14.928
 20
11.618
 21
11.689
  0
LINE
  8
0
 10
14.928
 11
15.036
 20
11.689
 21
11.753
  0
LINE
  8
0
 10
15.036
 11
15.148
 20
11.753
 21
11.81
  0
LINE
  8
0
 10
15.148
 11
15.264
 20
11.81
 21
11.86
  0
LINE
  8
0
 10
15.264
 11
15.382
 20
11.86
 21
11.902
  0
LINE
  8
0
 10
15.382
 11
15.503
 20
11.902
 21
11.937
  0
LINE
  8
0
 10
15.503
 11
15.625
 20
11.937
 21
11.965
  0
LINE
  8
0
 10
15.625
 11
15.749
 20
11.965
 21
11.984
  0
LINE
  8
0
 10
15.749
 11
15.874
 20
11.984
 21
11.996
  0
LINE
  8
0
 10
15.874
 11
16
 20
11.996
 21
12
  0
LINE
  8
0
 10
16
 11
16.126
 20
12
 21
11.996
  0
LINE
  8
0
 10
16.126
 11
16.251
 20
11.996
 21
11.984
  0
LINE
  8
0
 10
16.251
 11
16.375
 20
11.984
 21
11.965
  0
LINE
  8
0
 10
16.375
 11
16.497
 20
11.965
 21
11.937
  0
LINE
  8
0
 10
16.497
 11
16.618
 20
11.937
 21
11.902
  0
LINE
  8
0
 10
16.618
 11
16.736
 20
11.902
 21
11.86
  0
LINE
  8
0
 10
16.736
 11
16.852
 20
11.86
 21
11.81
  0
LINE
  8
0
 10
16.852
 11
16.964
 20
11.81
 21
11.753
  0
LINE
  8
0
 10
16.964
 11
17.072
 20
11.753
 21
11.689
  0
LINE
  8
0
 10
17.072
 11
17.176
 20
11.689
 21
11.618
  0
LINE
  8
0
 10
17.176
 11
17.275
 20
11.618
 21
11.541
  0
LINE
  8
0
 10
17.275
 11
17.369
 20
11.541
 21
11.458
  0
LINE
  8
0
 10
17.369
 11
17.458
 20
11.458
 21
11.369
  0
LINE
  8
0
 10
17.458
 11
17.541
 20
11.369
 21
11.275
  0
LINE
  8
0
 10
17.541
 11
17.618
 20
11.275
 21
11.176
  0
LINE
  8
0
 10
17.618
 11
17.689
 20
11.176
 21
11.072
  0
LINE
  8
0
 10
17.689
 11
17.753
 20
11.072
 21
10.964
  0
LINE
  8
0
 10
17.753
 11
17.81
 20
10.964
 21
10.852
  0
LINE
  8
0
 10
17.81
 11
17.86
 20
10.852
 21
10.736
  0
LINE
  8
0
 10
17.86
 11
17.902
 20
10.736
 21
10.618
  0
LINE
  8
0
 10
17.902
 11
17.937
 20
10.618
 21
10.497
  0
LINE
  8
0
 10
17.937
 11
17.965
 20
10.497
 21
10.375
  0
LINE
  8
0
 10
17.965
 11
17.984
 20
10.375
 21
10.251
  0
LINE
  8
0
 10
17.984
 11
17.996
 20
10.251
 21
10.126
  0
LINE
  8
0
 10
17.996
 11
18
 20
10.126
 21
10
  0
LINE
  8
0
 10
18
 11
18
 20
10
 21
-10
  0
LINE
  8
0
 10
18
 11
17.996
 20
-10
 21
-10.126
  0
LINE
  8
0
 10
17.996
 11
17.984
 20
-10.126
 21
-10.251
  0
LINE
  8
0
 10
17.984
 11
17.965
 20
-10.251
 21
-10.375
  0
LINE
  8
0
 10
17.965
 11
17.937
 20
-10.375
 21
-10.497
  0
LINE
  8
0
 10
17.937
 11
17.902
 20
-10.497
 21
-10.618
  0
LINE
  8
0
 10
17.902
 11
17.86
 20
-10.618
 21
-10.736
  0
LINE
  8
0
 10
17.86
 11
17.81
 20
-10.736
 21
-10.852
  0
LINE
  8
0
 10
17.81
 11
17.753
 20
-10.852
 21
-10.964
  0
LINE
  8
0
 10
17.753
 11
17.689
 20
-10.964
 21
-11.072
  0
LINE
  8
0
 10
17.689
 11
17.618
 20
-11.072
 21
-11.176
  0
LINE
  8
0
 10
17.618
 11
17.541
 20
-11.176
 21
-11.275
  0
LINE
  8
0
 10
17.541
 11
17.458
 20
-11.275
 21
-11.369
  0
LINE
  8
0
 10
17.458
 11
17.369
 20
-11.369
 21
-11.458
  0
LINE
  8
0
 10
17.369
 11
17.275
 20
-11.458
 21
-11.541
  0
LINE
  8
0
 10
17.275
 11
17.176
 20
-11.541
 21
-11.618
  0
LINE
  8
0
 10
17.176
 11
17.072
 20
-11.618
 21
-11.689
  0
LINE
  8
0
 10
17.072
 11
16.964
 20
-11.689
 21
-11.753
  0
LINE
  8
0
 10
16.964
 11
16.852
 20
-11.753
 21
-11.81
  0
LINE
  8
0
 10
16.852
 11
16.736
 20
-11.81
 21
-11.86
  0
LINE
  8
0
 10
16.736
 11
16.618
 20
-11.86
 21
-11.902
  0
LINE
  8
0
 10
16.618
 11
16.497
 20
-11.902
 21
-11.937
  0
LINE
  8
0
 10
16.497
 11
16.375
 20
-11.937
 21
-11.965
  0
LINE
  8
0
 10
16.375
 11
16.251
 20
-11.965
 21
-11.984
  0
LINE
  8
0
 10
16.251
 11
16.126
 20
-11.984
 21
-11.996
  0
LINE
  8
0
 10
16.126
 11
16
 20
-11.996
 21
-12
  0
LINE
  8
0
 10
16
 11
15.874
 20
-12
 21
-11.996
  0
LINE
  8
0
 10
15.874
 11
15.749
 20
-11.996
 21
-11.984
  0
LINE
  8
0
 10
15.749
 11
15.625
 20
-11.984
 21
-11.965
  0
LINE
  8
0
 10
15.625
 11
15.503
 20
-11.965
 21
-11.937
  0
LINE
  8
0
 10
15.503
 11
15.382
 20
-11.937
 21
-11.902
  0
LINE
  8
0
 10
15.382
 11
15.264
 20
-11.902
 21
-11.86
  0
LINE
  8
0
 10
15.264
 11
15.148
 20
-11.86
 21
-11.81
  0
LINE
  8
0
 10
15.148
 11
15.036
 20
-11.81
 21
-11.753
  0
LINE
  8
0
 10
15.036
 11
14.928
 20
-11.753
 21
-11.689
  0
LINE
  8
0
 10
14.928
 11
14.824
 20
-11.689
 21
-11.618
  0
LINE
  8
0
 10
14.824
 11
14.725
 20
-11.618
 21
-11.541
  0
LINE
  8
0
 10
14.725
 11
14.631
 20
-11.541
 21
-11.458
  0
LINE
  8
0
 10
14.631
 11
14.542
 20
-11.458
 21
-11.369
  0
LINE
  8
0
 10
14.542
 11
14.459
 20
-11.369
 21
-11.275
  0
LINE
  8
0
 10
14.459
 11
14.382
 20
-11.275
 21
-11.176
  0
LINE
  8
0
 10
14.382
 11
14.311
 20
-11.176
 21
-11.072
  0
LINE
  8
0
 10
14.311
 11
14.247
 20
-11.072
 21
-10.964
  0
LINE
  8
0
 10
14.247
 11
14.19
 20
-10.964
 21
-10.852
  0
LINE
  8
0
 10
14.19
 11
14.14
 20
-10.852
 21
-10.736
  0
LINE
  8
0
 10
14.14
 11
14.098
 20
-10.736
 21
-10.618
  0
LINE
  8
0
 10
14.098
 11
14.063
 20
-10.618
 21
-10.497
  0
LINE
  8
0
 10
14.063
 11
14.035
 20
-10.497
 21
-10.375
  0
LINE
  8
0
 10
14.035
 11
14.016
 20
-10.375
 21
-10.251
  0
LINE
  8
0
 10
14.016
 11
14.004
 20
-10.251
 21
-10.126
  0
LINE
  8
0
 10
14.004
 11
14
 20
-10.126
 21
-10
  0
ENDSEC
  0
SECTION
  2
OBJECTS
  0
DICTIONARY
  0
ENDSEC
  0
EOF
