  0
SECTION
  2
BLOCKS
  0
ENDSEC
  0
SECTION
  2
ENTITIES
  0
LINE
  8
0
 10
-21
 11
-21
 20
-13.5
 21
13.5
  0
LINE
  8
0
 10
-21
 11
-15.5
 20
13.5
 21
13.5
  0
LINE
  8
0
 10
-15.5
 11
-15.5
 20
13.5
 21
16.5
  0
LINE
  8
0
 10
-15.5
 11
9.5
 20
16.5
 21
16.5
  0
LINE
  8
0
 10
9.5
 11
9.5
 20
16.5
 21
13.5
  0
LINE
  8
0
 10
9.5
 11
15
 20
13.5
 21
13.5
  0
LINE
  8
0
 10
15
 11
15
 20
13.5
 21
-13.5
  0
LINE
  8
0
 10
15
 11
9.5
 20
-13.5
 21
-13.5
  0
LINE
  8
0
 10
9.5
 11
9.5
 20
-13.5
 21
-16.5
  0
LINE
  8
0
 10
9.5
 11
-15.5
 20
-16.5
 21
-16.5
  0
LINE
  8
0
 10
-15.5
 11
-15.5
 20
-16.5
 21
-13.5
  0
LINE
  8
0
 10
-15.5
 11
-21
 20
-13.5
 21
-13.5
  0
LINE
  8
0
 10
-18.5
 11
-18.5
 20
-10
 21
10
  0
LINE
  8
0
 10
-18.5
 11
-18.497
 20
10
 21
10.094
  0
LINE
  8
0
 10
-18.497
 11
-18.488
 20
10.094
 21
10.188
  0
LINE
  8
0
 10
-18.488
 11
-18.473
 20
10.188
 21
10.281
  0
LINE
  8
0
 10
-18.473
 11
-18.453
 20
10.281
 21
10.373
  0
LINE
  8
0
 10
-18.453
 11
-18.427
 20
10.373
 21
10.464
  0
LINE
  8
0
 10
-18.427
 11
-18.395
 20
10.464
 21
10.552
  0
LINE
  8
0
 10
-18.395
 11
-18.357
 20
10.552
 21
10.639
  0
LINE
  8
0
 10
-18.357
 11
-18.314
 20
10.639
 21
10.723
  0
LINE
  8
0
 10
-18.314
 11
-18.266
 20
10.723
 21
10.804
  0
LINE
  8
0
 10
-18.266
 11
-18.214
 20
10.804
 21
10.882
  0
LINE
  8
0
 10
-18.214
 11
-18.156
 20
10.882
 21
10.956
  0
LINE
  8
0
 10
-18.156
 11
-18.093
 20
10.956
 21
11.027
  0
LINE
  8
0
 10
-18.093
 11
-18.027
 20
11.027
 21
11.093
  0
LINE
  8
0
 10
-18.027
 11
-17.956
 20
11.093
 21
11.156
  0
LINE
  8
0
 10
-17.956
 11
-17.882
 20
11.156
 21
11.214
  0
LINE
  8
0
 10
-17.882
 11
-17.804
 20
11.214
 21
11.266
  0
LINE
  8
0
 10
-17.804
 11
-17.723
 20
11.266
 21
11.314
  0
LINE
  8
0
 10
-17.723
 11
-17.639
 20
11.314
 21
11.357
  0
LINE
  8
0
 10
-17.639
 11
-17.552
 20
11.357
 21
11.395
  0
LINE
  8
0
 10
-17.552
 11
-17.464
 20
11.395
 21
11.427
  0
LINE
  8
0
 10
-17.464
 11
-17.373
 20
11.427
 21
11.453
  0
LINE
  8
0
 10
-17.373
 11
-17.281
 20
11.453
 21
11.473
  0
LINE
  8
0
 10
-17.281
 11
-17.188
 20
11.473
 21
11.488
  0
LINE
  8
0
 10
-17.188
 11
-17.094
 20
11.488
 21
11.497
  0
LINE
  8
0
 10
-17.094
 11
-17
 20
11.497
 21
11.5
  0
LINE
  8
0
 10
-17
 11
-16.906
 20
11.5
 21
11.497
  0
LINE
  8
0
 10
-16.906
 11
-16.812
 20
11.497
 21
11.488
  0
LINE
  8
0
 10
-16.812
 11
-16.719
 20
11.488
 21
11.473
  0
LINE
  8
0
 10
-16.719
 11
-16.627
 20
11.473
 21
11.453
  0
LINE
  8
0
 10
-16.627
 11
-16.536
 20
11.453
 21
11.427
  0
LINE
  8
0
 10
-16.536
 11
-16.448
 20
11.427
 21
11.395
  0
LINE
  8
0
 10
-16.448
 11
-16.361
 20
11.395
 21
11.357
  0
LINE
  8
0
 10
-16.361
 11
-16.277
 20
11.357
 21
11.314
  0
LINE
  8
0
 10
-16.277
 11
-16.196
 20
11.314
 21
11.266
  0
LINE
  8
0
 10
-16.196
 11
-16.118
 20
11.266
 21
11.214
  0
LINE
  8
0
 10
-16.118
 11
-16.044
 20
11.214
 21
11.156
  0
LINE
  8
0
 10
-16.044
 11
-15.973
 20
11.156
 21
11.093
  0
LINE
  8
0
 10
-15.973
 11
-15.907
 20
11.093
 21
11.027
  0
LINE
  8
0
 10
-15.907
 11
-15.844
 20
11.027
 21
10.956
  0
LINE
  8
0
 10
-15.844
 11
-15.786
 20
10.956
 21
10.882
  0
LINE
  8
0
 10
-15.786
 11
-15.734
 20
10.882
 21
10.804
  0
LINE
  8
0
 10
-15.734
 11
-15.686
 20
10.804
 21
10.723
  0
LINE
  8
0
 10
-15.686
 11
-15.643
 20
10.723
 21
10.639
  0
LINE
  8
0
 10
-15.643
 11
-15.605
 20
10.639
 21
10.552
  0
LINE
  8
0
 10
-15.605
 11
-15.573
 20
10.552
 21
10.464
  0
LINE
  8
0
 10
-15.573
 11
-15.547
 20
10.464
 21
10.373
  0
LINE
  8
0
 10
-15.547
 11
-15.527
 20
10.373
 21
10.281
  0
LINE
  8
0
 10
-15.527
 11
-15.512
 20
10.281
 21
10.188
  0
LINE
  8
0
 10
-15.512
 11
-15.503
 20
10.188
 21
10.094
  0
LINE
  8
0
 10
-15.503
 11
-15.5
 20
10.094
 21
10
  0
LINE
  8
0
 10
-15.5
 11
-15.5
 20
10
 21
-10
  0
LINE
  8
0
 10
-15.5
 11
-15.503
 20
-10
 21
-10.094
  0
LINE
  8
0
 10
-15.503
 11
-15.512
 20
-10.094
 21
-10.188
  0
LINE
  8
0
 10
-15.512
 11
-15.527
 20
-10.188
 21
-10.281
  0
LINE
  8
0
 10
-15.527
 11
-15.547
 20
-10.281
 21
-10.373
  0
LINE
  8
0
 10
-15.547
 11
-15.573
 20
-10.373
 21
-10.464
  0
LINE
  8
0
 10
-15.573
 11
-15.605
 20
-10.464
 21
-10.552
  0
LINE
  8
0
 10
-15.605
 11
-15.643
 20
-10.552
 21
-10.639
  0
LINE
  8
0
 10
-15.643
 11
-15.686
 20
-10.639
 21
-10.723
  0
LINE
  8
0
 10
-15.686
 11
-15.734
 20
-10.723
 21
-10.804
  0
LINE
  8
0
 10
-15.734
 11
-15.786
 20
-10.804
 21
-10.882
  0
LINE
  8
0
 10
-15.786
 11
-15.844
 20
-10.882
 21
-10.956
  0
LINE
  8
0
 10
-15.844
 11
-15.907
 20
-10.956
 21
-11.027
  0
LINE
  8
0
 10
-15.907
 11
-15.973
 20
-11.027
 21
-11.093
  0
LINE
  8
0
 10
-15.973
 11
-16.044
 20
-11.093
 21
-11.156
  0
LINE
  8
0
 10
-16.044
 11
-16.118
 20
-11.156
 21
-11.214
  0
LINE
  8
0
 10
-16.118
 11
-16.196
 20
-11.214
 21
-11.266
  0
LINE
  8
0
 10
-16.196
 11
-16.277
 20
-11.266
 21
-11.314
  0
LINE
  8
0
 10
-16.277
 11
-16.361
 20
-11.314
 21
-11.357
  0
LINE
  8
0
 10
-16.361
 11
-16.448
 20
-11.357
 21
-11.395
  0
LINE
  8
0
 10
-16.448
 11
-16.536
 20
-11.395
 21
-11.427
  0
LINE
  8
0
 10
-16.536
 11
-16.627
 20
-11.427
 21
-11.453
  0
LINE
  8
0
 10
-16.627
 11
-16.719
 20
-11.453
 21
-11.473
  0
LINE
  8
0
 10
-16.719
 11
-16.812
 20
-11.473
 21
-11.488
  0
LINE
  8
0
 10
-16.812
 11
-16.906
 20
-11.488
 21
-11.497
  0
LINE
  8
0
 10
-16.906
 11
-17
 20
-11.497
 21
-11.5
  0
LINE
  8
0
 10
-17
 11
-17.094
 20
-11.5
 21
-11.497
  0
LINE
  8
0
 10
-17.094
 11
-17.188
 20
-11.497
 21
-11.488
  0
LINE
  8
0
 10
-17.188
 11
-17.281
 20
-11.488
 21
-11.473
  0
LINE
  8
0
 10
-17.281
 11
-17.373
 20
-11.473
 21
-11.453
  0
LINE
  8
0
 10
-17.373
 11
-17.464
 20
-11.453
 21
-11.427
  0
LINE
  8
0
 10
-17.464
 11
-17.552
 20
-11.427
 21
-11.395
  0
LINE
  8
0
 10
-17.552
 11
-17.639
 20
-11.395
 21
-11.357
  0
LINE
  8
0
 10
-17.639
 11
-17.723
 20
-11.357
 21
-11.314
  0
LINE
  8
0
 10
-17.723
 11
-17.804
 20
-11.314
 21
-11.266
  0
LINE
  8
0
 10
-17.804
 11
-17.882
 20
-11.266
 21
-11.214
  0
LINE
  8
0
 10
-17.882
 11
-17.956
 20
-11.214
 21
-11.156
  0
LINE
  8
0
 10
-17.956
 11
-18.027
 20
-11.156
 21
-11.093
  0
LINE
  8
0
 10
-18.027
 11
-18.093
 20
-11.093
 21
-11.027
  0
LINE
  8
0
 10
-18.093
 11
-18.156
 20
-11.027
 21
-10.956
  0
LINE
  8
0
 10
-18.156
 11
-18.214
 20
-10.956
 21
-10.882
  0
LINE
  8
0
 10
-18.214
 11
-18.266
 20
-10.882
 21
-10.804
  0
LINE
  8
0
 10
-18.266
 11
-18.314
 20
-10.804
 21
-10.723
  0
LINE
  8
0
 10
-18.314
 11
-18.357
 20
-10.723
 21
-10.639
  0
LINE
  8
0
 10
-18.357
 11
-18.395
 20
-10.639
 21
-10.552
  0
LINE
  8
0
 10
-18.395
 11
-18.427
 20
-10.552
 21
-10.464
  0
LINE
  8
0
 10
-18.427
 11
-18.453
 20
-10.464
 21
-10.373
  0
LINE
  8
0
 10
-18.453
 11
-18.473
 20
-10.373
 21
-10.281
  0
LINE
  8
0
 10
-18.473
 11
-18.488
 20
-10.281
 21
-10.188
  0
LINE
  8
0
 10
-18.488
 11
-18.497
 20
-10.188
 21
-10.094
  0
LINE
  8
0
 10
-18.497
 11
-18.5
 20
-10.094
 21
-10
  0
LINE
  8
0
 10
-14
 11
-14
 20
-11
 21
11
  0
LINE
  8
0
 10
-14
 11
-13.996
 20
11
 21
11.126
  0
LINE
  8
0
 10
-13.996
 11
-13.984
 20
11.126
 21
11.251
  0
LINE
  8
0
 10
-13.984
 11
-13.965
 20
11.251
 21
11.375
  0
LINE
  8
0
 10
-13.965
 11
-13.937
 20
11.375
 21
11.497
  0
LINE
  8
0
 10
-13.937
 11
-13.902
 20
11.497
 21
11.618
  0
LINE
  8
0
 10
-13.902
 11
-13.86
 20
11.618
 21
11.736
  0
LINE
  8
0
 10
-13.86
 11
-13.81
 20
11.736
 21
11.852
  0
LINE
  8
0
 10
-13.81
 11
-13.753
 20
11.852
 21
11.964
  0
LINE
  8
0
 10
-13.753
 11
-13.689
 20
11.964
 21
12.072
  0
LINE
  8
0
 10
-13.689
 11
-13.618
 20
12.072
 21
12.176
  0
LINE
  8
0
 10
-13.618
 11
-13.541
 20
12.176
 21
12.275
  0
LINE
  8
0
 10
-13.541
 11
-13.458
 20
12.275
 21
12.369
  0
LINE
  8
0
 10
-13.458
 11
-13.369
 20
12.369
 21
12.458
  0
LINE
  8
0
 10
-13.369
 11
-13.275
 20
12.458
 21
12.541
  0
LINE
  8
0
 10
-13.275
 11
-13.176
 20
12.541
 21
12.618
  0
LINE
  8
0
 10
-13.176
 11
-13.072
 20
12.618
 21
12.689
  0
LINE
  8
0
 10
-13.072
 11
-12.964
 20
12.689
 21
12.753
  0
LINE
  8
0
 10
-12.964
 11
-12.852
 20
12.753
 21
12.81
  0
LINE
  8
0
 10
-12.852
 11
-12.736
 20
12.81
 21
12.86
  0
LINE
  8
0
 10
-12.736
 11
-12.618
 20
12.86
 21
12.902
  0
LINE
  8
0
 10
-12.618
 11
-12.497
 20
12.902
 21
12.937
  0
LINE
  8
0
 10
-12.497
 11
-12.375
 20
12.937
 21
12.965
  0
LINE
  8
0
 10
-12.375
 11
-12.251
 20
12.965
 21
12.984
  0
LINE
  8
0
 10
-12.251
 11
-12.126
 20
12.984
 21
12.996
  0
LINE
  8
0
 10
-12.126
 11
-12
 20
12.996
 21
13
  0
LINE
  8
0
 10
-12
 11
6
 20
13
 21
13
  0
LINE
  8
0
 10
6
 11
6.126
 20
13
 21
12.996
  0
LINE
  8
0
 10
6.126
 11
6.251
 20
12.996
 21
12.984
  0
LINE
  8
0
 10
6.251
 11
6.375
 20
12.984
 21
12.965
  0
LINE
  8
0
 10
6.375
 11
6.497
 20
12.965
 21
12.937
  0
LINE
  8
0
 10
6.497
 11
6.618
 20
12.937
 21
12.902
  0
LINE
  8
0
 10
6.618
 11
6.736
 20
12.902
 21
12.86
  0
LINE
  8
0
 10
6.736
 11
6.852
 20
12.86
 21
12.81
  0
LINE
  8
0
 10
6.852
 11
6.964
 20
12.81
 21
12.753
  0
LINE
  8
0
 10
6.964
 11
7.072
 20
12.753
 21
12.689
  0
LINE
  8
0
 10
7.072
 11
7.176
 20
12.689
 21
12.618
  0
LINE
  8
0
 10
7.176
 11
7.275
 20
12.618
 21
12.541
  0
LINE
  8
0
 10
7.275
 11
7.369
 20
12.541
 21
12.458
  0
LINE
  8
0
 10
7.369
 11
7.458
 20
12.458
 21
12.369
  0
LINE
  8
0
 10
7.458
 11
7.541
 20
12.369
 21
12.275
  0
LINE
  8
0
 10
7.541
 11
7.618
 20
12.275
 21
12.176
  0
LINE
  8
0
 10
7.618
 11
7.689
 20
12.176
 21
12.072
  0
LINE
  8
0
 10
7.689
 11
7.753
 20
12.072
 21
11.964
  0
LINE
  8
0
 10
7.753
 11
7.81
 20
11.964
 21
11.852
  0
LINE
  8
0
 10
7.81
 11
7.86
 20
11.852
 21
11.736
  0
LINE
  8
0
 10
7.86
 11
7.902
 20
11.736
 21
11.618
  0
LINE
  8
0
 10
7.902
 11
7.937
 20
11.618
 21
11.497
  0
LINE
  8
0
 10
7.937
 11
7.965
 20
11.497
 21
11.375
  0
LINE
  8
0
 10
7.965
 11
7.984
 20
11.375
 21
11.251
  0
LINE
  8
0
 10
7.984
 11
7.996
 20
11.251
 21
11.126
  0
LINE
  8
0
 10
7.996
 11
8
 20
11.126
 21
11
  0
LINE
  8
0
 10
8
 11
8
 20
11
 21
-11
  0
LINE
  8
0
 10
8
 11
7.996
 20
-11
 21
-11.126
  0
LINE
  8
0
 10
7.996
 11
7.984
 20
-11.126
 21
-11.251
  0
LINE
  8
0
 10
7.984
 11
7.965
 20
-11.251
 21
-11.375
  0
LINE
  8
0
 10
7.965
 11
7.937
 20
-11.375
 21
-11.497
  0
LINE
  8
0
 10
7.937
 11
7.902
 20
-11.497
 21
-11.618
  0
LINE
  8
0
 10
7.902
 11
7.86
 20
-11.618
 21
-11.736
  0
LINE
  8
0
 10
7.86
 11
7.81
 20
-11.736
 21
-11.852
  0
LINE
  8
0
 10
7.81
 11
7.753
 20
-11.852
 21
-11.964
  0
LINE
  8
0
 10
7.753
 11
7.689
 20
-11.964
 21
-12.072
  0
LINE
  8
0
 10
7.689
 11
7.618
 20
-12.072
 21
-12.176
  0
LINE
  8
0
 10
7.618
 11
7.541
 20
-12.176
 21
-12.275
  0
LINE
  8
0
 10
7.541
 11
7.458
 20
-12.275
 21
-12.369
  0
LINE
  8
0
 10
7.458
 11
7.369
 20
-12.369
 21
-12.458
  0
LINE
  8
0
 10
7.369
 11
7.275
 20
-12.458
 21
-12.541
  0
LINE
  8
0
 10
7.275
 11
7.176
 20
-12.541
 21
-12.618
  0
LINE
  8
0
 10
7.176
 11
7.072
 20
-12.618
 21
-12.689
  0
LINE
  8
0
 10
7.072
 11
6.964
 20
-12.689
 21
-12.753
  0
LINE
  8
0
 10
6.964
 11
6.852
 20
-12.753
 21
-12.81
  0
LINE
  8
0
 10
6.852
 11
6.736
 20
-12.81
 21
-12.86
  0
LINE
  8
0
 10
6.736
 11
6.618
 20
-12.86
 21
-12.902
  0
LINE
  8
0
 10
6.618
 11
6.497
 20
-12.902
 21
-12.937
  0
LINE
  8
0
 10
6.497
 11
6.375
 20
-12.937
 21
-12.965
  0
LINE
  8
0
 10
6.375
 11
6.251
 20
-12.965
 21
-12.984
  0
LINE
  8
0
 10
6.251
 11
6.126
 20
-12.984
 21
-12.996
  0
LINE
  8
0
 10
6.126
 11
6
 20
-12.996
 21
-13
  0
LINE
  8
0
 10
6
 11
-12
 20
-13
 21
-13
  0
LINE
  8
0
 10
-12
 11
-12.126
 20
-13
 21
-12.996
  0
LINE
  8
0
 10
-12.126
 11
-12.251
 20
-12.996
 21
-12.984
  0
LINE
  8
0
 10
-12.251
 11
-12.375
 20
-12.984
 21
-12.965
  0
LINE
  8
0
 10
-12.375
 11
-12.497
 20
-12.965
 21
-12.937
  0
LINE
  8
0
 10
-12.497
 11
-12.618
 20
-12.937
 21
-12.902
  0
LINE
  8
0
 10
-12.618
 11
-12.736
 20
-12.902
 21
-12.86
  0
LINE
  8
0
 10
-12.736
 11
-12.852
 20
-12.86
 21
-12.81
  0
LINE
  8
0
 10
-12.852
 11
-12.964
 20
-12.81
 21
-12.753
  0
LINE
  8
0
 10
-12.964
 11
-13.072
 20
-12.753
 21
-12.689
  0
LINE
  8
0
 10
-13.072
 11
-13.176
 20
-12.689
 21
-12.618
  0
LINE
  8
0
 10
-13.176
 11
-13.275
 20
-12.618
 21
-12.541
  0
LINE
  8
0
 10
-13.275
 11
-13.369
 20
-12.541
 21
-12.458
  0
LINE
  8
0
 10
-13.369
 11
-13.458
 20
-12.458
 21
-12.369
  0
LINE
  8
0
 10
-13.458
 11
-13.541
 20
-12.369
 21
-12.275
  0
LINE
  8
0
 10
-13.541
 11
-13.618
 20
-12.275
 21
-12.176
  0
LINE
  8
0
 10
-13.618
 11
-13.689
 20
-12.176
 21
-12.072
  0
LINE
  8
0
 10
-13.689
 11
-13.753
 20
-12.072
 21
-11.964
  0
LINE
  8
0
 10
-13.753
 11
-13.81
 20
-11.964
 21
-11.852
  0
LINE
  8
0
 10
-13.81
 11
-13.86
 20
-11.852
 21
-11.736
  0
LINE
  8
0
 10
-13.86
 11
-13.902
 20
-11.736
 21
-11.618
  0
LINE
  8
0
 10
-13.902
 11
-13.937
 20
-11.618
 21
-11.497
  0
LINE
  8
0
 10
-13.937
 11
-13.965
 20
-11.497
 21
-11.375
  0
LINE
  8
0
 10
-13.965
 11
-13.984
 20
-11.375
 21
-11.251
  0
LINE
  8
0
 10
-13.984
 11
-13.996
 20
-11.251
 21
-11.126
  0
LINE
  8
0
 10
-13.996
 11
-14
 20
-11.126
 21
-11
  0
LINE
  8
0
 10
9.5
 11
9.5
 20
-10
 21
10
  0
LINE
  8
0
 10
9.5
 11
9.503
 20
10
 21
10.094
  0
LINE
  8
0
 10
9.503
 11
9.512
 20
10.094
 21
10.188
  0
LINE
  8
0
 10
9.512
 11
9.527
 20
10.188
 21
10.281
  0
LINE
  8
0
 10
9.527
 11
9.547
 20
10.281
 21
10.373
  0
LINE
  8
0
 10
9.547
 11
9.573
 20
10.373
 21
10.464
  0
LINE
  8
0
 10
9.573
 11
9.605
 20
10.464
 21
10.552
  0
LINE
  8
0
 10
9.605
 11
9.643
 20
10.552
 21
10.639
  0
LINE
  8
0
 10
9.643
 11
9.686
 20
10.639
 21
10.723
  0
LINE
  8
0
 10
9.686
 11
9.734
 20
10.723
 21
10.804
  0
LINE
  8
0
 10
9.734
 11
9.786
 20
10.804
 21
10.882
  0
LINE
  8
0
 10
9.786
 11
9.844
 20
10.882
 21
10.956
  0
LINE
  8
0
 10
9.844
 11
9.907
 20
10.956
 21
11.027
  0
LINE
  8
0
 10
9.907
 11
9.973
 20
11.027
 21
11.093
  0
LINE
  8
0
 10
9.973
 11
10.044
 20
11.093
 21
11.156
  0
LINE
  8
0
 10
10.044
 11
10.118
 20
11.156
 21
11.214
  0
LINE
  8
0
 10
10.118
 11
10.196
 20
11.214
 21
11.266
  0
LINE
  8
0
 10
10.196
 11
10.277
 20
11.266
 21
11.314
  0
LINE
  8
0
 10
10.277
 11
10.361
 20
11.314
 21
11.357
  0
LINE
  8
0
 10
10.361
 11
10.448
 20
11.357
 21
11.395
  0
LINE
  8
0
 10
10.448
 11
10.536
 20
11.395
 21
11.427
  0
LINE
  8
0
 10
10.536
 11
10.627
 20
11.427
 21
11.453
  0
LINE
  8
0
 10
10.627
 11
10.719
 20
11.453
 21
11.473
  0
LINE
  8
0
 10
10.719
 11
10.812
 20
11.473
 21
11.488
  0
LINE
  8
0
 10
10.812
 11
10.906
 20
11.488
 21
11.497
  0
LINE
  8
0
 10
10.906
 11
11
 20
11.497
 21
11.5
  0
LINE
  8
0
 10
11
 11
11.094
 20
11.5
 21
11.497
  0
LINE
  8
0
 10
11.094
 11
11.188
 20
11.497
 21
11.488
  0
LINE
  8
0
 10
11.188
 11
11.281
 20
11.488
 21
11.473
  0
LINE
  8
0
 10
11.281
 11
11.373
 20
11.473
 21
11.453
  0
LINE
  8
0
 10
11.373
 11
11.464
 20
11.453
 21
11.427
  0
LINE
  8
0
 10
11.464
 11
11.552
 20
11.427
 21
11.395
  0
LINE
  8
0
 10
11.552
 11
11.639
 20
11.395
 21
11.357
  0
LINE
  8
0
 10
11.639
 11
11.723
 20
11.357
 21
11.314
  0
LINE
  8
0
 10
11.723
 11
11.804
 20
11.314
 21
11.266
  0
LINE
  8
0
 10
11.804
 11
11.882
 20
11.266
 21
11.214
  0
LINE
  8
0
 10
11.882
 11
11.956
 20
11.214
 21
11.156
  0
LINE
  8
0
 10
11.956
 11
12.027
 20
11.156
 21
11.093
  0
LINE
  8
0
 10
12.027
 11
12.093
 20
11.093
 21
11.027
  0
LINE
  8
0
 10
12.093
 11
12.156
 20
11.027
 21
10.956
  0
LINE
  8
0
 10
12.156
 11
12.214
 20
10.956
 21
10.882
  0
LINE
  8
0
 10
12.214
 11
12.266
 20
10.882
 21
10.804
  0
LINE
  8
0
 10
12.266
 11
12.314
 20
10.804
 21
10.723
  0
LINE
  8
0
 10
12.314
 11
12.357
 20
10.723
 21
10.639
  0
LINE
  8
0
 10
12.357
 11
12.395
 20
10.639
 21
10.552
  0
LINE
  8
0
 10
12.395
 11
12.427
 20
10.552
 21
10.464
  0
LINE
  8
0
 10
12.427
 11
12.453
 20
10.464
 21
10.373
  0
LINE
  8
0
 10
12.453
 11
12.473
 20
10.373
 21
10.281
  0
LINE
  8
0
 10
12.473
 11
12.488
 20
10.281
 21
10.188
  0
LINE
  8
0
 10
12.488
 11
12.497
 20
10.188
 21
10.094
  0
LINE
  8
0
 10
12.497
 11
12.5
 20
10.094
 21
10
  0
LINE
  8
0
 10
12.5
 11
12.5
 20
10
 21
-10
  0
LINE
  8
0
 10
12.5
 11
12.497
 20
-10
 21
-10.094
  0
LINE
  8
0
 10
12.497
 11
12.488
 20
-10.094
 21
-10.188
  0
LINE
  8
0
 10
12.488
 11
12.473
 20
-10.188
 21
-10.281
  0
LINE
  8
0
 10
12.473
 11
12.453
 20
-10.281
 21
-10.373
  0
LINE
  8
0
 10
12.453
 11
12.427
 20
-10.373
 21
-10.464
  0
LINE
  8
0
 10
12.427
 11
12.395
 20
-10.464
 21
-10.552
  0
LINE
  8
0
 10
12.395
 11
12.357
 20
-10.552
 21
-10.639
  0
LINE
  8
0
 10
12.357
 11
12.314
 20
-10.639
 21
-10.723
  0
LINE
  8
0
 10
12.314
 11
12.266
 20
-10.723
 21
-10.804
  0
LINE
  8
0
 10
12.266
 11
12.214
 20
-10.804
 21
-10.882
  0
LINE
  8
0
 10
12.214
 11
12.156
 20
-10.882
 21
-10.956
  0
LINE
  8
0
 10
12.156
 11
12.093
 20
-10.956
 21
-11.027
  0
LINE
  8
0
 10
12.093
 11
12.027
 20
-11.027
 21
-11.093
  0
LINE
  8
0
 10
12.027
 11
11.956
 20
-11.093
 21
-11.156
  0
LINE
  8
0
 10
11.956
 11
11.882
 20
-11.156
 21
-11.214
  0
LINE
  8
0
 10
11.882
 11
11.804
 20
-11.214
 21
-11.266
  0
LINE
  8
0
 10
11.804
 11
11.723
 20
-11.266
 21
-11.314
  0
LINE
  8
0
 10
11.723
 11
11.639
 20
-11.314
 21
-11.357
  0
LINE
  8
0
 10
11.639
 11
11.552
 20
-11.357
 21
-11.395
  0
LINE
  8
0
 10
11.552
 11
11.464
 20
-11.395
 21
-11.427
  0
LINE
  8
0
 10
11.464
 11
11.373
 20
-11.427
 21
-11.453
  0
LINE
  8
0
 10
11.373
 11
11.281
 20
-11.453
 21
-11.473
  0
LINE
  8
0
 10
11.281
 11
11.188
 20
-11.473
 21
-11.488
  0
LINE
  8
0
 10
11.188
 11
11.094
 20
-11.488
 21
-11.497
  0
LINE
  8
0
 10
11.094
 11
11
 20
-11.497
 21
-11.5
  0
LINE
  8
0
 10
11
 11
10.906
 20
-11.5
 21
-11.497
  0
LINE
  8
0
 10
10.906
 11
10.812
 20
-11.497
 21
-11.488
  0
LINE
  8
0
 10
10.812
 11
10.719
 20
-11.488
 21
-11.473
  0
LINE
  8
0
 10
10.719
 11
10.627
 20
-11.473
 21
-11.453
  0
LINE
  8
0
 10
10.627
 11
10.536
 20
-11.453
 21
-11.427
  0
LINE
  8
0
 10
10.536
 11
10.448
 20
-11.427
 21
-11.395
  0
LINE
  8
0
 10
10.448
 11
10.361
 20
-11.395
 21
-11.357
  0
LINE
  8
0
 10
10.361
 11
10.277
 20
-11.357
 21
-11.314
  0
LINE
  8
0
 10
10.277
 11
10.196
 20
-11.314
 21
-11.266
  0
LINE
  8
0
 10
10.196
 11
10.118
 20
-11.266
 21
-11.214
  0
LINE
  8
0
 10
10.118
 11
10.044
 20
-11.214
 21
-11.156
  0
LINE
  8
0
 10
10.044
 11
9.973
 20
-11.156
 21
-11.093
  0
LINE
  8
0
 10
9.973
 11
9.907
 20
-11.093
 21
-11.027
  0
LINE
  8
0
 10
9.907
 11
9.844
 20
-11.027
 21
-10.956
  0
LINE
  8
0
 10
9.844
 11
9.786
 20
-10.956
 21
-10.882
  0
LINE
  8
0
 10
9.786
 11
9.734
 20
-10.882
 21
-10.804
  0
LINE
  8
0
 10
9.734
 11
9.686
 20
-10.804
 21
-10.723
  0
LINE
  8
0
 10
9.686
 11
9.643
 20
-10.723
 21
-10.639
  0
LINE
  8
0
 10
9.643
 11
9.605
 20
-10.639
 21
-10.552
  0
LINE
  8
0
 10
9.605
 11
9.573
 20
-10.552
 21
-10.464
  0
LINE
  8
0
 10
9.573
 11
9.547
 20
-10.464
 21
-10.373
  0
LINE
  8
0
 10
9.547
 11
9.527
 20
-10.373
 21
-10.281
  0
LINE
  8
0
 10
9.527
 11
9.512
 20
-10.281
 21
-10.188
  0
LINE
  8
0
 10
9.512
 11
9.503
 20
-10.188
 21
-10.094
  0
LINE
  8
0
 10
9.503
 11
9.5
 20
-10.094
 21
-10
  0
ENDSEC
  0
SECTION
  2
OBJECTS
  0
DICTIONARY
  0
ENDSEC
  0
EOF
