solid OpenSCAD_Model
  facet normal -1 0 0
    outer loop
      vertex -5.5 -10 -3
      vertex -5.5 -10 3
      vertex -5.5 10 -3
    endloop
  endfacet
  facet normal -1 0 0
    outer loop
      vertex -5.5 10 -3
      vertex -5.5 -10 3
      vertex -5.5 10 3
    endloop
  endfacet
  facet normal 0 -1 0
    outer loop
      vertex -5.5 -10 3
      vertex -5.5 -10 -3
      vertex 5.5 -10 -3
    endloop
  endfacet
  facet normal 0 -1 0
    outer loop
      vertex 5.5 -10 3
      vertex -5.5 -10 3
      vertex 5.5 -10 -3
    endloop
  endfacet
  facet normal 0 0 -1
    outer loop
      vertex -5.5 -10 -3
      vertex -5.5 10 -3
      vertex 5.5 -10 -3
    endloop
  endfacet
  facet normal 0 0 -1
    outer loop
      vertex 5.5 -10 -3
      vertex -5.5 10 -3
      vertex 5.5 10 -3
    endloop
  endfacet
  facet normal 0 1 0
    outer loop
      vertex -5.5 10 -3
      vertex -5.5 10 3
      vertex 5.5 10 -3
    endloop
  endfacet
  facet normal 0 1 0
    outer loop
      vertex 5.5 10 -3
      vertex -5.5 10 3
      vertex 5.5 10 3
    endloop
  endfacet
  facet normal 0 0 1
    outer loop
      vertex -4.5 -9 3
      vertex -5.5 -10 3
      vertex 5.5 -10 3
    endloop
  endfacet
  facet normal 0 0 1
    outer loop
      vertex 4.5 -9 3
      vertex -4.5 -9 3
      vertex 5.5 -10 3
    endloop
  endfacet
  facet normal 0 0 1
    outer loop
      vertex -5.5 10 3
      vertex -5.5 -10 3
      vertex -4.5 -9 3
    endloop
  endfacet
  facet normal 0 0 1
    outer loop
      vertex 5.5 10 3
      vertex -5.5 10 3
      vertex -4.5 9 3
    endloop
  endfacet
  facet normal 0 0 1
    outer loop
      vertex 5.5 10 3
      vertex 4.5 9 3
      vertex 5.5 -10 3
    endloop
  endfacet
  facet normal 0 0 1
    outer loop
      vertex 5.5 10 3
      vertex -4.5 9 3
      vertex 4.5 9 3
    endloop
  endfacet
  facet normal 0 0 1
    outer loop
      vertex 4.5 9 3
      vertex 4.5 -9 3
      vertex 5.5 -10 3
    endloop
  endfacet
  facet normal 0 0 1
    outer loop
      vertex -4.5 -9 3
      vertex -4.5 9 3
      vertex -5.5 10 3
    endloop
  endfacet
  facet normal 1 0 0
    outer loop
      vertex 5.5 -10 3
      vertex 5.5 -10 -3
      vertex 5.5 10 -3
    endloop
  endfacet
  facet normal 1 0 0
    outer loop
      vertex 5.5 10 3
      vertex 5.5 -10 3
      vertex 5.5 10 -3
    endloop
  endfacet
  facet normal 1 0 0
    outer loop
      vertex -4.5 9 -2
      vertex -4.5 9 3
      vertex -4.5 -9 3
    endloop
  endfacet
  facet normal 1 0 0
    outer loop
      vertex -4.5 -9 -2
      vertex -4.5 9 -2
      vertex -4.5 -9 3
    endloop
  endfacet
  facet normal 0 1 0
    outer loop
      vertex 4.5 -9 3
      vertex 4.5 -9 -2
      vertex -4.5 -9 3
    endloop
  endfacet
  facet normal 0 1 0
    outer loop
      vertex -4.5 -9 3
      vertex 4.5 -9 -2
      vertex -4.5 -9 -2
    endloop
  endfacet
  facet normal -1 0 0
    outer loop
      vertex 4.5 9 3
      vertex 4.5 9 -2
      vertex 4.5 -9 3
    endloop
  endfacet
  facet normal -1 0 0
    outer loop
      vertex 4.5 -9 3
      vertex 4.5 9 -2
      vertex 4.5 -9 -2
    endloop
  endfacet
  facet normal 0 -1 0
    outer loop
      vertex 4.5 9 -2
      vertex 4.5 9 3
      vertex -4.5 9 3
    endloop
  endfacet
  facet normal 0 -1 0
    outer loop
      vertex -4.5 9 -2
      vertex 4.5 9 -2
      vertex -4.5 9 3
    endloop
  endfacet
  facet normal 0 0 1
    outer loop
      vertex 4.5 -9 -2
      vertex 4.5 9 -2
      vertex -4.5 9 -2
    endloop
  endfacet
  facet normal 0 0 1
    outer loop
      vertex -4.5 -9 -2
      vertex 4.5 -9 -2
      vertex -4.5 9 -2
    endloop
  endfacet
endsolid OpenSCAD_Model
